<?xml version="1.0" encoding="utf-8"?>
<svg width="100%" height="100%" viewBox="-105.0 -105.0 210.0 210.0"
     preserveAspectRatio="xMidYMin meet"
     version="1.1" baseProfile="full" xmlns="http://www.w3.org/2000/svg">

<g style="stroke:#fff; stroke-width: 0.45084971874737145;">
<path fill="#0035f3" opacity="0.6" d="m14.589803375031549,0.0 l-7.294901687515775,5.300056313598284 l-7.2949016875157735,-5.300056313598284 l7.294901687515775,-5.300056313598284z"/>
<path fill="#08f" opacity="0.6" d="m7.2949016875157735,-5.300056313598284 l7.294901687515775,5.300056313598284 l-2.786404500042064,-8.575671257690495 l-7.294901687515775,-5.300056313598284z"/>
<path fill="#08f" opacity="0.6" d="m7.2949016875157735,5.300056313598284 l7.294901687515775,-5.300056313598284 l-2.786404500042064,8.575671257690495 l-7.294901687515775,5.300056313598284z"/>
<path fill="#0035f3" opacity="0.6" d="m23.606797749978973,-17.151342515380993 l-2.7864045000420603,8.575671257690498 l-9.016994374947428,0.0 l2.7864045000420603,-8.575671257690498z"/>
<path fill="#0035f3" opacity="0.6" d="m23.606797749978973,-0.0 l-2.7864045000420603,-8.575671257690495 l-9.016994374947428,0.0 l2.7864045000420603,8.575671257690495z"/>
<path fill="#0035f3" opacity="0.6" d="m23.606797749978973,0.0 l-2.7864045000420603,8.575671257690495 l-9.016994374947428,0.0 l2.7864045000420603,-8.575671257690495z"/>
<path fill="#0035f3" opacity="0.6" d="m23.606797749978973,17.151342515380993 l-2.7864045000420603,-8.575671257690498 l-9.016994374947428,0.0 l2.7864045000420603,8.575671257690498z"/>
<path fill="#08f" opacity="0.6" d="m20.820393249936913,-8.575671257690495 l2.7864045000420603,-8.575671257690498 l2.7864045000420603,8.575671257690498 l-2.7864045000420603,8.575671257690498z"/>
<path fill="#08f" opacity="0.6" d="m20.820393249936913,8.575671257690495 l2.7864045000420603,8.575671257690498 l2.7864045000420603,-8.575671257690498 l-2.7864045000420603,-8.575671257690498z"/>
<path fill="#08f" opacity="0.6" d="m30.901699437494745,-5.300056313598284 l-7.294901687515772,5.300056313598284 l2.7864045000420603,-8.575671257690495 l7.294901687515772,-5.300056313598284z"/>
<path fill="#08f" opacity="0.6" d="m30.901699437494745,5.300056313598284 l-7.294901687515772,-5.300056313598284 l2.7864045000420603,8.575671257690495 l7.294901687515772,5.300056313598284z"/>
<path fill="#0035f3" opacity="0.6" d="m30.90169943749475,-22.451398828979276 l-7.294901687515775,5.300056313598283 l2.7864045000420603,8.575671257690498 l7.294901687515775,-5.300056313598283z"/>
<path fill="#0035f3" opacity="0.6" d="m30.90169943749475,22.451398828979276 l-7.294901687515775,-5.300056313598283 l2.7864045000420603,-8.575671257690498 l7.294901687515775,5.300056313598283z"/>
<path fill="#0035f3" opacity="0.6" d="m23.606797749978973,0.0 l7.294901687515772,5.300056313598284 l7.294901687515772,-5.300056313598284 l-7.294901687515772,-5.300056313598284z"/>
<path fill="#0035f3" opacity="0.6" d="m33.68810393753681,-13.875727571288781 l-2.786404500042064,8.575671257690498 l7.294901687515772,5.300056313598284 l2.786404500042064,-8.575671257690498z"/>
<path fill="#0035f3" opacity="0.6" d="m33.68810393753681,13.875727571288781 l-2.786404500042064,-8.575671257690498 l7.294901687515772,-5.300056313598284 l2.786404500042064,8.575671257690498z"/>
<path fill="#0035f3" opacity="0.6" d="m30.90169943749475,-22.451398828979276 l9.016994374947423,3.552713678800501e-15 l2.7864045000420603,8.575671257690496 l-9.016994374947423,-3.552713678800501e-15z"/>
<path fill="#0035f3" opacity="0.6" d="m30.90169943749475,22.451398828979276 l9.016994374947423,-3.552713678800501e-15 l2.7864045000420603,-8.575671257690496 l-9.016994374947423,3.552713678800501e-15z"/>
<path fill="#08f" opacity="0.6" d="m39.91869381244217,-22.451398828979272 l7.294901687515775,-5.3000563135982866 l-9.01699437494743,3.552713678800501e-15 l-7.294901687515775,5.3000563135982866z"/>
<path fill="#08f" opacity="0.6" d="m39.91869381244217,22.451398828979272 l7.294901687515775,5.3000563135982866 l-9.01699437494743,-3.552713678800501e-15 l-7.294901687515775,-5.3000563135982866z"/>
<path fill="#08f" opacity="0.6" d="m40.983005625052584,-8.575671257690495 l9.016994374947423,-1.7763568394002505e-15 l-7.294901687515775,-5.3000563135982794 l-9.016994374947423,1.7763568394002505e-15z"/>
<path fill="#08f" opacity="0.6" d="m40.983005625052584,8.575671257690495 l9.016994374947423,1.7763568394002505e-15 l-7.294901687515775,5.3000563135982794 l-9.016994374947423,-1.7763568394002505e-15z"/>
<path fill="#0035f3" opacity="0.6" d="m50.00000000000001,-36.32712640026805 l-2.7864045000420603,8.575671257690491 l-9.01699437494743,3.552713678800501e-15 l2.7864045000420603,-8.575671257690491z"/>
<path fill="#0035f3" opacity="0.6" d="m50.00000000000001,-8.575671257690496 l-2.7864045000420674,8.575671257690496 l-9.016994374947423,0.0 l2.7864045000420674,-8.575671257690496z"/>
<path fill="#0035f3" opacity="0.6" d="m50.00000000000001,8.575671257690496 l-2.7864045000420674,-8.575671257690496 l-9.016994374947423,0.0 l2.7864045000420674,8.575671257690496z"/>
<path fill="#0035f3" opacity="0.6" d="m50.00000000000001,36.32712640026805 l-2.7864045000420603,-8.575671257690491 l-9.01699437494743,-3.552713678800501e-15 l2.7864045000420603,8.575671257690491z"/>
<path fill="#0035f3" opacity="0.6" d="m47.21359549995795,-27.75145514257756 l2.786404500042053,8.575671257690498 l-7.294901687515768,5.300056313598285 l-2.786404500042053,-8.575671257690498z"/>
<path fill="#0035f3" opacity="0.6" d="m47.21359549995795,27.75145514257756 l2.786404500042053,-8.575671257690498 l-7.294901687515768,-5.300056313598285 l-2.786404500042053,8.575671257690498z"/>
<path fill="#08f" opacity="0.6" d="m47.21359549995794,0.0 l2.7864045000420674,8.575671257690496 l2.786404500042053,-8.575671257690496 l-2.7864045000420674,-8.575671257690496z"/>
<path fill="#0035f3" opacity="0.6" d="m57.29490168751578,-13.875727571288781 l-7.294901687515782,-5.3000563135982794 l-7.294901687515768,5.300056313598285 l7.294901687515782,5.3000563135982794z"/>
<path fill="#0035f3" opacity="0.6" d="m57.29490168751578,13.875727571288781 l-7.294901687515782,5.3000563135982794 l-7.294901687515768,-5.300056313598285 l7.294901687515782,-5.3000563135982794z"/>
<path fill="#0035f3" opacity="0.6" d="m50.00000000000001,-36.32712640026805 l7.294901687515775,5.3000563135982794 l-2.7864045000420603,8.575671257690498 l-7.294901687515775,-5.3000563135982794z"/>
<path fill="#08f" opacity="0.6" d="m50.0,-19.17578388488706 l-2.786404500042053,-8.575671257690498 l7.294901687515775,5.3000563135982866 l2.786404500042053,8.575671257690498z"/>
<path fill="#08f" opacity="0.6" d="m50.0,19.17578388488706 l-2.786404500042053,8.575671257690498 l7.294901687515775,-5.3000563135982866 l2.786404500042053,-8.575671257690498z"/>
<path fill="#0035f3" opacity="0.6" d="m50.00000000000001,36.32712640026805 l7.294901687515775,-5.3000563135982794 l-2.7864045000420603,-8.575671257690498 l-7.294901687515775,5.3000563135982794z"/>
<path fill="#0035f3" opacity="0.6" d="m57.29490168751578,-13.875727571288781 l2.786404500042053,8.575671257690495 l-7.294901687515775,5.300056313598286 l-2.786404500042053,-8.575671257690495z"/>
<path fill="#0035f3" opacity="0.6" d="m57.29490168751578,13.875727571288781 l2.786404500042053,-8.575671257690495 l-7.294901687515775,-5.300056313598286 l-2.786404500042053,8.575671257690495z"/>
<path fill="#0035f3" opacity="0.6" d="m50.00000000000001,-36.32712640026805 l7.294901687515775,5.3000563135982794 l7.294901687515768,-5.300056313598272 l-7.294901687515775,-5.3000563135982794z"/>
<path fill="#0035f3" opacity="0.6" d="m50.00000000000001,36.32712640026805 l7.294901687515775,-5.3000563135982794 l7.294901687515768,5.300056313598272 l-7.294901687515775,5.3000563135982794z"/>
<path fill="#08f" opacity="0.6" d="m60.08130618755784,-22.451398828979272 l-2.7864045000420603,8.575671257690491 l-2.7864045000420603,-8.575671257690491 l2.7864045000420603,-8.575671257690491z"/>
<path fill="#08f" opacity="0.6" d="m60.08130618755784,22.451398828979272 l-2.7864045000420603,-8.575671257690491 l-2.7864045000420603,8.575671257690491 l2.7864045000420603,8.575671257690491z"/>
<path fill="#0035f3" opacity="0.6" d="m67.37620787507362,0.0 l-7.294901687515782,5.300056313598286 l-7.294901687515775,-5.300056313598286 l7.294901687515782,-5.300056313598286z"/>
<path fill="#08f" opacity="0.6" d="m60.081306187557836,-5.300056313598286 l7.294901687515782,5.300056313598286 l-2.7864045000420674,-8.575671257690496 l-7.294901687515782,-5.300056313598286z"/>
<path fill="#08f" opacity="0.6" d="m60.081306187557836,5.300056313598286 l7.294901687515782,-5.300056313598286 l-2.7864045000420674,8.575671257690496 l-7.294901687515782,5.300056313598286z"/>
<path fill="#0035f3" opacity="0.6" d="m57.29490168751578,-41.62718271386633 l9.016994374947423,7.105427357601002e-15 l2.7864045000420674,-8.575671257690502 l-9.016994374947423,-7.105427357601002e-15z"/>
<path fill="#0035f3" opacity="0.6" d="m57.29490168751578,-31.02707008666977 l2.7864045000420603,8.575671257690498 l9.01699437494743,-3.552713678800501e-15 l-2.7864045000420603,-8.575671257690498z"/>
<path fill="#0035f3" opacity="0.6" d="m57.29490168751578,-13.875727571288781 l9.016994374947423,0.0 l2.7864045000420674,-8.575671257690495 l-9.016994374947423,-0.0z"/>
<path fill="#0035f3" opacity="0.6" d="m57.29490168751578,13.875727571288781 l9.016994374947423,0.0 l2.7864045000420674,8.575671257690495 l-9.016994374947423,-0.0z"/>
<path fill="#0035f3" opacity="0.6" d="m57.29490168751578,31.02707008666977 l2.7864045000420603,-8.575671257690498 l9.01699437494743,3.552713678800501e-15 l-2.7864045000420603,8.575671257690498z"/>
<path fill="#0035f3" opacity="0.6" d="m57.29490168751578,41.62718271386633 l9.016994374947423,-7.105427357601002e-15 l2.7864045000420674,8.575671257690502 l-9.016994374947423,7.105427357601002e-15z"/>
<path fill="#08f" opacity="0.6" d="m66.3118960624632,-41.627182713866326 l-9.016994374947423,-7.105427357601002e-15 l7.294901687515768,5.30005631359829 l9.016994374947423,7.105427357601002e-15z"/>
<path fill="#08f" opacity="0.6" d="m66.3118960624632,-31.027070086669763 l7.294901687515775,-5.3000563135982794 l-9.01699437494743,0.0 l-7.294901687515775,5.3000563135982794z"/>
<path fill="#08f" opacity="0.6" d="m66.3118960624632,-13.875727571288781 l-9.016994374947423,0.0 l7.294901687515768,5.300056313598285 l9.016994374947423,-0.0z"/>
<path fill="#08f" opacity="0.6" d="m66.3118960624632,13.875727571288781 l-9.016994374947423,0.0 l7.294901687515768,-5.300056313598285 l9.016994374947423,-0.0z"/>
<path fill="#08f" opacity="0.6" d="m66.3118960624632,31.027070086669763 l7.294901687515775,5.3000563135982794 l-9.01699437494743,0.0 l-7.294901687515775,-5.3000563135982794z"/>
<path fill="#08f" opacity="0.6" d="m66.3118960624632,41.627182713866326 l-9.016994374947423,7.105427357601002e-15 l7.294901687515768,-5.30005631359829 l9.016994374947423,-7.105427357601002e-15z"/>
<path fill="#0035f3" opacity="0.6" d="m76.39320225002103,-0.0 l-9.016994374947416,0.0 l-2.7864045000420674,-8.575671257690496 l9.016994374947416,-0.0z"/>
<path fill="#0035f3" opacity="0.6" d="m76.39320225002103,0.0 l-9.016994374947416,0.0 l-2.7864045000420674,8.575671257690496 l9.016994374947416,-0.0z"/>
<path fill="#08f" opacity="0.6" d="m73.60679774997898,-53.47846891564903 l2.786404500042053,8.575671257690502 l-7.294901687515761,-5.300056313598297 l-2.786404500042053,-8.575671257690502z"/>
<path fill="#0035f3" opacity="0.6" d="m73.60679774997898,-36.32712640026804 l-7.294901687515775,-5.300056313598283 l2.7864045000420674,-8.575671257690502 l7.294901687515775,5.300056313598283z"/>
<path fill="#0035f3" opacity="0.6" d="m73.60679774997898,-36.32712640026804 l-7.294901687515775,5.3000563135982794 l2.7864045000420674,8.575671257690487 l7.294901687515775,-5.3000563135982794z"/>
<path fill="#0035f3" opacity="0.6" d="m73.60679774997898,-8.575671257690495 l-7.294901687515775,-5.3000563135982866 l2.7864045000420674,-8.575671257690495 l7.294901687515775,5.3000563135982866z"/>
<path fill="#0035f3" opacity="0.6" d="m73.60679774997898,8.575671257690495 l-7.294901687515775,5.3000563135982866 l2.7864045000420674,8.575671257690495 l7.294901687515775,-5.3000563135982866z"/>
<path fill="#0035f3" opacity="0.6" d="m73.60679774997898,36.32712640026804 l-7.294901687515775,-5.3000563135982794 l2.7864045000420674,-8.575671257690487 l7.294901687515775,5.3000563135982794z"/>
<path fill="#0035f3" opacity="0.6" d="m73.60679774997898,36.32712640026804 l-7.294901687515775,5.300056313598283 l2.7864045000420674,8.575671257690502 l7.294901687515775,-5.300056313598283z"/>
<path fill="#08f" opacity="0.6" d="m73.60679774997898,53.47846891564903 l2.786404500042053,-8.575671257690502 l-7.294901687515761,5.300056313598297 l-2.786404500042053,8.575671257690502z"/>
<path fill="#0035f3" opacity="0.6" d="m83.68810393753682,-22.45139882897927 l-7.294901687515775,-5.3000563135982866 l-7.294901687515775,5.3000563135982794 l7.294901687515775,5.3000563135982866z"/>
<path fill="#0035f3" opacity="0.6" d="m83.68810393753682,22.45139882897927 l-7.294901687515775,5.3000563135982866 l-7.294901687515775,-5.3000563135982794 l7.294901687515775,-5.3000563135982866z"/>
<path fill="#0035f3" opacity="0.6" d="m76.39320225002103,-44.90279765795853 l-2.786404500042053,-8.575671257690502 l7.294901687515761,-5.300056313598283 l2.786404500042053,8.575671257690502z"/>
<path fill="#08f" opacity="0.6" d="m76.39320225002105,-27.751455142577555 l-2.7864045000420674,-8.575671257690487 l7.294901687515775,5.300056313598283 l2.7864045000420674,8.575671257690487z"/>
<path fill="#08f" opacity="0.6" d="m76.39320225002105,-17.15134251538099 l-2.7864045000420674,8.575671257690495 l7.294901687515775,-5.3000563135982866 l2.7864045000420674,-8.575671257690495z"/>
<path fill="#0035f3" opacity="0.6" d="m76.39320225002103,-0.0 l7.2949016875157895,-5.300056313598284 l-2.7864045000420674,-8.575671257690498 l-7.2949016875157895,5.300056313598284z"/>
<path fill="#0035f3" opacity="0.6" d="m76.39320225002103,0.0 l7.2949016875157895,5.300056313598284 l-2.7864045000420674,8.575671257690498 l-7.2949016875157895,-5.300056313598284z"/>
<path fill="#08f" opacity="0.6" d="m76.39320225002105,17.15134251538099 l-2.7864045000420674,-8.575671257690495 l7.294901687515775,5.3000563135982866 l2.7864045000420674,8.575671257690495z"/>
<path fill="#08f" opacity="0.6" d="m76.39320225002105,27.751455142577555 l-2.7864045000420674,8.575671257690487 l7.294901687515775,-5.300056313598283 l2.7864045000420674,-8.575671257690487z"/>
<path fill="#0035f3" opacity="0.6" d="m76.39320225002103,44.90279765795853 l-2.786404500042053,8.575671257690502 l7.294901687515761,5.300056313598283 l2.786404500042053,-8.575671257690502z"/>
<path fill="#0035f3" opacity="0.6" d="m73.60679774997898,-36.32712640026804 l9.01699437494743,0.0 l2.786404500042053,-8.575671257690502 l-9.01699437494743,-0.0z"/>
<path fill="#0035f3" opacity="0.6" d="m73.60679774997898,36.32712640026804 l9.01699437494743,0.0 l2.786404500042053,8.575671257690502 l-9.01699437494743,-0.0z"/>
<path fill="#08f" opacity="0.6" d="m82.62379212492641,-36.32712640026804 l7.294901687515761,5.300056313598283 l-9.016994374947416,0.0 l-7.294901687515761,-5.300056313598283z"/>
<path fill="#08f" opacity="0.6" d="m82.62379212492641,36.32712640026804 l7.294901687515761,-5.300056313598283 l-9.016994374947416,0.0 l-7.294901687515761,5.300056313598283z"/>
<path fill="#08f" opacity="0.6" d="m83.68810393753681,-50.20285397155682 l-7.294901687515775,5.30005631359829 l9.01699437494743,-1.4210854715202004e-14 l7.294901687515775,-5.30005631359829z"/>
<path fill="#08f" opacity="0.6" d="m83.68810393753681,50.20285397155682 l-7.294901687515775,-5.30005631359829 l9.01699437494743,1.4210854715202004e-14 l7.294901687515775,5.30005631359829z"/>
<path fill="#08f" opacity="0.6" d="m83.68810393753682,-5.300056313598284 l9.016994374947416,0.0 l-7.294901687515775,5.300056313598284 l-9.016994374947416,-0.0z"/>
<path fill="#08f" opacity="0.6" d="m83.68810393753682,5.300056313598284 l9.016994374947416,0.0 l-7.294901687515775,-5.300056313598284 l-9.016994374947416,-0.0z"/>
<path fill="#0035f3" opacity="0.6" d="m92.70509831248422,-50.20285397155682 l-9.016994374947416,0.0 l-2.7864045000420674,-8.575671257690495 l9.016994374947416,-0.0z"/>
<path fill="#0035f3" opacity="0.6" d="m92.70509831248422,50.20285397155682 l-9.016994374947416,0.0 l-2.7864045000420674,8.575671257690495 l9.016994374947416,-0.0z"/>
<path fill="#0035f3" opacity="0.6" d="m92.70509831248424,-22.451398828979265 l-2.7864045000420674,-8.575671257690495 l-9.016994374947416,0.0 l2.7864045000420674,8.575671257690495z"/>
<path fill="#0035f3" opacity="0.6" d="m92.70509831248424,-22.451398828979265 l-2.786404500042053,8.575671257690487 l-9.01699437494743,-3.552713678800501e-15 l2.786404500042053,-8.575671257690487z"/>
<path fill="#0035f3" opacity="0.6" d="m92.70509831248424,-5.300056313598284 l-9.016994374947416,0.0 l-2.7864045000420674,-8.575671257690498 l9.016994374947416,-0.0z"/>
<path fill="#0035f3" opacity="0.6" d="m92.70509831248424,5.300056313598284 l-9.016994374947416,0.0 l-2.7864045000420674,8.575671257690498 l9.016994374947416,-0.0z"/>
<path fill="#0035f3" opacity="0.6" d="m92.70509831248424,22.451398828979265 l-2.786404500042053,-8.575671257690487 l-9.01699437494743,3.552713678800501e-15 l2.786404500042053,8.575671257690487z"/>
<path fill="#0035f3" opacity="0.6" d="m92.70509831248424,22.451398828979265 l-2.7864045000420674,8.575671257690495 l-9.016994374947416,0.0 l2.7864045000420674,-8.575671257690495z"/>
<path fill="#0035f3" opacity="0.6" d="m89.91869381244217,-31.02707008666976 l-7.294901687515761,-5.300056313598283 l2.786404500042053,-8.575671257690502 l7.294901687515761,5.300056313598283z"/>
<path fill="#0035f3" opacity="0.6" d="m89.91869381244217,31.02707008666976 l-7.294901687515761,5.300056313598283 l2.786404500042053,8.575671257690502 l7.294901687515761,-5.300056313598283z"/>
<path fill="#0035f3" opacity="0.6" d="m100.0,-44.902797657958544 l-7.294901687515761,5.300056313598283 l-7.294901687515775,-5.300056313598283 l7.294901687515761,-5.300056313598283z"/>
<path fill="#08f" opacity="0.6" d="m89.91869381244219,-13.875727571288778 l2.786404500042053,8.575671257690495 l2.7864045000420674,-8.575671257690491 l-2.786404500042053,-8.575671257690495z"/>
<path fill="#0035f3" opacity="0.6" d="m100.00000000000001,0.0 l-7.294901687515775,5.300056313598284 l-7.294901687515775,-5.300056313598284 l7.294901687515775,-5.300056313598284z"/>
<path fill="#08f" opacity="0.6" d="m89.91869381244219,13.875727571288778 l2.786404500042053,-8.575671257690495 l2.7864045000420674,8.575671257690491 l-2.786404500042053,8.575671257690495z"/>
<path fill="#0035f3" opacity="0.6" d="m100.0,44.902797657958544 l-7.294901687515761,-5.300056313598283 l-7.294901687515775,5.300056313598283 l7.294901687515761,5.300056313598283z"/>
<path fill="#08f" opacity="0.6" d="m92.70509831248424,-39.60274134436026 l-2.7864045000420674,8.575671257690502 l7.294901687515775,-5.30005631359829 l2.7864045000420674,-8.575671257690502z"/>
<path fill="#0035f3" opacity="0.6" d="m92.70509831248424,-22.451398828979265 l-2.7864045000420674,-8.575671257690495 l7.294901687515775,-5.30005631359829 l2.7864045000420674,8.575671257690495z"/>
<path fill="#0035f3" opacity="0.6" d="m92.70509831248424,22.451398828979265 l-2.7864045000420674,8.575671257690495 l7.294901687515775,5.30005631359829 l2.7864045000420674,-8.575671257690495z"/>
<path fill="#08f" opacity="0.6" d="m92.70509831248424,39.60274134436026 l-2.7864045000420674,-8.575671257690502 l7.294901687515775,5.30005631359829 l2.7864045000420674,8.575671257690502z"/>
<path fill="#08f" opacity="0.6" d="m100.00000000000001,-17.15134251538099 l2.786404500042053,8.575671257690495 l-7.294901687515761,-5.3000563135982794 l-2.786404500042053,-8.575671257690495z"/>
<path fill="#0035f3" opacity="0.6" d="m100.00000000000001,-0.0 l-7.294901687515775,-5.300056313598284 l2.7864045000420674,-8.575671257690491 l7.294901687515775,5.300056313598284z"/>
<path fill="#0035f3" opacity="0.6" d="m100.00000000000001,0.0 l-7.294901687515775,5.300056313598284 l2.7864045000420674,8.575671257690491 l7.294901687515775,-5.300056313598284z"/>
<path fill="#08f" opacity="0.6" d="m100.00000000000001,17.15134251538099 l2.786404500042053,-8.575671257690495 l-7.294901687515761,5.3000563135982794 l-2.786404500042053,8.575671257690495z"/>
<path fill="#08f" opacity="0.6" d="m102.78640450004207,-36.32712640026805 l-2.7864045000420674,-8.575671257690495 l-2.786404500042053,8.575671257690495 l2.7864045000420674,8.575671257690495z"/>
<path fill="#0035f3" opacity="0.6" d="m92.70509831248424,-22.451398828979265 l7.294901687515775,5.300056313598276 l7.294901687515761,-5.3000563135982866 l-7.294901687515775,-5.300056313598276z"/>
<path fill="#0035f3" opacity="0.6" d="m92.70509831248424,22.451398828979265 l7.294901687515775,-5.300056313598276 l7.294901687515761,5.3000563135982866 l-7.294901687515775,5.300056313598276z"/>
<path fill="#08f" opacity="0.6" d="m102.78640450004207,36.32712640026805 l-2.7864045000420674,8.575671257690495 l-2.786404500042053,-8.575671257690495 l2.7864045000420674,-8.575671257690495z"/>
<path fill="#0035f3" opacity="0.6" d="m102.78640450004207,-8.575671257690495 l7.294901687515761,-5.300056313598283 l-2.786404500042053,-8.575671257690498 l-7.294901687515761,5.300056313598283z"/>
<path fill="#0035f3" opacity="0.6" d="m102.78640450004207,8.575671257690495 l7.294901687515761,5.300056313598283 l-2.786404500042053,8.575671257690498 l-7.294901687515761,-5.300056313598283z"/>
<path fill="#0035f3" opacity="0.6" d="m100.0,-44.902797657958544 l2.7864045000420674,8.575671257690495 l9.016994374947416,0.0 l-2.7864045000420674,-8.575671257690495z"/>
<path fill="#0035f3" opacity="0.6" d="m100.0,-27.751455142577548 l2.7864045000420674,-8.575671257690502 l9.016994374947416,0.0 l-2.7864045000420674,8.575671257690502z"/>
<path fill="#0035f3" opacity="0.6" d="m100.0,27.751455142577548 l2.7864045000420674,8.575671257690502 l9.016994374947416,0.0 l-2.7864045000420674,-8.575671257690502z"/>
<path fill="#0035f3" opacity="0.6" d="m100.0,44.902797657958544 l2.7864045000420674,-8.575671257690495 l9.016994374947416,0.0 l-2.7864045000420674,8.575671257690495z"/>
<path fill="#0035f3" opacity="0.6" d="m100.00000000000001,-0.0 l9.016994374947416,0.0 l2.786404500042053,-8.575671257690495 l-9.016994374947416,-0.0z"/>
<path fill="#0035f3" opacity="0.6" d="m100.00000000000001,0.0 l9.016994374947416,0.0 l2.786404500042053,8.575671257690495 l-9.016994374947416,-0.0z"/>
<path fill="#08f" opacity="0.6" d="m109.01699437494742,-27.751455142577555 l7.294901687515761,5.300056313598283 l-9.016994374947402,-3.552713678800501e-15 l-7.294901687515761,-5.300056313598283z"/>
<path fill="#08f" opacity="0.6" d="m109.01699437494742,27.751455142577555 l7.294901687515761,-5.300056313598283 l-9.016994374947402,3.552713678800501e-15 l-7.294901687515761,5.300056313598283z"/>
<path fill="#08f" opacity="0.6" d="m110.08130618755783,-13.875727571288778 l-7.294901687515761,5.300056313598283 l9.016994374947416,0.0 l7.294901687515761,-5.300056313598283z"/>
<path fill="#08f" opacity="0.6" d="m110.08130618755783,13.875727571288778 l-7.294901687515761,-5.300056313598283 l9.016994374947416,0.0 l7.294901687515761,5.300056313598283z"/>
<path fill="#0035f3" opacity="0.6" d="m119.09830056250524,-13.875727571288776 l-9.016994374947416,-1.7763568394002505e-15 l-2.786404500042053,-8.575671257690498 l9.016994374947416,1.7763568394002505e-15z"/>
<path fill="#0035f3" opacity="0.6" d="m119.09830056250524,13.875727571288776 l-9.016994374947416,1.7763568394002505e-15 l-2.786404500042053,8.575671257690498 l9.016994374947416,-1.7763568394002505e-15z"/>
<path fill="#0035f3" opacity="0.6" d="m116.31189606246318,-22.451398828979272 l2.7864045000420674,-8.575671257690495 l-7.294901687515761,-5.300056313598283 l-2.7864045000420674,8.575671257690495z"/>
<path fill="#0035f3" opacity="0.6" d="m116.31189606246318,22.451398828979272 l2.7864045000420674,8.575671257690495 l-7.294901687515761,5.300056313598283 l-2.7864045000420674,-8.575671257690495z"/>
<path fill="#08f" opacity="0.6" d="m116.31189606246319,-5.300056313598284 l2.786404500042053,-8.575671257690491 l-7.294901687515761,5.300056313598281 l-2.786404500042053,8.575671257690491z"/>
<path fill="#08f" opacity="0.6" d="m116.31189606246319,5.300056313598284 l2.786404500042053,8.575671257690491 l-7.294901687515761,-5.300056313598281 l-2.786404500042053,-8.575671257690491z"/>
<path fill="#0035f3" opacity="0.6" d="m109.01699437494743,0.0 l7.294901687515761,5.300056313598284 l7.294901687515775,-5.300056313598284 l-7.294901687515761,-5.300056313598284z"/>
<path fill="#08f" opacity="0.6" d="m119.09830056250524,-31.027070086669767 l-2.7864045000420674,8.575671257690495 l7.2949016875157895,-5.3000563135982866 l2.7864045000420674,-8.575671257690495z"/>
<path fill="#0035f3" opacity="0.6" d="m119.09830056250524,-13.875727571288776 l7.2949016875157895,-5.300056313598285 l-2.7864045000420674,-8.575671257690498 l-7.2949016875157895,5.300056313598285z"/>
<path fill="#0035f3" opacity="0.6" d="m119.09830056250524,-13.875727571288776 l7.2949016875157895,5.300056313598281 l-2.7864045000420674,8.575671257690495 l-7.2949016875157895,-5.300056313598281z"/>
<path fill="#0035f3" opacity="0.6" d="m119.09830056250524,13.875727571288776 l7.2949016875157895,-5.300056313598281 l-2.7864045000420674,-8.575671257690495 l-7.2949016875157895,5.300056313598281z"/>
<path fill="#0035f3" opacity="0.6" d="m119.09830056250524,13.875727571288776 l7.2949016875157895,5.300056313598285 l-2.7864045000420674,8.575671257690498 l-7.2949016875157895,-5.300056313598285z"/>
<path fill="#08f" opacity="0.6" d="m119.09830056250524,31.027070086669767 l-2.7864045000420674,-8.575671257690495 l7.2949016875157895,5.3000563135982866 l2.7864045000420674,8.575671257690495z"/>
<path fill="#08f" opacity="0.6" d="m126.39320225002103,-19.17578388488706 l9.016994374947444,0.0 l-7.2949016875157895,5.300056313598283 l-9.016994374947444,-0.0z"/>
<path fill="#08f" opacity="0.6" d="m126.39320225002103,-8.575671257690495 l-7.2949016875157895,-5.300056313598281 l9.016994374947444,-1.7763568394002505e-15 l7.2949016875157895,5.300056313598281z"/>
<path fill="#08f" opacity="0.6" d="m126.39320225002103,8.575671257690495 l-7.2949016875157895,5.300056313598281 l9.016994374947444,1.7763568394002505e-15 l7.2949016875157895,-5.300056313598281z"/>
<path fill="#08f" opacity="0.6" d="m126.39320225002103,19.17578388488706 l9.016994374947444,0.0 l-7.2949016875157895,-5.300056313598283 l-9.016994374947444,-0.0z"/>
<path fill="#0035f3" opacity="0.6" d="m135.41019662496848,-19.17578388488706 l-9.016994374947444,0.0 l-2.7864045000420674,-8.575671257690498 l9.016994374947444,-0.0z"/>
<path fill="#0035f3" opacity="0.6" d="m135.41019662496848,-8.575671257690495 l-9.016994374947444,0.0 l-2.7864045000420674,8.575671257690495 l9.016994374947444,-0.0z"/>
<path fill="#0035f3" opacity="0.6" d="m135.41019662496848,8.575671257690495 l-9.016994374947444,0.0 l-2.7864045000420674,-8.575671257690495 l9.016994374947444,-0.0z"/>
<path fill="#0035f3" opacity="0.6" d="m135.41019662496848,19.17578388488706 l-9.016994374947444,0.0 l-2.7864045000420674,8.575671257690498 l9.016994374947444,-0.0z"/>
<path fill="#0035f3" opacity="0.6" d="m142.70509831248424,-13.875727571288776 l-7.294901687515761,-5.300056313598285 l-7.2949016875157895,5.300056313598283 l7.294901687515761,5.300056313598285z"/>
<path fill="#08f" opacity="0.6" d="m132.6237921249264,0.0 l2.7864045000420674,8.575671257690495 l2.786404500042039,-8.575671257690495 l-2.7864045000420674,-8.575671257690495z"/>
<path fill="#0035f3" opacity="0.6" d="m142.70509831248424,13.875727571288776 l-7.294901687515761,5.300056313598285 l-7.2949016875157895,-5.300056313598283 l7.294901687515761,-5.300056313598285z"/>
<path fill="#0035f3" opacity="0.6" d="m142.70509831248424,-13.875727571288776 l2.786404500042039,8.575671257690491 l-7.294901687515761,5.300056313598284 l-2.786404500042039,-8.575671257690491z"/>
<path fill="#0035f3" opacity="0.6" d="m142.70509831248424,13.875727571288776 l2.786404500042039,-8.575671257690491 l-7.294901687515761,-5.300056313598284 l-2.786404500042039,8.575671257690491z"/>
<path fill="#0035f3" opacity="0.6" d="m152.78640450004207,0.0 l-7.2949016875157895,5.300056313598284 l-7.294901687515761,-5.300056313598284 l7.2949016875157895,-5.300056313598284z"/>
<path fill="#08f" opacity="0.6" d="m145.49150281252628,-5.300056313598284 l7.2949016875157895,5.300056313598284 l-2.7864045000420674,-8.575671257690495 l-7.2949016875157895,-5.300056313598284z"/>
<path fill="#08f" opacity="0.6" d="m145.49150281252628,5.300056313598284 l7.2949016875157895,-5.300056313598284 l-2.7864045000420674,8.575671257690495 l-7.2949016875157895,5.300056313598284z"/>
<path fill="#0035f3" opacity="0.6" d="m161.80339887498948,-0.0 l-9.016994374947416,0.0 l-2.7864045000420674,-8.575671257690495 l9.016994374947416,-0.0z"/>
<path fill="#0035f3" opacity="0.6" d="m161.80339887498948,0.0 l-9.016994374947416,0.0 l-2.7864045000420674,8.575671257690495 l9.016994374947416,-0.0z"/>
</g>
</svg>