<?xml version="1.0" encoding="utf-8"?>
<svg width="100%" height="100%" viewBox="-105.0 -105.0 210.0 210.0"
     preserveAspectRatio="xMidYMin meet"
     version="1.1" baseProfile="full" xmlns="http://www.w3.org/2000/svg">

<g style="stroke:#fff; stroke-width: 1.1803398874989488;">
<path fill="#896" opacity="0.4" d="m-92.70509831248424,-22.45139882897927 l19.098300562505273,-13.875727571288781 l-7.2949016875157895,-22.451398828979272 l-19.098300562505273,13.875727571288781z"/>
<path fill="none" stroke="#f88" d="M -83.1559480312316 -29.38926261462366 A 11.803398874989492 11.803398874989492 0 0 0 -96.35254915624213 -33.677098243468905"/>
<path fill="none" stroke="#88f" d="M -90.45084971874739 -51.840661443602926 A 11.803398874989488 11.803398874989488 0 0 0 -77.25424859373686 -47.55282581475768"/>
<path fill="#d9a" opacity="0.4" d="m-92.70509831248424,22.45139882897927 l19.098300562505273,13.875727571288781 l-7.2949016875157895,22.451398828979272 l-19.098300562505273,-13.875727571288781z"/>
<path fill="none" stroke="#f88" d="M -96.35254915624213 33.677098243468905 A 11.803398874989492 11.803398874989492 0 0 0 -83.1559480312316 29.38926261462366"/>
<path fill="none" stroke="#88f" d="M -77.25424859373686 47.55282581475768 A 11.803398874989488 11.803398874989488 0 0 0 -90.45084971874739 51.840661443602926"/>
<path fill="#883" opacity="0.4" d="m-100.0,0.0 l7.294901687515761,-22.45139882897927 l23.60679774997898,-7.105427357601002e-15 l-7.294901687515761,22.45139882897927z"/>
<path fill="none" stroke="#f88" d="M -88.1966011250105 -3.552713678800501e-15 A 11.803398874989483 11.803398874989483 0 0 0 -96.35254915624212 -11.225699414489634"/>
<path fill="none" stroke="#88f" d="M -80.90169943749476 -22.451398828979272 A 11.80339887498949 11.80339887498949 0 0 0 -72.74575140626314 -11.225699414489641"/>
<path fill="#af7" opacity="0.4" d="m-100.0,-0.0 l7.294901687515761,22.45139882897927 l23.60679774997898,7.105427357601002e-15 l-7.294901687515761,-22.45139882897927z"/>
<path fill="none" stroke="#f88" d="M -96.35254915624212 11.225699414489634 A 11.803398874989483 11.803398874989483 0 0 0 -88.1966011250105 3.552713678800501e-15"/>
<path fill="none" stroke="#88f" d="M -72.74575140626314 11.225699414489641 A 11.80339887498949 11.80339887498949 0 0 0 -80.90169943749476 22.451398828979272"/>
<path fill="#794" opacity="0.4" d="m-73.60679774997897,-36.32712640026805 l23.606797749978952,0.0 l-19.098300562505244,13.875727571288774 l-23.606797749978952,-0.0z"/>
<path fill="none" stroke="#f88" d="M -83.15594803123159 -29.38926261462366 A 11.803398874989476 11.803398874989476 0 0 0 -61.80339887498949 -36.32712640026805"/>
<path fill="none" stroke="#88f" d="M -59.549150281252636 -29.38926261462366 A 11.80339887498948 11.80339887498948 0 0 0 -80.90169943749473 -22.451398828979272"/>
<path fill="#df7" opacity="0.4" d="m-73.60679774997897,36.32712640026805 l23.606797749978952,0.0 l-19.098300562505244,-13.875727571288774 l-23.606797749978952,-0.0z"/>
<path fill="none" stroke="#f88" d="M -61.80339887498949 36.32712640026805 A 11.803398874989476 11.803398874989476 0 0 0 -83.15594803123159 29.38926261462366"/>
<path fill="none" stroke="#88f" d="M -80.90169943749473 22.451398828979272 A 11.80339887498948 11.80339887498948 0 0 0 -59.549150281252636 29.38926261462366"/>
<path fill="#14d" opacity="0.4" d="m-50.0,-81.22992405822659 l-7.294901687515782,22.451398828979265 l-23.606797749978973,0.0 l7.294901687515782,-22.451398828979265z"/>
<path fill="none" stroke="#f88" d="M -61.80339887498948 -81.2299240582266 A 11.803398874989485 11.803398874989485 0 0 0 -53.647450843757895 -70.00422464373696"/>
<path fill="none" stroke="#88f" d="M -69.09830056250527 -58.77852522924732 A 11.803398874989487 11.803398874989487 0 0 0 -77.25424859373686 -70.00422464373696"/>
<path fill="#5fc" opacity="0.4" d="m-50.000000000000014,-36.32712640026805 l-7.294901687515768,-22.451398828979272 l-23.606797749978973,0.0 l7.294901687515768,22.451398828979272z"/>
<path fill="none" stroke="#f88" d="M -53.647450843757895 -47.55282581475768 A 11.803398874989485 11.803398874989485 0 0 0 -61.80339887498949 -36.32712640026804"/>
<path fill="none" stroke="#88f" d="M -77.25424859373686 -47.55282581475768 A 11.803398874989487 11.803398874989487 0 0 0 -69.09830056250527 -58.77852522924732"/>
<path fill="#3fe" opacity="0.4" d="m-50.000000000000014,36.32712640026805 l-7.294901687515768,22.451398828979272 l-23.606797749978973,0.0 l7.294901687515768,-22.451398828979272z"/>
<path fill="none" stroke="#f88" d="M -61.80339887498949 36.32712640026804 A 11.803398874989485 11.803398874989485 0 0 0 -53.647450843757895 47.55282581475768"/>
<path fill="none" stroke="#88f" d="M -69.09830056250527 58.77852522924732 A 11.803398874989487 11.803398874989487 0 0 0 -77.25424859373686 47.55282581475768"/>
<path fill="#b4e" opacity="0.4" d="m-50.0,81.22992405822659 l-7.294901687515782,-22.451398828979265 l-23.606797749978973,0.0 l7.294901687515782,22.451398828979265z"/>
<path fill="none" stroke="#f88" d="M -53.647450843757895 70.00422464373696 A 11.803398874989485 11.803398874989485 0 0 0 -61.80339887498948 81.2299240582266"/>
<path fill="none" stroke="#88f" d="M -77.25424859373686 70.00422464373696 A 11.803398874989487 11.803398874989487 0 0 0 -69.09830056250527 58.77852522924732"/>
<path fill="#f20" opacity="0.4" d="m-57.294901687515775,-13.875727571288781 l-19.09830056250526,13.875727571288781 l7.294901687515775,-22.451398828979276 l19.09830056250526,-13.875727571288781z"/>
<path fill="none" stroke="#f88" d="M -53.64745084375789 -25.101426985778417 A 11.803398874989487 11.803398874989487 0 0 0 -66.84405196876841 -6.9378637856443905"/>
<path fill="none" stroke="#88f" d="M -72.74575140626314 -11.225699414489638 A 11.803398874989488 11.803398874989488 0 0 0 -59.54915028125263 -29.389262614623668"/>
<path fill="#7ab" opacity="0.4" d="m-57.294901687515775,13.875727571288781 l-19.09830056250526,-13.875727571288781 l7.294901687515775,22.451398828979276 l19.09830056250526,13.875727571288781z"/>
<path fill="none" stroke="#f88" d="M -66.84405196876841 6.9378637856443905 A 11.803398874989487 11.803398874989487 0 0 0 -53.64745084375789 25.101426985778417"/>
<path fill="none" stroke="#88f" d="M -59.54915028125263 29.389262614623668 A 11.803398874989488 11.803398874989488 0 0 0 -72.74575140626314 11.225699414489638"/>
<path fill="#2f4" opacity="0.4" d="m-76.39320225002103,0.0 l19.09830056250526,13.875727571288781 l19.098300562505266,-13.875727571288781 l-19.09830056250526,-13.875727571288781z"/>
<path fill="none" stroke="#f88" d="M -66.84405196876841 6.9378637856443905 A 11.803398874989487 11.803398874989487 0 0 0 -66.84405196876841 -6.9378637856443905"/>
<path fill="none" stroke="#88f" d="M -47.74575140626314 -6.9378637856443905 A 11.80339887498949 11.80339887498949 0 0 0 -47.74575140626314 6.9378637856443905"/>
<path fill="#7d" opacity="0.4" d="m-57.29490168751578,-58.77852522924732 l7.294901687515768,22.451398828979272 l7.294901687515775,-22.451398828979272 l-7.294901687515768,-22.451398828979272z"/>
<path fill="none" stroke="#f88" d="M -53.647450843757895 -47.55282581475768 A 11.803398874989485 11.803398874989485 0 0 0 -53.647450843757895 -70.00422464373696"/>
<path fill="none" stroke="#88f" d="M -46.35254915624213 -70.00422464373696 A 11.803398874989487 11.803398874989487 0 0 0 -46.35254915624213 -47.55282581475768"/>
<path fill="#b71" opacity="0.4" d="m-57.29490168751578,58.77852522924732 l7.294901687515768,-22.451398828979272 l7.294901687515775,22.451398828979272 l-7.294901687515768,22.451398828979272z"/>
<path fill="none" stroke="#f88" d="M -53.647450843757895 70.00422464373696 A 11.803398874989485 11.803398874989485 0 0 0 -53.647450843757895 47.55282581475768"/>
<path fill="none" stroke="#88f" d="M -46.35254915624213 47.55282581475768 A 11.803398874989487 11.803398874989487 0 0 0 -46.35254915624213 70.00422464373696"/>
<path fill="#a7f" opacity="0.4" d="m-50.000000000000014,-36.32712640026805 l-7.294901687515761,22.45139882897927 l19.098300562505266,13.875727571288781 l7.294901687515761,-22.45139882897927z"/>
<path fill="none" stroke="#f88" d="M -53.647450843757895 -25.101426985778417 A 11.803398874989483 11.803398874989483 0 0 0 -40.45084971874738 -29.38926261462366"/>
<path fill="none" stroke="#88f" d="M -34.54915028125262 -11.225699414489634 A 11.80339887498949 11.80339887498949 0 0 0 -47.74575140626314 -6.9378637856443905"/>
<path fill="#e3" opacity="0.4" d="m-50.000000000000014,36.32712640026805 l-7.294901687515761,-22.45139882897927 l19.098300562505266,-13.875727571288781 l7.294901687515761,22.45139882897927z"/>
<path fill="none" stroke="#f88" d="M -40.45084971874738 29.38926261462366 A 11.803398874989483 11.803398874989483 0 0 0 -53.647450843757895 25.101426985778417"/>
<path fill="none" stroke="#88f" d="M -47.74575140626314 6.9378637856443905 A 11.80339887498949 11.80339887498949 0 0 0 -34.54915028125262 11.225699414489634"/>
<path fill="#86d" opacity="0.4" d="m-30.901699437494752,-50.20285397155682 l7.294901687515782,-22.45139882897928 l-19.09830056250527,13.875727571288778 l-7.294901687515782,22.45139882897928z"/>
<path fill="none" stroke="#f88" d="M -27.25424859373686 -61.42855338604646 A 11.803398874989492 11.803398874989492 0 0 0 -40.45084971874739 -43.26499018591243"/>
<path fill="none" stroke="#88f" d="M -46.352549156242134 -47.55282581475768 A 11.80339887498949 11.80339887498949 0 0 0 -33.1559480312316 -65.71638901489172"/>
<path fill="#2e2" opacity="0.4" d="m-30.901699437494752,50.20285397155682 l7.294901687515782,22.45139882897928 l-19.09830056250527,-13.875727571288778 l-7.294901687515782,-22.45139882897928z"/>
<path fill="none" stroke="#f88" d="M -40.45084971874739 43.26499018591243 A 11.803398874989492 11.803398874989492 0 0 0 -27.25424859373686 61.42855338604646"/>
<path fill="none" stroke="#88f" d="M -33.1559480312316 65.71638901489172 A 11.80339887498949 11.80339887498949 0 0 0 -46.352549156242134 47.55282581475768"/>
<path fill="#ef4" opacity="0.4" d="m-30.90169943749474,-95.10565162951536 l-19.09830056250526,13.875727571288778 l7.294901687515761,22.451398828979265 l19.09830056250526,-13.875727571288778z"/>
<path fill="none" stroke="#f88" d="M -40.45084971874737 -88.16778784387097 A 11.803398874989485 11.803398874989485 0 0 0 -27.25424859373686 -83.87995221502572"/>
<path fill="none" stroke="#88f" d="M -33.15594803123161 -65.71638901489172 A 11.803398874989481 11.803398874989481 0 0 0 -46.35254915624212 -70.00422464373696"/>
<path fill="#b27" opacity="0.4" d="m-30.90169943749474,95.10565162951536 l-19.09830056250526,-13.875727571288778 l7.294901687515761,-22.451398828979265 l19.09830056250526,13.875727571288778z"/>
<path fill="none" stroke="#f88" d="M -27.25424859373686 83.87995221502572 A 11.803398874989485 11.803398874989485 0 0 0 -40.45084971874737 88.16778784387097"/>
<path fill="none" stroke="#88f" d="M -46.35254915624212 70.00422464373696 A 11.803398874989481 11.803398874989481 0 0 0 -33.15594803123161 65.71638901489172"/>
<path fill="#f86" opacity="0.4" d="m-50.000000000000014,-36.32712640026805 l19.098300562505262,-13.87572757128877 l19.09830056250527,13.875727571288778 l-19.098300562505262,13.87572757128877z"/>
<path fill="none" stroke="#f88" d="M -40.45084971874738 -29.389262614623657 A 11.803398874989485 11.803398874989485 0 0 0 -40.450849718747385 -43.26499018591244"/>
<path fill="none" stroke="#88f" d="M -21.35254915624212 -43.26499018591243 A 11.80339887498949 11.80339887498949 0 0 0 -21.352549156242112 -29.389262614623654"/>
<path fill="#46b" opacity="0.4" d="m-50.000000000000014,36.32712640026805 l19.098300562505262,13.87572757128877 l19.09830056250527,-13.875727571288778 l-19.098300562505262,-13.87572757128877z"/>
<path fill="none" stroke="#f88" d="M -40.450849718747385 43.26499018591244 A 11.803398874989485 11.803398874989485 0 0 0 -40.45084971874738 29.389262614623657"/>
<path fill="none" stroke="#88f" d="M -21.352549156242112 29.389262614623654 A 11.80339887498949 11.80339887498949 0 0 0 -21.35254915624212 43.26499018591243"/>
<path fill="#c18" opacity="0.4" d="m-23.60679774997897,0.0 l-7.294901687515782,22.451398828979276 l-7.2949016875157575,-22.451398828979276 l7.294901687515782,-22.451398828979276z"/>
<path fill="none" stroke="#f88" d="M -27.25424859373685 -11.225699414489638 A 11.80339887498949 11.80339887498949 0 0 0 -27.25424859373686 11.225699414489638"/>
<path fill="none" stroke="#88f" d="M -34.54915028125263 11.225699414489638 A 11.803398874989485 11.803398874989485 0 0 0 -34.54915028125262 -11.225699414489638"/>
<path fill="#eb" opacity="0.4" d="m-23.60679774997897,-72.6542528005361 l19.098300562505262,13.875727571288792 l-7.294901687515776,22.451398828979265 l-19.098300562505262,-13.875727571288792z"/>
<path fill="none" stroke="#f88" d="M -27.254248593736854 -61.42855338604647 A 11.803398874989492 11.803398874989492 0 0 0 -14.057647468726339 -65.7163890148917"/>
<path fill="none" stroke="#88f" d="M -8.155948031231596 -47.552825814757675 A 11.803398874989483 11.803398874989483 0 0 0 -21.352549156242112 -43.26499018591244"/>
<path fill="#d05" opacity="0.4" d="m-23.60679774997897,72.6542528005361 l19.098300562505262,-13.875727571288792 l-7.294901687515776,-22.451398828979265 l-19.098300562505262,13.875727571288792z"/>
<path fill="none" stroke="#f88" d="M -14.057647468726339 65.7163890148917 A 11.803398874989492 11.803398874989492 0 0 0 -27.254248593736854 61.42855338604647"/>
<path fill="none" stroke="#88f" d="M -21.352549156242112 43.26499018591244 A 11.803398874989483 11.803398874989483 0 0 0 -8.155948031231596 47.552825814757675"/>
<path fill="#78e" opacity="0.4" d="m-30.901699437494752,-22.451398828979276 l23.60679774997898,7.105427357601002e-15 l7.294901687515773,22.45139882897927 l-23.60679774997898,-7.105427357601002e-15z"/>
<path fill="none" stroke="#f88" d="M -27.254248593736868 -11.225699414489641 A 11.80339887498949 11.80339887498949 0 0 0 -19.098300562505262 -22.451398828979272"/>
<path fill="none" stroke="#88f" d="M -3.6474508437578863 -11.225699414489634 A 11.803398874989485 11.803398874989485 0 0 0 -11.80339887498949 -3.552713678800501e-15"/>
<path fill="#e16" opacity="0.4" d="m-30.901699437494752,22.451398828979276 l23.60679774997898,-7.105427357601002e-15 l7.294901687515773,-22.45139882897927 l-23.60679774997898,7.105427357601002e-15z"/>
<path fill="none" stroke="#f88" d="M -19.098300562505262 22.451398828979272 A 11.80339887498949 11.80339887498949 0 0 0 -27.254248593736868 11.225699414489641"/>
<path fill="none" stroke="#88f" d="M -11.80339887498949 3.552713678800501e-15 A 11.803398874989485 11.803398874989485 0 0 0 -3.6474508437578863 11.225699414489634"/>
<path fill="#c83" opacity="0.4" d="m-30.90169943749474,-95.10565162951536 l23.606797749978966,0.0 l7.294901687515779,22.45139882897928 l-23.606797749978966,-0.0z"/>
<path fill="none" stroke="#f88" d="M -27.25424859373685 -83.87995221502572 A 11.803398874989483 11.803398874989483 0 0 0 -19.09830056250526 -95.10565162951536"/>
<path fill="none" stroke="#88f" d="M -3.647450843757884 -83.87995221502572 A 11.80339887498949 11.80339887498949 0 0 0 -11.803398874989476 -72.65425280053609"/>
<path fill="#cf5" opacity="0.4" d="m-30.90169943749474,95.10565162951536 l23.606797749978966,0.0 l7.294901687515779,-22.45139882897928 l-23.606797749978966,-0.0z"/>
<path fill="none" stroke="#f88" d="M -19.09830056250526 95.10565162951536 A 11.803398874989483 11.803398874989483 0 0 0 -27.25424859373685 83.87995221502572"/>
<path fill="none" stroke="#88f" d="M -11.803398874989476 72.65425280053609 A 11.80339887498949 11.80339887498949 0 0 0 -3.647450843757884 83.87995221502572"/>
<path fill="#60b" opacity="0.4" d="m-7.294901687515773,-22.45139882897927 l19.098300562505262,-13.875727571288781 l-23.606797749978973,7.105427357601002e-15 l-19.098300562505262,13.875727571288781z"/>
<path fill="none" stroke="#f88" d="M 2.254248593736858 -29.38926261462366 A 11.803398874989488 11.803398874989488 0 0 0 -19.09830056250526 -22.451398828979265"/>
<path fill="none" stroke="#88f" d="M -21.352549156242112 -29.38926261462365 A 11.803398874989487 11.803398874989487 0 0 0 2.6645352591003757e-15 -36.32712640026804"/>
<path fill="#384" opacity="0.4" d="m-7.294901687515773,22.45139882897927 l19.098300562505262,13.875727571288781 l-23.606797749978973,-7.105427357601002e-15 l-19.098300562505262,-13.875727571288781z"/>
<path fill="none" stroke="#f88" d="M -19.09830056250526 22.451398828979265 A 11.803398874989488 11.803398874989488 0 0 0 2.254248593736858 29.38926261462366"/>
<path fill="none" stroke="#88f" d="M 2.6645352591003757e-15 36.32712640026804 A 11.803398874989487 11.803398874989487 0 0 0 -21.352549156242112 29.38926261462365"/>
<path fill="#415" opacity="0.4" d="m-4.508497187473707,-58.77852522924731 l-19.098300562505262,-13.875727571288792 l23.606797749978973,1.4210854715202004e-14 l19.098300562505262,13.875727571288792z"/>
<path fill="none" stroke="#f88" d="M 7.294901687515781 -58.77852522924729 A 11.803398874989492 11.803398874989492 0 0 0 -14.057647468726339 -65.7163890148917"/>
<path fill="none" stroke="#88f" d="M -11.803398874989483 -72.65425280053609 A 11.803398874989487 11.803398874989487 0 0 0 9.549150281252636 -65.71638901489169"/>
<path fill="#651" opacity="0.4" d="m-4.508497187473707,58.77852522924731 l-19.098300562505262,13.875727571288792 l23.606797749978973,-1.4210854715202004e-14 l19.098300562505262,-13.875727571288792z"/>
<path fill="none" stroke="#f88" d="M -14.057647468726339 65.7163890148917 A 11.803398874989492 11.803398874989492 0 0 0 7.294901687515781 58.77852522924729"/>
<path fill="none" stroke="#88f" d="M 9.549150281252636 65.71638901489169 A 11.803398874989487 11.803398874989487 0 0 0 -11.803398874989483 72.65425280053609"/>
<path fill="#757" opacity="0.4" d="m19.098300562505262,-58.77852522924732 l-23.60679774997897,1.4210854715202004e-14 l-7.294901687515776,22.451398828979265 l23.60679774997897,-1.4210854715202004e-14z"/>
<path fill="none" stroke="#f88" d="M 7.294901687515777 -58.778525229247315 A 11.803398874989485 11.803398874989485 0 0 0 15.450849718747374 -47.55282581475769"/>
<path fill="none" stroke="#88f" d="M 1.7763568394002505e-15 -36.32712640026805 A 11.803398874989483 11.803398874989483 0 0 0 -8.155948031231596 -47.552825814757675"/>
<path fill="#bcd" opacity="0.4" d="m19.098300562505262,58.77852522924732 l-23.60679774997897,-1.4210854715202004e-14 l-7.294901687515776,-22.451398828979265 l23.60679774997897,1.4210854715202004e-14z"/>
<path fill="none" stroke="#f88" d="M 15.450849718747374 47.55282581475769 A 11.803398874989485 11.803398874989485 0 0 0 7.294901687515777 58.778525229247315"/>
<path fill="none" stroke="#88f" d="M -8.155948031231596 47.552825814757675 A 11.803398874989483 11.803398874989483 0 0 0 1.7763568394002505e-15 36.32712640026805"/>
<path fill="#a46" opacity="0.4" d="m11.803398874989488,-36.32712640026805 l7.294901687515766,22.451398828979276 l-19.098300562505255,13.875727571288774 l-7.294901687515766,-22.451398828979276z"/>
<path fill="none" stroke="#f88" d="M 2.254248593736861 -29.38926261462366 A 11.803398874989487 11.803398874989487 0 0 0 15.45084971874737 -25.10142698577841"/>
<path fill="none" stroke="#88f" d="M 9.549150281252627 -6.937863785644387 A 11.803398874989483 11.803398874989483 0 0 0 -3.647450843757883 -11.225699414489638"/>
<path fill="#4c4" opacity="0.4" d="m11.803398874989488,36.32712640026805 l7.294901687515766,-22.451398828979276 l-19.098300562505255,-13.875727571288774 l-7.294901687515766,22.451398828979276z"/>
<path fill="none" stroke="#f88" d="M 15.45084971874737 25.10142698577841 A 11.803398874989487 11.803398874989487 0 0 0 2.254248593736861 29.38926261462366"/>
<path fill="none" stroke="#88f" d="M -3.647450843757883 11.225699414489638 A 11.803398874989483 11.803398874989483 0 0 0 9.549150281252627 6.937863785644387"/>
<path fill="#8f7" opacity="0.4" d="m11.803398874989488,-81.22992405822657 l7.2949016875157735,22.45139882897925 l-19.09830056250526,-13.875727571288763 l-7.2949016875157735,-22.45139882897925z"/>
<path fill="none" stroke="#f88" d="M 2.25424859373686 -88.16778784387095 A 11.803398874989476 11.803398874989476 0 0 0 15.450849718747374 -70.00422464373695"/>
<path fill="none" stroke="#88f" d="M 9.549150281252633 -65.7163890148917 A 11.803398874989481 11.803398874989481 0 0 0 -3.6474508437578814 -83.87995221502571"/>
<path fill="#6d7" opacity="0.4" d="m11.803398874989488,81.22992405822657 l7.2949016875157735,-22.45139882897925 l-19.09830056250526,13.875727571288763 l-7.2949016875157735,22.45139882897925z"/>
<path fill="none" stroke="#f88" d="M 15.450849718747374 70.00422464373695 A 11.803398874989476 11.803398874989476 0 0 0 2.25424859373686 88.16778784387095"/>
<path fill="none" stroke="#88f" d="M -3.6474508437578814 83.87995221502571 A 11.803398874989481 11.803398874989481 0 0 0 9.549150281252633 65.7163890148917"/>
<path fill="#2ae" opacity="0.4" d="m-7.2949016875157735,-95.10565162951536 l19.098300562505262,13.875727571288792 l19.09830056250526,-13.875727571288792 l-19.098300562505262,-13.875727571288792z"/>
<path fill="none" stroke="#f88" d="M 2.2542485937368575 -88.16778784387097 A 11.803398874989492 11.803398874989492 0 0 0 2.2542485937368557 -102.04351541515976"/>
<path fill="none" stroke="#88f" d="M 21.352549156242116 -102.04351541515976 A 11.80339887498949 11.80339887498949 0 0 0 21.35254915624212 -88.16778784387097"/>
<path fill="#493" opacity="0.4" d="m-7.2949016875157735,95.10565162951536 l19.098300562505262,-13.875727571288792 l19.09830056250526,13.875727571288792 l-19.098300562505262,13.875727571288792z"/>
<path fill="none" stroke="#f88" d="M 2.2542485937368557 102.04351541515976 A 11.803398874989492 11.803398874989492 0 0 0 2.2542485937368575 88.16778784387097"/>
<path fill="none" stroke="#88f" d="M 21.35254915624212 88.16778784387097 A 11.80339887498949 11.80339887498949 0 0 0 21.352549156242116 102.04351541515976"/>
<path fill="#c26" opacity="0.4" d="m38.196601125010524,0.0 l-19.09830056250527,13.875727571288774 l-19.098300562505255,-13.875727571288774 l19.09830056250527,-13.875727571288774z"/>
<path fill="none" stroke="#f88" d="M 28.647450843757895 -6.937863785644387 A 11.803398874989488 11.803398874989488 0 0 0 28.647450843757888 6.937863785644387"/>
<path fill="none" stroke="#88f" d="M 9.549150281252627 6.937863785644387 A 11.803398874989483 11.803398874989483 0 0 0 9.549150281252635 -6.937863785644387"/>
<path fill="#a71" opacity="0.4" d="m19.098300562505255,-13.875727571288774 l19.09830056250527,13.875727571288774 l-7.294901687515786,-22.451398828979265 l-19.09830056250527,-13.875727571288774z"/>
<path fill="none" stroke="#f88" d="M 28.647450843757888 -6.937863785644387 A 11.803398874989488 11.803398874989488 0 0 0 15.450849718747362 -25.10142698577841"/>
<path fill="none" stroke="#88f" d="M 21.352549156242105 -29.389262614623654 A 11.803398874989485 11.803398874989485 0 0 0 34.54915028125263 -11.225699414489632"/>
<path fill="#b8a" opacity="0.4" d="m19.098300562505255,13.875727571288774 l19.09830056250527,-13.875727571288774 l-7.294901687515786,22.451398828979265 l-19.09830056250527,13.875727571288774z"/>
<path fill="none" stroke="#f88" d="M 15.450849718747362 25.10142698577841 A 11.803398874989488 11.803398874989488 0 0 0 28.647450843757888 6.937863785644387"/>
<path fill="none" stroke="#88f" d="M 34.54915028125263 11.225699414489632 A 11.803398874989485 11.803398874989485 0 0 0 21.352549156242105 29.389262614623654"/>
<path fill="#1a3" opacity="0.4" d="m19.098300562505262,-58.77852522924732 l19.098300562505248,13.875727571288778 l-7.294901687515772,22.45139882897928 l-19.098300562505248,-13.875727571288778z"/>
<path fill="none" stroke="#f88" d="M 15.450849718747376 -47.55282581475768 A 11.803398874989481 11.803398874989481 0 0 0 28.647450843757888 -51.84066144360293"/>
<path fill="none" stroke="#88f" d="M 34.54915028125262 -33.677098243468905 A 11.80339887498949 11.80339887498949 0 0 0 21.352549156242112 -29.389262614623654"/>
<path fill="#b2b" opacity="0.4" d="m19.098300562505262,58.77852522924732 l19.098300562505248,-13.875727571288778 l-7.294901687515772,-22.45139882897928 l-19.098300562505248,13.875727571288778z"/>
<path fill="none" stroke="#f88" d="M 28.647450843757888 51.84066144360293 A 11.803398874989481 11.803398874989481 0 0 0 15.450849718747376 47.55282581475768"/>
<path fill="none" stroke="#88f" d="M 21.352549156242112 29.389262614623654 A 11.80339887498949 11.80339887498949 0 0 0 34.54915028125262 33.677098243468905"/>
<path fill="#82c" opacity="0.4" d="m19.098300562505262,-58.77852522924732 l19.098300562505255,-13.875727571288763 l-7.294901687515768,-22.45139882897928 l-19.098300562505255,13.875727571288763z"/>
<path fill="none" stroke="#f88" d="M 28.647450843757888 -65.7163890148917 A 11.80339887498948 11.80339887498948 0 0 0 15.45084971874738 -70.00422464373696"/>
<path fill="none" stroke="#88f" d="M 21.352549156242123 -88.16778784387098 A 11.803398874989488 11.803398874989488 0 0 0 34.549150281252636 -83.87995221502572"/>
<path fill="#a65" opacity="0.4" d="m19.098300562505262,58.77852522924732 l19.098300562505255,13.875727571288763 l-7.294901687515768,22.45139882897928 l-19.098300562505255,-13.875727571288763z"/>
<path fill="none" stroke="#f88" d="M 15.45084971874738 70.00422464373696 A 11.80339887498948 11.80339887498948 0 0 0 28.647450843757888 65.7163890148917"/>
<path fill="none" stroke="#88f" d="M 34.549150281252636 83.87995221502572 A 11.803398874989488 11.803398874989488 0 0 0 21.352549156242123 88.16778784387098"/>
<path fill="#6bf" opacity="0.4" d="m38.19660112501051,-44.902797657958544 l23.60679774997898,0.0 l-19.098300562505266,-13.87572757128877 l-23.60679774997898,-0.0z"/>
<path fill="none" stroke="#f88" d="M 50.0 -44.902797657958544 A 11.80339887498949 11.80339887498949 0 0 0 28.647450843757873 -51.840661443602926"/>
<path fill="none" stroke="#88f" d="M 30.90169943749473 -58.77852522924731 A 11.803398874989487 11.803398874989487 0 0 0 52.25424859373686 -51.840661443602926"/>
<path fill="#7b1" opacity="0.4" d="m38.19660112501051,44.902797657958544 l23.60679774997898,0.0 l-19.098300562505266,13.87572757128877 l-23.60679774997898,-0.0z"/>
<path fill="none" stroke="#f88" d="M 28.647450843757873 51.840661443602926 A 11.80339887498949 11.80339887498949 0 0 0 50.0 44.902797657958544"/>
<path fill="none" stroke="#88f" d="M 52.25424859373686 51.840661443602926 A 11.803398874989487 11.803398874989487 0 0 0 30.90169943749473 58.77852522924731"/>
<path fill="#a82" opacity="0.4" d="m38.19660112501052,-72.65425280053609 l-19.098300562505255,13.875727571288763 l23.606797749978963,7.105427357601002e-15 l19.098300562505255,-13.875727571288763z"/>
<path fill="none" stroke="#f88" d="M 28.647450843757888 -65.7163890148917 A 11.80339887498948 11.80339887498948 0 0 0 50.0 -72.65425280053609"/>
<path fill="none" stroke="#88f" d="M 52.254248593736854 -65.7163890148917 A 11.803398874989481 11.803398874989481 0 0 0 30.90169943749474 -58.77852522924732"/>
<path fill="#e2" opacity="0.4" d="m38.19660112501052,72.65425280053609 l-19.098300562505255,-13.875727571288763 l23.606797749978963,-7.105427357601002e-15 l19.098300562505255,13.875727571288763z"/>
<path fill="none" stroke="#f88" d="M 50.0 72.65425280053609 A 11.80339887498948 11.80339887498948 0 0 0 28.647450843757888 65.7163890148917"/>
<path fill="none" stroke="#88f" d="M 30.90169943749474 58.77852522924732 A 11.803398874989481 11.803398874989481 0 0 0 52.254248593736854 65.7163890148917"/>
<path fill="#9f8" opacity="0.4" d="m61.80339887498949,-44.902797657958544 l-7.294901687515775,22.45139882897928 l-23.606797749978977,0.0 l7.294901687515775,-22.45139882897928z"/>
<path fill="none" stroke="#f88" d="M 50.0 -44.902797657958544 A 11.80339887498949 11.80339887498949 0 0 0 58.1559480312316 -33.677098243468905"/>
<path fill="none" stroke="#88f" d="M 42.705098312484225 -22.451398828979265 A 11.803398874989488 11.803398874989488 0 0 0 34.54915028125262 -33.677098243468905"/>
<path fill="#9b3" opacity="0.4" d="m61.80339887498949,-0.0 l-7.294901687515775,-22.451398828979265 l-23.606797749978977,0.0 l7.294901687515775,22.451398828979265z"/>
<path fill="none" stroke="#f88" d="M 58.1559480312316 -11.225699414489632 A 11.803398874989483 11.803398874989483 0 0 0 50.0 0.0"/>
<path fill="none" stroke="#88f" d="M 34.54915028125262 -11.225699414489632 A 11.803398874989488 11.803398874989488 0 0 0 42.705098312484225 -22.451398828979265"/>
<path fill="#ab0" opacity="0.4" d="m61.80339887498949,0.0 l-7.294901687515775,22.451398828979265 l-23.606797749978977,0.0 l7.294901687515775,-22.451398828979265z"/>
<path fill="none" stroke="#f88" d="M 50.0 0.0 A 11.803398874989483 11.803398874989483 0 0 0 58.1559480312316 11.225699414489632"/>
<path fill="none" stroke="#88f" d="M 42.705098312484225 22.451398828979265 A 11.803398874989488 11.803398874989488 0 0 0 34.54915028125262 11.225699414489632"/>
<path fill="#a27" opacity="0.4" d="m61.80339887498949,44.902797657958544 l-7.294901687515775,-22.45139882897928 l-23.606797749978977,0.0 l7.294901687515775,22.45139882897928z"/>
<path fill="none" stroke="#f88" d="M 58.1559480312316 33.677098243468905 A 11.80339887498949 11.80339887498949 0 0 0 50.0 44.902797657958544"/>
<path fill="none" stroke="#88f" d="M 34.54915028125262 33.677098243468905 A 11.803398874989488 11.803398874989488 0 0 0 42.705098312484225 22.451398828979265"/>
<path fill="#e5d" opacity="0.4" d="m61.80339887498949,-72.65425280053609 l-23.606797749978973,0.0 l-7.294901687515768,-22.45139882897928 l23.606797749978973,-0.0z"/>
<path fill="none" stroke="#f88" d="M 58.1559480312316 -83.87995221502572 A 11.803398874989487 11.803398874989487 0 0 0 50.0 -72.65425280053609"/>
<path fill="none" stroke="#88f" d="M 34.549150281252636 -83.87995221502572 A 11.803398874989488 11.803398874989488 0 0 0 42.70509831248424 -95.10565162951536"/>
<path fill="#d8e" opacity="0.4" d="m61.80339887498949,72.65425280053609 l-23.606797749978973,0.0 l-7.294901687515768,22.45139882897928 l23.606797749978973,-0.0z"/>
<path fill="none" stroke="#f88" d="M 50.0 72.65425280053609 A 11.803398874989487 11.803398874989487 0 0 0 58.1559480312316 83.87995221502572"/>
<path fill="none" stroke="#88f" d="M 42.70509831248424 95.10565162951536 A 11.803398874989488 11.803398874989488 0 0 0 34.549150281252636 83.87995221502572"/>
<path fill="#d96" opacity="0.4" d="m80.90169943749474,-58.778525229247315 l-19.09830056250525,-13.87572757128877 l-19.098300562505266,13.87572757128877 l19.09830056250525,13.87572757128877z"/>
<path fill="none" stroke="#f88" d="M 71.35254915624212 -65.7163890148917 A 11.803398874989481 11.803398874989481 0 0 0 71.3525491562421 -51.840661443602926"/>
<path fill="none" stroke="#88f" d="M 52.25424859373685 -51.840661443602926 A 11.803398874989487 11.803398874989487 0 0 0 52.25424859373686 -65.7163890148917"/>
<path fill="#573" opacity="0.4" d="m54.508497187473715,-22.451398828979265 l7.294901687515775,-22.45139882897928 l7.294901687515768,22.45139882897928 l-7.294901687515775,22.45139882897928z"/>
<path fill="none" stroke="#f88" d="M 58.155948031231596 -11.225699414489625 A 11.80339887498949 11.80339887498949 0 0 0 58.1559480312316 -33.677098243468905"/>
<path fill="none" stroke="#88f" d="M 65.45084971874738 -33.677098243468905 A 11.803398874989488 11.803398874989488 0 0 0 65.45084971874736 -11.225699414489625"/>
<path fill="#71b" opacity="0.4" d="m54.508497187473715,22.451398828979265 l7.294901687515775,22.45139882897928 l7.294901687515768,-22.45139882897928 l-7.294901687515775,-22.45139882897928z"/>
<path fill="none" stroke="#f88" d="M 58.1559480312316 33.677098243468905 A 11.80339887498949 11.80339887498949 0 0 0 58.155948031231596 11.225699414489625"/>
<path fill="none" stroke="#88f" d="M 65.45084971874736 11.225699414489625 A 11.803398874989488 11.803398874989488 0 0 0 65.45084971874738 33.677098243468905"/>
<path fill="#ee3" opacity="0.4" d="m80.90169943749474,58.778525229247315 l-19.09830056250525,13.87572757128877 l-19.098300562505266,-13.87572757128877 l19.09830056250525,-13.87572757128877z"/>
<path fill="none" stroke="#f88" d="M 71.3525491562421 51.840661443602926 A 11.803398874989481 11.803398874989481 0 0 0 71.35254915624212 65.7163890148917"/>
<path fill="none" stroke="#88f" d="M 52.25424859373686 65.7163890148917 A 11.803398874989487 11.803398874989487 0 0 0 52.25424859373685 51.840661443602926"/>
<path fill="#a7a" opacity="0.4" d="m80.90169943749474,-58.778525229247315 l7.294901687515775,22.451398828979265 l-19.09830056250526,13.875727571288785 l-7.294901687515775,-22.451398828979265z"/>
<path fill="none" stroke="#f88" d="M 71.3525491562421 -51.84066144360292 A 11.803398874989483 11.803398874989483 0 0 0 84.54915028125262 -47.55282581475768"/>
<path fill="none" stroke="#88f" d="M 78.6474508437579 -29.389262614623657 A 11.803398874989488 11.803398874989488 0 0 0 65.45084971874738 -33.67709824346889"/>
<path fill="#1f8" opacity="0.4" d="m80.90169943749474,-13.875727571288774 l-19.09830056250525,13.875727571288774 l7.294901687515768,-22.451398828979265 l19.09830056250525,-13.875727571288774z"/>
<path fill="none" stroke="#f88" d="M 84.54915028125262 -25.10142698577841 A 11.803398874989481 11.803398874989481 0 0 0 71.35254915624212 -6.937863785644387"/>
<path fill="none" stroke="#88f" d="M 65.45084971874738 -11.225699414489632 A 11.803398874989483 11.803398874989483 0 0 0 78.6474508437579 -29.389262614623654"/>
<path fill="#ab1" opacity="0.4" d="m80.90169943749474,13.875727571288774 l-19.09830056250525,-13.875727571288774 l7.294901687515768,22.451398828979265 l19.09830056250525,13.875727571288774z"/>
<path fill="none" stroke="#f88" d="M 71.35254915624212 6.937863785644387 A 11.803398874989481 11.803398874989481 0 0 0 84.54915028125262 25.10142698577841"/>
<path fill="none" stroke="#88f" d="M 78.6474508437579 29.389262614623654 A 11.803398874989483 11.803398874989483 0 0 0 65.45084971874738 11.225699414489632"/>
<path fill="#95" opacity="0.4" d="m80.90169943749474,58.778525229247315 l7.294901687515775,-22.451398828979265 l-19.09830056250526,-13.875727571288785 l-7.294901687515775,22.451398828979265z"/>
<path fill="none" stroke="#f88" d="M 84.54915028125262 47.55282581475768 A 11.803398874989483 11.803398874989483 0 0 0 71.3525491562421 51.84066144360292"/>
<path fill="none" stroke="#88f" d="M 65.45084971874738 33.67709824346889 A 11.803398874989488 11.803398874989488 0 0 0 78.6474508437579 29.389262614623657"/>
<path fill="#e52" opacity="0.4" d="m61.80339887498949,0.0 l19.09830056250525,13.875727571288774 l19.09830056250526,-13.875727571288774 l-19.09830056250525,-13.875727571288774z"/>
<path fill="none" stroke="#f88" d="M 71.35254915624212 6.937863785644387 A 11.803398874989481 11.803398874989481 0 0 0 71.35254915624212 -6.937863785644387"/>
<path fill="none" stroke="#88f" d="M 90.45084971874738 -6.937863785644387 A 11.803398874989485 11.803398874989485 0 0 0 90.45084971874738 6.937863785644387"/>
<path fill="#ce1" opacity="0.4" d="m88.19660112501052,-36.32712640026805 l-7.294901687515775,22.451398828979276 l19.09830056250526,13.875727571288774 l7.294901687515775,-22.451398828979276z"/>
<path fill="none" stroke="#f88" d="M 84.54915028125262 -25.10142698577841 A 11.803398874989488 11.803398874989488 0 0 0 97.74575140626314 -29.38926261462366"/>
<path fill="none" stroke="#88f" d="M 103.6474508437579 -11.225699414489638 A 11.803398874989485 11.803398874989485 0 0 0 90.45084971874738 -6.937863785644387"/>
<path fill="#fa3" opacity="0.4" d="m88.19660112501052,36.32712640026805 l-7.294901687515775,-22.451398828979276 l19.09830056250526,-13.875727571288774 l7.294901687515775,22.451398828979276z"/>
<path fill="none" stroke="#f88" d="M 97.74575140626314 29.38926261462366 A 11.803398874989488 11.803398874989488 0 0 0 84.54915028125262 25.10142698577841"/>
<path fill="none" stroke="#88f" d="M 90.45084971874738 6.937863785644387 A 11.803398874989485 11.803398874989485 0 0 0 103.6474508437579 11.225699414489638"/>
</g>
</svg>