<?xml version="1.0" encoding="utf-8"?>
<svg width="100%" height="100%" viewBox="-105.0 -105.0 210.0 210.0" preserveAspectRatio="xMidYMid meet" version="1.1" baseProfile="full" xmlns="http://www.w3.org/2000/svg">
<g style="stroke:#fff; stroke-width: 0.450849718747; stroke-linejoin: round;">
<path fill="#0035f3" fill-opacity="0.6" d="m-38.196601125,0.0 l-5.90169943749,4.28783562885 l-5.90169943749,-4.28783562885 l5.90169943749,-4.28783562885z"/>
<path fill="#08f" fill-opacity="0.6" d="m-44.0983005625,-4.28783562885 l5.90169943749,4.28783562885 l-2.25424859374,-6.93786378564 l-5.90169943749,-4.28783562885z"/>
<path fill="#08f" fill-opacity="0.6" d="m-44.0983005625,4.28783562885 l5.90169943749,-4.28783562885 l-2.25424859374,6.93786378564 l-5.90169943749,4.28783562885z"/>
<path fill="#0035f3" fill-opacity="0.6" d="m-30.9016994375,-13.8757275713 l-2.25424859374,6.93786378564 l-7.29490168752,8.881784197e-16 l2.25424859374,-6.93786378564z"/>
<path fill="#0035f3" fill-opacity="0.6" d="m-30.9016994375,-0.0 l-2.25424859374,-6.93786378564 l-7.29490168752,8.881784197e-16 l2.25424859374,6.93786378564z"/>
<path fill="#0035f3" fill-opacity="0.6" d="m-30.9016994375,0.0 l-2.25424859374,6.93786378564 l-7.29490168752,-8.881784197e-16 l2.25424859374,-6.93786378564z"/>
<path fill="#0035f3" fill-opacity="0.6" d="m-30.9016994375,13.8757275713 l-2.25424859374,-6.93786378564 l-7.29490168752,-8.881784197e-16 l2.25424859374,6.93786378564z"/>
<path fill="#08f" fill-opacity="0.6" d="m-33.1559480312,-6.93786378564 l2.25424859374,-6.93786378564 l2.25424859374,6.93786378564 l-2.25424859374,6.93786378564z"/>
<path fill="#08f" fill-opacity="0.6" d="m-33.1559480312,6.93786378564 l2.25424859374,6.93786378564 l2.25424859374,-6.93786378564 l-2.25424859374,-6.93786378564z"/>
<path fill="#08f" fill-opacity="0.6" d="m-25.0,-4.28783562885 l-5.90169943749,4.28783562885 l2.25424859374,-6.93786378564 l5.90169943749,-4.28783562885z"/>
<path fill="#08f" fill-opacity="0.6" d="m-25.0,4.28783562885 l-5.90169943749,-4.28783562885 l2.25424859374,6.93786378564 l5.90169943749,4.28783562885z"/>
<path fill="#0035f3" fill-opacity="0.6" d="m-25.0,-18.1635632001 l-5.90169943749,4.28783562885 l2.25424859374,6.93786378564 l5.90169943749,-4.28783562885z"/>
<path fill="#0035f3" fill-opacity="0.6" d="m-25.0,18.1635632001 l-5.90169943749,-4.28783562885 l2.25424859374,-6.93786378564 l5.90169943749,4.28783562885z"/>
<path fill="#0035f3" fill-opacity="0.6" d="m-30.9016994375,0.0 l5.90169943749,4.28783562885 l5.90169943749,-4.28783562885 l-5.90169943749,-4.28783562885z"/>
<path fill="#0035f3" fill-opacity="0.6" d="m-22.7457514063,-11.2256994145 l-2.25424859374,6.93786378564 l5.90169943749,4.28783562885 l2.25424859374,-6.93786378564z"/>
<path fill="#0035f3" fill-opacity="0.6" d="m-22.7457514063,11.2256994145 l-2.25424859374,-6.93786378564 l5.90169943749,-4.28783562885 l2.25424859374,6.93786378564z"/>
<path fill="#0035f3" fill-opacity="0.6" d="m-25.0,-18.1635632001 l7.29490168752,0.0 l2.25424859374,6.93786378564 l-7.29490168752,-0.0z"/>
<path fill="#0035f3" fill-opacity="0.6" d="m-25.0,18.1635632001 l7.29490168752,0.0 l2.25424859374,-6.93786378564 l-7.29490168752,-0.0z"/>
<path fill="#08f" fill-opacity="0.6" d="m-17.7050983125,-18.1635632001 l5.90169943749,-4.28783562885 l-7.29490168752,0.0 l-5.90169943749,4.28783562885z"/>
<path fill="#08f" fill-opacity="0.6" d="m-17.7050983125,18.1635632001 l5.90169943749,4.28783562885 l-7.29490168752,0.0 l-5.90169943749,-4.28783562885z"/>
<path fill="#08f" fill-opacity="0.6" d="m-16.8440519688,-6.93786378564 l7.29490168752,-3.5527136788e-15 l-5.90169943749,-4.28783562885 l-7.29490168752,3.5527136788e-15z"/>
<path fill="#08f" fill-opacity="0.6" d="m-16.8440519688,6.93786378564 l7.29490168752,3.5527136788e-15 l-5.90169943749,4.28783562885 l-7.29490168752,-3.5527136788e-15z"/>
<path fill="#0035f3" fill-opacity="0.6" d="m-9.54915028125,-6.93786378564 l-2.25424859374,6.93786378564 l-7.29490168752,0.0 l2.25424859374,-6.93786378564z"/>
<path fill="#0035f3" fill-opacity="0.6" d="m-9.54915028125,6.93786378564 l-2.25424859374,-6.93786378564 l-7.29490168752,0.0 l2.25424859374,6.93786378564z"/>
<path fill="#0035f3" fill-opacity="0.6" d="m-9.54915028125,-29.3892626146 l-2.25424859374,6.93786378564 l-7.29490168752,0.0 l2.25424859374,-6.93786378564z"/>
<path fill="#0035f3" fill-opacity="0.6" d="m-9.54915028125,29.3892626146 l-2.25424859374,-6.93786378564 l-7.29490168752,0.0 l2.25424859374,6.93786378564z"/>
<path fill="#0035f3" fill-opacity="0.6" d="m-11.803398875,-22.451398829 l2.25424859374,6.93786378564 l-5.90169943749,4.28783562885 l-2.25424859374,-6.93786378564z"/>
<path fill="#0035f3" fill-opacity="0.6" d="m-11.803398875,22.451398829 l2.25424859374,-6.93786378564 l-5.90169943749,-4.28783562885 l-2.25424859374,6.93786378564z"/>
<path fill="#08f" fill-opacity="0.6" d="m-11.803398875,0.0 l2.25424859374,6.93786378564 l2.25424859374,-6.93786378564 l-2.25424859374,-6.93786378564z"/>
<path fill="#0035f3" fill-opacity="0.6" d="m-3.64745084376,-11.2256994145 l-5.90169943749,-4.28783562885 l-5.90169943749,4.28783562885 l5.90169943749,4.28783562885z"/>
<path fill="#0035f3" fill-opacity="0.6" d="m-3.64745084376,11.2256994145 l-5.90169943749,4.28783562885 l-5.90169943749,-4.28783562885 l5.90169943749,-4.28783562885z"/>
<path fill="#08f" fill-opacity="0.6" d="m-9.54915028125,-15.5135350433 l-2.25424859374,-6.93786378564 l5.90169943749,4.28783562885 l2.25424859374,6.93786378564z"/>
<path fill="#08f" fill-opacity="0.6" d="m-9.54915028125,15.5135350433 l-2.25424859374,6.93786378564 l5.90169943749,-4.28783562885 l2.25424859374,-6.93786378564z"/>
<path fill="#0035f3" fill-opacity="0.6" d="m-9.54915028125,-29.3892626146 l5.90169943749,4.28783562885 l-2.25424859374,6.93786378564 l-5.90169943749,-4.28783562885z"/>
<path fill="#0035f3" fill-opacity="0.6" d="m-9.54915028125,29.3892626146 l5.90169943749,-4.28783562885 l-2.25424859374,-6.93786378564 l-5.90169943749,4.28783562885z"/>
<path fill="#0035f3" fill-opacity="0.6" d="m-3.64745084376,-11.2256994145 l2.25424859374,6.93786378564 l-5.90169943749,4.28783562885 l-2.25424859374,-6.93786378564z"/>
<path fill="#0035f3" fill-opacity="0.6" d="m-3.64745084376,11.2256994145 l2.25424859374,-6.93786378564 l-5.90169943749,-4.28783562885 l-2.25424859374,6.93786378564z"/>
<path fill="#08f" fill-opacity="0.6" d="m-1.39320225002,-18.1635632001 l-2.25424859374,6.93786378564 l-2.25424859374,-6.93786378564 l2.25424859374,-6.93786378564z"/>
<path fill="#08f" fill-opacity="0.6" d="m-1.39320225002,18.1635632001 l-2.25424859374,-6.93786378564 l-2.25424859374,6.93786378564 l2.25424859374,6.93786378564z"/>
<path fill="#0035f3" fill-opacity="0.6" d="m-9.54915028125,-29.3892626146 l5.90169943749,4.28783562885 l5.90169943749,-4.28783562885 l-5.90169943749,-4.28783562885z"/>
<path fill="#0035f3" fill-opacity="0.6" d="m-9.54915028125,29.3892626146 l5.90169943749,-4.28783562885 l5.90169943749,4.28783562885 l-5.90169943749,4.28783562885z"/>
<path fill="#0035f3" fill-opacity="0.6" d="m4.50849718747,0.0 l-5.90169943749,4.28783562885 l-5.90169943749,-4.28783562885 l5.90169943749,-4.28783562885z"/>
<path fill="#08f" fill-opacity="0.6" d="m-1.39320225002,-4.28783562885 l5.90169943749,4.28783562885 l-2.25424859374,-6.93786378564 l-5.90169943749,-4.28783562885z"/>
<path fill="#08f" fill-opacity="0.6" d="m-1.39320225002,4.28783562885 l5.90169943749,-4.28783562885 l-2.25424859374,6.93786378564 l-5.90169943749,4.28783562885z"/>
<path fill="#0035f3" fill-opacity="0.6" d="m-3.64745084376,-33.6770982435 l7.29490168752,7.1054273576e-15 l2.25424859374,-6.93786378564 l-7.29490168752,-7.1054273576e-15z"/>
<path fill="#0035f3" fill-opacity="0.6" d="m-3.64745084376,-25.1014269858 l2.25424859374,6.93786378564 l7.29490168752,-3.5527136788e-15 l-2.25424859374,-6.93786378564z"/>
<path fill="#0035f3" fill-opacity="0.6" d="m-3.64745084376,-11.2256994145 l7.29490168752,1.7763568394e-15 l2.25424859374,-6.93786378564 l-7.29490168752,-1.7763568394e-15z"/>
<path fill="#0035f3" fill-opacity="0.6" d="m-3.64745084376,11.2256994145 l7.29490168752,-1.7763568394e-15 l2.25424859374,6.93786378564 l-7.29490168752,1.7763568394e-15z"/>
<path fill="#0035f3" fill-opacity="0.6" d="m-3.64745084376,25.1014269858 l2.25424859374,-6.93786378564 l7.29490168752,3.5527136788e-15 l-2.25424859374,6.93786378564z"/>
<path fill="#0035f3" fill-opacity="0.6" d="m-3.64745084376,33.6770982435 l7.29490168752,-7.1054273576e-15 l2.25424859374,6.93786378564 l-7.29490168752,7.1054273576e-15z"/>
<path fill="#08f" fill-opacity="0.6" d="m3.64745084376,-33.6770982435 l-7.29490168752,-7.1054273576e-15 l5.90169943749,4.28783562885 l7.29490168752,7.1054273576e-15z"/>
<path fill="#08f" fill-opacity="0.6" d="m3.64745084376,-25.1014269858 l5.90169943749,-4.28783562885 l-7.29490168752,0.0 l-5.90169943749,4.28783562885z"/>
<path fill="#08f" fill-opacity="0.6" d="m3.64745084376,-11.2256994145 l-7.29490168752,-1.7763568394e-15 l5.90169943749,4.28783562885 l7.29490168752,1.7763568394e-15z"/>
<path fill="#08f" fill-opacity="0.6" d="m3.64745084376,11.2256994145 l-7.29490168752,1.7763568394e-15 l5.90169943749,-4.28783562885 l7.29490168752,-1.7763568394e-15z"/>
<path fill="#08f" fill-opacity="0.6" d="m3.64745084376,25.1014269858 l5.90169943749,4.28783562885 l-7.29490168752,0.0 l-5.90169943749,-4.28783562885z"/>
<path fill="#08f" fill-opacity="0.6" d="m3.64745084376,33.6770982435 l-7.29490168752,7.1054273576e-15 l5.90169943749,-4.28783562885 l7.29490168752,-7.1054273576e-15z"/>
<path fill="#0035f3" fill-opacity="0.6" d="m11.803398875,-0.0 l-7.29490168752,0.0 l-2.25424859374,-6.93786378564 l7.29490168752,-0.0z"/>
<path fill="#0035f3" fill-opacity="0.6" d="m11.803398875,0.0 l-7.29490168752,0.0 l-2.25424859374,6.93786378564 l7.29490168752,-0.0z"/>
<path fill="#08f" fill-opacity="0.6" d="m9.54915028125,-43.2649901859 l2.25424859374,6.93786378564 l-5.90169943749,-4.28783562885 l-2.25424859374,-6.93786378564z"/>
<path fill="#0035f3" fill-opacity="0.6" d="m9.54915028125,-29.3892626146 l-5.90169943749,-4.28783562885 l2.25424859374,-6.93786378564 l5.90169943749,4.28783562885z"/>
<path fill="#0035f3" fill-opacity="0.6" d="m9.54915028125,-29.3892626146 l-5.90169943749,4.28783562885 l2.25424859374,6.93786378564 l5.90169943749,-4.28783562885z"/>
<path fill="#0035f3" fill-opacity="0.6" d="m9.54915028125,29.3892626146 l-5.90169943749,-4.28783562885 l2.25424859374,-6.93786378564 l5.90169943749,4.28783562885z"/>
<path fill="#0035f3" fill-opacity="0.6" d="m9.54915028125,29.3892626146 l-5.90169943749,4.28783562885 l2.25424859374,6.93786378564 l5.90169943749,-4.28783562885z"/>
<path fill="#08f" fill-opacity="0.6" d="m9.54915028125,43.2649901859 l2.25424859374,-6.93786378564 l-5.90169943749,4.28783562885 l-2.25424859374,6.93786378564z"/>
<path fill="#0035f3" fill-opacity="0.6" d="m9.54915028125,-6.93786378564 l-5.90169943749,-4.28783562885 l2.25424859374,-6.93786378564 l5.90169943749,4.28783562885z"/>
<path fill="#0035f3" fill-opacity="0.6" d="m9.54915028125,6.93786378564 l-5.90169943749,4.28783562885 l2.25424859374,6.93786378564 l5.90169943749,-4.28783562885z"/>
<path fill="#0035f3" fill-opacity="0.6" d="m17.7050983125,-18.1635632001 l-5.90169943749,-4.28783562885 l-5.90169943749,4.28783562885 l5.90169943749,4.28783562885z"/>
<path fill="#0035f3" fill-opacity="0.6" d="m17.7050983125,18.1635632001 l-5.90169943749,4.28783562885 l-5.90169943749,-4.28783562885 l5.90169943749,-4.28783562885z"/>
<path fill="#0035f3" fill-opacity="0.6" d="m11.803398875,-36.3271264003 l-2.25424859374,-6.93786378564 l5.90169943749,-4.28783562885 l2.25424859374,6.93786378564z"/>
<path fill="#0035f3" fill-opacity="0.6" d="m11.803398875,36.3271264003 l-2.25424859374,6.93786378564 l5.90169943749,4.28783562885 l2.25424859374,-6.93786378564z"/>
<path fill="#08f" fill-opacity="0.6" d="m11.803398875,-22.451398829 l-2.25424859374,-6.93786378564 l5.90169943749,4.28783562885 l2.25424859374,6.93786378564z"/>
<path fill="#08f" fill-opacity="0.6" d="m11.803398875,-13.8757275713 l-2.25424859374,6.93786378564 l5.90169943749,-4.28783562885 l2.25424859374,-6.93786378564z"/>
<path fill="#0035f3" fill-opacity="0.6" d="m11.803398875,-0.0 l5.90169943749,-4.28783562885 l-2.25424859374,-6.93786378564 l-5.90169943749,4.28783562885z"/>
<path fill="#0035f3" fill-opacity="0.6" d="m11.803398875,0.0 l5.90169943749,4.28783562885 l-2.25424859374,6.93786378564 l-5.90169943749,-4.28783562885z"/>
<path fill="#08f" fill-opacity="0.6" d="m11.803398875,13.8757275713 l-2.25424859374,-6.93786378564 l5.90169943749,4.28783562885 l2.25424859374,6.93786378564z"/>
<path fill="#08f" fill-opacity="0.6" d="m11.803398875,22.451398829 l-2.25424859374,6.93786378564 l5.90169943749,-4.28783562885 l2.25424859374,-6.93786378564z"/>
<path fill="#0035f3" fill-opacity="0.6" d="m9.54915028125,-29.3892626146 l7.29490168752,0.0 l2.25424859374,-6.93786378564 l-7.29490168752,-0.0z"/>
<path fill="#0035f3" fill-opacity="0.6" d="m9.54915028125,29.3892626146 l7.29490168752,0.0 l2.25424859374,6.93786378564 l-7.29490168752,-0.0z"/>
<path fill="#08f" fill-opacity="0.6" d="m16.8440519688,-29.3892626146 l5.90169943749,4.28783562885 l-7.29490168752,-3.5527136788e-15 l-5.90169943749,-4.28783562885z"/>
<path fill="#08f" fill-opacity="0.6" d="m16.8440519688,29.3892626146 l5.90169943749,-4.28783562885 l-7.29490168752,3.5527136788e-15 l-5.90169943749,4.28783562885z"/>
<path fill="#08f" fill-opacity="0.6" d="m17.7050983125,-40.6149620291 l-5.90169943749,4.28783562885 l7.29490168752,0.0 l5.90169943749,-4.28783562885z"/>
<path fill="#08f" fill-opacity="0.6" d="m17.7050983125,-4.28783562885 l7.29490168752,0.0 l-5.90169943749,4.28783562885 l-7.29490168752,-0.0z"/>
<path fill="#08f" fill-opacity="0.6" d="m17.7050983125,4.28783562885 l7.29490168752,0.0 l-5.90169943749,-4.28783562885 l-7.29490168752,-0.0z"/>
<path fill="#08f" fill-opacity="0.6" d="m17.7050983125,40.6149620291 l-5.90169943749,-4.28783562885 l7.29490168752,0.0 l5.90169943749,4.28783562885z"/>
<path fill="#0035f3" fill-opacity="0.6" d="m25.0,-40.6149620291 l-7.29490168752,0.0 l-2.25424859374,-6.93786378564 l7.29490168752,-0.0z"/>
<path fill="#0035f3" fill-opacity="0.6" d="m25.0,40.6149620291 l-7.29490168752,0.0 l-2.25424859374,6.93786378564 l7.29490168752,-0.0z"/>
<path fill="#0035f3" fill-opacity="0.6" d="m25.0,-18.1635632001 l-2.25424859374,-6.93786378564 l-7.29490168752,-3.5527136788e-15 l2.25424859374,6.93786378564z"/>
<path fill="#0035f3" fill-opacity="0.6" d="m25.0,-18.1635632001 l-2.25424859374,6.93786378564 l-7.29490168752,-3.5527136788e-15 l2.25424859374,-6.93786378564z"/>
<path fill="#0035f3" fill-opacity="0.6" d="m25.0,-4.28783562885 l-7.29490168752,0.0 l-2.25424859374,-6.93786378564 l7.29490168752,-0.0z"/>
<path fill="#0035f3" fill-opacity="0.6" d="m25.0,4.28783562885 l-7.29490168752,0.0 l-2.25424859374,6.93786378564 l7.29490168752,-0.0z"/>
<path fill="#0035f3" fill-opacity="0.6" d="m25.0,18.1635632001 l-2.25424859374,-6.93786378564 l-7.29490168752,3.5527136788e-15 l2.25424859374,6.93786378564z"/>
<path fill="#0035f3" fill-opacity="0.6" d="m25.0,18.1635632001 l-2.25424859374,6.93786378564 l-7.29490168752,3.5527136788e-15 l2.25424859374,-6.93786378564z"/>
<path fill="#0035f3" fill-opacity="0.6" d="m22.7457514063,-25.1014269858 l-5.90169943749,-4.28783562885 l2.25424859374,-6.93786378564 l5.90169943749,4.28783562885z"/>
<path fill="#0035f3" fill-opacity="0.6" d="m22.7457514063,25.1014269858 l-5.90169943749,4.28783562885 l2.25424859374,6.93786378564 l5.90169943749,-4.28783562885z"/>
<path fill="#0035f3" fill-opacity="0.6" d="m30.9016994375,-36.3271264003 l-5.90169943749,4.28783562885 l-5.90169943749,-4.28783562885 l5.90169943749,-4.28783562885z"/>
<path fill="#08f" fill-opacity="0.6" d="m22.7457514063,-11.2256994145 l2.25424859374,6.93786378564 l2.25424859374,-6.93786378564 l-2.25424859374,-6.93786378564z"/>
<path fill="#08f" fill-opacity="0.6" d="m22.7457514063,11.2256994145 l2.25424859374,-6.93786378564 l2.25424859374,6.93786378564 l-2.25424859374,6.93786378564z"/>
<path fill="#0035f3" fill-opacity="0.6" d="m30.9016994375,36.3271264003 l-5.90169943749,-4.28783562885 l-5.90169943749,4.28783562885 l5.90169943749,4.28783562885z"/>
<path fill="#0035f3" fill-opacity="0.6" d="m30.9016994375,0.0 l-5.90169943749,4.28783562885 l-5.90169943749,-4.28783562885 l5.90169943749,-4.28783562885z"/>
<path fill="#08f" fill-opacity="0.6" d="m25.0,-32.0392907714 l-2.25424859374,6.93786378564 l5.90169943749,-4.28783562885 l2.25424859374,-6.93786378564z"/>
<path fill="#0035f3" fill-opacity="0.6" d="m25.0,-18.1635632001 l-2.25424859374,-6.93786378564 l5.90169943749,-4.28783562885 l2.25424859374,6.93786378564z"/>
<path fill="#0035f3" fill-opacity="0.6" d="m25.0,18.1635632001 l-2.25424859374,6.93786378564 l5.90169943749,4.28783562885 l2.25424859374,-6.93786378564z"/>
<path fill="#08f" fill-opacity="0.6" d="m25.0,32.0392907714 l-2.25424859374,-6.93786378564 l5.90169943749,4.28783562885 l2.25424859374,6.93786378564z"/>
<path fill="#08f" fill-opacity="0.6" d="m30.9016994375,-13.8757275713 l2.25424859374,6.93786378564 l-5.90169943749,-4.28783562885 l-2.25424859374,-6.93786378564z"/>
<path fill="#08f" fill-opacity="0.6" d="m30.9016994375,13.8757275713 l2.25424859374,-6.93786378564 l-5.90169943749,4.28783562885 l-2.25424859374,6.93786378564z"/>
<path fill="#0035f3" fill-opacity="0.6" d="m30.9016994375,-0.0 l-5.90169943749,-4.28783562885 l2.25424859374,-6.93786378564 l5.90169943749,4.28783562885z"/>
<path fill="#0035f3" fill-opacity="0.6" d="m30.9016994375,0.0 l-5.90169943749,4.28783562885 l2.25424859374,6.93786378564 l5.90169943749,-4.28783562885z"/>
<path fill="#08f" fill-opacity="0.6" d="m33.1559480312,-29.3892626146 l-2.25424859374,-6.93786378564 l-2.25424859374,6.93786378564 l2.25424859374,6.93786378564z"/>
<path fill="#0035f3" fill-opacity="0.6" d="m25.0,-18.1635632001 l5.90169943749,4.28783562885 l5.90169943749,-4.28783562885 l-5.90169943749,-4.28783562885z"/>
<path fill="#0035f3" fill-opacity="0.6" d="m25.0,18.1635632001 l5.90169943749,-4.28783562885 l5.90169943749,4.28783562885 l-5.90169943749,4.28783562885z"/>
<path fill="#08f" fill-opacity="0.6" d="m33.1559480312,29.3892626146 l-2.25424859374,6.93786378564 l-2.25424859374,-6.93786378564 l2.25424859374,-6.93786378564z"/>
<path fill="#0035f3" fill-opacity="0.6" d="m33.1559480312,-6.93786378564 l5.90169943749,-4.28783562885 l-2.25424859374,-6.93786378564 l-5.90169943749,4.28783562885z"/>
<path fill="#0035f3" fill-opacity="0.6" d="m33.1559480312,6.93786378564 l5.90169943749,4.28783562885 l-2.25424859374,6.93786378564 l-5.90169943749,-4.28783562885z"/>
<path fill="#0035f3" fill-opacity="0.6" d="m30.9016994375,-36.3271264003 l2.25424859374,6.93786378564 l7.29490168752,-3.5527136788e-15 l-2.25424859374,-6.93786378564z"/>
<path fill="#0035f3" fill-opacity="0.6" d="m30.9016994375,-22.451398829 l2.25424859374,-6.93786378564 l7.29490168752,-3.5527136788e-15 l-2.25424859374,6.93786378564z"/>
<path fill="#0035f3" fill-opacity="0.6" d="m30.9016994375,22.451398829 l2.25424859374,6.93786378564 l7.29490168752,3.5527136788e-15 l-2.25424859374,-6.93786378564z"/>
<path fill="#0035f3" fill-opacity="0.6" d="m30.9016994375,36.3271264003 l2.25424859374,-6.93786378564 l7.29490168752,3.5527136788e-15 l-2.25424859374,6.93786378564z"/>
<path fill="#0035f3" fill-opacity="0.6" d="m30.9016994375,-0.0 l7.29490168752,0.0 l2.25424859374,-6.93786378564 l-7.29490168752,-0.0z"/>
<path fill="#0035f3" fill-opacity="0.6" d="m30.9016994375,0.0 l7.29490168752,0.0 l2.25424859374,6.93786378564 l-7.29490168752,-0.0z"/>
<path fill="#08f" fill-opacity="0.6" d="m38.196601125,-22.451398829 l5.90169943749,4.28783562885 l-7.29490168752,-3.5527136788e-15 l-5.90169943749,-4.28783562885z"/>
<path fill="#08f" fill-opacity="0.6" d="m38.196601125,22.451398829 l5.90169943749,-4.28783562885 l-7.29490168752,3.5527136788e-15 l-5.90169943749,4.28783562885z"/>
<path fill="#08f" fill-opacity="0.6" d="m39.0576474687,-11.2256994145 l-5.90169943749,4.28783562885 l7.29490168752,8.881784197e-16 l5.90169943749,-4.28783562885z"/>
<path fill="#08f" fill-opacity="0.6" d="m39.0576474687,11.2256994145 l-5.90169943749,-4.28783562885 l7.29490168752,-8.881784197e-16 l5.90169943749,4.28783562885z"/>
<path fill="#0035f3" fill-opacity="0.6" d="m46.3525491562,-11.2256994145 l-7.29490168752,-1.7763568394e-15 l-2.25424859374,-6.93786378564 l7.29490168752,1.7763568394e-15z"/>
<path fill="#0035f3" fill-opacity="0.6" d="m46.3525491562,11.2256994145 l-7.29490168752,1.7763568394e-15 l-2.25424859374,6.93786378564 l7.29490168752,-1.7763568394e-15z"/>
<path fill="#0035f3" fill-opacity="0.6" d="m44.0983005625,-18.1635632001 l2.25424859374,-6.93786378564 l-5.90169943749,-4.28783562885 l-2.25424859374,6.93786378564z"/>
<path fill="#0035f3" fill-opacity="0.6" d="m44.0983005625,18.1635632001 l2.25424859374,6.93786378564 l-5.90169943749,4.28783562885 l-2.25424859374,-6.93786378564z"/>
<path fill="#08f" fill-opacity="0.6" d="m44.0983005625,-4.28783562885 l2.25424859374,-6.93786378564 l-5.90169943749,4.28783562885 l-2.25424859374,6.93786378564z"/>
<path fill="#08f" fill-opacity="0.6" d="m44.0983005625,4.28783562885 l2.25424859374,6.93786378564 l-5.90169943749,-4.28783562885 l-2.25424859374,-6.93786378564z"/>
<path fill="#0035f3" fill-opacity="0.6" d="m38.196601125,0.0 l5.90169943749,4.28783562885 l5.90169943749,-4.28783562885 l-5.90169943749,-4.28783562885z"/>
<path fill="#08f" fill-opacity="0.6" d="m46.3525491562,-25.1014269858 l-2.25424859374,6.93786378564 l5.90169943749,-4.28783562885 l2.25424859374,-6.93786378564z"/>
<path fill="#0035f3" fill-opacity="0.6" d="m46.3525491562,-11.2256994145 l5.90169943749,-4.28783562885 l-2.25424859374,-6.93786378564 l-5.90169943749,4.28783562885z"/>
<path fill="#0035f3" fill-opacity="0.6" d="m46.3525491562,-11.2256994145 l5.90169943749,4.28783562885 l-2.25424859374,6.93786378564 l-5.90169943749,-4.28783562885z"/>
<path fill="#0035f3" fill-opacity="0.6" d="m46.3525491562,11.2256994145 l5.90169943749,-4.28783562885 l-2.25424859374,-6.93786378564 l-5.90169943749,4.28783562885z"/>
<path fill="#0035f3" fill-opacity="0.6" d="m46.3525491562,11.2256994145 l5.90169943749,4.28783562885 l-2.25424859374,6.93786378564 l-5.90169943749,-4.28783562885z"/>
<path fill="#08f" fill-opacity="0.6" d="m46.3525491562,25.1014269858 l-2.25424859374,-6.93786378564 l5.90169943749,4.28783562885 l2.25424859374,6.93786378564z"/>
<path fill="#08f" fill-opacity="0.6" d="m52.2542485937,-15.5135350433 l7.29490168752,0.0 l-5.90169943749,4.28783562885 l-7.29490168752,-0.0z"/>
<path fill="#08f" fill-opacity="0.6" d="m52.2542485937,-6.93786378564 l-5.90169943749,-4.28783562885 l7.29490168752,0.0 l5.90169943749,4.28783562885z"/>
<path fill="#08f" fill-opacity="0.6" d="m52.2542485937,6.93786378564 l-5.90169943749,4.28783562885 l7.29490168752,0.0 l5.90169943749,-4.28783562885z"/>
<path fill="#08f" fill-opacity="0.6" d="m52.2542485937,15.5135350433 l7.29490168752,0.0 l-5.90169943749,-4.28783562885 l-7.29490168752,-0.0z"/>
<path fill="#0035f3" fill-opacity="0.6" d="m59.5491502813,-15.5135350433 l-7.29490168752,0.0 l-2.25424859374,-6.93786378564 l7.29490168752,-0.0z"/>
<path fill="#0035f3" fill-opacity="0.6" d="m59.5491502813,-6.93786378564 l-7.29490168752,0.0 l-2.25424859374,6.93786378564 l7.29490168752,-0.0z"/>
<path fill="#0035f3" fill-opacity="0.6" d="m59.5491502813,6.93786378564 l-7.29490168752,0.0 l-2.25424859374,-6.93786378564 l7.29490168752,-0.0z"/>
<path fill="#0035f3" fill-opacity="0.6" d="m59.5491502813,15.5135350433 l-7.29490168752,0.0 l-2.25424859374,6.93786378564 l7.29490168752,-0.0z"/>
<path fill="#08f" fill-opacity="0.6" d="m57.2949016875,0.0 l2.25424859374,6.93786378564 l2.25424859374,-6.93786378564 l-2.25424859374,-6.93786378564z"/>
<path fill="#0035f3" fill-opacity="0.6" d="m65.4508497187,-11.2256994145 l-5.90169943749,-4.28783562885 l-5.90169943749,4.28783562885 l5.90169943749,4.28783562885z"/>
<path fill="#0035f3" fill-opacity="0.6" d="m65.4508497187,11.2256994145 l-5.90169943749,4.28783562885 l-5.90169943749,-4.28783562885 l5.90169943749,-4.28783562885z"/>
<path fill="#0035f3" fill-opacity="0.6" d="m65.4508497187,-11.2256994145 l2.25424859374,6.93786378564 l-5.90169943749,4.28783562885 l-2.25424859374,-6.93786378564z"/>
<path fill="#0035f3" fill-opacity="0.6" d="m65.4508497187,11.2256994145 l2.25424859374,-6.93786378564 l-5.90169943749,-4.28783562885 l-2.25424859374,6.93786378564z"/>
<path fill="#0035f3" fill-opacity="0.6" d="m73.60679775,0.0 l-5.90169943749,4.28783562885 l-5.90169943749,-4.28783562885 l5.90169943749,-4.28783562885z"/>
<path fill="#08f" fill-opacity="0.6" d="m67.7050983125,-4.28783562885 l5.90169943749,4.28783562885 l-2.25424859374,-6.93786378564 l-5.90169943749,-4.28783562885z"/>
<path fill="#08f" fill-opacity="0.6" d="m67.7050983125,4.28783562885 l5.90169943749,-4.28783562885 l-2.25424859374,6.93786378564 l-5.90169943749,4.28783562885z"/>
<path fill="#0035f3" fill-opacity="0.6" d="m80.9016994375,-0.0 l-7.29490168752,0.0 l-2.25424859374,-6.93786378564 l7.29490168752,-0.0z"/>
<path fill="#0035f3" fill-opacity="0.6" d="m80.9016994375,0.0 l-7.29490168752,0.0 l-2.25424859374,6.93786378564 l7.29490168752,-0.0z"/>
</g>
</svg>