<?xml version="1.0" encoding="utf-8"?>
<svg width="100%" height="100%" viewBox="-105.0 -105.0 210.0 210.0" preserveAspectRatio="xMidYMid meet" version="1.1" baseProfile="full" xmlns="http://www.w3.org/2000/svg">
<g style="stroke:#fff; stroke-width: 0.45084971874737145;">
<path fill="#0035f3" fill-opacity="0.6" d="m-38.19660112501052,0.0 l-5.901699437494742,4.287835628845247 l-5.901699437494742,-4.287835628845247 l5.901699437494742,-4.287835628845247z"/>
<path fill="#08f" fill-opacity="0.6" d="m-44.09830056250526,-4.287835628845247 l5.901699437494742,4.287835628845247 l-2.254248593736854,-6.937863785644388 l-5.901699437494742,-4.287835628845247z"/>
<path fill="#08f" fill-opacity="0.6" d="m-44.09830056250526,4.287835628845247 l5.901699437494742,-4.287835628845247 l-2.254248593736854,6.937863785644388 l-5.901699437494742,4.287835628845247z"/>
<path fill="#0035f3" fill-opacity="0.6" d="m-30.901699437494738,-13.87572757128878 l-2.2542485937368575,6.9378637856443905 l-7.294901687515775,8.881784197001252e-16 l2.2542485937368575,-6.9378637856443905z"/>
<path fill="#0035f3" fill-opacity="0.6" d="m-30.90169943749474,-0.0 l-2.254248593736854,-6.937863785644389 l-7.294901687515775,8.881784197001252e-16 l2.254248593736854,6.937863785644389z"/>
<path fill="#0035f3" fill-opacity="0.6" d="m-30.90169943749474,0.0 l-2.254248593736854,6.937863785644389 l-7.294901687515775,-8.881784197001252e-16 l2.254248593736854,-6.937863785644389z"/>
<path fill="#0035f3" fill-opacity="0.6" d="m-30.901699437494738,13.87572757128878 l-2.2542485937368575,-6.9378637856443905 l-7.294901687515775,-8.881784197001252e-16 l2.2542485937368575,6.9378637856443905z"/>
<path fill="#08f" fill-opacity="0.6" d="m-33.155948031231596,-6.937863785644389 l2.2542485937368575,-6.9378637856443905 l2.2542485937368575,6.937863785644391 l-2.2542485937368575,6.9378637856443905z"/>
<path fill="#08f" fill-opacity="0.6" d="m-33.155948031231596,6.937863785644389 l2.2542485937368575,6.9378637856443905 l2.2542485937368575,-6.937863785644391 l-2.2542485937368575,-6.9378637856443905z"/>
<path fill="#08f" fill-opacity="0.6" d="m-24.999999999999996,-4.287835628845247 l-5.901699437494745,4.287835628845247 l2.254248593736861,-6.937863785644388 l5.901699437494745,-4.287835628845247z"/>
<path fill="#08f" fill-opacity="0.6" d="m-24.999999999999996,4.287835628845247 l-5.901699437494745,-4.287835628845247 l2.254248593736861,6.937863785644388 l5.901699437494745,4.287835628845247z"/>
<path fill="#0035f3" fill-opacity="0.6" d="m-24.999999999999993,-18.163563200134025 l-5.901699437494745,4.2878356288452455 l2.2542485937368575,6.937863785644391 l5.901699437494745,-4.2878356288452455z"/>
<path fill="#0035f3" fill-opacity="0.6" d="m-24.999999999999993,18.163563200134025 l-5.901699437494745,-4.2878356288452455 l2.2542485937368575,-6.937863785644391 l5.901699437494745,4.2878356288452455z"/>
<path fill="#0035f3" fill-opacity="0.6" d="m-30.90169943749474,0.0 l5.901699437494745,4.287835628845247 l5.901699437494738,-4.287835628845247 l-5.901699437494745,-4.287835628845247z"/>
<path fill="#0035f3" fill-opacity="0.6" d="m-22.74575140626314,-11.225699414489638 l-2.2542485937368575,6.9378637856443905 l5.901699437494738,4.287835628845247 l2.2542485937368575,-6.9378637856443905z"/>
<path fill="#0035f3" fill-opacity="0.6" d="m-22.74575140626314,11.225699414489638 l-2.2542485937368575,-6.9378637856443905 l5.901699437494738,-4.287835628845247 l2.2542485937368575,6.9378637856443905z"/>
<path fill="#0035f3" fill-opacity="0.6" d="m-24.999999999999993,-18.163563200134025 l7.294901687515768,0.0 l2.254248593736854,6.937863785644392 l-7.294901687515768,-0.0z"/>
<path fill="#0035f3" fill-opacity="0.6" d="m-24.999999999999993,18.163563200134025 l7.294901687515768,0.0 l2.254248593736854,-6.937863785644392 l-7.294901687515768,-0.0z"/>
<path fill="#08f" fill-opacity="0.6" d="m-17.705098312484225,-18.163563200134025 l5.901699437494743,-4.287835628845247 l-7.29490168751577,0.0 l-5.901699437494743,4.287835628845247z"/>
<path fill="#08f" fill-opacity="0.6" d="m-17.705098312484225,18.163563200134025 l5.901699437494743,4.287835628845247 l-7.29490168751577,0.0 l-5.901699437494743,-4.287835628845247z"/>
<path fill="#08f" fill-opacity="0.6" d="m-16.8440519687684,-6.937863785644387 l7.294901687515775,-3.552713678800501e-15 l-5.901699437494745,-4.287835628845242 l-7.294901687515775,3.552713678800501e-15z"/>
<path fill="#08f" fill-opacity="0.6" d="m-16.8440519687684,6.937863785644387 l7.294901687515775,3.552713678800501e-15 l-5.901699437494745,4.287835628845242 l-7.294901687515775,-3.552713678800501e-15z"/>
<path fill="#0035f3" fill-opacity="0.6" d="m-9.549150281252626,-6.9378637856443905 l-2.2542485937368575,6.9378637856443905 l-7.294901687515775,0.0 l2.2542485937368575,-6.9378637856443905z"/>
<path fill="#0035f3" fill-opacity="0.6" d="m-9.549150281252626,6.9378637856443905 l-2.2542485937368575,-6.9378637856443905 l-7.294901687515775,0.0 l2.2542485937368575,6.9378637856443905z"/>
<path fill="#0035f3" fill-opacity="0.6" d="m-9.549150281252624,-29.389262614623657 l-2.2542485937368575,6.937863785644385 l-7.29490168751577,0.0 l2.2542485937368575,-6.937863785644385z"/>
<path fill="#0035f3" fill-opacity="0.6" d="m-9.549150281252624,29.389262614623657 l-2.2542485937368575,-6.937863785644385 l-7.29490168751577,0.0 l2.2542485937368575,6.937863785644385z"/>
<path fill="#0035f3" fill-opacity="0.6" d="m-11.803398874989481,-22.451398828979272 l2.2542485937368557,6.937863785644392 l-5.901699437494745,4.287835628845247 l-2.2542485937368557,-6.937863785644392z"/>
<path fill="#0035f3" fill-opacity="0.6" d="m-11.803398874989481,22.451398828979272 l2.2542485937368557,-6.937863785644392 l-5.901699437494745,-4.287835628845247 l-2.2542485937368557,6.937863785644392z"/>
<path fill="#08f" fill-opacity="0.6" d="m-11.803398874989483,0.0 l2.2542485937368575,6.9378637856443905 l2.254248593736854,-6.9378637856443905 l-2.2542485937368575,-6.9378637856443905z"/>
<path fill="#0035f3" fill-opacity="0.6" d="m-3.6474508437578823,-11.225699414489638 l-5.901699437494743,-4.287835628845242 l-5.901699437494745,4.287835628845247 l5.901699437494743,4.287835628845242z"/>
<path fill="#0035f3" fill-opacity="0.6" d="m-3.6474508437578823,11.225699414489638 l-5.901699437494743,4.287835628845242 l-5.901699437494745,-4.287835628845247 l5.901699437494743,-4.287835628845242z"/>
<path fill="#08f" fill-opacity="0.6" d="m-9.549150281252626,-15.51353504333488 l-2.2542485937368557,-6.937863785644392 l5.901699437494743,4.287835628845251 l2.2542485937368557,6.937863785644392z"/>
<path fill="#08f" fill-opacity="0.6" d="m-9.549150281252626,15.51353504333488 l-2.2542485937368557,6.937863785644392 l5.901699437494743,-4.287835628845251 l2.2542485937368557,-6.937863785644392z"/>
<path fill="#0035f3" fill-opacity="0.6" d="m-9.549150281252624,-29.389262614623657 l5.901699437494742,4.287835628845244 l-2.2542485937368557,6.937863785644392 l-5.901699437494742,-4.287835628845244z"/>
<path fill="#0035f3" fill-opacity="0.6" d="m-9.549150281252624,29.389262614623657 l5.901699437494742,-4.287835628845244 l-2.2542485937368557,-6.937863785644392 l-5.901699437494742,4.287835628845244z"/>
<path fill="#0035f3" fill-opacity="0.6" d="m-3.6474508437578823,-11.225699414489638 l2.2542485937368566,6.93786378564439 l-5.901699437494746,4.287835628845248 l-2.2542485937368566,-6.93786378564439z"/>
<path fill="#0035f3" fill-opacity="0.6" d="m-3.6474508437578823,11.225699414489638 l2.2542485937368566,-6.93786378564439 l-5.901699437494746,-4.287835628845248 l-2.2542485937368566,6.93786378564439z"/>
<path fill="#08f" fill-opacity="0.6" d="m-1.3932022500210266,-18.16356320013402 l-2.2542485937368557,6.937863785644383 l-2.2542485937368557,-6.937863785644383 l2.2542485937368557,-6.937863785644383z"/>
<path fill="#08f" fill-opacity="0.6" d="m-1.3932022500210266,18.16356320013402 l-2.2542485937368557,-6.937863785644383 l-2.2542485937368557,6.937863785644383 l2.2542485937368557,6.937863785644383z"/>
<path fill="#0035f3" fill-opacity="0.6" d="m-9.549150281252624,-29.389262614623657 l5.901699437494742,4.287835628845244 l5.901699437494743,-4.28783562884524 l-5.901699437494742,-4.287835628845244z"/>
<path fill="#0035f3" fill-opacity="0.6" d="m-9.549150281252624,29.389262614623657 l5.901699437494742,-4.287835628845244 l5.901699437494743,4.28783562884524 l-5.901699437494742,4.287835628845244z"/>
<path fill="#0035f3" fill-opacity="0.6" d="m4.5084971874737185,0.0 l-5.901699437494744,4.287835628845248 l-5.901699437494746,-4.287835628845248 l5.901699437494744,-4.287835628845248z"/>
<path fill="#08f" fill-opacity="0.6" d="m-1.393202250021026,-4.287835628845248 l5.901699437494744,4.287835628845248 l-2.254248593736857,-6.9378637856443905 l-5.901699437494744,-4.287835628845248z"/>
<path fill="#08f" fill-opacity="0.6" d="m-1.393202250021026,4.287835628845248 l5.901699437494744,-4.287835628845248 l-2.254248593736857,6.9378637856443905 l-5.901699437494744,4.287835628845248z"/>
<path fill="#0035f3" fill-opacity="0.6" d="m-3.6474508437578823,-33.677098243468905 l7.2949016875157735,7.105427357601002e-15 l2.2542485937368557,-6.937863785644389 l-7.2949016875157735,-7.105427357601002e-15z"/>
<path fill="#0035f3" fill-opacity="0.6" d="m-3.6474508437578823,-25.101426985778414 l2.2542485937368557,6.937863785644392 l7.2949016875157735,-3.552713678800501e-15 l-2.2542485937368557,-6.937863785644392z"/>
<path fill="#0035f3" fill-opacity="0.6" d="m-3.6474508437578823,-11.225699414489638 l7.2949016875157735,1.7763568394002505e-15 l2.2542485937368557,-6.937863785644389 l-7.2949016875157735,-1.7763568394002505e-15z"/>
<path fill="#0035f3" fill-opacity="0.6" d="m-3.6474508437578823,11.225699414489638 l7.2949016875157735,-1.7763568394002505e-15 l2.2542485937368557,6.937863785644389 l-7.2949016875157735,1.7763568394002505e-15z"/>
<path fill="#0035f3" fill-opacity="0.6" d="m-3.6474508437578823,25.101426985778414 l2.2542485937368557,-6.937863785644392 l7.2949016875157735,3.552713678800501e-15 l-2.2542485937368557,6.937863785644392z"/>
<path fill="#0035f3" fill-opacity="0.6" d="m-3.6474508437578823,33.677098243468905 l7.2949016875157735,-7.105427357601002e-15 l2.2542485937368557,6.937863785644389 l-7.2949016875157735,7.105427357601002e-15z"/>
<path fill="#08f" fill-opacity="0.6" d="m3.647450843757891,-33.6770982434689 l-7.2949016875157735,-7.105427357601002e-15 l5.901699437494743,4.287835628845251 l7.2949016875157735,7.105427357601002e-15z"/>
<path fill="#08f" fill-opacity="0.6" d="m3.647450843757891,-25.10142698577841 l5.901699437494742,-4.287835628845244 l-7.294901687515772,0.0 l-5.901699437494742,4.287835628845244z"/>
<path fill="#08f" fill-opacity="0.6" d="m3.647450843757891,-11.225699414489636 l-7.2949016875157735,-1.7763568394002505e-15 l5.901699437494743,4.287835628845247 l7.2949016875157735,1.7763568394002505e-15z"/>
<path fill="#08f" fill-opacity="0.6" d="m3.647450843757891,11.225699414489636 l-7.2949016875157735,1.7763568394002505e-15 l5.901699437494743,-4.287835628845247 l7.2949016875157735,-1.7763568394002505e-15z"/>
<path fill="#08f" fill-opacity="0.6" d="m3.647450843757891,25.10142698577841 l5.901699437494742,4.287835628845244 l-7.294901687515772,0.0 l-5.901699437494742,-4.287835628845244z"/>
<path fill="#08f" fill-opacity="0.6" d="m3.647450843757891,33.6770982434689 l-7.2949016875157735,7.105427357601002e-15 l5.901699437494743,-4.287835628845251 l7.2949016875157735,-7.105427357601002e-15z"/>
<path fill="#0035f3" fill-opacity="0.6" d="m11.803398874989494,-0.0 l-7.294901687515775,0.0 l-2.254248593736857,-6.9378637856443905 l7.294901687515775,-0.0z"/>
<path fill="#0035f3" fill-opacity="0.6" d="m11.803398874989494,0.0 l-7.294901687515775,0.0 l-2.254248593736857,6.9378637856443905 l7.294901687515775,-0.0z"/>
<path fill="#08f" fill-opacity="0.6" d="m9.549150281252633,-43.264990185912424 l2.254248593736854,6.937863785644382 l-5.90169943749474,-4.287835628845244 l-2.254248593736854,-6.937863785644382z"/>
<path fill="#0035f3" fill-opacity="0.6" d="m9.549150281252633,-29.389262614623654 l-5.901699437494742,-4.287835628845244 l2.2542485937368557,-6.937863785644389 l5.901699437494742,4.287835628845244z"/>
<path fill="#0035f3" fill-opacity="0.6" d="m9.549150281252633,-29.389262614623654 l-5.901699437494742,4.287835628845244 l2.2542485937368557,6.937863785644385 l5.901699437494742,-4.287835628845244z"/>
<path fill="#0035f3" fill-opacity="0.6" d="m9.549150281252633,29.389262614623654 l-5.901699437494742,-4.287835628845244 l2.2542485937368557,-6.937863785644385 l5.901699437494742,4.287835628845244z"/>
<path fill="#0035f3" fill-opacity="0.6" d="m9.549150281252633,29.389262614623654 l-5.901699437494742,4.287835628845244 l2.2542485937368557,6.937863785644389 l5.901699437494742,-4.287835628845244z"/>
<path fill="#08f" fill-opacity="0.6" d="m9.549150281252633,43.264990185912424 l2.254248593736854,-6.937863785644382 l-5.90169943749474,4.287835628845244 l-2.254248593736854,6.937863785644382z"/>
<path fill="#0035f3" fill-opacity="0.6" d="m9.549150281252636,-6.937863785644388 l-5.901699437494745,-4.287835628845248 l2.2542485937368557,-6.937863785644389 l5.901699437494745,4.287835628845248z"/>
<path fill="#0035f3" fill-opacity="0.6" d="m9.549150281252636,6.937863785644388 l-5.901699437494745,4.287835628845248 l2.2542485937368557,6.937863785644389 l5.901699437494745,-4.287835628845248z"/>
<path fill="#0035f3" fill-opacity="0.6" d="m17.705098312484232,-18.16356320013402 l-5.901699437494742,-4.287835628845247 l-5.901699437494743,4.287835628845244 l5.901699437494742,4.287835628845247z"/>
<path fill="#0035f3" fill-opacity="0.6" d="m17.705098312484232,18.16356320013402 l-5.901699437494742,4.287835628845247 l-5.901699437494743,-4.287835628845244 l5.901699437494742,-4.287835628845247z"/>
<path fill="#0035f3" fill-opacity="0.6" d="m11.803398874989487,-36.32712640026804 l-2.254248593736854,-6.937863785644382 l5.90169943749474,-4.287835628845251 l2.254248593736854,6.937863785644382z"/>
<path fill="#0035f3" fill-opacity="0.6" d="m11.803398874989487,36.32712640026804 l-2.254248593736854,6.937863785644382 l5.90169943749474,4.287835628845251 l2.254248593736854,-6.937863785644382z"/>
<path fill="#08f" fill-opacity="0.6" d="m11.80339887498949,-22.45139882897927 l-2.2542485937368575,-6.937863785644385 l5.901699437494743,4.287835628845247 l2.2542485937368575,6.937863785644385z"/>
<path fill="#08f" fill-opacity="0.6" d="m11.80339887498949,-13.875727571288778 l-2.254248593736854,6.93786378564439 l5.90169943749474,-4.28783562884525 l2.254248593736854,-6.93786378564439z"/>
<path fill="#0035f3" fill-opacity="0.6" d="m11.803398874989494,-0.0 l5.901699437494738,-4.287835628845247 l-2.2542485937368557,-6.9378637856443905 l-5.901699437494738,4.287835628845247z"/>
<path fill="#0035f3" fill-opacity="0.6" d="m11.803398874989494,0.0 l5.901699437494738,4.287835628845247 l-2.2542485937368557,6.9378637856443905 l-5.901699437494738,-4.287835628845247z"/>
<path fill="#08f" fill-opacity="0.6" d="m11.80339887498949,13.875727571288778 l-2.254248593736854,-6.93786378564439 l5.90169943749474,4.28783562884525 l2.254248593736854,6.93786378564439z"/>
<path fill="#08f" fill-opacity="0.6" d="m11.80339887498949,22.45139882897927 l-2.2542485937368575,6.937863785644385 l5.901699437494743,-4.287835628845247 l2.2542485937368575,-6.937863785644385z"/>
<path fill="#0035f3" fill-opacity="0.6" d="m9.549150281252633,-29.389262614623654 l7.294901687515772,0.0 l2.2542485937368575,-6.937863785644389 l-7.294901687515772,-0.0z"/>
<path fill="#0035f3" fill-opacity="0.6" d="m9.549150281252633,29.389262614623654 l7.294901687515772,0.0 l2.2542485937368575,6.937863785644389 l-7.294901687515772,-0.0z"/>
<path fill="#08f" fill-opacity="0.6" d="m16.844051968768404,-29.389262614623654 l5.901699437494745,4.287835628845251 l-7.2949016875157735,-3.552713678800501e-15 l-5.901699437494745,-4.287835628845251z"/>
<path fill="#08f" fill-opacity="0.6" d="m16.844051968768404,29.389262614623654 l5.901699437494745,-4.287835628845251 l-7.2949016875157735,3.552713678800501e-15 l-5.901699437494745,4.287835628845251z"/>
<path fill="#08f" fill-opacity="0.6" d="m17.705098312484232,-40.614962029113286 l-5.901699437494745,4.287835628845244 l7.294901687515775,0.0 l5.901699437494745,-4.287835628845244z"/>
<path fill="#08f" fill-opacity="0.6" d="m17.705098312484232,-4.287835628845247 l7.294901687515775,0.0 l-5.901699437494742,4.287835628845247 l-7.294901687515775,-0.0z"/>
<path fill="#08f" fill-opacity="0.6" d="m17.705098312484232,4.287835628845247 l7.294901687515775,0.0 l-5.901699437494742,-4.287835628845247 l-7.294901687515775,-0.0z"/>
<path fill="#08f" fill-opacity="0.6" d="m17.705098312484232,40.614962029113286 l-5.901699437494745,-4.287835628845244 l7.294901687515775,0.0 l5.901699437494745,4.287835628845244z"/>
<path fill="#0035f3" fill-opacity="0.6" d="m25.000000000000004,-40.614962029113286 l-7.294901687515772,0.0 l-2.2542485937368593,-6.937863785644389 l7.294901687515772,-0.0z"/>
<path fill="#0035f3" fill-opacity="0.6" d="m25.000000000000004,40.614962029113286 l-7.294901687515772,0.0 l-2.2542485937368593,6.937863785644389 l7.294901687515772,-0.0z"/>
<path fill="#0035f3" fill-opacity="0.6" d="m25.000000000000007,-18.163563200134018 l-2.2542485937368575,-6.937863785644385 l-7.2949016875157735,-3.552713678800501e-15 l2.2542485937368575,6.937863785644385z"/>
<path fill="#0035f3" fill-opacity="0.6" d="m25.000000000000007,-18.163563200134018 l-2.254248593736861,6.937863785644383 l-7.29490168751577,-3.552713678800501e-15 l2.254248593736861,-6.937863785644383z"/>
<path fill="#0035f3" fill-opacity="0.6" d="m25.000000000000007,-4.287835628845247 l-7.294901687515775,0.0 l-2.2542485937368557,-6.9378637856443905 l7.294901687515775,-0.0z"/>
<path fill="#0035f3" fill-opacity="0.6" d="m25.000000000000007,4.287835628845247 l-7.294901687515775,0.0 l-2.2542485937368557,6.9378637856443905 l7.294901687515775,-0.0z"/>
<path fill="#0035f3" fill-opacity="0.6" d="m25.000000000000007,18.163563200134018 l-2.254248593736861,-6.937863785644383 l-7.29490168751577,3.552713678800501e-15 l2.254248593736861,6.937863785644383z"/>
<path fill="#0035f3" fill-opacity="0.6" d="m25.000000000000007,18.163563200134018 l-2.2542485937368575,6.937863785644385 l-7.2949016875157735,3.552713678800501e-15 l2.2542485937368575,-6.937863785644385z"/>
<path fill="#0035f3" fill-opacity="0.6" d="m22.74575140626315,-25.101426985778403 l-5.901699437494745,-4.287835628845251 l2.2542485937368575,-6.937863785644389 l5.901699437494745,4.287835628845251z"/>
<path fill="#0035f3" fill-opacity="0.6" d="m22.74575140626315,25.101426985778403 l-5.901699437494745,4.287835628845251 l2.2542485937368575,6.937863785644389 l5.901699437494745,-4.287835628845251z"/>
<path fill="#0035f3" fill-opacity="0.6" d="m30.901699437494745,-36.32712640026804 l-5.901699437494738,4.287835628845251 l-5.901699437494745,-4.287835628845251 l5.901699437494738,-4.287835628845251z"/>
<path fill="#08f" fill-opacity="0.6" d="m22.745751406263146,-11.225699414489634 l2.254248593736861,6.937863785644387 l2.254248593736854,-6.937863785644385 l-2.254248593736861,-6.937863785644387z"/>
<path fill="#08f" fill-opacity="0.6" d="m22.745751406263146,11.225699414489634 l2.254248593736861,-6.937863785644387 l2.254248593736854,6.937863785644385 l-2.254248593736861,6.937863785644387z"/>
<path fill="#0035f3" fill-opacity="0.6" d="m30.901699437494745,36.32712640026804 l-5.901699437494738,-4.287835628845251 l-5.901699437494745,4.287835628845251 l5.901699437494738,4.287835628845251z"/>
<path fill="#0035f3" fill-opacity="0.6" d="m30.901699437494752,0.0 l-5.901699437494745,4.287835628845247 l-5.901699437494742,-4.287835628845247 l5.901699437494745,-4.287835628845247z"/>
<path fill="#08f" fill-opacity="0.6" d="m25.000000000000007,-32.03929077142279 l-2.2542485937368575,6.937863785644389 l5.901699437494745,-4.287835628845251 l2.2542485937368575,-6.937863785644389z"/>
<path fill="#0035f3" fill-opacity="0.6" d="m25.000000000000007,-18.163563200134018 l-2.2542485937368575,-6.937863785644385 l5.901699437494745,-4.287835628845251 l2.2542485937368575,6.937863785644385z"/>
<path fill="#0035f3" fill-opacity="0.6" d="m25.000000000000007,18.163563200134018 l-2.2542485937368575,6.937863785644385 l5.901699437494745,4.287835628845251 l2.2542485937368575,-6.937863785644385z"/>
<path fill="#08f" fill-opacity="0.6" d="m25.000000000000007,32.03929077142279 l-2.2542485937368575,-6.937863785644389 l5.901699437494745,4.287835628845251 l2.2542485937368575,6.937863785644389z"/>
<path fill="#08f" fill-opacity="0.6" d="m30.901699437494745,-13.875727571288774 l2.2542485937368575,6.937863785644386 l-5.901699437494742,-4.287835628845245 l-2.2542485937368575,-6.937863785644386z"/>
<path fill="#08f" fill-opacity="0.6" d="m30.901699437494745,13.875727571288774 l2.2542485937368575,-6.937863785644386 l-5.901699437494742,4.287835628845245 l-2.2542485937368575,6.937863785644386z"/>
<path fill="#0035f3" fill-opacity="0.6" d="m30.901699437494752,-0.0 l-5.901699437494745,-4.287835628845247 l2.254248593736854,-6.937863785644385 l5.901699437494745,4.287835628845247z"/>
<path fill="#0035f3" fill-opacity="0.6" d="m30.901699437494752,0.0 l-5.901699437494745,4.287835628845247 l2.254248593736854,6.937863785644385 l5.901699437494745,-4.287835628845247z"/>
<path fill="#08f" fill-opacity="0.6" d="m33.1559480312316,-29.389262614623654 l-2.2542485937368575,-6.937863785644389 l-2.2542485937368504,6.937863785644389 l2.2542485937368575,6.937863785644389z"/>
<path fill="#0035f3" fill-opacity="0.6" d="m25.000000000000007,-18.163563200134018 l5.901699437494738,4.287835628845244 l5.901699437494745,-4.287835628845251 l-5.901699437494738,-4.287835628845244z"/>
<path fill="#0035f3" fill-opacity="0.6" d="m25.000000000000007,18.163563200134018 l5.901699437494738,-4.287835628845244 l5.901699437494745,4.287835628845251 l-5.901699437494738,4.287835628845244z"/>
<path fill="#08f" fill-opacity="0.6" d="m33.1559480312316,29.389262614623654 l-2.2542485937368575,6.937863785644389 l-2.2542485937368504,-6.937863785644389 l2.2542485937368575,-6.937863785644389z"/>
<path fill="#0035f3" fill-opacity="0.6" d="m33.1559480312316,-6.937863785644388 l5.901699437494742,-4.287835628845246 l-2.254248593736854,-6.9378637856443905 l-5.901699437494742,4.287835628845246z"/>
<path fill="#0035f3" fill-opacity="0.6" d="m33.1559480312316,6.937863785644388 l5.901699437494742,4.287835628845246 l-2.254248593736854,6.9378637856443905 l-5.901699437494742,-4.287835628845246z"/>
<path fill="#0035f3" fill-opacity="0.6" d="m30.901699437494745,-36.32712640026804 l2.2542485937368575,6.937863785644389 l7.294901687515768,-3.552713678800501e-15 l-2.2542485937368575,-6.937863785644389z"/>
<path fill="#0035f3" fill-opacity="0.6" d="m30.901699437494745,-22.451398828979265 l2.2542485937368575,-6.937863785644389 l7.294901687515768,-3.552713678800501e-15 l-2.2542485937368575,6.937863785644389z"/>
<path fill="#0035f3" fill-opacity="0.6" d="m30.901699437494745,22.451398828979265 l2.2542485937368575,6.937863785644389 l7.294901687515768,3.552713678800501e-15 l-2.2542485937368575,-6.937863785644389z"/>
<path fill="#0035f3" fill-opacity="0.6" d="m30.901699437494745,36.32712640026804 l2.2542485937368575,-6.937863785644389 l7.294901687515768,3.552713678800501e-15 l-2.2542485937368575,6.937863785644389z"/>
<path fill="#0035f3" fill-opacity="0.6" d="m30.901699437494752,-0.0 l7.294901687515765,0.0 l2.254248593736861,-6.937863785644387 l-7.294901687515765,-0.0z"/>
<path fill="#0035f3" fill-opacity="0.6" d="m30.901699437494752,0.0 l7.294901687515765,0.0 l2.254248593736861,6.937863785644387 l-7.294901687515765,-0.0z"/>
<path fill="#08f" fill-opacity="0.6" d="m38.19660112501052,-22.451398828979272 l5.901699437494742,4.287835628845251 l-7.294901687515768,-3.552713678800501e-15 l-5.901699437494742,-4.287835628845251z"/>
<path fill="#08f" fill-opacity="0.6" d="m38.19660112501052,22.451398828979272 l5.901699437494742,-4.287835628845251 l-7.294901687515768,3.552713678800501e-15 l-5.901699437494742,4.287835628845251z"/>
<path fill="#08f" fill-opacity="0.6" d="m39.057647468726344,-11.225699414489634 l-5.901699437494742,4.287835628845246 l7.294901687515775,8.881784197001252e-16 l5.901699437494742,-4.287835628845246z"/>
<path fill="#08f" fill-opacity="0.6" d="m39.057647468726344,11.225699414489634 l-5.901699437494742,-4.287835628845246 l7.294901687515775,-8.881784197001252e-16 l5.901699437494742,4.287835628845246z"/>
<path fill="#0035f3" fill-opacity="0.6" d="m46.35254915624211,-11.225699414489632 l-7.294901687515768,-1.7763568394002505e-15 l-2.254248593736854,-6.9378637856443905 l7.294901687515768,1.7763568394002505e-15z"/>
<path fill="#0035f3" fill-opacity="0.6" d="m46.35254915624211,11.225699414489632 l-7.294901687515768,1.7763568394002505e-15 l-2.254248593736854,6.9378637856443905 l7.294901687515768,-1.7763568394002505e-15z"/>
<path fill="#0035f3" fill-opacity="0.6" d="m44.09830056250526,-18.16356320013402 l2.254248593736854,-6.937863785644389 l-5.901699437494742,-4.287835628845247 l-2.254248593736854,6.937863785644389z"/>
<path fill="#0035f3" fill-opacity="0.6" d="m44.09830056250526,18.16356320013402 l2.254248593736854,6.937863785644389 l-5.901699437494742,4.287835628845247 l-2.254248593736854,-6.937863785644389z"/>
<path fill="#08f" fill-opacity="0.6" d="m44.09830056250526,-4.287835628845246 l2.254248593736854,-6.937863785644386 l-5.9016994374947345,4.2878356288452455 l-2.254248593736854,6.937863785644386z"/>
<path fill="#08f" fill-opacity="0.6" d="m44.09830056250526,4.287835628845246 l2.254248593736854,6.937863785644386 l-5.9016994374947345,-4.2878356288452455 l-2.254248593736854,-6.937863785644386z"/>
<path fill="#0035f3" fill-opacity="0.6" d="m38.19660112501052,0.0 l5.901699437494742,4.287835628845246 l5.901699437494742,-4.287835628845246 l-5.901699437494742,-4.287835628845246z"/>
<path fill="#08f" fill-opacity="0.6" d="m46.35254915624211,-25.10142698577841 l-2.254248593736854,6.937863785644389 l5.901699437494742,-4.287835628845251 l2.254248593736854,-6.937863785644389z"/>
<path fill="#0035f3" fill-opacity="0.6" d="m46.35254915624211,-11.225699414489632 l5.901699437494749,-4.287835628845247 l-2.254248593736861,-6.937863785644392 l-5.901699437494749,4.287835628845247z"/>
<path fill="#0035f3" fill-opacity="0.6" d="m46.35254915624211,-11.225699414489632 l5.901699437494749,4.2878356288452455 l-2.254248593736861,6.937863785644387 l-5.901699437494749,-4.2878356288452455z"/>
<path fill="#0035f3" fill-opacity="0.6" d="m46.35254915624211,11.225699414489632 l5.901699437494749,-4.2878356288452455 l-2.254248593736861,-6.937863785644387 l-5.901699437494749,4.2878356288452455z"/>
<path fill="#0035f3" fill-opacity="0.6" d="m46.35254915624211,11.225699414489632 l5.901699437494749,4.287835628845247 l-2.254248593736861,6.937863785644392 l-5.901699437494749,-4.287835628845247z"/>
<path fill="#08f" fill-opacity="0.6" d="m46.35254915624211,25.10142698577841 l-2.254248593736854,-6.937863785644389 l5.901699437494742,4.287835628845251 l2.254248593736854,6.937863785644389z"/>
<path fill="#08f" fill-opacity="0.6" d="m52.25424859373686,-15.51353504333488 l7.294901687515775,0.0 l-5.901699437494749,4.287835628845247 l-7.294901687515775,-0.0z"/>
<path fill="#08f" fill-opacity="0.6" d="m52.25424859373686,-6.937863785644387 l-5.901699437494749,-4.2878356288452455 l7.294901687515775,0.0 l5.901699437494749,4.2878356288452455z"/>
<path fill="#08f" fill-opacity="0.6" d="m52.25424859373686,6.937863785644387 l-5.901699437494749,4.2878356288452455 l7.294901687515775,0.0 l5.901699437494749,-4.2878356288452455z"/>
<path fill="#08f" fill-opacity="0.6" d="m52.25424859373686,15.51353504333488 l7.294901687515775,0.0 l-5.901699437494749,-4.287835628845247 l-7.294901687515775,-0.0z"/>
<path fill="#0035f3" fill-opacity="0.6" d="m59.549150281252636,-15.51353504333488 l-7.294901687515775,0.0 l-2.254248593736861,-6.937863785644392 l7.294901687515775,-0.0z"/>
<path fill="#0035f3" fill-opacity="0.6" d="m59.549150281252636,-6.937863785644387 l-7.294901687515775,0.0 l-2.254248593736861,6.937863785644387 l7.294901687515775,-0.0z"/>
<path fill="#0035f3" fill-opacity="0.6" d="m59.549150281252636,6.937863785644387 l-7.294901687515775,0.0 l-2.254248593736861,-6.937863785644387 l7.294901687515775,-0.0z"/>
<path fill="#0035f3" fill-opacity="0.6" d="m59.549150281252636,15.51353504333488 l-7.294901687515775,0.0 l-2.254248593736861,6.937863785644392 l7.294901687515775,-0.0z"/>
<path fill="#08f" fill-opacity="0.6" d="m57.294901687515775,0.0 l2.254248593736861,6.937863785644387 l2.254248593736847,-6.937863785644387 l-2.254248593736861,-6.937863785644387z"/>
<path fill="#0035f3" fill-opacity="0.6" d="m65.45084971874738,-11.225699414489632 l-5.901699437494742,-4.287835628845247 l-5.901699437494749,4.287835628845247 l5.901699437494742,4.287835628845247z"/>
<path fill="#0035f3" fill-opacity="0.6" d="m65.45084971874738,11.225699414489632 l-5.901699437494742,4.287835628845247 l-5.901699437494749,-4.287835628845247 l5.901699437494742,-4.287835628845247z"/>
<path fill="#0035f3" fill-opacity="0.6" d="m65.45084971874738,-11.225699414489632 l2.254248593736861,6.937863785644386 l-5.901699437494756,4.287835628845246 l-2.254248593736861,-6.937863785644386z"/>
<path fill="#0035f3" fill-opacity="0.6" d="m65.45084971874738,11.225699414489632 l2.254248593736861,-6.937863785644386 l-5.901699437494756,-4.287835628845246 l-2.254248593736861,6.937863785644386z"/>
<path fill="#0035f3" fill-opacity="0.6" d="m73.60679774997897,0.0 l-5.901699437494727,4.287835628845246 l-5.901699437494756,-4.287835628845246 l5.901699437494727,-4.287835628845246z"/>
<path fill="#08f" fill-opacity="0.6" d="m67.70509831248424,-4.287835628845246 l5.901699437494727,4.287835628845246 l-2.254248593736847,-6.937863785644387 l-5.901699437494727,-4.287835628845246z"/>
<path fill="#08f" fill-opacity="0.6" d="m67.70509831248424,4.287835628845246 l5.901699437494727,-4.287835628845246 l-2.254248593736847,6.937863785644387 l-5.901699437494727,4.287835628845246z"/>
<path fill="#0035f3" fill-opacity="0.6" d="m80.90169943749474,-0.0 l-7.294901687515775,0.0 l-2.254248593736847,-6.937863785644387 l7.294901687515775,-0.0z"/>
<path fill="#0035f3" fill-opacity="0.6" d="m80.90169943749474,0.0 l-7.294901687515775,0.0 l-2.254248593736847,6.937863785644387 l7.294901687515775,-0.0z"/>
</g>
</svg>