<?xml version="1.0" encoding="utf-8"?>
<svg width="100%" height="100%" viewBox="-115.5 -115.5 231.0 231.0" preserveAspectRatio="xMidYMid meet" version="1.1" baseProfile="full" xmlns="http://www.w3.org/2000/svg">
<g style="stroke:#800; stroke-width: 0.802439185627;">
<path fill="#f00" opacity="0.9" d="m-95.4915028125,-13.8757275713 l14.589803375,-3.5527136788e-15 l-11.803398875,-8.57567125769 l-14.589803375,3.5527136788e-15z"/>
<path fill="#f00" opacity="0.9" d="m-95.4915028125,13.8757275713 l14.589803375,3.5527136788e-15 l-11.803398875,8.57567125769 l-14.589803375,-3.5527136788e-15z"/>
<path fill="#ff0" opacity="0.9" d="m-80.9016994375,-13.8757275713 l-14.589803375,3.5527136788e-15 l-4.50849718747,13.8757275713 l14.589803375,-3.5527136788e-15z"/>
<path fill="#ff0" opacity="0.9" d="m-80.9016994375,13.8757275713 l-14.589803375,-3.5527136788e-15 l-4.50849718747,-13.8757275713 l14.589803375,3.5527136788e-15z"/>
<path fill="#ff0" opacity="0.9" d="m-85.410196625,-44.902797658 l4.50849718747,13.8757275713 l-11.803398875,8.57567125769 l-4.50849718747,-13.8757275713z"/>
<path fill="#ff0" opacity="0.9" d="m-85.410196625,44.902797658 l4.50849718747,-13.8757275713 l-11.803398875,-8.57567125769 l-4.50849718747,13.8757275713z"/>
<path fill="#ff0" opacity="0.9" d="m-69.0983005625,-22.451398829 l-11.803398875,-8.57567125769 l-11.803398875,8.57567125769 l11.803398875,8.57567125769z"/>
<path fill="#ff0" opacity="0.9" d="m-69.0983005625,22.451398829 l-11.803398875,8.57567125769 l-11.803398875,-8.57567125769 l11.803398875,-8.57567125769z"/>
<path fill="#f00" opacity="0.9" d="m-85.410196625,0.0 l4.50849718747,13.8757275713 l4.50849718747,-13.8757275713 l-4.50849718747,-13.8757275713z"/>
<path fill="#ff0" opacity="0.9" d="m-80.9016994375,-58.7785252292 l11.803398875,8.57567125769 l-4.50849718747,13.8757275713 l-11.803398875,-8.57567125769z"/>
<path fill="#f00" opacity="0.9" d="m-80.9016994375,-31.0270700867 l-4.50849718747,-13.8757275713 l11.803398875,8.57567125769 l4.50849718747,13.8757275713z"/>
<path fill="#f00" opacity="0.9" d="m-80.9016994375,31.0270700867 l-4.50849718747,13.8757275713 l11.803398875,-8.57567125769 l4.50849718747,-13.8757275713z"/>
<path fill="#ff0" opacity="0.9" d="m-80.9016994375,58.7785252292 l11.803398875,-8.57567125769 l-4.50849718747,-13.8757275713 l-11.803398875,8.57567125769z"/>
<path fill="#ff0" opacity="0.9" d="m-69.0983005625,-22.451398829 l4.50849718747,13.8757275713 l-11.803398875,8.57567125769 l-4.50849718747,-13.8757275713z"/>
<path fill="#ff0" opacity="0.9" d="m-69.0983005625,22.451398829 l4.50849718747,-13.8757275713 l-11.803398875,-8.57567125769 l-4.50849718747,13.8757275713z"/>
<path fill="#ff0" opacity="0.9" d="m-80.9016994375,-58.7785252292 l11.803398875,8.57567125769 l11.803398875,-8.57567125769 l-11.803398875,-8.57567125769z"/>
<path fill="#ff0" opacity="0.9" d="m-80.9016994375,58.7785252292 l11.803398875,-8.57567125769 l11.803398875,8.57567125769 l-11.803398875,8.57567125769z"/>
<path fill="#f00" opacity="0.9" d="m-64.589803375,-36.3271264003 l-4.50849718747,13.8757275713 l-4.50849718747,-13.8757275713 l4.50849718747,-13.8757275713z"/>
<path fill="#f00" opacity="0.9" d="m-64.589803375,36.3271264003 l-4.50849718747,-13.8757275713 l-4.50849718747,13.8757275713 l4.50849718747,13.8757275713z"/>
<path fill="#ff0" opacity="0.9" d="m-52.7864045,0.0 l-11.803398875,8.57567125769 l-11.803398875,-8.57567125769 l11.803398875,-8.57567125769z"/>
<path fill="#f00" opacity="0.9" d="m-64.589803375,-8.57567125769 l11.803398875,8.57567125769 l-4.50849718747,-13.8757275713 l-11.803398875,-8.57567125769z"/>
<path fill="#f00" opacity="0.9" d="m-64.589803375,8.57567125769 l11.803398875,-8.57567125769 l-4.50849718747,13.8757275713 l-11.803398875,8.57567125769z"/>
<path fill="#ff0" opacity="0.9" d="m-69.0983005625,-50.2028539716 l14.589803375,0.0 l4.50849718747,13.8757275713 l-14.589803375,-0.0z"/>
<path fill="#ff0" opacity="0.9" d="m-69.0983005625,50.2028539716 l14.589803375,0.0 l4.50849718747,-13.8757275713 l-14.589803375,-0.0z"/>
<path fill="#ff0" opacity="0.9" d="m-69.0983005625,-67.3541964869 l14.589803375,0.0 l4.50849718747,-13.8757275713 l-14.589803375,-0.0z"/>
<path fill="#ff0" opacity="0.9" d="m-69.0983005625,-22.451398829 l4.50849718747,-13.8757275713 l14.589803375,0.0 l-4.50849718747,13.8757275713z"/>
<path fill="#ff0" opacity="0.9" d="m-69.0983005625,22.451398829 l4.50849718747,13.8757275713 l14.589803375,0.0 l-4.50849718747,-13.8757275713z"/>
<path fill="#ff0" opacity="0.9" d="m-69.0983005625,67.3541964869 l14.589803375,0.0 l4.50849718747,13.8757275713 l-14.589803375,-0.0z"/>
<path fill="#f00" opacity="0.9" d="m-54.5084971875,-67.3541964869 l-14.589803375,0.0 l11.803398875,8.57567125769 l14.589803375,-0.0z"/>
<path fill="#f00" opacity="0.9" d="m-54.5084971875,-50.2028539716 l11.803398875,-8.57567125769 l-14.589803375,0.0 l-11.803398875,8.57567125769z"/>
<path fill="#f00" opacity="0.9" d="m-54.5084971875,50.2028539716 l11.803398875,8.57567125769 l-14.589803375,0.0 l-11.803398875,-8.57567125769z"/>
<path fill="#f00" opacity="0.9" d="m-54.5084971875,67.3541964869 l-14.589803375,0.0 l11.803398875,-8.57567125769 l14.589803375,-0.0z"/>
<path fill="#f00" opacity="0.9" d="m-54.5084971875,-22.451398829 l-14.589803375,-3.5527136788e-15 l11.803398875,8.57567125769 l14.589803375,3.5527136788e-15z"/>
<path fill="#f00" opacity="0.9" d="m-54.5084971875,22.451398829 l-14.589803375,3.5527136788e-15 l11.803398875,-8.57567125769 l14.589803375,-3.5527136788e-15z"/>
<path fill="#ff0" opacity="0.9" d="m-38.196601125,-0.0 l-14.589803375,0.0 l-4.50849718747,-13.8757275713 l14.589803375,-0.0z"/>
<path fill="#ff0" opacity="0.9" d="m-38.196601125,0.0 l-14.589803375,0.0 l-4.50849718747,13.8757275713 l14.589803375,-0.0z"/>
<path fill="#ff0" opacity="0.9" d="m-42.7050983125,-58.7785252292 l-11.803398875,8.57567125769 l4.50849718747,13.8757275713 l11.803398875,-8.57567125769z"/>
<path fill="#ff0" opacity="0.9" d="m-42.7050983125,58.7785252292 l-11.803398875,-8.57567125769 l4.50849718747,-13.8757275713 l11.803398875,8.57567125769z"/>
<path fill="#ff0" opacity="0.9" d="m-42.7050983125,-58.7785252292 l-11.803398875,-8.57567125769 l4.50849718747,-13.8757275713 l11.803398875,8.57567125769z"/>
<path fill="#ff0" opacity="0.9" d="m-42.7050983125,-13.8757275713 l-11.803398875,-8.57567125769 l4.50849718747,-13.8757275713 l11.803398875,8.57567125769z"/>
<path fill="#ff0" opacity="0.9" d="m-42.7050983125,13.8757275713 l-11.803398875,8.57567125769 l4.50849718747,13.8757275713 l11.803398875,-8.57567125769z"/>
<path fill="#ff0" opacity="0.9" d="m-42.7050983125,58.7785252292 l-11.803398875,8.57567125769 l4.50849718747,13.8757275713 l11.803398875,-8.57567125769z"/>
<path fill="#f00" opacity="0.9" d="m-42.7050983125,-86.5299803718 l4.50849718747,13.8757275713 l-11.803398875,-8.57567125769 l-4.50849718747,-13.8757275713z"/>
<path fill="#f00" opacity="0.9" d="m-42.7050983125,86.5299803718 l4.50849718747,-13.8757275713 l-11.803398875,8.57567125769 l-4.50849718747,13.8757275713z"/>
<path fill="#ff0" opacity="0.9" d="m-26.39320225,-36.3271264003 l-11.803398875,-8.57567125769 l-11.803398875,8.57567125769 l11.803398875,8.57567125769z"/>
<path fill="#ff0" opacity="0.9" d="m-26.39320225,36.3271264003 l-11.803398875,8.57567125769 l-11.803398875,-8.57567125769 l11.803398875,-8.57567125769z"/>
<path fill="#f00" opacity="0.9" d="m-38.196601125,-44.902797658 l-4.50849718747,-13.8757275713 l11.803398875,8.57567125769 l4.50849718747,13.8757275713z"/>
<path fill="#f00" opacity="0.9" d="m-38.196601125,-27.7514551426 l11.803398875,-8.57567125769 l-4.50849718747,13.8757275713 l-11.803398875,8.57567125769z"/>
<path fill="#f00" opacity="0.9" d="m-38.196601125,27.7514551426 l11.803398875,8.57567125769 l-4.50849718747,-13.8757275713 l-11.803398875,-8.57567125769z"/>
<path fill="#f00" opacity="0.9" d="m-38.196601125,44.902797658 l-4.50849718747,13.8757275713 l11.803398875,-8.57567125769 l4.50849718747,-13.8757275713z"/>
<path fill="#ff0" opacity="0.9" d="m-38.196601125,-72.6542528005 l-4.50849718747,-13.8757275713 l11.803398875,-8.57567125769 l4.50849718747,13.8757275713z"/>
<path fill="#ff0" opacity="0.9" d="m-38.196601125,72.6542528005 l-4.50849718747,13.8757275713 l11.803398875,8.57567125769 l4.50849718747,-13.8757275713z"/>
<path fill="#ff0" opacity="0.9" d="m-38.196601125,-0.0 l11.803398875,-8.57567125769 l-4.50849718747,-13.8757275713 l-11.803398875,8.57567125769z"/>
<path fill="#ff0" opacity="0.9" d="m-38.196601125,0.0 l11.803398875,8.57567125769 l-4.50849718747,13.8757275713 l-11.803398875,-8.57567125769z"/>
<path fill="#ff0" opacity="0.9" d="m-42.7050983125,-58.7785252292 l14.589803375,7.1054273576e-15 l4.50849718747,-13.8757275713 l-14.589803375,-7.1054273576e-15z"/>
<path fill="#ff0" opacity="0.9" d="m-42.7050983125,58.7785252292 l14.589803375,-7.1054273576e-15 l4.50849718747,13.8757275713 l-14.589803375,7.1054273576e-15z"/>
<path fill="#f00" opacity="0.9" d="m-28.1152949375,-58.7785252292 l11.803398875,8.57567125769 l-14.589803375,0.0 l-11.803398875,-8.57567125769z"/>
<path fill="#f00" opacity="0.9" d="m-28.1152949375,58.7785252292 l11.803398875,-8.57567125769 l-14.589803375,0.0 l-11.803398875,8.57567125769z"/>
<path fill="#f00" opacity="0.9" d="m-26.39320225,-81.2299240582 l14.589803375,2.84217094304e-14 l-11.803398875,8.57567125769 l-14.589803375,-2.84217094304e-14z"/>
<path fill="#f00" opacity="0.9" d="m-26.39320225,-8.57567125769 l14.589803375,0.0 l-11.803398875,8.57567125769 l-14.589803375,-0.0z"/>
<path fill="#f00" opacity="0.9" d="m-26.39320225,8.57567125769 l14.589803375,0.0 l-11.803398875,-8.57567125769 l-14.589803375,-0.0z"/>
<path fill="#f00" opacity="0.9" d="m-26.39320225,81.2299240582 l14.589803375,-2.84217094304e-14 l-11.803398875,-8.57567125769 l-14.589803375,2.84217094304e-14z"/>
<path fill="#ff0" opacity="0.9" d="m-11.803398875,-36.3271264003 l-4.50849718747,-13.8757275713 l-14.589803375,0.0 l4.50849718747,13.8757275713z"/>
<path fill="#ff0" opacity="0.9" d="m-11.803398875,-36.3271264003 l-4.50849718747,13.8757275713 l-14.589803375,-3.5527136788e-15 l4.50849718747,-13.8757275713z"/>
<path fill="#ff0" opacity="0.9" d="m-11.803398875,-8.57567125769 l-4.50849718747,-13.8757275713 l-14.589803375,-3.5527136788e-15 l4.50849718747,13.8757275713z"/>
<path fill="#ff0" opacity="0.9" d="m-11.803398875,8.57567125769 l-4.50849718747,13.8757275713 l-14.589803375,3.5527136788e-15 l4.50849718747,-13.8757275713z"/>
<path fill="#ff0" opacity="0.9" d="m-11.803398875,36.3271264003 l-4.50849718747,-13.8757275713 l-14.589803375,3.5527136788e-15 l4.50849718747,13.8757275713z"/>
<path fill="#ff0" opacity="0.9" d="m-11.803398875,36.3271264003 l-4.50849718747,13.8757275713 l-14.589803375,0.0 l4.50849718747,-13.8757275713z"/>
<path fill="#ff0" opacity="0.9" d="m-11.803398875,-81.2299240582 l-4.50849718747,-13.8757275713 l-14.589803375,0.0 l4.50849718747,13.8757275713z"/>
<path fill="#ff0" opacity="0.9" d="m-11.803398875,81.2299240582 l-4.50849718747,13.8757275713 l-14.589803375,0.0 l4.50849718747,-13.8757275713z"/>
<path fill="#ff0" opacity="0.9" d="m-16.3118960625,-50.2028539716 l4.50849718747,-13.8757275713 l-11.803398875,-8.57567125769 l-4.50849718747,13.8757275713z"/>
<path fill="#ff0" opacity="0.9" d="m-16.3118960625,50.2028539716 l4.50849718747,13.8757275713 l-11.803398875,8.57567125769 l-4.50849718747,-13.8757275713z"/>
<path fill="#f00" opacity="0.9" d="m-16.3118960625,-95.1056516295 l4.50849718747,13.8757275713 l4.50849718747,-13.8757275713 l-4.50849718747,-13.8757275713z"/>
<path fill="#f00" opacity="0.9" d="m-16.3118960625,95.1056516295 l4.50849718747,-13.8757275713 l4.50849718747,13.8757275713 l-4.50849718747,13.8757275713z"/>
<path fill="#f00" opacity="0.9" d="m-16.3118960625,-22.451398829 l4.50849718747,13.8757275713 l4.50849718747,-13.8757275713 l-4.50849718747,-13.8757275713z"/>
<path fill="#ff0" opacity="0.9" d="m0.0,0.0 l-11.803398875,8.57567125769 l-11.803398875,-8.57567125769 l11.803398875,-8.57567125769z"/>
<path fill="#f00" opacity="0.9" d="m-16.3118960625,22.451398829 l4.50849718747,-13.8757275713 l4.50849718747,13.8757275713 l-4.50849718747,13.8757275713z"/>
<path fill="#ff0" opacity="0.9" d="m5.3290705182e-15,-72.6542528005 l-11.803398875,8.57567125769 l-11.803398875,-8.57567125769 l11.803398875,-8.57567125769z"/>
<path fill="#ff0" opacity="0.9" d="m5.3290705182e-15,72.6542528005 l-11.803398875,-8.57567125769 l-11.803398875,8.57567125769 l11.803398875,8.57567125769z"/>
<path fill="#ff0" opacity="0.9" d="m-11.803398875,-36.3271264003 l-4.50849718747,-13.8757275713 l11.803398875,-8.57567125769 l4.50849718747,13.8757275713z"/>
<path fill="#ff0" opacity="0.9" d="m-11.803398875,36.3271264003 l-4.50849718747,13.8757275713 l11.803398875,8.57567125769 l4.50849718747,-13.8757275713z"/>
<path fill="#f00" opacity="0.9" d="m-11.803398875,-64.0785815428 l-4.50849718747,13.8757275713 l11.803398875,-8.57567125769 l4.50849718747,-13.8757275713z"/>
<path fill="#f00" opacity="0.9" d="m-11.803398875,64.0785815428 l-4.50849718747,-13.8757275713 l11.803398875,8.57567125769 l4.50849718747,13.8757275713z"/>
<path fill="#ff0" opacity="0.9" d="m0.0,-0.0 l4.50849718747,-13.8757275713 l-11.803398875,-8.57567125769 l-4.50849718747,13.8757275713z"/>
<path fill="#ff0" opacity="0.9" d="m0.0,0.0 l4.50849718747,13.8757275713 l-11.803398875,8.57567125769 l-4.50849718747,-13.8757275713z"/>
<path fill="#f00" opacity="0.9" d="m8.881784197e-16,-27.7514551426 l4.50849718747,13.8757275713 l-11.803398875,-8.57567125769 l-4.50849718747,-13.8757275713z"/>
<path fill="#f00" opacity="0.9" d="m8.881784197e-16,27.7514551426 l4.50849718747,-13.8757275713 l-11.803398875,8.57567125769 l-4.50849718747,13.8757275713z"/>
<path fill="#ff0" opacity="0.9" d="m5.3290705182e-15,-72.6542528005 l4.50849718747,-13.8757275713 l-11.803398875,-8.57567125769 l-4.50849718747,13.8757275713z"/>
<path fill="#ff0" opacity="0.9" d="m5.3290705182e-15,72.6542528005 l4.50849718747,13.8757275713 l-11.803398875,8.57567125769 l-4.50849718747,-13.8757275713z"/>
<path fill="#ff0" opacity="0.9" d="m-11.803398875,-36.3271264003 l11.803398875,8.57567125769 l11.803398875,-8.57567125769 l-11.803398875,-8.57567125769z"/>
<path fill="#ff0" opacity="0.9" d="m-11.803398875,36.3271264003 l11.803398875,-8.57567125769 l11.803398875,8.57567125769 l-11.803398875,8.57567125769z"/>
<path fill="#f00" opacity="0.9" d="m4.50849718747,-58.7785252292 l-4.50849718747,-13.8757275713 l-4.50849718747,13.8757275713 l4.50849718747,13.8757275713z"/>
<path fill="#f00" opacity="0.9" d="m4.50849718747,58.7785252292 l-4.50849718747,13.8757275713 l-4.50849718747,-13.8757275713 l4.50849718747,-13.8757275713z"/>
<path fill="#ff0" opacity="0.9" d="m16.3118960625,-95.1056516295 l-11.803398875,8.57567125769 l-11.803398875,-8.57567125769 l11.803398875,-8.57567125769z"/>
<path fill="#ff0" opacity="0.9" d="m16.3118960625,95.1056516295 l-11.803398875,-8.57567125769 l-11.803398875,8.57567125769 l11.803398875,8.57567125769z"/>
<path fill="#ff0" opacity="0.9" d="m4.50849718747,-13.8757275713 l11.803398875,-8.57567125769 l-4.50849718747,-13.8757275713 l-11.803398875,8.57567125769z"/>
<path fill="#ff0" opacity="0.9" d="m4.50849718747,13.8757275713 l11.803398875,8.57567125769 l-4.50849718747,13.8757275713 l-11.803398875,-8.57567125769z"/>
<path fill="#f00" opacity="0.9" d="m4.50849718747,-86.5299803718 l11.803398875,-8.57567125769 l-4.50849718747,13.8757275713 l-11.803398875,8.57567125769z"/>
<path fill="#f00" opacity="0.9" d="m4.50849718747,86.5299803718 l11.803398875,8.57567125769 l-4.50849718747,-13.8757275713 l-11.803398875,-8.57567125769z"/>
<path fill="#ff0" opacity="0.9" d="m0.0,-0.0 l14.589803375,0.0 l4.50849718747,-13.8757275713 l-14.589803375,-0.0z"/>
<path fill="#ff0" opacity="0.9" d="m0.0,0.0 l14.589803375,0.0 l4.50849718747,13.8757275713 l-14.589803375,-0.0z"/>
<path fill="#ff0" opacity="0.9" d="m8.881784197e-16,-44.902797658 l4.50849718747,-13.8757275713 l14.589803375,-1.42108547152e-14 l-4.50849718747,13.8757275713z"/>
<path fill="#ff0" opacity="0.9" d="m8.881784197e-16,44.902797658 l4.50849718747,13.8757275713 l14.589803375,1.42108547152e-14 l-4.50849718747,-13.8757275713z"/>
<path fill="#ff0" opacity="0.9" d="m5.3290705182e-15,-72.6542528005 l14.589803375,0.0 l4.50849718747,13.8757275713 l-14.589803375,-0.0z"/>
<path fill="#ff0" opacity="0.9" d="m5.3290705182e-15,72.6542528005 l14.589803375,0.0 l4.50849718747,-13.8757275713 l-14.589803375,-0.0z"/>
<path fill="#f00" opacity="0.9" d="m14.589803375,-72.6542528005 l-14.589803375,0.0 l11.803398875,-8.57567125769 l14.589803375,-0.0z"/>
<path fill="#f00" opacity="0.9" d="m14.589803375,-44.902797658 l11.803398875,8.57567125769 l-14.589803375,-7.1054273576e-15 l-11.803398875,-8.57567125769z"/>
<path fill="#f00" opacity="0.9" d="m14.589803375,44.902797658 l11.803398875,-8.57567125769 l-14.589803375,7.1054273576e-15 l-11.803398875,8.57567125769z"/>
<path fill="#f00" opacity="0.9" d="m14.589803375,72.6542528005 l-14.589803375,0.0 l11.803398875,8.57567125769 l14.589803375,-0.0z"/>
<path fill="#f00" opacity="0.9" d="m16.3118960625,-22.451398829 l-11.803398875,8.57567125769 l14.589803375,1.7763568394e-15 l11.803398875,-8.57567125769z"/>
<path fill="#f00" opacity="0.9" d="m16.3118960625,22.451398829 l-11.803398875,-8.57567125769 l14.589803375,-1.7763568394e-15 l11.803398875,8.57567125769z"/>
<path fill="#ff0" opacity="0.9" d="m30.9016994375,-22.451398829 l-14.589803375,-3.5527136788e-15 l-4.50849718747,-13.8757275713 l14.589803375,3.5527136788e-15z"/>
<path fill="#ff0" opacity="0.9" d="m30.9016994375,22.451398829 l-14.589803375,3.5527136788e-15 l-4.50849718747,13.8757275713 l14.589803375,-3.5527136788e-15z"/>
<path fill="#ff0" opacity="0.9" d="m30.9016994375,-95.1056516295 l-4.50849718747,13.8757275713 l-14.589803375,1.42108547152e-14 l4.50849718747,-13.8757275713z"/>
<path fill="#ff0" opacity="0.9" d="m30.9016994375,95.1056516295 l-4.50849718747,-13.8757275713 l-14.589803375,-1.42108547152e-14 l4.50849718747,13.8757275713z"/>
<path fill="#ff0" opacity="0.9" d="m26.39320225,-81.2299240582 l4.50849718747,13.8757275713 l-11.803398875,8.57567125769 l-4.50849718747,-13.8757275713z"/>
<path fill="#ff0" opacity="0.9" d="m26.39320225,-36.3271264003 l4.50849718747,-13.8757275713 l-11.803398875,-8.57567125769 l-4.50849718747,13.8757275713z"/>
<path fill="#f00" opacity="0.9" d="m26.39320225,-8.57567125769 l-11.803398875,8.57567125769 l4.50849718747,-13.8757275713 l11.803398875,-8.57567125769z"/>
<path fill="#f00" opacity="0.9" d="m26.39320225,8.57567125769 l-11.803398875,-8.57567125769 l4.50849718747,13.8757275713 l11.803398875,8.57567125769z"/>
<path fill="#ff0" opacity="0.9" d="m26.39320225,36.3271264003 l4.50849718747,13.8757275713 l-11.803398875,8.57567125769 l-4.50849718747,-13.8757275713z"/>
<path fill="#ff0" opacity="0.9" d="m26.39320225,81.2299240582 l4.50849718747,-13.8757275713 l-11.803398875,-8.57567125769 l-4.50849718747,13.8757275713z"/>
<path fill="#ff0" opacity="0.9" d="m14.589803375,0.0 l11.803398875,8.57567125769 l11.803398875,-8.57567125769 l-11.803398875,-8.57567125769z"/>
<path fill="#ff0" opacity="0.9" d="m42.7050983125,-58.7785252292 l-11.803398875,-8.57567125769 l-11.803398875,8.57567125769 l11.803398875,8.57567125769z"/>
<path fill="#ff0" opacity="0.9" d="m42.7050983125,58.7785252292 l-11.803398875,8.57567125769 l-11.803398875,-8.57567125769 l11.803398875,-8.57567125769z"/>
<path fill="#f00" opacity="0.9" d="m30.9016994375,-50.2028539716 l11.803398875,-8.57567125769 l-4.50849718747,13.8757275713 l-11.803398875,8.57567125769z"/>
<path fill="#ff0" opacity="0.9" d="m30.9016994375,-22.451398829 l11.803398875,-8.57567125769 l-4.50849718747,-13.8757275713 l-11.803398875,8.57567125769z"/>
<path fill="#ff0" opacity="0.9" d="m30.9016994375,22.451398829 l11.803398875,8.57567125769 l-4.50849718747,13.8757275713 l-11.803398875,-8.57567125769z"/>
<path fill="#f00" opacity="0.9" d="m30.9016994375,50.2028539716 l11.803398875,8.57567125769 l-4.50849718747,-13.8757275713 l-11.803398875,-8.57567125769z"/>
<path fill="#ff0" opacity="0.9" d="m30.9016994375,-22.451398829 l-4.50849718747,13.8757275713 l11.803398875,8.57567125769 l4.50849718747,-13.8757275713z"/>
<path fill="#ff0" opacity="0.9" d="m30.9016994375,22.451398829 l-4.50849718747,-13.8757275713 l11.803398875,-8.57567125769 l4.50849718747,13.8757275713z"/>
<path fill="#ff0" opacity="0.9" d="m30.9016994375,-95.1056516295 l-4.50849718747,13.8757275713 l11.803398875,8.57567125769 l4.50849718747,-13.8757275713z"/>
<path fill="#f00" opacity="0.9" d="m30.9016994375,-67.3541964869 l11.803398875,8.57567125769 l-4.50849718747,-13.8757275713 l-11.803398875,-8.57567125769z"/>
<path fill="#f00" opacity="0.9" d="m30.9016994375,67.3541964869 l11.803398875,-8.57567125769 l-4.50849718747,13.8757275713 l-11.803398875,8.57567125769z"/>
<path fill="#ff0" opacity="0.9" d="m30.9016994375,95.1056516295 l-4.50849718747,-13.8757275713 l11.803398875,-8.57567125769 l4.50849718747,13.8757275713z"/>
<path fill="#f00" opacity="0.9" d="m47.2135955,-44.902797658 l-4.50849718747,13.8757275713 l-4.50849718747,-13.8757275713 l4.50849718747,-13.8757275713z"/>
<path fill="#ff0" opacity="0.9" d="m30.9016994375,-22.451398829 l11.803398875,-8.57567125769 l11.803398875,8.57567125769 l-11.803398875,8.57567125769z"/>
<path fill="#ff0" opacity="0.9" d="m30.9016994375,22.451398829 l11.803398875,8.57567125769 l11.803398875,-8.57567125769 l-11.803398875,-8.57567125769z"/>
<path fill="#f00" opacity="0.9" d="m47.2135955,44.902797658 l-4.50849718747,-13.8757275713 l-4.50849718747,13.8757275713 l4.50849718747,13.8757275713z"/>
<path fill="#f00" opacity="0.9" d="m47.2135955,-72.6542528005 l-4.50849718747,-13.8757275713 l-4.50849718747,13.8757275713 l4.50849718747,13.8757275713z"/>
<path fill="#f00" opacity="0.9" d="m47.2135955,72.6542528005 l-4.50849718747,13.8757275713 l-4.50849718747,-13.8757275713 l4.50849718747,-13.8757275713z"/>
<path fill="#f00" opacity="0.9" d="m47.2135955,0.0 l-4.50849718747,13.8757275713 l-4.50849718747,-13.8757275713 l4.50849718747,-13.8757275713z"/>
<path fill="#ff0" opacity="0.9" d="m42.7050983125,-86.5299803718 l4.50849718747,13.8757275713 l14.589803375,0.0 l-4.50849718747,-13.8757275713z"/>
<path fill="#ff0" opacity="0.9" d="m42.7050983125,-58.7785252292 l4.50849718747,-13.8757275713 l14.589803375,0.0 l-4.50849718747,13.8757275713z"/>
<path fill="#ff0" opacity="0.9" d="m42.7050983125,-58.7785252292 l4.50849718747,13.8757275713 l14.589803375,0.0 l-4.50849718747,-13.8757275713z"/>
<path fill="#ff0" opacity="0.9" d="m42.7050983125,-31.0270700867 l14.589803375,0.0 l4.50849718747,-13.8757275713 l-14.589803375,-0.0z"/>
<path fill="#ff0" opacity="0.9" d="m42.7050983125,-13.8757275713 l14.589803375,0.0 l4.50849718747,13.8757275713 l-14.589803375,-0.0z"/>
<path fill="#ff0" opacity="0.9" d="m42.7050983125,13.8757275713 l14.589803375,0.0 l4.50849718747,-13.8757275713 l-14.589803375,-0.0z"/>
<path fill="#ff0" opacity="0.9" d="m42.7050983125,31.0270700867 l14.589803375,0.0 l4.50849718747,13.8757275713 l-14.589803375,-0.0z"/>
<path fill="#ff0" opacity="0.9" d="m42.7050983125,58.7785252292 l4.50849718747,-13.8757275713 l14.589803375,0.0 l-4.50849718747,13.8757275713z"/>
<path fill="#ff0" opacity="0.9" d="m42.7050983125,58.7785252292 l4.50849718747,13.8757275713 l14.589803375,0.0 l-4.50849718747,-13.8757275713z"/>
<path fill="#ff0" opacity="0.9" d="m42.7050983125,86.5299803718 l4.50849718747,-13.8757275713 l14.589803375,0.0 l-4.50849718747,13.8757275713z"/>
<path fill="#f00" opacity="0.9" d="m57.2949016875,-31.0270700867 l-14.589803375,0.0 l11.803398875,8.57567125769 l14.589803375,-0.0z"/>
<path fill="#f00" opacity="0.9" d="m57.2949016875,-13.8757275713 l11.803398875,-8.57567125769 l-14.589803375,0.0 l-11.803398875,8.57567125769z"/>
<path fill="#f00" opacity="0.9" d="m57.2949016875,13.8757275713 l11.803398875,8.57567125769 l-14.589803375,0.0 l-11.803398875,-8.57567125769z"/>
<path fill="#f00" opacity="0.9" d="m57.2949016875,31.0270700867 l-14.589803375,0.0 l11.803398875,-8.57567125769 l14.589803375,-0.0z"/>
<path fill="#f00" opacity="0.9" d="m69.0983005625,-67.3541964869 l-11.803398875,8.57567125769 l4.50849718747,-13.8757275713 l11.803398875,-8.57567125769z"/>
<path fill="#f00" opacity="0.9" d="m69.0983005625,-50.2028539716 l4.50849718747,13.8757275713 l-11.803398875,-8.57567125769 l-4.50849718747,-13.8757275713z"/>
<path fill="#ff0" opacity="0.9" d="m69.0983005625,-22.451398829 l-11.803398875,-8.57567125769 l4.50849718747,-13.8757275713 l11.803398875,8.57567125769z"/>
<path fill="#ff0" opacity="0.9" d="m69.0983005625,-22.451398829 l4.50849718747,13.8757275713 l-11.803398875,8.57567125769 l-4.50849718747,-13.8757275713z"/>
<path fill="#ff0" opacity="0.9" d="m69.0983005625,22.451398829 l4.50849718747,-13.8757275713 l-11.803398875,-8.57567125769 l-4.50849718747,13.8757275713z"/>
<path fill="#ff0" opacity="0.9" d="m69.0983005625,22.451398829 l-11.803398875,8.57567125769 l4.50849718747,13.8757275713 l11.803398875,-8.57567125769z"/>
<path fill="#f00" opacity="0.9" d="m69.0983005625,50.2028539716 l4.50849718747,-13.8757275713 l-11.803398875,8.57567125769 l-4.50849718747,13.8757275713z"/>
<path fill="#f00" opacity="0.9" d="m69.0983005625,67.3541964869 l-11.803398875,-8.57567125769 l4.50849718747,13.8757275713 l11.803398875,8.57567125769z"/>
<path fill="#ff0" opacity="0.9" d="m57.2949016875,-58.7785252292 l11.803398875,-8.57567125769 l11.803398875,8.57567125769 l-11.803398875,8.57567125769z"/>
<path fill="#ff0" opacity="0.9" d="m57.2949016875,58.7785252292 l11.803398875,8.57567125769 l11.803398875,-8.57567125769 l-11.803398875,-8.57567125769z"/>
<path fill="#ff0" opacity="0.9" d="m85.410196625,0.0 l-11.803398875,8.57567125769 l-11.803398875,-8.57567125769 l11.803398875,-8.57567125769z"/>
<path fill="#ff0" opacity="0.9" d="m73.60679775,-36.3271264003 l11.803398875,-8.57567125769 l-4.50849718747,-13.8757275713 l-11.803398875,8.57567125769z"/>
<path fill="#f00" opacity="0.9" d="m73.60679775,-8.57567125769 l-4.50849718747,-13.8757275713 l11.803398875,8.57567125769 l4.50849718747,13.8757275713z"/>
<path fill="#f00" opacity="0.9" d="m73.60679775,8.57567125769 l-4.50849718747,13.8757275713 l11.803398875,-8.57567125769 l4.50849718747,-13.8757275713z"/>
<path fill="#ff0" opacity="0.9" d="m73.60679775,36.3271264003 l11.803398875,8.57567125769 l-4.50849718747,13.8757275713 l-11.803398875,-8.57567125769z"/>
<path fill="#ff0" opacity="0.9" d="m69.0983005625,-22.451398829 l14.589803375,-3.5527136788e-15 l4.50849718747,-13.8757275713 l-14.589803375,3.5527136788e-15z"/>
<path fill="#ff0" opacity="0.9" d="m69.0983005625,22.451398829 l14.589803375,3.5527136788e-15 l4.50849718747,13.8757275713 l-14.589803375,-3.5527136788e-15z"/>
<path fill="#f00" opacity="0.9" d="m83.6881039375,-22.451398829 l11.803398875,8.57567125769 l-14.589803375,1.7763568394e-15 l-11.803398875,-8.57567125769z"/>
<path fill="#f00" opacity="0.9" d="m83.6881039375,22.451398829 l11.803398875,-8.57567125769 l-14.589803375,-1.7763568394e-15 l-11.803398875,8.57567125769z"/>
<path fill="#f00" opacity="0.9" d="m85.410196625,-44.902797658 l-11.803398875,8.57567125769 l14.589803375,-7.1054273576e-15 l11.803398875,-8.57567125769z"/>
<path fill="#f00" opacity="0.9" d="m85.410196625,44.902797658 l-11.803398875,-8.57567125769 l14.589803375,7.1054273576e-15 l11.803398875,8.57567125769z"/>
<path fill="#ff0" opacity="0.9" d="m100.0,-0.0 l-14.589803375,0.0 l-4.50849718747,-13.8757275713 l14.589803375,-0.0z"/>
<path fill="#ff0" opacity="0.9" d="m100.0,0.0 l-14.589803375,0.0 l-4.50849718747,13.8757275713 l14.589803375,-0.0z"/>
<path fill="#ff0" opacity="0.9" d="m95.4915028125,-13.8757275713 l-11.803398875,-8.57567125769 l4.50849718747,-13.8757275713 l11.803398875,8.57567125769z"/>
<path fill="#ff0" opacity="0.9" d="m95.4915028125,13.8757275713 l-11.803398875,8.57567125769 l4.50849718747,13.8757275713 l11.803398875,-8.57567125769z"/>
</g>
</svg>