<?xml version="1.0" encoding="utf-8"?>
<svg width="100%" height="100%" viewBox="-115.50000000000001 -115.50000000000001 231.00000000000003 231.00000000000003" preserveAspectRatio="xMidYMid meet" version="1.1" baseProfile="full" xmlns="http://www.w3.org/2000/svg">
<g style="stroke:#800; stroke-width: 0.8024391856267354; stroke-linejoin: round;">
<path fill="#f00" fill-opacity="0.9" d="m-95.49150281252629,-13.875727571288778 l14.58980337503155,-3.552713678800501e-15 l-11.803398874989497,-8.575671257690487 l-14.58980337503155,3.552713678800501e-15z"/>
<path fill="#f00" fill-opacity="0.9" d="m-95.49150281252629,13.875727571288778 l14.58980337503155,3.552713678800501e-15 l-11.803398874989497,8.575671257690487 l-14.58980337503155,-3.552713678800501e-15z"/>
<path fill="#ff0" fill-opacity="0.9" d="m-80.90169943749474,-13.875727571288781 l-14.58980337503155,3.552713678800501e-15 l-4.508497187473708,13.875727571288778 l14.58980337503155,-3.552713678800501e-15z"/>
<path fill="#ff0" fill-opacity="0.9" d="m-80.90169943749474,13.875727571288781 l-14.58980337503155,-3.552713678800501e-15 l-4.508497187473708,-13.875727571288778 l14.58980337503155,3.552713678800501e-15z"/>
<path fill="#ff0" fill-opacity="0.9" d="m-85.41019662496848,-44.902797657958544 l4.508497187473722,13.875727571288778 l-11.803398874989483,8.575671257690498 l-4.508497187473722,-13.875727571288778z"/>
<path fill="#ff0" fill-opacity="0.9" d="m-85.41019662496848,44.902797657958544 l4.508497187473722,-13.875727571288778 l-11.803398874989483,-8.575671257690498 l-4.508497187473722,13.875727571288778z"/>
<path fill="#ff0" fill-opacity="0.9" d="m-69.09830056250526,-22.451398828979276 l-11.803398874989497,-8.575671257690491 l-11.803398874989483,8.575671257690498 l11.803398874989497,8.575671257690491z"/>
<path fill="#ff0" fill-opacity="0.9" d="m-69.09830056250526,22.451398828979276 l-11.803398874989497,8.575671257690491 l-11.803398874989483,-8.575671257690498 l11.803398874989497,-8.575671257690491z"/>
<path fill="#f00" fill-opacity="0.9" d="m-85.41019662496845,0.0 l4.508497187473708,13.875727571288781 l4.508497187473708,-13.875727571288781 l-4.508497187473708,-13.875727571288781z"/>
<path fill="#ff0" fill-opacity="0.9" d="m-80.90169943749476,-58.77852522924732 l11.803398874989483,8.575671257690495 l-4.508497187473694,13.875727571288778 l-11.803398874989483,-8.575671257690495z"/>
<path fill="#f00" fill-opacity="0.9" d="m-80.90169943749476,-31.027070086669767 l-4.508497187473722,-13.875727571288778 l11.803398874989512,8.575671257690495 l4.508497187473722,13.875727571288778z"/>
<path fill="#f00" fill-opacity="0.9" d="m-80.90169943749476,31.027070086669767 l-4.508497187473722,13.875727571288778 l11.803398874989512,-8.575671257690495 l4.508497187473722,-13.875727571288778z"/>
<path fill="#ff0" fill-opacity="0.9" d="m-80.90169943749476,58.77852522924732 l11.803398874989483,-8.575671257690495 l-4.508497187473694,-13.875727571288778 l-11.803398874989483,8.575671257690495z"/>
<path fill="#ff0" fill-opacity="0.9" d="m-69.09830056250526,-22.451398828979276 l4.508497187473708,13.87572757128878 l-11.803398874989483,8.575671257690496 l-4.508497187473708,-13.87572757128878z"/>
<path fill="#ff0" fill-opacity="0.9" d="m-69.09830056250526,22.451398828979276 l4.508497187473708,-13.87572757128878 l-11.803398874989483,-8.575671257690496 l-4.508497187473708,13.87572757128878z"/>
<path fill="#ff0" fill-opacity="0.9" d="m-80.90169943749476,-58.77852522924732 l11.803398874989483,8.575671257690495 l11.80339887498949,-8.575671257690495 l-11.803398874989483,-8.575671257690495z"/>
<path fill="#ff0" fill-opacity="0.9" d="m-80.90169943749476,58.77852522924732 l11.803398874989483,-8.575671257690495 l11.80339887498949,8.575671257690495 l-11.803398874989483,8.575671257690495z"/>
<path fill="#f00" fill-opacity="0.9" d="m-64.58980337503155,-36.32712640026805 l-4.508497187473708,13.875727571288774 l-4.508497187473708,-13.875727571288774 l4.508497187473708,-13.875727571288774z"/>
<path fill="#f00" fill-opacity="0.9" d="m-64.58980337503155,36.32712640026805 l-4.508497187473708,-13.875727571288774 l-4.508497187473708,13.875727571288774 l4.508497187473708,13.875727571288774z"/>
<path fill="#ff0" fill-opacity="0.9" d="m-52.78640450004205,0.0 l-11.803398874989497,8.575671257690496 l-11.803398874989483,-8.575671257690496 l11.803398874989497,-8.575671257690496z"/>
<path fill="#f00" fill-opacity="0.9" d="m-64.58980337503155,-8.575671257690496 l11.803398874989497,8.575671257690496 l-4.508497187473722,-13.875727571288781 l-11.803398874989497,-8.575671257690496z"/>
<path fill="#f00" fill-opacity="0.9" d="m-64.58980337503155,8.575671257690496 l11.803398874989497,-8.575671257690496 l-4.508497187473722,13.875727571288781 l-11.803398874989497,8.575671257690496z"/>
<path fill="#ff0" fill-opacity="0.9" d="m-69.09830056250527,-50.20285397155683 l14.58980337503155,0.0 l4.508497187473708,13.875727571288778 l-14.58980337503155,-0.0z"/>
<path fill="#ff0" fill-opacity="0.9" d="m-69.09830056250527,50.20285397155683 l14.58980337503155,0.0 l4.508497187473708,-13.875727571288778 l-14.58980337503155,-0.0z"/>
<path fill="#ff0" fill-opacity="0.9" d="m-69.09830056250527,-67.35419648693781 l14.58980337503155,0.0 l4.508497187473722,-13.875727571288778 l-14.58980337503155,-0.0z"/>
<path fill="#ff0" fill-opacity="0.9" d="m-69.09830056250526,-22.451398828979276 l4.508497187473708,-13.875727571288774 l14.589803375031536,0.0 l-4.508497187473708,13.875727571288774z"/>
<path fill="#ff0" fill-opacity="0.9" d="m-69.09830056250526,22.451398828979276 l4.508497187473708,13.875727571288774 l14.589803375031536,0.0 l-4.508497187473708,-13.875727571288774z"/>
<path fill="#ff0" fill-opacity="0.9" d="m-69.09830056250527,67.35419648693781 l14.58980337503155,0.0 l4.508497187473722,13.875727571288778 l-14.58980337503155,-0.0z"/>
<path fill="#f00" fill-opacity="0.9" d="m-54.50849718747372,-67.35419648693781 l-14.58980337503155,0.0 l11.80339887498949,8.575671257690487 l14.58980337503155,-0.0z"/>
<path fill="#f00" fill-opacity="0.9" d="m-54.50849718747372,-50.20285397155683 l11.803398874989483,-8.575671257690495 l-14.589803375031543,0.0 l-11.803398874989483,8.575671257690495z"/>
<path fill="#f00" fill-opacity="0.9" d="m-54.50849718747372,50.20285397155683 l11.803398874989483,8.575671257690495 l-14.589803375031543,0.0 l-11.803398874989483,-8.575671257690495z"/>
<path fill="#f00" fill-opacity="0.9" d="m-54.50849718747372,67.35419648693781 l-14.58980337503155,0.0 l11.80339887498949,-8.575671257690487 l14.58980337503155,-0.0z"/>
<path fill="#f00" fill-opacity="0.9" d="m-54.50849718747372,-22.451398828979272 l-14.589803375031536,-3.552713678800501e-15 l11.803398874989483,8.575671257690495 l14.589803375031536,3.552713678800501e-15z"/>
<path fill="#f00" fill-opacity="0.9" d="m-54.50849718747372,22.451398828979272 l-14.589803375031536,3.552713678800501e-15 l11.803398874989483,-8.575671257690495 l14.589803375031536,-3.552713678800501e-15z"/>
<path fill="#ff0" fill-opacity="0.9" d="m-38.19660112501051,-0.0 l-14.589803375031543,0.0 l-4.508497187473722,-13.875727571288781 l14.589803375031543,-0.0z"/>
<path fill="#ff0" fill-opacity="0.9" d="m-38.19660112501051,0.0 l-14.589803375031543,0.0 l-4.508497187473722,13.875727571288781 l14.589803375031543,-0.0z"/>
<path fill="#ff0" fill-opacity="0.9" d="m-42.70509831248424,-58.77852522924732 l-11.803398874989483,8.575671257690495 l4.508497187473708,13.875727571288778 l11.803398874989483,-8.575671257690495z"/>
<path fill="#ff0" fill-opacity="0.9" d="m-42.70509831248424,58.77852522924732 l-11.803398874989483,-8.575671257690495 l4.508497187473708,-13.875727571288778 l11.803398874989483,8.575671257690495z"/>
<path fill="#ff0" fill-opacity="0.9" d="m-42.70509831248424,-58.77852522924732 l-11.803398874989483,-8.575671257690487 l4.508497187473722,-13.875727571288778 l11.803398874989483,8.575671257690487z"/>
<path fill="#ff0" fill-opacity="0.9" d="m-42.70509831248423,-13.875727571288776 l-11.80339887498949,-8.575671257690496 l4.508497187473708,-13.875727571288778 l11.80339887498949,8.575671257690496z"/>
<path fill="#ff0" fill-opacity="0.9" d="m-42.70509831248423,13.875727571288776 l-11.80339887498949,8.575671257690496 l4.508497187473708,13.875727571288778 l11.80339887498949,-8.575671257690496z"/>
<path fill="#ff0" fill-opacity="0.9" d="m-42.70509831248424,58.77852522924732 l-11.803398874989483,8.575671257690487 l4.508497187473722,13.875727571288778 l11.803398874989483,-8.575671257690487z"/>
<path fill="#f00" fill-opacity="0.9" d="m-42.705098312484225,-86.52998037182488 l4.508497187473701,13.875727571288792 l-11.803398874989476,-8.575671257690502 l-4.508497187473701,-13.875727571288792z"/>
<path fill="#f00" fill-opacity="0.9" d="m-42.705098312484225,86.52998037182488 l4.508497187473701,-13.875727571288792 l-11.803398874989476,8.575671257690502 l-4.508497187473701,13.875727571288792z"/>
<path fill="#ff0" fill-opacity="0.9" d="m-26.393202250021034,-36.32712640026804 l-11.803398874989497,-8.575671257690495 l-11.803398874989483,8.575671257690487 l11.803398874989497,8.575671257690495z"/>
<path fill="#ff0" fill-opacity="0.9" d="m-26.393202250021034,36.32712640026804 l-11.803398874989497,8.575671257690495 l-11.803398874989483,-8.575671257690487 l11.803398874989497,-8.575671257690495z"/>
<path fill="#f00" fill-opacity="0.9" d="m-38.19660112501053,-44.90279765795854 l-4.508497187473708,-13.875727571288785 l11.803398874989487,8.575671257690502 l4.508497187473708,13.875727571288785z"/>
<path fill="#f00" fill-opacity="0.9" d="m-38.19660112501053,-27.751455142577555 l11.803398874989497,-8.575671257690487 l-4.5084971874737185,13.875727571288767 l-11.803398874989497,8.575671257690487z"/>
<path fill="#f00" fill-opacity="0.9" d="m-38.19660112501053,27.751455142577555 l11.803398874989497,8.575671257690487 l-4.5084971874737185,-13.875727571288767 l-11.803398874989497,-8.575671257690487z"/>
<path fill="#f00" fill-opacity="0.9" d="m-38.19660112501053,44.90279765795854 l-4.508497187473708,13.875727571288785 l11.803398874989487,-8.575671257690502 l4.508497187473708,-13.875727571288785z"/>
<path fill="#ff0" fill-opacity="0.9" d="m-38.196601125010524,-72.65425280053609 l-4.508497187473701,-13.875727571288792 l11.803398874989483,-8.575671257690487 l4.508497187473701,13.875727571288792z"/>
<path fill="#ff0" fill-opacity="0.9" d="m-38.196601125010524,72.65425280053609 l-4.508497187473701,13.875727571288792 l11.803398874989483,8.575671257690487 l4.508497187473701,-13.875727571288792z"/>
<path fill="#ff0" fill-opacity="0.9" d="m-38.19660112501051,-0.0 l11.803398874989476,-8.575671257690495 l-4.5084971874737185,-13.875727571288781 l-11.803398874989476,8.575671257690495z"/>
<path fill="#ff0" fill-opacity="0.9" d="m-38.19660112501051,0.0 l11.803398874989476,8.575671257690495 l-4.5084971874737185,13.875727571288781 l-11.803398874989476,-8.575671257690495z"/>
<path fill="#ff0" fill-opacity="0.9" d="m-42.70509831248424,-58.77852522924732 l14.58980337503155,7.105427357601002e-15 l4.5084971874737185,-13.875727571288785 l-14.58980337503155,-7.105427357601002e-15z"/>
<path fill="#ff0" fill-opacity="0.9" d="m-42.70509831248424,58.77852522924732 l14.58980337503155,-7.105427357601002e-15 l4.5084971874737185,13.875727571288785 l-14.58980337503155,7.105427357601002e-15z"/>
<path fill="#f00" fill-opacity="0.9" d="m-28.11529493745269,-58.778525229247315 l11.803398874989494,8.575671257690495 l-14.589803375031558,0.0 l-11.803398874989494,-8.575671257690495z"/>
<path fill="#f00" fill-opacity="0.9" d="m-28.11529493745269,58.778525229247315 l11.803398874989494,-8.575671257690495 l-14.589803375031558,0.0 l-11.803398874989494,8.575671257690495z"/>
<path fill="#f00" fill-opacity="0.9" d="m-26.39320225002103,-81.2299240582266 l14.58980337503155,2.842170943040401e-14 l-11.80339887498949,8.575671257690473 l-14.58980337503155,-2.842170943040401e-14z"/>
<path fill="#f00" fill-opacity="0.9" d="m-26.393202250021034,-8.575671257690495 l14.589803375031547,0.0 l-11.803398874989483,8.575671257690495 l-14.589803375031547,-0.0z"/>
<path fill="#f00" fill-opacity="0.9" d="m-26.393202250021034,8.575671257690495 l14.589803375031547,0.0 l-11.803398874989483,-8.575671257690495 l-14.589803375031547,-0.0z"/>
<path fill="#f00" fill-opacity="0.9" d="m-26.39320225002103,81.2299240582266 l14.58980337503155,-2.842170943040401e-14 l-11.80339887498949,-8.575671257690473 l-14.58980337503155,2.842170943040401e-14z"/>
<path fill="#ff0" fill-opacity="0.9" d="m-11.803398874989483,-36.32712640026804 l-4.508497187473711,-13.875727571288778 l-14.589803375031558,0.0 l4.508497187473711,13.875727571288778z"/>
<path fill="#ff0" fill-opacity="0.9" d="m-11.803398874989483,-36.32712640026804 l-4.508497187473715,13.87572757128877 l-14.589803375031554,-3.552713678800501e-15 l4.508497187473715,-13.87572757128877z"/>
<path fill="#ff0" fill-opacity="0.9" d="m-11.803398874989487,-8.575671257690495 l-4.508497187473711,-13.875727571288778 l-14.589803375031554,-3.552713678800501e-15 l4.508497187473711,13.875727571288778z"/>
<path fill="#ff0" fill-opacity="0.9" d="m-11.803398874989487,8.575671257690495 l-4.508497187473711,13.875727571288778 l-14.589803375031554,3.552713678800501e-15 l4.508497187473711,-13.875727571288778z"/>
<path fill="#ff0" fill-opacity="0.9" d="m-11.803398874989483,36.32712640026804 l-4.508497187473715,-13.87572757128877 l-14.589803375031554,3.552713678800501e-15 l4.508497187473715,13.87572757128877z"/>
<path fill="#ff0" fill-opacity="0.9" d="m-11.803398874989483,36.32712640026804 l-4.508497187473711,13.875727571288778 l-14.589803375031558,0.0 l4.508497187473711,-13.875727571288778z"/>
<path fill="#ff0" fill-opacity="0.9" d="m-11.80339887498948,-81.22992405822657 l-4.5084971874737185,-13.875727571288792 l-14.589803375031543,0.0 l4.5084971874737185,13.875727571288792z"/>
<path fill="#ff0" fill-opacity="0.9" d="m-11.80339887498948,81.22992405822657 l-4.5084971874737185,13.875727571288792 l-14.589803375031543,0.0 l4.5084971874737185,-13.875727571288792z"/>
<path fill="#ff0" fill-opacity="0.9" d="m-16.311896062463195,-50.20285397155682 l4.508497187473715,-13.875727571288778 l-11.80339887498949,-8.575671257690502 l-4.508497187473715,13.875727571288778z"/>
<path fill="#ff0" fill-opacity="0.9" d="m-16.311896062463195,50.20285397155682 l4.508497187473715,13.875727571288778 l-11.80339887498949,8.575671257690502 l-4.508497187473715,-13.875727571288778z"/>
<path fill="#f00" fill-opacity="0.9" d="m-16.311896062463198,-95.10565162951536 l4.5084971874737185,13.875727571288792 l4.508497187473706,-13.875727571288792 l-4.5084971874737185,-13.875727571288792z"/>
<path fill="#f00" fill-opacity="0.9" d="m-16.311896062463198,95.10565162951536 l4.5084971874737185,-13.875727571288792 l4.508497187473706,13.875727571288792 l-4.5084971874737185,13.875727571288792z"/>
<path fill="#f00" fill-opacity="0.9" d="m-16.311896062463198,-22.451398828979272 l4.508497187473711,13.875727571288778 l4.508497187473714,-13.875727571288774 l-4.508497187473711,-13.875727571288778z"/>
<path fill="#ff0" fill-opacity="0.9" d="m0.0,0.0 l-11.803398874989487,8.575671257690495 l-11.803398874989483,-8.575671257690495 l11.803398874989487,-8.575671257690495z"/>
<path fill="#f00" fill-opacity="0.9" d="m-16.311896062463198,22.451398828979272 l4.508497187473711,-13.875727571288778 l4.508497187473714,13.875727571288774 l-4.508497187473711,13.875727571288778z"/>
<path fill="#ff0" fill-opacity="0.9" d="m5.329070518200751e-15,-72.65425280053609 l-11.803398874989485,8.575671257690487 l-11.80339887498949,-8.575671257690502 l11.803398874989485,-8.575671257690487z"/>
<path fill="#ff0" fill-opacity="0.9" d="m5.329070518200751e-15,72.65425280053609 l-11.803398874989485,-8.575671257690487 l-11.80339887498949,8.575671257690502 l11.803398874989485,8.575671257690487z"/>
<path fill="#ff0" fill-opacity="0.9" d="m-11.803398874989483,-36.32712640026804 l-4.508497187473711,-13.875727571288778 l11.803398874989487,-8.575671257690487 l4.508497187473711,13.875727571288778z"/>
<path fill="#ff0" fill-opacity="0.9" d="m-11.803398874989483,36.32712640026804 l-4.508497187473711,13.875727571288778 l11.803398874989487,8.575671257690487 l4.508497187473711,-13.875727571288778z"/>
<path fill="#f00" fill-opacity="0.9" d="m-11.80339887498948,-64.0785815428456 l-4.508497187473715,13.875727571288778 l11.803398874989487,-8.575671257690487 l4.508497187473715,-13.875727571288778z"/>
<path fill="#f00" fill-opacity="0.9" d="m-11.80339887498948,64.0785815428456 l-4.508497187473715,-13.875727571288778 l11.803398874989487,8.575671257690487 l4.508497187473715,13.875727571288778z"/>
<path fill="#ff0" fill-opacity="0.9" d="m0.0,-0.0 l4.508497187473713,-13.875727571288776 l-11.803398874989487,-8.575671257690493 l-4.508497187473713,13.875727571288776z"/>
<path fill="#ff0" fill-opacity="0.9" d="m0.0,0.0 l4.508497187473713,13.875727571288776 l-11.803398874989487,8.575671257690493 l-4.508497187473713,-13.875727571288776z"/>
<path fill="#f00" fill-opacity="0.9" d="m8.881784197001252e-16,-27.751455142577555 l4.508497187473712,13.87572757128878 l-11.803398874989487,-8.575671257690493 l-4.508497187473712,-13.87572757128878z"/>
<path fill="#f00" fill-opacity="0.9" d="m8.881784197001252e-16,27.751455142577555 l4.508497187473712,-13.87572757128878 l-11.803398874989487,8.575671257690493 l-4.508497187473712,13.87572757128878z"/>
<path fill="#ff0" fill-opacity="0.9" d="m5.329070518200751e-15,-72.65425280053609 l4.50849718747371,-13.875727571288778 l-11.803398874989488,-8.575671257690502 l-4.50849718747371,13.875727571288778z"/>
<path fill="#ff0" fill-opacity="0.9" d="m5.329070518200751e-15,72.65425280053609 l4.50849718747371,13.875727571288778 l-11.803398874989488,8.575671257690502 l-4.50849718747371,-13.875727571288778z"/>
<path fill="#ff0" fill-opacity="0.9" d="m-11.803398874989483,-36.32712640026804 l11.803398874989483,8.575671257690487 l11.803398874989487,-8.575671257690495 l-11.803398874989483,-8.575671257690487z"/>
<path fill="#ff0" fill-opacity="0.9" d="m-11.803398874989483,36.32712640026804 l11.803398874989483,-8.575671257690487 l11.803398874989487,8.575671257690495 l-11.803398874989483,8.575671257690487z"/>
<path fill="#f00" fill-opacity="0.9" d="m4.508497187473716,-58.77852522924731 l-4.5084971874737105,-13.875727571288778 l-4.508497187473712,13.875727571288778 l4.5084971874737105,13.875727571288778z"/>
<path fill="#f00" fill-opacity="0.9" d="m4.508497187473716,58.77852522924731 l-4.5084971874737105,13.875727571288778 l-4.508497187473712,-13.875727571288778 l4.5084971874737105,-13.875727571288778z"/>
<path fill="#ff0" fill-opacity="0.9" d="m16.3118960624632,-95.10565162951536 l-11.803398874989487,8.575671257690502 l-11.803398874989488,-8.575671257690502 l11.803398874989487,-8.575671257690502z"/>
<path fill="#ff0" fill-opacity="0.9" d="m16.3118960624632,95.10565162951536 l-11.803398874989487,-8.575671257690502 l-11.803398874989488,8.575671257690502 l11.803398874989487,8.575671257690502z"/>
<path fill="#ff0" fill-opacity="0.9" d="m4.508497187473713,-13.875727571288776 l11.803398874989485,-8.575671257690493 l-4.50849718747371,-13.875727571288781 l-11.803398874989485,8.575671257690493z"/>
<path fill="#ff0" fill-opacity="0.9" d="m4.508497187473713,13.875727571288776 l11.803398874989485,8.575671257690493 l-4.50849718747371,13.875727571288781 l-11.803398874989485,-8.575671257690493z"/>
<path fill="#f00" fill-opacity="0.9" d="m4.508497187473715,-86.52998037182486 l11.803398874989487,-8.575671257690502 l-4.508497187473713,13.875727571288792 l-11.803398874989487,8.575671257690502z"/>
<path fill="#f00" fill-opacity="0.9" d="m4.508497187473715,86.52998037182486 l11.803398874989487,8.575671257690502 l-4.508497187473713,-13.875727571288792 l-11.803398874989487,-8.575671257690502z"/>
<path fill="#ff0" fill-opacity="0.9" d="m0.0,-0.0 l14.589803375031547,0.0 l4.508497187473708,-13.875727571288774 l-14.589803375031547,-0.0z"/>
<path fill="#ff0" fill-opacity="0.9" d="m0.0,0.0 l14.589803375031547,0.0 l4.508497187473708,13.875727571288774 l-14.589803375031547,-0.0z"/>
<path fill="#ff0" fill-opacity="0.9" d="m8.881784197001252e-16,-44.90279765795854 l4.508497187473715,-13.87572757128877 l14.589803375031547,-1.4210854715202004e-14 l-4.508497187473715,13.87572757128877z"/>
<path fill="#ff0" fill-opacity="0.9" d="m8.881784197001252e-16,44.90279765795854 l4.508497187473715,13.87572757128877 l14.589803375031547,1.4210854715202004e-14 l-4.508497187473715,-13.87572757128877z"/>
<path fill="#ff0" fill-opacity="0.9" d="m5.329070518200751e-15,-72.65425280053609 l14.589803375031543,0.0 l4.508497187473713,13.875727571288763 l-14.589803375031543,-0.0z"/>
<path fill="#ff0" fill-opacity="0.9" d="m5.329070518200751e-15,72.65425280053609 l14.589803375031543,0.0 l4.508497187473713,-13.875727571288763 l-14.589803375031543,-0.0z"/>
<path fill="#f00" fill-opacity="0.9" d="m14.589803375031549,-72.65425280053609 l-14.589803375031543,0.0 l11.803398874989483,-8.575671257690487 l14.589803375031543,-0.0z"/>
<path fill="#f00" fill-opacity="0.9" d="m14.589803375031549,-44.902797657958544 l11.803398874989478,8.575671257690502 l-14.589803375031538,-7.105427357601002e-15 l-11.803398874989478,-8.575671257690502z"/>
<path fill="#f00" fill-opacity="0.9" d="m14.589803375031549,44.902797657958544 l11.803398874989478,-8.575671257690502 l-14.589803375031538,7.105427357601002e-15 l-11.803398874989478,8.575671257690502z"/>
<path fill="#f00" fill-opacity="0.9" d="m14.589803375031549,72.65425280053609 l-14.589803375031543,0.0 l11.803398874989483,8.575671257690487 l14.589803375031543,-0.0z"/>
<path fill="#f00" fill-opacity="0.9" d="m16.311896062463198,-22.45139882897927 l-11.803398874989485,8.575671257690493 l14.589803375031542,1.7763568394002505e-15 l11.803398874989485,-8.575671257690493z"/>
<path fill="#f00" fill-opacity="0.9" d="m16.311896062463198,22.45139882897927 l-11.803398874989485,-8.575671257690493 l14.589803375031542,-1.7763568394002505e-15 l11.803398874989485,8.575671257690493z"/>
<path fill="#ff0" fill-opacity="0.9" d="m30.901699437494738,-22.451398828979265 l-14.58980337503154,-3.552713678800501e-15 l-4.50849718747371,-13.875727571288781 l14.58980337503154,3.552713678800501e-15z"/>
<path fill="#ff0" fill-opacity="0.9" d="m30.901699437494738,22.451398828979265 l-14.58980337503154,3.552713678800501e-15 l-4.50849718747371,13.875727571288781 l14.58980337503154,-3.552713678800501e-15z"/>
<path fill="#ff0" fill-opacity="0.9" d="m30.90169943749475,-95.10565162951536 l-4.508497187473715,13.875727571288778 l-14.589803375031545,1.4210854715202004e-14 l4.508497187473715,-13.875727571288778z"/>
<path fill="#ff0" fill-opacity="0.9" d="m30.90169943749475,95.10565162951536 l-4.508497187473715,-13.875727571288778 l-14.589803375031545,-1.4210854715202004e-14 l4.508497187473715,13.875727571288778z"/>
<path fill="#ff0" fill-opacity="0.9" d="m26.393202250021034,-81.22992405822659 l4.508497187473715,13.875727571288778 l-11.803398874989487,8.575671257690487 l-4.508497187473715,-13.875727571288778z"/>
<path fill="#ff0" fill-opacity="0.9" d="m26.393202250021027,-36.32712640026804 l4.508497187473715,-13.875727571288785 l-11.80339887498948,-8.575671257690495 l-4.508497187473715,13.875727571288785z"/>
<path fill="#f00" fill-opacity="0.9" d="m26.393202250021034,-8.575671257690493 l-11.803398874989487,8.575671257690493 l4.508497187473708,-13.875727571288774 l11.803398874989487,-8.575671257690493z"/>
<path fill="#f00" fill-opacity="0.9" d="m26.393202250021034,8.575671257690493 l-11.803398874989487,-8.575671257690493 l4.508497187473708,13.875727571288774 l11.803398874989487,8.575671257690493z"/>
<path fill="#ff0" fill-opacity="0.9" d="m26.393202250021027,36.32712640026804 l4.508497187473715,13.875727571288785 l-11.80339887498948,8.575671257690495 l-4.508497187473715,-13.875727571288785z"/>
<path fill="#ff0" fill-opacity="0.9" d="m26.393202250021034,81.22992405822659 l4.508497187473715,-13.875727571288778 l-11.803398874989487,-8.575671257690487 l-4.508497187473715,13.875727571288778z"/>
<path fill="#ff0" fill-opacity="0.9" d="m14.589803375031547,0.0 l11.803398874989487,8.575671257690493 l11.80339887498949,-8.575671257690493 l-11.803398874989487,-8.575671257690493z"/>
<path fill="#ff0" fill-opacity="0.9" d="m42.705098312484225,-58.778525229247315 l-11.803398874989476,-8.575671257690495 l-11.803398874989487,8.575671257690487 l11.803398874989476,8.575671257690495z"/>
<path fill="#ff0" fill-opacity="0.9" d="m42.705098312484225,58.778525229247315 l-11.803398874989476,8.575671257690495 l-11.803398874989487,-8.575671257690487 l11.803398874989476,-8.575671257690495z"/>
<path fill="#f00" fill-opacity="0.9" d="m30.90169943749474,-50.20285397155683 l11.803398874989483,-8.575671257690487 l-4.508497187473715,13.87572757128877 l-11.803398874989483,8.575671257690487z"/>
<path fill="#ff0" fill-opacity="0.9" d="m30.901699437494738,-22.451398828979265 l11.803398874989487,-8.575671257690495 l-4.508497187473715,-13.875727571288785 l-11.803398874989487,8.575671257690495z"/>
<path fill="#ff0" fill-opacity="0.9" d="m30.901699437494738,22.451398828979265 l11.803398874989487,8.575671257690495 l-4.508497187473715,13.875727571288785 l-11.803398874989487,-8.575671257690495z"/>
<path fill="#f00" fill-opacity="0.9" d="m30.90169943749474,50.20285397155683 l11.803398874989483,8.575671257690487 l-4.508497187473715,-13.87572757128877 l-11.803398874989483,-8.575671257690487z"/>
<path fill="#ff0" fill-opacity="0.9" d="m30.901699437494738,-22.451398828979265 l-4.508497187473704,13.875727571288772 l11.80339887498949,8.575671257690493 l4.508497187473704,-13.875727571288772z"/>
<path fill="#ff0" fill-opacity="0.9" d="m30.901699437494738,22.451398828979265 l-4.508497187473704,-13.875727571288772 l11.80339887498949,-8.575671257690493 l4.508497187473704,13.875727571288772z"/>
<path fill="#ff0" fill-opacity="0.9" d="m30.90169943749475,-95.10565162951536 l-4.508497187473715,13.875727571288778 l11.803398874989483,8.575671257690502 l4.508497187473715,-13.875727571288778z"/>
<path fill="#f00" fill-opacity="0.9" d="m30.90169943749475,-67.35419648693781 l11.803398874989476,8.575671257690495 l-4.508497187473708,-13.87572757128877 l-11.803398874989476,-8.575671257690495z"/>
<path fill="#f00" fill-opacity="0.9" d="m30.90169943749475,67.35419648693781 l11.803398874989476,-8.575671257690495 l-4.508497187473708,13.87572757128877 l-11.803398874989476,8.575671257690495z"/>
<path fill="#ff0" fill-opacity="0.9" d="m30.90169943749475,95.10565162951536 l-4.508497187473715,-13.875727571288778 l11.803398874989483,-8.575671257690502 l4.508497187473715,13.875727571288778z"/>
<path fill="#f00" fill-opacity="0.9" d="m47.21359549995794,-44.902797657958544 l-4.508497187473715,13.875727571288785 l-4.508497187473715,-13.875727571288785 l4.508497187473715,-13.875727571288785z"/>
<path fill="#ff0" fill-opacity="0.9" d="m30.901699437494738,-22.451398828979265 l11.803398874989487,-8.575671257690495 l11.80339887498949,8.575671257690495 l-11.803398874989487,8.575671257690495z"/>
<path fill="#ff0" fill-opacity="0.9" d="m30.901699437494738,22.451398828979265 l11.803398874989487,8.575671257690495 l11.80339887498949,-8.575671257690495 l-11.803398874989487,-8.575671257690495z"/>
<path fill="#f00" fill-opacity="0.9" d="m47.21359549995794,44.902797657958544 l-4.508497187473715,-13.875727571288785 l-4.508497187473715,13.875727571288785 l4.508497187473715,13.875727571288785z"/>
<path fill="#f00" fill-opacity="0.9" d="m47.21359549995795,-72.65425280053609 l-4.508497187473715,-13.875727571288778 l-4.508497187473715,13.875727571288778 l4.508497187473715,13.875727571288778z"/>
<path fill="#f00" fill-opacity="0.9" d="m47.21359549995795,72.65425280053609 l-4.508497187473715,13.875727571288778 l-4.508497187473715,-13.875727571288778 l4.508497187473715,-13.875727571288778z"/>
<path fill="#f00" fill-opacity="0.9" d="m47.21359549995795,0.0 l-4.508497187473722,13.875727571288774 l-4.508497187473701,-13.875727571288774 l4.508497187473722,-13.875727571288774z"/>
<path fill="#ff0" fill-opacity="0.9" d="m42.70509831248423,-86.52998037182486 l4.508497187473715,13.875727571288778 l14.589803375031543,0.0 l-4.508497187473715,-13.875727571288778z"/>
<path fill="#ff0" fill-opacity="0.9" d="m42.705098312484225,-58.778525229247315 l4.508497187473722,-13.87572757128877 l14.589803375031543,0.0 l-4.508497187473722,13.87572757128877z"/>
<path fill="#ff0" fill-opacity="0.9" d="m42.705098312484225,-58.778525229247315 l4.508497187473715,13.87572757128877 l14.58980337503155,0.0 l-4.508497187473715,-13.87572757128877z"/>
<path fill="#ff0" fill-opacity="0.9" d="m42.705098312484225,-31.02707008666976 l14.58980337503155,0.0 l4.508497187473715,-13.875727571288785 l-14.58980337503155,-0.0z"/>
<path fill="#ff0" fill-opacity="0.9" d="m42.705098312484225,-13.875727571288774 l14.58980337503155,0.0 l4.508497187473715,13.875727571288774 l-14.58980337503155,-0.0z"/>
<path fill="#ff0" fill-opacity="0.9" d="m42.705098312484225,13.875727571288774 l14.58980337503155,0.0 l4.508497187473715,-13.875727571288774 l-14.58980337503155,-0.0z"/>
<path fill="#ff0" fill-opacity="0.9" d="m42.705098312484225,31.02707008666976 l14.58980337503155,0.0 l4.508497187473715,13.875727571288785 l-14.58980337503155,-0.0z"/>
<path fill="#ff0" fill-opacity="0.9" d="m42.705098312484225,58.778525229247315 l4.508497187473715,-13.87572757128877 l14.58980337503155,0.0 l-4.508497187473715,13.87572757128877z"/>
<path fill="#ff0" fill-opacity="0.9" d="m42.705098312484225,58.778525229247315 l4.508497187473722,13.87572757128877 l14.589803375031543,0.0 l-4.508497187473722,-13.87572757128877z"/>
<path fill="#ff0" fill-opacity="0.9" d="m42.70509831248423,86.52998037182486 l4.508497187473715,-13.875727571288778 l14.589803375031543,0.0 l-4.508497187473715,13.875727571288778z"/>
<path fill="#f00" fill-opacity="0.9" d="m57.294901687515775,-31.02707008666976 l-14.58980337503155,0.0 l11.80339887498949,8.575671257690495 l14.58980337503155,-0.0z"/>
<path fill="#f00" fill-opacity="0.9" d="m57.294901687515775,-13.875727571288774 l11.803398874989483,-8.575671257690491 l-14.589803375031543,0.0 l-11.803398874989483,8.575671257690491z"/>
<path fill="#f00" fill-opacity="0.9" d="m57.294901687515775,13.875727571288774 l11.803398874989483,8.575671257690491 l-14.589803375031543,0.0 l-11.803398874989483,-8.575671257690491z"/>
<path fill="#f00" fill-opacity="0.9" d="m57.294901687515775,31.02707008666976 l-14.58980337503155,0.0 l11.80339887498949,-8.575671257690495 l14.58980337503155,-0.0z"/>
<path fill="#f00" fill-opacity="0.9" d="m69.09830056250526,-67.35419648693781 l-11.80339887498949,8.575671257690495 l4.508497187473722,-13.87572757128877 l11.80339887498949,-8.575671257690495z"/>
<path fill="#f00" fill-opacity="0.9" d="m69.09830056250526,-50.20285397155682 l4.508497187473708,13.875727571288778 l-11.803398874989476,-8.575671257690502 l-4.508497187473708,-13.875727571288778z"/>
<path fill="#ff0" fill-opacity="0.9" d="m69.09830056250526,-22.451398828979265 l-11.803398874989483,-8.575671257690495 l4.508497187473715,-13.875727571288785 l11.803398874989483,8.575671257690495z"/>
<path fill="#ff0" fill-opacity="0.9" d="m69.09830056250526,-22.451398828979265 l4.508497187473722,13.875727571288772 l-11.80339887498949,8.575671257690493 l-4.508497187473722,-13.875727571288772z"/>
<path fill="#ff0" fill-opacity="0.9" d="m69.09830056250526,22.451398828979265 l4.508497187473722,-13.875727571288772 l-11.80339887498949,-8.575671257690493 l-4.508497187473722,13.875727571288772z"/>
<path fill="#ff0" fill-opacity="0.9" d="m69.09830056250526,22.451398828979265 l-11.803398874989483,8.575671257690495 l4.508497187473715,13.875727571288785 l11.803398874989483,-8.575671257690495z"/>
<path fill="#f00" fill-opacity="0.9" d="m69.09830056250526,50.20285397155682 l4.508497187473708,-13.875727571288778 l-11.803398874989476,8.575671257690502 l-4.508497187473708,13.875727571288778z"/>
<path fill="#f00" fill-opacity="0.9" d="m69.09830056250526,67.35419648693781 l-11.80339887498949,-8.575671257690495 l4.508497187473722,13.87572757128877 l11.80339887498949,8.575671257690495z"/>
<path fill="#ff0" fill-opacity="0.9" d="m57.29490168751577,-58.778525229247315 l11.80339887498949,-8.575671257690495 l11.803398874989483,8.575671257690495 l-11.80339887498949,8.575671257690495z"/>
<path fill="#ff0" fill-opacity="0.9" d="m57.29490168751577,58.778525229247315 l11.80339887498949,8.575671257690495 l11.803398874989483,-8.575671257690495 l-11.80339887498949,-8.575671257690495z"/>
<path fill="#ff0" fill-opacity="0.9" d="m85.41019662496846,0.0 l-11.803398874989483,8.575671257690493 l-11.80339887498949,-8.575671257690493 l11.803398874989483,-8.575671257690493z"/>
<path fill="#ff0" fill-opacity="0.9" d="m73.60679774997897,-36.32712640026804 l11.803398874989483,-8.575671257690502 l-4.508497187473708,-13.87572757128877 l-11.803398874989483,8.575671257690502z"/>
<path fill="#f00" fill-opacity="0.9" d="m73.60679774997898,-8.575671257690493 l-4.508497187473722,-13.875727571288772 l11.803398874989483,8.575671257690491 l4.508497187473722,13.875727571288772z"/>
<path fill="#f00" fill-opacity="0.9" d="m73.60679774997898,8.575671257690493 l-4.508497187473722,13.875727571288772 l11.803398874989483,-8.575671257690491 l4.508497187473722,-13.875727571288772z"/>
<path fill="#ff0" fill-opacity="0.9" d="m73.60679774997897,36.32712640026804 l11.803398874989483,8.575671257690502 l-4.508497187473708,13.87572757128877 l-11.803398874989483,-8.575671257690502z"/>
<path fill="#ff0" fill-opacity="0.9" d="m69.09830056250526,-22.451398828979265 l14.58980337503155,-3.552713678800501e-15 l4.508497187473708,-13.875727571288781 l-14.58980337503155,3.552713678800501e-15z"/>
<path fill="#ff0" fill-opacity="0.9" d="m69.09830056250526,22.451398828979265 l14.58980337503155,3.552713678800501e-15 l4.508497187473708,13.875727571288781 l-14.58980337503155,-3.552713678800501e-15z"/>
<path fill="#f00" fill-opacity="0.9" d="m83.68810393753681,-22.45139882897927 l11.803398874989483,8.575671257690493 l-14.58980337503155,1.7763568394002505e-15 l-11.803398874989483,-8.575671257690493z"/>
<path fill="#f00" fill-opacity="0.9" d="m83.68810393753681,22.45139882897927 l11.803398874989483,-8.575671257690493 l-14.58980337503155,-1.7763568394002505e-15 l-11.803398874989483,8.575671257690493z"/>
<path fill="#f00" fill-opacity="0.9" d="m85.41019662496845,-44.902797657958544 l-11.803398874989483,8.575671257690502 l14.58980337503155,-7.105427357601002e-15 l11.803398874989483,-8.575671257690502z"/>
<path fill="#f00" fill-opacity="0.9" d="m85.41019662496845,44.902797657958544 l-11.803398874989483,-8.575671257690502 l14.58980337503155,7.105427357601002e-15 l11.803398874989483,8.575671257690502z"/>
<path fill="#ff0" fill-opacity="0.9" d="m100.0,-0.0 l-14.589803375031536,0.0 l-4.508497187473722,-13.875727571288774 l14.589803375031536,-0.0z"/>
<path fill="#ff0" fill-opacity="0.9" d="m100.0,0.0 l-14.589803375031536,0.0 l-4.508497187473722,13.875727571288774 l14.589803375031536,-0.0z"/>
<path fill="#ff0" fill-opacity="0.9" d="m95.49150281252629,-13.875727571288776 l-11.803398874989483,-8.575671257690493 l4.508497187473708,-13.875727571288781 l11.803398874989483,8.575671257690493z"/>
<path fill="#ff0" fill-opacity="0.9" d="m95.49150281252629,13.875727571288776 l-11.803398874989483,8.575671257690493 l4.508497187473708,13.875727571288781 l11.803398874989483,-8.575671257690493z"/>
</g>
</svg>