<?xml version="1.0" encoding="utf-8"?>
<svg width="100%" height="100%" viewBox="-210.0 -210.0 420.0 420.0"
     preserveAspectRatio="xMidYMin meet"
     version="1.1" baseProfile="full" xmlns="http://www.w3.org/2000/svg">

<g style="stroke:#fff; stroke-width: 3.8196601125010528;">
<path fill="#0035f3" opacity="0.6" d="m0.0,-0.0 l76.39320225002103,0.0 l23.60679774997898,-72.6542528005361 l-76.39320225002103,-0.0z"/>
<path fill="#0035f3" opacity="0.6" d="m0.0,0.0 l76.39320225002103,0.0 l23.60679774997898,72.6542528005361 l-76.39320225002103,-0.0z"/>
<path fill="#08f" opacity="0.6" d="m138.19660112501055,-44.90279765795855 l-61.80339887498951,44.90279765795855 l23.60679774997898,-72.6542528005361 l61.80339887498951,-44.90279765795855z"/>
<path fill="#08f" opacity="0.6" d="m138.19660112501055,44.90279765795855 l-61.80339887498951,-44.90279765795855 l23.60679774997898,72.6542528005361 l61.80339887498951,44.90279765795855z"/>
<path fill="#0035f3" opacity="0.6" d="m76.39320225002103,0.0 l61.80339887498951,44.90279765795855 l61.80339887498948,-44.90279765795855 l-61.80339887498951,-44.90279765795855z"/>
<path fill="#0035f3" opacity="0.6" d="m161.80339887498948,-117.55705045849463 l-23.606797749978938,72.65425280053609 l61.80339887498948,44.90279765795855 l23.606797749978938,-72.65425280053609z"/>
<path fill="#0035f3" opacity="0.6" d="m161.80339887498948,117.55705045849463 l-23.606797749978938,-72.65425280053609 l61.80339887498948,-44.90279765795855 l23.606797749978938,72.65425280053609z"/>
<path fill="#08f" opacity="0.6" d="m247.21359549995793,0.0 l-23.606797749978966,72.6542528005361 l-23.606797749978938,-72.6542528005361 l23.606797749978966,-72.6542528005361z"/>
<path fill="#0035f3" opacity="0.6" d="m223.60679774997897,-72.6542528005361 l23.606797749978966,72.6542528005361 l76.39320225002103,0.0 l-23.606797749978966,-72.6542528005361z"/>
<path fill="#0035f3" opacity="0.6" d="m223.60679774997897,72.6542528005361 l23.606797749978966,-72.6542528005361 l76.39320225002103,0.0 l-23.606797749978966,72.6542528005361z"/>
</g>
</svg>