<?xml version="1.0" encoding="utf-8"?>
<svg width="100%" height="100%" viewBox="-210.0 -210.0 420.0 420.0" preserveAspectRatio="xMidYMid meet" version="1.1" baseProfile="full" xmlns="http://www.w3.org/2000/svg">
<g style="stroke:#fff; stroke-width: 10.0; stroke-linejoin: round;">
<path fill="#9f3" fill-opacity="0.6" d="m0.0,0.0 l-58.77852522924732,-80.90169943749473 l58.778525229247315,-80.90169943749473 l58.77852522924732,80.90169943749473z"/>
<path fill="#9f3" fill-opacity="0.6" d="m0.0,0.0 l95.10565162951535,30.901699437494738 l58.77852522924731,-80.90169943749474 l-95.10565162951535,-30.901699437494738z"/>
<path fill="#9f3" fill-opacity="0.6" d="m0.0,0.0 l-95.10565162951535,30.901699437494752 l-58.77852522924731,-80.90169943749474 l95.10565162951535,-30.901699437494752z"/>
<path fill="#9f3" fill-opacity="0.6" d="m0.0,0.0 l6.123233995736766e-15,100.0 l95.10565162951538,30.901699437494727 l-6.123233995736766e-15,-100.0z"/>
<path fill="#9f3" fill-opacity="0.6" d="m0.0,0.0 l6.123233995736766e-15,100.0 l-95.10565162951535,30.901699437494727 l-6.123233995736766e-15,-100.0z"/>
<path fill="none" stroke="#ff5e25" stroke-linecap="round" d="M 29.389262614623657 -40.450849718747364 A 49.99999999999999 49.99999999999999 0 0 0 -29.38926261462366 -40.450849718747364"/>
<path fill="none" stroke="none" stroke-linecap="round" d="M -29.389262614623668 -121.35254915624209 A 49.99999999999999 49.99999999999999 0 0 0 29.38926261462365 -121.35254915624209"/>
<path fill="none" stroke="#ff5e25" stroke-linecap="round" d="M 47.552825814757675 15.450849718747369 A 49.99999999999999 49.99999999999999 0 0 0 29.389262614623654 -40.45084971874737"/>
<path fill="none" stroke="none" stroke-linecap="round" d="M 106.33135104400498 -65.45084971874738 A 49.99999999999999 49.99999999999999 0 0 0 124.49491424413901 -9.54915028125263"/>
<path fill="none" stroke="#ff5e25" stroke-linecap="round" d="M -29.389262614623654 -40.45084971874737 A 50.0 50.0 0 0 0 -47.552825814757675 15.450849718747376"/>
<path fill="none" stroke="none" stroke-linecap="round" d="M -124.49491424413901 -9.549150281252615 A 49.99999999999999 49.99999999999999 0 0 0 -106.33135104400498 -65.45084971874736"/>
<path fill="none" stroke="#ff5e25" stroke-linecap="round" d="M 3.061616997868383e-15 50.0 A 50.0 50.0 0 0 0 47.55282581475769 15.450849718747364"/>
<path fill="none" stroke="none" stroke-linecap="round" d="M 95.10565162951538 80.90169943749473 A 50.00000000000001 50.00000000000001 0 0 0 47.55282581475769 115.45084971874736"/>
<path fill="none" stroke="#ff5e25" stroke-linecap="round" d="M -47.552825814757675 15.450849718747364 A 50.0 50.0 0 0 0 3.061616997868383e-15 50.0"/>
<path fill="none" stroke="none" stroke-linecap="round" d="M -47.552825814757675 115.45084971874736 A 49.99999999999999 49.99999999999999 0 0 0 -95.10565162951535 80.90169943749473"/>
</g>
</svg>