<?xml version="1.0" encoding="utf-8"?>
<svg width="100%" height="100%" viewBox="-210.0 -210.0 420.0 420.0" preserveAspectRatio="xMidYMid meet" version="1.1" baseProfile="full" xmlns="http://www.w3.org/2000/svg">
<g style="stroke:#fff; stroke-width: 6.180339887498949; stroke-linejoin: round;">
<path fill="#9f3" fill-opacity="0.6" d="m-9.907600726170915e-15,-161.80339887498945 l3.78436673043415e-15,61.80339887498947 l58.778525229247315,19.09830056250526 l-3.78436673043415e-15,-61.80339887498947z"/>
<path fill="#9f3" fill-opacity="0.6" d="m-9.907600726170915e-15,-161.80339887498945 l3.78436673043415e-15,61.80339887498947 l-58.778525229247315,19.09830056250526 l-3.78436673043415e-15,-61.80339887498947z"/>
<path fill="#9f3" fill-opacity="0.6" d="m153.88417685876266,-50.0 l-58.77852522924729,19.09830056250525 l-36.32712640026806,-49.99999999999998 l58.77852522924729,-19.09830056250525z"/>
<path fill="#090" fill-opacity="0.6" d="m36.32712640026805,-49.99999999999999 l58.778525229247315,19.098300562505244 l-36.32712640026806,-49.99999999999998 l-58.778525229247315,-19.098300562505244z"/>
<path fill="#090" fill-opacity="0.6" d="m-36.32712640026805,-49.99999999999999 l-58.778525229247315,19.09830056250526 l36.32712640026804,-49.99999999999999 l58.778525229247315,-19.09830056250526z"/>
<path fill="#9f3" fill-opacity="0.6" d="m-153.88417685876266,-49.999999999999986 l58.77852522924729,19.09830056250525 l36.32712640026804,-49.99999999999999 l-58.77852522924729,-19.09830056250525z"/>
<path fill="#9f3" fill-opacity="0.6" d="m-6.123233995736765e-15,-99.99999999999999 l-36.32712640026804,49.99999999999999 l36.32712640026805,49.99999999999999 l36.32712640026804,-49.99999999999999z"/>
<path fill="#9f3" fill-opacity="0.6" d="m95.10565162951536,-30.90169943749475 l-36.32712640026805,50.00000000000001 l-58.778525229247315,-19.09830056250526 l36.32712640026805,-50.00000000000001z"/>
<path fill="#9f3" fill-opacity="0.6" d="m-95.10565162951536,-30.901699437494734 l36.32712640026805,50.0 l58.778525229247315,-19.098300562505266 l-36.32712640026805,-50.0z"/>
<path fill="#9f3" fill-opacity="0.6" d="m153.88417685876266,-50.0 l-58.77852522924729,19.09830056250525 l-1.4210854715202004e-14,61.80339887498948 l58.77852522924729,-19.09830056250525z"/>
<path fill="#9f3" fill-opacity="0.6" d="m-153.88417685876266,-49.999999999999986 l58.77852522924729,19.09830056250525 l1.4210854715202004e-14,61.80339887498948 l-58.77852522924729,-19.09830056250525z"/>
<path fill="#090" fill-opacity="0.6" d="m58.778525229247315,19.09830056250526 l1.4210854715202004e-14,61.80339887498948 l36.32712640026802,-50.0 l-1.4210854715202004e-14,-61.80339887498948z"/>
<path fill="#090" fill-opacity="0.6" d="m-58.778525229247315,19.098300562505266 l0.0,61.803398874989476 l-36.327126400268035,-49.999999999999986 l-0.0,-61.803398874989476z"/>
<path fill="#9f3" fill-opacity="0.6" d="m58.77852522924733,80.90169943749474 l-58.77852522924732,-19.09830056250525 l-3.7843667304341506e-15,-61.80339887498949 l58.77852522924732,19.09830056250525z"/>
<path fill="#9f3" fill-opacity="0.6" d="m-58.778525229247315,80.90169943749474 l58.77852522924732,-19.09830056250525 l-3.7843667304341506e-15,-61.80339887498949 l-58.77852522924732,19.09830056250525z"/>
<path fill="#9f3" fill-opacity="0.6" d="m95.10565162951538,130.90169943749473 l-36.32712640026805,-49.999999999999986 l36.32712640026802,-50.0 l36.32712640026805,49.999999999999986z"/>
<path fill="#090" fill-opacity="0.6" d="m3.7843667304341506e-15,61.80339887498949 l-58.77852522924732,19.09830056250525 l58.77852522924732,19.09830056250526 l58.77852522924732,-19.09830056250525z"/>
<path fill="#9f3" fill-opacity="0.6" d="m-95.10565162951535,130.90169943749473 l36.327126400268035,-49.999999999999986 l-36.327126400268035,-49.999999999999986 l-36.327126400268035,49.999999999999986z"/>
<path fill="#9f3" fill-opacity="0.6" d="m95.10565162951538,130.90169943749473 l-36.32712640026805,-49.999999999999986 l-58.77852522924732,19.09830056250526 l36.32712640026805,49.999999999999986z"/>
<path fill="#9f3" fill-opacity="0.6" d="m-95.10565162951535,130.90169943749473 l36.327126400268035,-49.999999999999986 l58.77852522924732,19.09830056250526 l-36.327126400268035,49.999999999999986z"/>
<path fill="none" stroke="#ff5e25" d="M -8.01541736095384e-15 -130.90169943749473 A 30.901699437494727 30.901699437494727 0 0 0 29.389262614623643 -152.25424859373683"/>
<path fill="none" stroke="none" d="M 58.77852522924731 -111.80339887498947 A 30.90169943749474 30.90169943749474 0 0 0 29.38926261462365 -90.45084971874735"/>
<path fill="none" stroke="#ff5e25" d="M -29.38926261462367 -152.25424859373683 A 30.901699437494727 30.901699437494727 0 0 0 -8.01541736095384e-15 -130.90169943749473"/>
<path fill="none" stroke="none" d="M -29.389262614623664 -90.45084971874735 A 30.90169943749474 30.90169943749474 0 0 0 -58.77852522924732 -111.80339887498947"/>
<path fill="none" stroke="#ff5e25" d="M 135.72061365862862 -74.99999999999999 A 30.90169943749473 30.90169943749473 0 0 0 124.49491424413901 -40.45084971874738"/>
<path fill="none" stroke="none" d="M 76.94208842938133 -55.90169943749474 A 30.90169943749473 30.90169943749473 0 0 0 88.16778784387095 -90.45084971874735"/>
<path fill="none" stroke="#ff5e25" d="M 65.7163890148917 -40.45084971874737 A 30.901699437494738 30.901699437494738 0 0 0 18.16356320013402 -74.99999999999999"/>
<path fill="none" stroke="none" d="M 29.38926261462365 -90.45084971874735 A 30.90169943749473 30.90169943749473 0 0 0 76.94208842938133 -55.90169943749474"/>
<path fill="none" stroke="#ff5e25" d="M -18.16356320013403 -74.99999999999999 A 30.90169943749474 30.90169943749474 0 0 0 -65.7163890148917 -40.450849718747364"/>
<path fill="none" stroke="none" d="M -76.94208842938134 -55.90169943749473 A 30.90169943749474 30.90169943749474 0 0 0 -29.389262614623664 -90.45084971874735"/>
<path fill="none" stroke="#ff5e25" d="M -124.49491424413901 -40.450849718747364 A 30.90169943749473 30.90169943749473 0 0 0 -135.72061365862862 -74.99999999999997"/>
<path fill="none" stroke="none" d="M -88.16778784387097 -90.45084971874735 A 30.90169943749474 30.90169943749474 0 0 0 -76.94208842938134 -55.90169943749473"/>
<path fill="none" stroke="#ff5e25" d="M -18.16356320013403 -74.99999999999999 A 30.90169943749474 30.90169943749474 0 0 0 18.163563200134018 -74.99999999999999"/>
<path fill="none" stroke="none" d="M 18.16356320013402 -24.999999999999996 A 30.90169943749474 30.90169943749474 0 0 0 -18.163563200134025 -24.999999999999996"/>
<path fill="none" stroke="#ff5e25" d="M 65.7163890148917 -40.45084971874738 A 30.901699437494745 30.901699437494745 0 0 0 76.94208842938134 -5.901699437494745"/>
<path fill="none" stroke="none" d="M 29.389262614623657 9.54915028125263 A 30.901699437494745 30.901699437494745 0 0 0 18.163563200134025 -25.000000000000004"/>
<path fill="none" stroke="#ff5e25" d="M -76.94208842938134 -5.9016994374947345 A 30.90169943749474 30.90169943749474 0 0 0 -65.7163890148917 -40.450849718747364"/>
<path fill="none" stroke="none" d="M -18.163563200134025 -25.0 A 30.901699437494745 30.901699437494745 0 0 0 -29.389262614623657 9.549150281252633"/>
<path fill="none" stroke="#ff5e25" d="M 124.49491424413901 -40.45084971874738 A 30.90169943749473 30.90169943749473 0 0 0 153.88417685876266 -19.09830056250526"/>
<path fill="none" stroke="none" d="M 124.49491424413901 21.352549156242112 A 30.90169943749474 30.90169943749474 0 0 0 95.10565162951536 -3.552713678800501e-15"/>
<path fill="none" stroke="#ff5e25" d="M -153.88417685876266 -19.098300562505244 A 30.90169943749473 30.90169943749473 0 0 0 -124.49491424413901 -40.450849718747364"/>
<path fill="none" stroke="none" d="M -95.10565162951536 1.0658141036401503e-14 A 30.90169943749474 30.90169943749474 0 0 0 -124.49491424413901 21.352549156242127"/>
<path fill="none" stroke="#ff5e25" d="M 58.77852522924732 50.0 A 30.90169943749474 30.90169943749474 0 0 0 76.94208842938133 -5.901699437494742"/>
<path fill="none" stroke="none" d="M 95.10565162951534 -3.552713678800501e-15 A 30.901699437494738 30.901699437494738 0 0 0 76.94208842938134 55.90169943749474"/>
<path fill="none" stroke="#ff5e25" d="M -76.94208842938133 -5.901699437494727 A 30.901699437494734 30.901699437494734 0 0 0 -58.778525229247315 50.0"/>
<path fill="none" stroke="none" d="M -76.94208842938133 55.90169943749474 A 30.901699437494734 30.901699437494734 0 0 0 -95.10565162951535 1.4210854715202004e-14"/>
<path fill="none" stroke="#ff5e25" d="M 58.77852522924732 50.0 A 30.901699437494745 30.901699437494745 0 0 0 29.389262614623668 71.35254915624212"/>
<path fill="none" stroke="none" d="M 1.8921833652170753e-15 30.901699437494745 A 30.901699437494745 30.901699437494745 0 0 0 29.38926261462366 9.549150281252626"/>
<path fill="none" stroke="#ff5e25" d="M -29.389262614623654 71.35254915624212 A 30.901699437494745 30.901699437494745 0 0 0 -58.77852522924732 50.0"/>
<path fill="none" stroke="none" d="M -29.38926261462366 9.549150281252626 A 30.901699437494745 30.901699437494745 0 0 0 1.8921833652170753e-15 30.901699437494745"/>
<path fill="none" stroke="#ff5e25" d="M 113.2692148296494 105.90169943749473 A 30.90169943749474 30.90169943749474 0 0 0 76.94208842938136 105.90169943749473"/>
<path fill="none" stroke="none" d="M 76.94208842938134 55.90169943749474 A 30.901699437494738 30.901699437494738 0 0 0 113.26921482964937 55.90169943749473"/>
<path fill="none" stroke="#ff5e25" d="M -29.389262614623657 71.35254915624212 A 30.901699437494745 30.901699437494745 0 0 0 29.389262614623664 71.35254915624212"/>
<path fill="none" stroke="none" d="M 29.389262614623668 90.45084971874738 A 30.901699437494745 30.901699437494745 0 0 0 -29.389262614623654 90.45084971874738"/>
<path fill="none" stroke="#ff5e25" d="M -76.94208842938133 105.90169943749473 A 30.90169943749474 30.90169943749474 0 0 0 -113.26921482964937 105.90169943749473"/>
<path fill="none" stroke="none" d="M -113.26921482964937 55.90169943749474 A 30.901699437494734 30.901699437494734 0 0 0 -76.94208842938133 55.90169943749474"/>
<path fill="none" stroke="#ff5e25" d="M 76.94208842938136 105.90169943749473 A 30.90169943749474 30.90169943749474 0 0 0 65.71638901489172 140.45084971874735"/>
<path fill="none" stroke="none" d="M 18.163563200134032 125.0 A 30.901699437494745 30.901699437494745 0 0 0 29.389262614623668 90.45084971874738"/>
<path fill="none" stroke="#ff5e25" d="M -65.71638901489169 140.45084971874735 A 30.90169943749474 30.90169943749474 0 0 0 -76.94208842938133 105.90169943749473"/>
<path fill="none" stroke="none" d="M -29.389262614623654 90.45084971874738 A 30.901699437494745 30.901699437494745 0 0 0 -18.16356320013401 125.0"/>
</g>
</svg>