<?xml version="1.0" encoding="utf-8"?>
<svg width="100%" height="100%" viewBox="-105.0 -105.0 210.0 210.0" preserveAspectRatio="xMidYMid meet" version="1.1" baseProfile="full" xmlns="http://www.w3.org/2000/svg">
<g style="stroke:#fff; stroke-width: 0.7294901687515776; stroke-linejoin: round;">
<path fill="#0035f3" fill-opacity="0.6" d="m-50.0,0.0 l9.54915028125263,6.937863785644388 l9.54915028125263,-6.937863785644388 l-9.54915028125263,-6.937863785644388z"/>
<path fill="#0035f3" fill-opacity="0.6" d="m-40.45084971874737,-6.937863785644388 l11.80339887498949,0.0 l3.6474508437578876,-11.225699414489636 l-11.80339887498949,-0.0z"/>
<path fill="#0035f3" fill-opacity="0.6" d="m-40.45084971874737,6.937863785644388 l11.80339887498949,0.0 l3.6474508437578876,11.225699414489636 l-11.80339887498949,-0.0z"/>
<path fill="#08f" fill-opacity="0.6" d="m-28.64745084375788,-6.937863785644388 l-11.80339887498949,0.0 l9.54915028125263,6.937863785644388 l11.80339887498949,-0.0z"/>
<path fill="#08f" fill-opacity="0.6" d="m-28.64745084375788,6.937863785644388 l-11.80339887498949,0.0 l9.54915028125263,-6.937863785644388 l11.80339887498949,-0.0z"/>
<path fill="#0035f3" fill-opacity="0.6" d="m-19.09830056250526,-0.0 l-9.549150281252622,-6.937863785644388 l3.6474508437578876,-11.225699414489636 l9.549150281252622,6.937863785644388z"/>
<path fill="#0035f3" fill-opacity="0.6" d="m-19.09830056250526,0.0 l-9.549150281252622,6.937863785644388 l3.6474508437578876,11.225699414489636 l9.549150281252622,-6.937863785644388z"/>
<path fill="#08f" fill-opacity="0.6" d="m-19.09830056250525,-22.451398828979272 l3.6474508437578805,11.22569941448964 l-9.549150281252622,-6.937863785644392 l-3.6474508437578805,-11.22569941448964z"/>
<path fill="#08f" fill-opacity="0.6" d="m-19.09830056250525,22.451398828979272 l3.6474508437578805,-11.22569941448964 l-9.549150281252622,6.937863785644392 l-3.6474508437578805,11.22569941448964z"/>
<path fill="#0035f3" fill-opacity="0.6" d="m-15.45084971874737,-11.225699414489632 l9.549150281252633,-6.937863785644389 l-3.647450843757886,-11.225699414489636 l-9.549150281252633,6.937863785644389z"/>
<path fill="#0035f3" fill-opacity="0.6" d="m-15.45084971874737,11.225699414489632 l9.549150281252633,6.937863785644389 l-3.647450843757886,11.225699414489636 l-9.549150281252633,-6.937863785644389z"/>
<path fill="#0035f3" fill-opacity="0.6" d="m-19.09830056250526,-0.0 l11.803398874989487,0.0 l3.6474508437578894,-11.225699414489638 l-11.803398874989487,-0.0z"/>
<path fill="#0035f3" fill-opacity="0.6" d="m-19.09830056250526,0.0 l11.803398874989487,0.0 l3.6474508437578894,11.225699414489638 l-11.803398874989487,-0.0z"/>
<path fill="#08f" fill-opacity="0.6" d="m-5.901699437494738,-18.16356320013402 l11.803398874989485,-3.552713678800501e-15 l-9.54915028125263,6.937863785644387 l-11.803398874989485,3.552713678800501e-15z"/>
<path fill="#08f" fill-opacity="0.6" d="m-5.901699437494738,18.16356320013402 l11.803398874989485,3.552713678800501e-15 l-9.54915028125263,-6.937863785644387 l-11.803398874989485,-3.552713678800501e-15z"/>
<path fill="#0035f3" fill-opacity="0.6" d="m5.901699437494747,-40.614962029113286 l-3.647450843757886,11.225699414489632 l-11.803398874989485,-3.552713678800501e-15 l3.647450843757886,-11.225699414489632z"/>
<path fill="#0035f3" fill-opacity="0.6" d="m5.901699437494747,-18.163563200134025 l-11.803398874989485,3.552713678800501e-15 l-3.647450843757886,-11.225699414489636 l11.803398874989485,-3.552713678800501e-15z"/>
<path fill="#0035f3" fill-opacity="0.6" d="m5.901699437494747,18.163563200134025 l-11.803398874989485,-3.552713678800501e-15 l-3.647450843757886,11.225699414489636 l11.803398874989485,3.552713678800501e-15z"/>
<path fill="#0035f3" fill-opacity="0.6" d="m5.901699437494747,40.614962029113286 l-3.647450843757886,-11.225699414489632 l-11.803398874989485,3.552713678800501e-15 l3.647450843757886,11.225699414489632z"/>
<path fill="#08f" fill-opacity="0.6" d="m2.2542485937368615,-6.9378637856443905 l-9.549150281252633,6.9378637856443905 l3.6474508437578894,-11.225699414489638 l9.549150281252633,-6.9378637856443905z"/>
<path fill="#08f" fill-opacity="0.6" d="m2.2542485937368615,6.9378637856443905 l-9.549150281252633,-6.9378637856443905 l3.6474508437578894,11.225699414489638 l9.549150281252633,6.9378637856443905z"/>
<path fill="#0035f3" fill-opacity="0.6" d="m-7.294901687515772,0.0 l9.549150281252633,6.9378637856443905 l9.549150281252633,-6.9378637856443905 l-9.549150281252633,-6.9378637856443905z"/>
<path fill="#08f" fill-opacity="0.6" d="m2.254248593736861,-29.389262614623654 l3.647450843757886,11.225699414489629 l3.647450843757886,-11.225699414489629 l-3.647450843757886,-11.225699414489629z"/>
<path fill="#08f" fill-opacity="0.6" d="m2.254248593736861,29.389262614623654 l3.647450843757886,-11.225699414489629 l3.647450843757886,11.225699414489629 l-3.647450843757886,11.225699414489629z"/>
<path fill="#0035f3" fill-opacity="0.6" d="m5.901699437494747,-18.163563200134025 l-3.6474508437578854,11.225699414489634 l9.549150281252633,6.9378637856443905 l3.6474508437578854,-11.225699414489634z"/>
<path fill="#0035f3" fill-opacity="0.6" d="m5.901699437494747,18.163563200134025 l-3.6474508437578854,-11.225699414489634 l9.549150281252633,-6.9378637856443905 l3.6474508437578854,11.225699414489634z"/>
<path fill="#0035f3" fill-opacity="0.6" d="m15.450849718747373,-47.552825814757675 l-9.549150281252626,6.937863785644389 l3.647450843757886,11.225699414489632 l9.549150281252626,-6.937863785644389z"/>
<path fill="#08f" fill-opacity="0.6" d="m15.450849718747376,-25.101426985778406 l3.647450843757886,-11.225699414489636 l-9.54915028125263,6.937863785644389 l-3.647450843757886,11.225699414489636z"/>
<path fill="#08f" fill-opacity="0.6" d="m15.450849718747376,25.101426985778406 l3.647450843757886,11.225699414489636 l-9.54915028125263,-6.937863785644389 l-3.647450843757886,-11.225699414489636z"/>
<path fill="#0035f3" fill-opacity="0.6" d="m15.450849718747373,47.552825814757675 l-9.549150281252626,-6.937863785644389 l3.647450843757886,-11.225699414489632 l9.549150281252626,6.937863785644389z"/>
<path fill="#0035f3" fill-opacity="0.6" d="m5.901699437494747,-18.163563200134025 l9.54915028125263,-6.937863785644382 l9.549150281252631,6.937863785644389 l-9.54915028125263,6.937863785644382z"/>
<path fill="#0035f3" fill-opacity="0.6" d="m5.901699437494747,18.163563200134025 l9.54915028125263,6.937863785644382 l9.549150281252631,-6.937863785644389 l-9.54915028125263,-6.937863785644382z"/>
<path fill="#08f" fill-opacity="0.6" d="m19.098300562505266,0.0 l-3.6474508437578894,11.225699414489638 l-3.6474508437578823,-11.225699414489638 l3.6474508437578894,-11.225699414489638z"/>
<path fill="#0035f3" fill-opacity="0.6" d="m19.098300562505262,-36.32712640026804 l-3.647450843757886,11.225699414489636 l9.549150281252631,6.937863785644389 l3.647450843757886,-11.225699414489636z"/>
<path fill="#0035f3" fill-opacity="0.6" d="m19.098300562505262,36.32712640026804 l-3.647450843757886,-11.225699414489636 l9.549150281252631,-6.937863785644389 l3.647450843757886,11.225699414489636z"/>
<path fill="#0035f3" fill-opacity="0.6" d="m15.450849718747373,-47.552825814757675 l3.6474508437578894,11.225699414489632 l11.803398874989483,0.0 l-3.6474508437578894,-11.225699414489632z"/>
<path fill="#0035f3" fill-opacity="0.6" d="m15.450849718747373,47.552825814757675 l3.6474508437578894,-11.225699414489632 l11.803398874989483,0.0 l-3.6474508437578894,11.225699414489632z"/>
<path fill="#0035f3" fill-opacity="0.6" d="m15.450849718747376,-11.225699414489638 l3.6474508437578894,11.225699414489638 l11.803398874989487,0.0 l-3.6474508437578894,-11.225699414489638z"/>
<path fill="#0035f3" fill-opacity="0.6" d="m15.450849718747376,11.225699414489638 l3.6474508437578894,-11.225699414489638 l11.803398874989487,0.0 l-3.6474508437578894,11.225699414489638z"/>
<path fill="#08f" fill-opacity="0.6" d="m27.25424859373686,-11.225699414489632 l-11.803398874989485,-5.329070518200751e-15 l9.549150281252631,-6.93786378564438 l11.803398874989485,5.329070518200751e-15z"/>
<path fill="#08f" fill-opacity="0.6" d="m27.25424859373686,11.225699414489632 l-11.803398874989485,5.329070518200751e-15 l9.549150281252631,6.93786378564438 l11.803398874989485,-5.329070518200751e-15z"/>
<path fill="#08f" fill-opacity="0.6" d="m28.647450843757895,-29.389262614623654 l-9.549150281252633,-6.937863785644389 l11.803398874989483,0.0 l9.549150281252633,6.937863785644389z"/>
<path fill="#08f" fill-opacity="0.6" d="m28.647450843757895,29.389262614623654 l-9.549150281252633,6.937863785644389 l11.803398874989483,0.0 l9.549150281252633,-6.937863785644389z"/>
<path fill="#0035f3" fill-opacity="0.6" d="m40.45084971874737,-29.389262614623657 l-11.803398874989476,3.552713678800501e-15 l-3.6474508437578876,11.225699414489636 l11.803398874989476,-3.552713678800501e-15z"/>
<path fill="#0035f3" fill-opacity="0.6" d="m40.45084971874737,29.389262614623657 l-11.803398874989476,-3.552713678800501e-15 l-3.6474508437578876,-11.225699414489636 l11.803398874989476,3.552713678800501e-15z"/>
<path fill="#0035f3" fill-opacity="0.6" d="m36.80339887498949,-18.163563200134025 l3.6474508437578876,11.225699414489638 l-9.549150281252626,6.937863785644387 l-3.6474508437578876,-11.225699414489638z"/>
<path fill="#0035f3" fill-opacity="0.6" d="m36.80339887498949,18.163563200134025 l3.6474508437578876,-11.225699414489638 l-9.549150281252626,-6.937863785644387 l-3.6474508437578876,11.225699414489638z"/>
<path fill="#0035f3" fill-opacity="0.6" d="m50.0,0.0 l-9.549150281252622,6.937863785644387 l-9.549150281252626,-6.937863785644387 l9.549150281252622,-6.937863785644387z"/>
<path fill="#0035f3" fill-opacity="0.6" d="m40.45084971874737,-29.389262614623657 l9.54915028125263,6.937863785644385 l-3.6474508437578876,11.22569941448964 l-9.54915028125263,-6.937863785644385z"/>
<path fill="#08f" fill-opacity="0.6" d="m40.45084971874738,-6.937863785644387 l9.549150281252622,6.937863785644387 l-3.6474508437578876,-11.225699414489632 l-9.549150281252622,-6.937863785644387z"/>
<path fill="#08f" fill-opacity="0.6" d="m40.45084971874738,6.937863785644387 l9.549150281252622,-6.937863785644387 l-3.6474508437578876,11.225699414489632 l-9.549150281252622,6.937863785644387z"/>
<path fill="#0035f3" fill-opacity="0.6" d="m40.45084971874737,29.389262614623657 l9.54915028125263,-6.937863785644385 l-3.6474508437578876,-11.22569941448964 l-9.54915028125263,6.937863785644385z"/>
<path fill="#08f" fill-opacity="0.6" d="m53.64745084375789,-11.225699414489632 l-3.6474508437578876,-11.22569941448964 l-3.6474508437578876,11.22569941448964 l3.6474508437578876,11.22569941448964z"/>
<path fill="#08f" fill-opacity="0.6" d="m53.64745084375789,11.225699414489632 l-3.6474508437578876,11.22569941448964 l-3.6474508437578876,-11.22569941448964 l3.6474508437578876,-11.22569941448964z"/>
<path fill="#0035f3" fill-opacity="0.6" d="m50.0,-22.451398828979272 l3.6474508437578876,11.22569941448964 l11.80339887498949,0.0 l-3.6474508437578876,-11.22569941448964z"/>
<path fill="#0035f3" fill-opacity="0.6" d="m50.0,-0.0 l3.6474508437578876,-11.225699414489632 l11.80339887498949,0.0 l-3.6474508437578876,11.225699414489632z"/>
<path fill="#0035f3" fill-opacity="0.6" d="m50.0,0.0 l3.6474508437578876,11.225699414489632 l11.80339887498949,0.0 l-3.6474508437578876,-11.225699414489632z"/>
<path fill="#0035f3" fill-opacity="0.6" d="m50.0,22.451398828979272 l3.6474508437578876,-11.22569941448964 l11.80339887498949,0.0 l-3.6474508437578876,11.22569941448964z"/>
<path fill="#08f" fill-opacity="0.6" d="m71.35254915624212,-6.937863785644387 l-9.549150281252636,6.937863785644387 l3.6474508437578947,-11.225699414489632 l9.549150281252636,-6.937863785644387z"/>
<path fill="#08f" fill-opacity="0.6" d="m71.35254915624212,6.937863785644387 l-9.549150281252636,-6.937863785644387 l3.6474508437578947,11.225699414489632 l9.549150281252636,6.937863785644387z"/>
<path fill="#0035f3" fill-opacity="0.6" d="m61.80339887498948,0.0 l9.549150281252636,6.937863785644387 l9.549150281252622,-6.937863785644387 l-9.549150281252636,-6.937863785644387z"/>
<path fill="none" stroke="#000" d="M -33.76644452187053 2.081359135693317 A 27.360679774997894 27.360679774997894 0 0 0 -42.31359979718152 -5.584496634616661"/>
<path fill="none" stroke="#000" d="M -42.31359979718152 5.584496634616661 A 27.360679774997894 27.360679774997894 0 0 0 -33.76644452187053 -2.081359135693317"/>
<path fill="none" stroke="#000" d="M -26.09423525312736 -14.795853375787132 A 27.360679774997898 27.360679774997898 0 0 0 -37.51490609240479 -15.97376915051355"/>
<path fill="none" stroke="#000" d="M -30.949936565795547 -6.937863785644388 A 27.36067977499791 27.36067977499791 0 0 0 -28.54101966249684 -18.163563200134025"/>
<path fill="none" stroke="#000" d="M -37.51490609240479 15.97376915051355 A 27.360679774997898 27.360679774997898 0 0 0 -26.09423525312736 14.795853375787132"/>
<path fill="none" stroke="#000" d="M -28.54101966249684 18.163563200134025 A 27.36067977499791 27.36067977499791 0 0 0 -30.949936565795547 6.937863785644388"/>
<path fill="none" stroke="#000" d="M -33.76644452187053 -2.081359135693317 A 27.360679774997894 27.360679774997894 0 0 0 -30.949936565795547 -6.937863785644388"/>
<path fill="none" stroke="#000" d="M -26.784700765323738 -5.584496634616661 A 27.36067977499791 27.36067977499791 0 0 0 -27.360679774997894 0.0"/>
<path fill="none" stroke="#000" d="M -30.949936565795547 6.937863785644388 A 27.360679774997894 27.360679774997894 0 0 0 -33.76644452187053 2.081359135693317"/>
<path fill="none" stroke="#000" d="M -27.360679774997894 0.0 A 27.36067977499791 27.36067977499791 0 0 0 -26.784700765323738 5.584496634616661"/>
<path fill="none" stroke="#000" d="M -16.16235693616268 -9.035905364869162 A 27.360679774997898 27.360679774997898 0 0 0 -26.09423525312736 -14.795853375787132"/>
<path fill="none" stroke="#000" d="M -22.135254915624206 -16.08220406444071 A 27.360679774997884 27.360679774997884 0 0 0 -26.784700765323738 -5.584496634616662"/>
<path fill="none" stroke="#000" d="M -26.09423525312736 14.795853375787132 A 27.360679774997898 27.360679774997898 0 0 0 -16.16235693616268 9.035905364869162"/>
<path fill="none" stroke="#000" d="M -26.784700765323738 5.584496634616662 A 27.360679774997884 27.360679774997884 0 0 0 -22.135254915624206 16.08220406444071"/>
<path fill="none" stroke="#000" d="M -18.38679334508994 -20.261604779358798 A 27.36067977499789 27.36067977499789 0 0 0 -22.135254915624206 -16.082204064440706"/>
<path fill="none" stroke="#000" d="M -26.09423525312736 -21.531273024480917 A 27.360679774997905 27.360679774997905 0 0 0 -20.961050640939394 -23.804765980006998"/>
<path fill="none" stroke="#000" d="M -22.135254915624206 16.082204064440706 A 27.36067977499789 27.36067977499789 0 0 0 -18.38679334508994 20.261604779358798"/>
<path fill="none" stroke="#000" d="M -20.961050640939394 23.804765980006998 A 27.360679774997905 27.360679774997905 0 0 0 -26.09423525312736 21.531273024480917"/>
<path fill="none" stroke="#000" d="M -8.454915028125258 -26.021552790276765 A 27.360679774997898 27.360679774997898 0 0 0 -18.386793345089945 -20.261604779358795"/>
<path fill="none" stroke="#000" d="M -7.764449515928881 -16.810196049106295 A 27.36067977499791 27.36067977499791 0 0 0 -12.413895365628415 -27.307903478930342"/>
<path fill="none" stroke="#000" d="M -18.386793345089945 20.261604779358795 A 27.360679774997898 27.360679774997898 0 0 0 -8.454915028125258 26.021552790276765"/>
<path fill="none" stroke="#000" d="M -12.413895365628415 27.307903478930342 A 27.36067977499791 27.36067977499791 0 0 0 -7.764449515928881 16.810196049106295"/>
<path fill="none" stroke="#000" d="M -4.74168609688525 -7.857989590142746 A 27.36067977499791 27.36067977499791 0 0 0 -16.16235693616268 -9.035905364869164"/>
<path fill="none" stroke="#000" d="M -9.597387409553438 0.0 A 27.360679774997898 27.360679774997898 0 0 0 -7.188470506254729 -11.225699414489638"/>
<path fill="none" stroke="#000" d="M -16.16235693616268 9.035905364869164 A 27.36067977499791 27.36067977499791 0 0 0 -4.74168609688525 7.857989590142746"/>
<path fill="none" stroke="#000" d="M -7.188470506254729 11.225699414489638 A 27.360679774997898 27.360679774997898 0 0 0 -9.597387409553438 0.0"/>
<path fill="none" stroke="#000" d="M -3.599213715457072 -18.16356320013402 A 27.360679774997894 27.360679774997894 0 0 0 -0.7827057593820932 -13.307058550182955"/>
<path fill="none" stroke="#000" d="M -7.188470506254728 -11.225699414489636 A 27.360679774997894 27.360679774997894 0 0 0 -7.764449515928882 -16.810196049106295"/>
<path fill="none" stroke="#000" d="M -0.7827057593820932 13.307058550182955 A 27.360679774997894 27.360679774997894 0 0 0 -3.599213715457072 18.16356320013402"/>
<path fill="none" stroke="#000" d="M -7.764449515928882 16.810196049106295 A 27.360679774997894 27.360679774997894 0 0 0 -7.188470506254728 11.225699414489636"/>
<path fill="none" stroke="#000" d="M -3.599213715457072 -40.614962029113286 A 27.360679774997898 27.360679774997898 0 0 0 -6.008130618755779 -29.389262614623657"/>
<path fill="none" stroke="#000" d="M -8.454915028125258 -32.75697243897055 A 27.36067977499788 27.36067977499788 0 0 0 2.9657558111521714 -31.579056664244128"/>
<path fill="none" stroke="#000" d="M 2.9657558111521714 -27.199468565003187 A 27.360679774997898 27.360679774997898 0 0 0 -8.454915028125258 -26.021552790276765"/>
<path fill="none" stroke="#000" d="M -6.008130618755779 -29.389262614623657 A 27.360679774997898 27.360679774997898 0 0 0 -3.599213715457072 -18.16356320013402"/>
<path fill="none" stroke="#000" d="M -8.454915028125258 26.021552790276765 A 27.360679774997898 27.360679774997898 0 0 0 2.9657558111521714 27.199468565003187"/>
<path fill="none" stroke="#000" d="M -3.599213715457072 18.16356320013402 A 27.360679774997898 27.360679774997898 0 0 0 -6.008130618755779 29.389262614623657"/>
<path fill="none" stroke="#000" d="M -6.008130618755779 29.389262614623657 A 27.360679774997898 27.360679774997898 0 0 0 -3.599213715457072 40.614962029113286"/>
<path fill="none" stroke="#000" d="M 2.9657558111521714 31.579056664244128 A 27.36067977499788 27.36067977499788 0 0 0 -8.454915028125258 32.75697243897055"/>
<path fill="none" stroke="#000" d="M 0.3914985153027173 -5.584496634616663 A 27.36067977499791 27.36067977499791 0 0 0 -4.74168609688525 -7.857989590142746"/>
<path fill="none" stroke="#000" d="M -0.7827057593820923 -13.307058550182955 A 27.36067977499791 27.36067977499791 0 0 0 2.9657558111521722 -9.127657835264865"/>
<path fill="none" stroke="#000" d="M -4.74168609688525 7.857989590142746 A 27.36067977499791 27.36067977499791 0 0 0 0.3914985153027173 5.584496634616663"/>
<path fill="none" stroke="#000" d="M 2.9657558111521722 9.127657835264865 A 27.36067977499791 27.36067977499791 0 0 0 -0.7827057593820923 13.307058550182955"/>
<path fill="none" stroke="#000" d="M 8.938653790613705 2.081359135693318 A 27.36067977499791 27.36067977499791 0 0 0 0.3914985153027173 -5.584496634616663"/>
<path fill="none" stroke="#000" d="M 0.3914985153027173 5.584496634616663 A 27.360679774997905 27.360679774997905 0 0 0 8.938653790613703 -2.081359135693318"/>
<path fill="none" stroke="#000" d="M 8.454915028125267 -26.021552790276765 A 27.360679774997884 27.360679774997884 0 0 0 2.9657558111521714 -27.19946856500318"/>
<path fill="none" stroke="#000" d="M 2.9657558111521714 -31.579056664244128 A 27.360679774997894 27.360679774997894 0 0 0 8.454915028125267 -32.75697243897054"/>
<path fill="none" stroke="#000" d="M 2.9657558111521714 27.19946856500318 A 27.360679774997884 27.360679774997884 0 0 0 8.454915028125267 26.021552790276765"/>
<path fill="none" stroke="#000" d="M 8.454915028125267 32.75697243897054 A 27.360679774997894 27.360679774997894 0 0 0 2.9657558111521714 31.579056664244128"/>
<path fill="none" stroke="#000" d="M 8.938653790613705 -2.081359135693318 A 27.36067977499791 27.36067977499791 0 0 0 13.588099640313235 -12.579066565517362"/>
<path fill="none" stroke="#000" d="M 2.9657558111521714 -9.127657835264865 A 27.360679774997894 27.360679774997894 0 0 0 12.89763412811686 -3.367709824346891"/>
<path fill="none" stroke="#000" d="M 13.588099640313235 12.579066565517362 A 27.36067977499791 27.36067977499791 0 0 0 8.938653790613705 2.081359135693318"/>
<path fill="none" stroke="#000" d="M 12.89763412811686 3.367709824346891 A 27.360679774997894 27.360679774997894 0 0 0 2.9657558111521714 9.127657835264865"/>
<path fill="none" stroke="#000" d="M 8.454915028125267 -32.75697243897054 A 27.360679774997894 27.360679774997894 0 0 0 18.38679334508995 -38.51692044988852"/>
<path fill="none" stroke="#000" d="M 7.76444951592889 -41.96832918014101 A 27.36067977499789 27.36067977499789 0 0 0 12.41389536562842 -31.470621750316973"/>
<path fill="none" stroke="#000" d="M 12.413895365628422 -31.470621750316973 A 27.3606797749979 27.3606797749979 0 0 0 16.162356936162688 -27.29122103539888"/>
<path fill="none" stroke="#000" d="M 13.588099640313231 -23.74805983475068 A 27.360679774997898 27.360679774997898 0 0 0 8.454915028125267 -26.02155279027676"/>
<path fill="none" stroke="#000" d="M 16.162356936162688 27.29122103539888 A 27.3606797749979 27.3606797749979 0 0 0 12.413895365628422 31.470621750316973"/>
<path fill="none" stroke="#000" d="M 8.454915028125267 26.02155279027676 A 27.360679774997898 27.360679774997898 0 0 0 13.588099640313231 23.74805983475068"/>
<path fill="none" stroke="#000" d="M 18.38679334508995 38.51692044988852 A 27.360679774997894 27.360679774997894 0 0 0 8.454915028125267 32.75697243897054"/>
<path fill="none" stroke="#000" d="M 12.41389536562842 31.470621750316973 A 27.36067977499789 27.36067977499789 0 0 0 7.76444951592889 41.96832918014101"/>
<path fill="none" stroke="#000" d="M 13.588099640313235 -12.579066565517362 A 27.3606797749979 27.3606797749979 0 0 0 22.135254915624216 -20.244922335827333"/>
<path fill="none" stroke="#000" d="M 22.135254915624216 -16.082204064440702 A 27.360679774997884 27.360679774997884 0 0 0 13.588099640313231 -23.74805983475068"/>
<path fill="none" stroke="#000" d="M 22.135254915624216 20.244922335827333 A 27.3606797749979 27.3606797749979 0 0 0 13.588099640313235 12.579066565517362"/>
<path fill="none" stroke="#000" d="M 13.588099640313231 23.74805983475068 A 27.360679774997884 27.360679774997884 0 0 0 22.135254915624216 16.082204064440702"/>
<path fill="none" stroke="#000" d="M 18.386793345089956 2.189794049620474 A 27.360679774997905 27.360679774997905 0 0 0 12.89763412811686 3.3677098243468917"/>
<path fill="none" stroke="#000" d="M 12.897634128116861 -3.3677098243468917 A 27.36067977499791 27.36067977499791 0 0 0 18.386793345089956 -2.189794049620474"/>
<path fill="none" stroke="#000" d="M 22.135254915624216 -20.244922335827333 A 27.3606797749979 27.3606797749979 0 0 0 26.78470076532375 -30.74262976565138"/>
<path fill="none" stroke="#000" d="M 16.162356936162684 -27.29122103539888 A 27.3606797749979 27.3606797749979 0 0 0 26.094235253127373 -21.53127302448091"/>
<path fill="none" stroke="#000" d="M 26.78470076532375 30.74262976565138 A 27.3606797749979 27.3606797749979 0 0 0 22.135254915624216 20.244922335827333"/>
<path fill="none" stroke="#000" d="M 26.094235253127373 21.53127302448091 A 27.3606797749979 27.3606797749979 0 0 0 16.162356936162684 27.29122103539888"/>
<path fill="none" stroke="#000" d="M 27.360679774997898 -36.32712640026804 A 27.36067977499789 27.36067977499789 0 0 0 24.951762871699188 -47.552825814757675"/>
<path fill="none" stroke="#000" d="M 18.386793345089952 -38.51692044988852 A 27.36067977499789 27.36067977499789 0 0 0 29.807464184367376 -39.69483622461493"/>
<path fill="none" stroke="#000" d="M 24.951762871699188 47.552825814757675 A 27.36067977499789 27.36067977499789 0 0 0 27.360679774997898 36.32712640026804"/>
<path fill="none" stroke="#000" d="M 29.807464184367376 39.69483622461493 A 27.36067977499789 27.36067977499789 0 0 0 18.386793345089952 38.51692044988852"/>
<path fill="none" stroke="#000" d="M 27.360679774997905 0.0 A 27.3606797749979 27.3606797749979 0 0 0 24.951762871699195 -11.225699414489638"/>
<path fill="none" stroke="#000" d="M 18.386793345089956 -2.189794049620474 A 27.36067977499791 27.36067977499791 0 0 0 29.807464184367383 -3.3677098243468917"/>
<path fill="none" stroke="#000" d="M 24.951762871699195 11.225699414489638 A 27.3606797749979 27.3606797749979 0 0 0 27.360679774997905 0.0"/>
<path fill="none" stroke="#000" d="M 29.807464184367383 3.3677098243468917 A 27.36067977499791 27.36067977499791 0 0 0 18.386793345089956 2.189794049620474"/>
<path fill="none" stroke="#000" d="M 24.951762871699195 -11.225699414489634 A 27.36067977499789 27.36067977499789 0 0 0 22.135254915624216 -16.082204064440702"/>
<path fill="none" stroke="#000" d="M 28.54101966249685 -18.163563200134018 A 27.36067977499789 27.36067977499789 0 0 0 29.116998672171004 -12.579066565517358"/>
<path fill="none" stroke="#000" d="M 22.135254915624216 16.082204064440702 A 27.36067977499789 27.36067977499789 0 0 0 24.951762871699195 11.225699414489634"/>
<path fill="none" stroke="#000" d="M 29.116998672171004 12.579066565517358 A 27.36067977499789 27.36067977499789 0 0 0 28.54101966249685 18.163563200134018"/>
<path fill="none" stroke="#000" d="M 26.784700765323752 -30.74262976565138 A 27.36067977499789 27.36067977499789 0 0 0 27.360679774997898 -36.32712640026804"/>
<path fill="none" stroke="#000" d="M 33.76644452187053 -34.245767264574724 A 27.360679774997905 27.360679774997905 0 0 0 30.94993656579556 -29.389262614623654"/>
<path fill="none" stroke="#000" d="M 27.360679774997898 36.32712640026804 A 27.36067977499789 27.36067977499789 0 0 0 26.784700765323752 30.74262976565138"/>
<path fill="none" stroke="#000" d="M 30.94993656579556 29.389262614623654 A 27.360679774997905 27.360679774997905 0 0 0 33.76644452187053 34.245767264574724"/>
<path fill="none" stroke="#000" d="M 26.094235253127373 -21.53127302448091 A 27.3606797749979 27.3606797749979 0 0 0 37.51490609240479 -20.353357249754495"/>
<path fill="none" stroke="#000" d="M 30.94993656579556 -29.389262614623654 A 27.360679774997877 27.360679774997877 0 0 0 28.54101966249685 -18.163563200134018"/>
<path fill="none" stroke="#000" d="M 37.51490609240479 20.353357249754495 A 27.3606797749979 27.3606797749979 0 0 0 26.094235253127373 21.53127302448091"/>
<path fill="none" stroke="#000" d="M 28.54101966249685 18.163563200134018 A 27.360679774997877 27.360679774997877 0 0 0 30.94993656579556 29.389262614623654"/>
<path fill="none" stroke="#000" d="M 29.116998672171007 -12.579066565517365 A 27.36067977499789 27.36067977499789 0 0 0 33.76644452187054 -2.081359135693316"/>
<path fill="none" stroke="#000" d="M 29.807464184367387 -3.3677098243468917 A 27.36067977499791 27.36067977499791 0 0 0 39.73934250133207 -9.127657835264861"/>
<path fill="none" stroke="#000" d="M 33.76644452187054 2.081359135693316 A 27.36067977499789 27.36067977499789 0 0 0 29.116998672171007 12.579066565517365"/>
<path fill="none" stroke="#000" d="M 39.73934250133207 9.127657835264861 A 27.36067977499791 27.36067977499791 0 0 0 29.807464184367387 3.3677098243468917"/>
<path fill="none" stroke="#000" d="M 42.31359979718152 -5.58449663461666 A 27.36067977499789 27.36067977499789 0 0 0 33.76644452187054 2.081359135693316"/>
<path fill="none" stroke="#000" d="M 33.76644452187054 -2.081359135693316 A 27.36067977499789 27.36067977499789 0 0 0 42.31359979718152 5.58449663461666"/>
<path fill="none" stroke="#000" d="M 37.51490609240479 -20.353357249754495 A 27.360679774997905 27.360679774997905 0 0 0 47.44678440936948 -14.593409238836525"/>
<path fill="none" stroke="#000" d="M 43.48780407186632 -13.307058550182948 A 27.36067977499789 27.36067977499789 0 0 0 48.137249921565854 -23.804765980006998"/>
<path fill="none" stroke="#000" d="M 47.44678440936948 -7.857989590142743 A 27.360679774997894 27.360679774997894 0 0 0 42.31359979718152 -5.58449663461666"/>
<path fill="none" stroke="#000" d="M 39.73934250133207 -9.127657835264861 A 27.360679774997884 27.360679774997884 0 0 0 43.48780407186632 -13.30705855018295"/>
<path fill="none" stroke="#000" d="M 42.31359979718152 5.58449663461666 A 27.360679774997894 27.360679774997894 0 0 0 47.44678440936948 7.857989590142743"/>
<path fill="none" stroke="#000" d="M 43.48780407186632 13.30705855018295 A 27.360679774997884 27.360679774997884 0 0 0 39.73934250133207 9.127657835264861"/>
<path fill="none" stroke="#000" d="M 47.44678440936948 14.593409238836525 A 27.360679774997905 27.360679774997905 0 0 0 37.51490609240479 20.353357249754495"/>
<path fill="none" stroke="#000" d="M 48.137249921565854 23.804765980006998 A 27.36067977499789 27.36067977499789 0 0 0 43.48780407186632 13.307058550182948"/>
<path fill="none" stroke="#000" d="M 47.44678440936948 -14.593409238836525 A 27.360679774997905 27.360679774997905 0 0 0 52.93594362634258 -13.415493464110108"/>
<path fill="none" stroke="#000" d="M 52.93594362634258 -9.035905364869157 A 27.36067977499791 27.36067977499791 0 0 0 47.44678440936948 -7.85798959014274"/>
<path fill="none" stroke="#000" d="M 52.93594362634258 13.415493464110108 A 27.360679774997905 27.360679774997905 0 0 0 47.44678440936948 14.593409238836525"/>
<path fill="none" stroke="#000" d="M 47.44678440936948 7.85798959014274 A 27.36067977499791 27.36067977499791 0 0 0 52.93594362634258 9.035905364869157"/>
<path fill="none" stroke="#000" d="M 61.90983005625053 -11.225699414489632 A 27.360679774997905 27.360679774997905 0 0 0 59.500913152951824 -22.451398828979272"/>
<path fill="none" stroke="#000" d="M 52.93594362634258 -13.415493464110108 A 27.360679774997905 27.360679774997905 0 0 0 64.35661446562001 -14.593409238836525"/>
<path fill="none" stroke="#000" d="M 59.500913152951824 0.0 A 27.360679774997905 27.360679774997905 0 0 0 61.90983005625053 -11.225699414489632"/>
<path fill="none" stroke="#000" d="M 64.35661446562001 -7.857989590142743 A 27.360679774997894 27.360679774997894 0 0 0 52.93594362634258 -9.035905364869159"/>
<path fill="none" stroke="#000" d="M 61.90983005625053 11.225699414489632 A 27.360679774997905 27.360679774997905 0 0 0 59.500913152951824 0.0"/>
<path fill="none" stroke="#000" d="M 52.93594362634258 9.035905364869159 A 27.360679774997894 27.360679774997894 0 0 0 64.35661446562001 7.857989590142743"/>
<path fill="none" stroke="#000" d="M 59.500913152951824 22.451398828979272 A 27.360679774997905 27.360679774997905 0 0 0 61.90983005625053 11.225699414489632"/>
<path fill="none" stroke="#000" d="M 64.35661446562001 14.593409238836525 A 27.360679774997905 27.360679774997905 0 0 0 52.93594362634258 13.415493464110108"/>
<path fill="none" stroke="#000" d="M 69.48979907780797 -5.58449663461666 A 27.3606797749979 27.3606797749979 0 0 0 64.35661446562001 -7.857989590142743"/>
<path fill="none" stroke="#000" d="M 68.31559480312316 -13.30705855018295 A 27.360679774997916 27.360679774997916 0 0 0 72.06405637365744 -9.127657835264861"/>
<path fill="none" stroke="#000" d="M 64.35661446562001 7.857989590142743 A 27.3606797749979 27.3606797749979 0 0 0 69.48979907780797 5.58449663461666"/>
<path fill="none" stroke="#000" d="M 72.06405637365744 9.127657835264861 A 27.360679774997916 27.360679774997916 0 0 0 68.31559480312316 13.30705855018295"/>
<path fill="none" stroke="#000" d="M 78.03695435311896 2.081359135693316 A 27.36067977499789 27.36067977499789 0 0 0 69.48979907780796 -5.58449663461666"/>
<path fill="none" stroke="#000" d="M 69.48979907780797 5.58449663461666 A 27.360679774997905 27.360679774997905 0 0 0 78.03695435311894 -2.081359135693316"/>
</g>
</svg>