<?xml version="1.0" encoding="utf-8"?>
<svg width="100%" height="100%" viewBox="-105.0 -105.0 210.0 210.0" preserveAspectRatio="xMidYMid meet" version="1.1" baseProfile="full" xmlns="http://www.w3.org/2000/svg">
<g style="stroke:#fff; stroke-width: 0.45084971874737145; stroke-linejoin: round;">
<path fill="#0035f3" fill-opacity="0.6" d="m-38.19660112501052,0.0 l-5.901699437494742,4.287835628845247 l-5.901699437494742,-4.287835628845247 l5.901699437494742,-4.287835628845247z"/>
<path fill="#08f" fill-opacity="0.6" d="m-44.09830056250526,-4.287835628845247 l5.901699437494742,4.287835628845247 l-2.254248593736854,-6.937863785644388 l-5.901699437494742,-4.287835628845247z"/>
<path fill="#08f" fill-opacity="0.6" d="m-44.09830056250526,4.287835628845247 l5.901699437494742,-4.287835628845247 l-2.254248593736854,6.937863785644388 l-5.901699437494742,4.287835628845247z"/>
<path fill="#0035f3" fill-opacity="0.6" d="m-30.901699437494738,-13.87572757128878 l-2.2542485937368575,6.9378637856443905 l-7.294901687515775,8.881784197001252e-16 l2.2542485937368575,-6.9378637856443905z"/>
<path fill="#0035f3" fill-opacity="0.6" d="m-30.90169943749474,-0.0 l-2.254248593736854,-6.937863785644389 l-7.294901687515775,8.881784197001252e-16 l2.254248593736854,6.937863785644389z"/>
<path fill="#0035f3" fill-opacity="0.6" d="m-30.90169943749474,0.0 l-2.254248593736854,6.937863785644389 l-7.294901687515775,-8.881784197001252e-16 l2.254248593736854,-6.937863785644389z"/>
<path fill="#0035f3" fill-opacity="0.6" d="m-30.901699437494738,13.87572757128878 l-2.2542485937368575,-6.9378637856443905 l-7.294901687515775,-8.881784197001252e-16 l2.2542485937368575,6.9378637856443905z"/>
<path fill="#08f" fill-opacity="0.6" d="m-33.155948031231596,-6.937863785644389 l2.2542485937368575,-6.9378637856443905 l2.2542485937368575,6.937863785644391 l-2.2542485937368575,6.9378637856443905z"/>
<path fill="#08f" fill-opacity="0.6" d="m-33.155948031231596,6.937863785644389 l2.2542485937368575,6.9378637856443905 l2.2542485937368575,-6.937863785644391 l-2.2542485937368575,-6.9378637856443905z"/>
<path fill="#08f" fill-opacity="0.6" d="m-24.999999999999996,-4.287835628845247 l-5.901699437494745,4.287835628845247 l2.254248593736861,-6.937863785644388 l5.901699437494745,-4.287835628845247z"/>
<path fill="#08f" fill-opacity="0.6" d="m-24.999999999999996,4.287835628845247 l-5.901699437494745,-4.287835628845247 l2.254248593736861,6.937863785644388 l5.901699437494745,4.287835628845247z"/>
<path fill="#0035f3" fill-opacity="0.6" d="m-24.999999999999993,-18.163563200134025 l-5.901699437494745,4.2878356288452455 l2.2542485937368575,6.937863785644391 l5.901699437494745,-4.2878356288452455z"/>
<path fill="#0035f3" fill-opacity="0.6" d="m-24.999999999999993,18.163563200134025 l-5.901699437494745,-4.2878356288452455 l2.2542485937368575,-6.937863785644391 l5.901699437494745,4.2878356288452455z"/>
<path fill="#0035f3" fill-opacity="0.6" d="m-30.90169943749474,0.0 l5.901699437494745,4.287835628845247 l5.901699437494738,-4.287835628845247 l-5.901699437494745,-4.287835628845247z"/>
<path fill="#0035f3" fill-opacity="0.6" d="m-22.74575140626314,-11.225699414489638 l-2.2542485937368575,6.9378637856443905 l5.901699437494738,4.287835628845247 l2.2542485937368575,-6.9378637856443905z"/>
<path fill="#0035f3" fill-opacity="0.6" d="m-22.74575140626314,11.225699414489638 l-2.2542485937368575,-6.9378637856443905 l5.901699437494738,-4.287835628845247 l2.2542485937368575,6.9378637856443905z"/>
<path fill="#0035f3" fill-opacity="0.6" d="m-24.999999999999993,-18.163563200134025 l7.294901687515768,0.0 l2.254248593736854,6.937863785644392 l-7.294901687515768,-0.0z"/>
<path fill="#0035f3" fill-opacity="0.6" d="m-24.999999999999993,18.163563200134025 l7.294901687515768,0.0 l2.254248593736854,-6.937863785644392 l-7.294901687515768,-0.0z"/>
<path fill="#08f" fill-opacity="0.6" d="m-17.705098312484225,-18.163563200134025 l5.901699437494743,-4.287835628845247 l-7.29490168751577,0.0 l-5.901699437494743,4.287835628845247z"/>
<path fill="#08f" fill-opacity="0.6" d="m-17.705098312484225,18.163563200134025 l5.901699437494743,4.287835628845247 l-7.29490168751577,0.0 l-5.901699437494743,-4.287835628845247z"/>
<path fill="#08f" fill-opacity="0.6" d="m-16.8440519687684,-6.937863785644387 l7.294901687515775,-3.552713678800501e-15 l-5.901699437494745,-4.287835628845242 l-7.294901687515775,3.552713678800501e-15z"/>
<path fill="#08f" fill-opacity="0.6" d="m-16.8440519687684,6.937863785644387 l7.294901687515775,3.552713678800501e-15 l-5.901699437494745,4.287835628845242 l-7.294901687515775,-3.552713678800501e-15z"/>
<path fill="#0035f3" fill-opacity="0.6" d="m-9.549150281252626,-6.9378637856443905 l-2.2542485937368575,6.9378637856443905 l-7.294901687515775,0.0 l2.2542485937368575,-6.9378637856443905z"/>
<path fill="#0035f3" fill-opacity="0.6" d="m-9.549150281252626,6.9378637856443905 l-2.2542485937368575,-6.9378637856443905 l-7.294901687515775,0.0 l2.2542485937368575,6.9378637856443905z"/>
<path fill="#0035f3" fill-opacity="0.6" d="m-9.549150281252624,-29.389262614623657 l-2.2542485937368575,6.937863785644385 l-7.29490168751577,0.0 l2.2542485937368575,-6.937863785644385z"/>
<path fill="#0035f3" fill-opacity="0.6" d="m-9.549150281252624,29.389262614623657 l-2.2542485937368575,-6.937863785644385 l-7.29490168751577,0.0 l2.2542485937368575,6.937863785644385z"/>
<path fill="#0035f3" fill-opacity="0.6" d="m-11.803398874989481,-22.451398828979272 l2.2542485937368557,6.937863785644392 l-5.901699437494745,4.287835628845247 l-2.2542485937368557,-6.937863785644392z"/>
<path fill="#0035f3" fill-opacity="0.6" d="m-11.803398874989481,22.451398828979272 l2.2542485937368557,-6.937863785644392 l-5.901699437494745,-4.287835628845247 l-2.2542485937368557,6.937863785644392z"/>
<path fill="#08f" fill-opacity="0.6" d="m-11.803398874989483,0.0 l2.2542485937368575,6.9378637856443905 l2.254248593736854,-6.9378637856443905 l-2.2542485937368575,-6.9378637856443905z"/>
<path fill="#0035f3" fill-opacity="0.6" d="m-3.6474508437578823,-11.225699414489638 l-5.901699437494743,-4.287835628845242 l-5.901699437494745,4.287835628845247 l5.901699437494743,4.287835628845242z"/>
<path fill="#0035f3" fill-opacity="0.6" d="m-3.6474508437578823,11.225699414489638 l-5.901699437494743,4.287835628845242 l-5.901699437494745,-4.287835628845247 l5.901699437494743,-4.287835628845242z"/>
<path fill="#08f" fill-opacity="0.6" d="m-9.549150281252626,-15.51353504333488 l-2.2542485937368557,-6.937863785644392 l5.901699437494743,4.287835628845251 l2.2542485937368557,6.937863785644392z"/>
<path fill="#08f" fill-opacity="0.6" d="m-9.549150281252626,15.51353504333488 l-2.2542485937368557,6.937863785644392 l5.901699437494743,-4.287835628845251 l2.2542485937368557,-6.937863785644392z"/>
<path fill="#0035f3" fill-opacity="0.6" d="m-9.549150281252624,-29.389262614623657 l5.901699437494742,4.287835628845244 l-2.2542485937368557,6.937863785644392 l-5.901699437494742,-4.287835628845244z"/>
<path fill="#0035f3" fill-opacity="0.6" d="m-9.549150281252624,29.389262614623657 l5.901699437494742,-4.287835628845244 l-2.2542485937368557,-6.937863785644392 l-5.901699437494742,4.287835628845244z"/>
<path fill="#0035f3" fill-opacity="0.6" d="m-3.6474508437578823,-11.225699414489638 l2.2542485937368566,6.93786378564439 l-5.901699437494746,4.287835628845248 l-2.2542485937368566,-6.93786378564439z"/>
<path fill="#0035f3" fill-opacity="0.6" d="m-3.6474508437578823,11.225699414489638 l2.2542485937368566,-6.93786378564439 l-5.901699437494746,-4.287835628845248 l-2.2542485937368566,6.93786378564439z"/>
<path fill="#08f" fill-opacity="0.6" d="m-1.3932022500210266,-18.16356320013402 l-2.2542485937368557,6.937863785644383 l-2.2542485937368557,-6.937863785644383 l2.2542485937368557,-6.937863785644383z"/>
<path fill="#08f" fill-opacity="0.6" d="m-1.3932022500210266,18.16356320013402 l-2.2542485937368557,-6.937863785644383 l-2.2542485937368557,6.937863785644383 l2.2542485937368557,6.937863785644383z"/>
<path fill="#0035f3" fill-opacity="0.6" d="m-9.549150281252624,-29.389262614623657 l5.901699437494742,4.287835628845244 l5.901699437494743,-4.28783562884524 l-5.901699437494742,-4.287835628845244z"/>
<path fill="#0035f3" fill-opacity="0.6" d="m-9.549150281252624,29.389262614623657 l5.901699437494742,-4.287835628845244 l5.901699437494743,4.28783562884524 l-5.901699437494742,4.287835628845244z"/>
<path fill="#0035f3" fill-opacity="0.6" d="m4.5084971874737185,0.0 l-5.901699437494744,4.287835628845248 l-5.901699437494746,-4.287835628845248 l5.901699437494744,-4.287835628845248z"/>
<path fill="#08f" fill-opacity="0.6" d="m-1.393202250021026,-4.287835628845248 l5.901699437494744,4.287835628845248 l-2.254248593736857,-6.9378637856443905 l-5.901699437494744,-4.287835628845248z"/>
<path fill="#08f" fill-opacity="0.6" d="m-1.393202250021026,4.287835628845248 l5.901699437494744,-4.287835628845248 l-2.254248593736857,6.9378637856443905 l-5.901699437494744,4.287835628845248z"/>
<path fill="#0035f3" fill-opacity="0.6" d="m-3.6474508437578823,-33.677098243468905 l7.2949016875157735,7.105427357601002e-15 l2.2542485937368557,-6.937863785644389 l-7.2949016875157735,-7.105427357601002e-15z"/>
<path fill="#0035f3" fill-opacity="0.6" d="m-3.6474508437578823,-25.101426985778414 l2.2542485937368557,6.937863785644392 l7.2949016875157735,-3.552713678800501e-15 l-2.2542485937368557,-6.937863785644392z"/>
<path fill="#0035f3" fill-opacity="0.6" d="m-3.6474508437578823,-11.225699414489638 l7.2949016875157735,1.7763568394002505e-15 l2.2542485937368557,-6.937863785644389 l-7.2949016875157735,-1.7763568394002505e-15z"/>
<path fill="#0035f3" fill-opacity="0.6" d="m-3.6474508437578823,11.225699414489638 l7.2949016875157735,-1.7763568394002505e-15 l2.2542485937368557,6.937863785644389 l-7.2949016875157735,1.7763568394002505e-15z"/>
<path fill="#0035f3" fill-opacity="0.6" d="m-3.6474508437578823,25.101426985778414 l2.2542485937368557,-6.937863785644392 l7.2949016875157735,3.552713678800501e-15 l-2.2542485937368557,6.937863785644392z"/>
<path fill="#0035f3" fill-opacity="0.6" d="m-3.6474508437578823,33.677098243468905 l7.2949016875157735,-7.105427357601002e-15 l2.2542485937368557,6.937863785644389 l-7.2949016875157735,7.105427357601002e-15z"/>
<path fill="#08f" fill-opacity="0.6" d="m3.647450843757891,-33.6770982434689 l-7.2949016875157735,-7.105427357601002e-15 l5.901699437494743,4.287835628845251 l7.2949016875157735,7.105427357601002e-15z"/>
<path fill="#08f" fill-opacity="0.6" d="m3.647450843757891,-25.10142698577841 l5.901699437494742,-4.287835628845244 l-7.294901687515772,0.0 l-5.901699437494742,4.287835628845244z"/>
<path fill="#08f" fill-opacity="0.6" d="m3.647450843757891,-11.225699414489636 l-7.2949016875157735,-1.7763568394002505e-15 l5.901699437494743,4.287835628845247 l7.2949016875157735,1.7763568394002505e-15z"/>
<path fill="#08f" fill-opacity="0.6" d="m3.647450843757891,11.225699414489636 l-7.2949016875157735,1.7763568394002505e-15 l5.901699437494743,-4.287835628845247 l7.2949016875157735,-1.7763568394002505e-15z"/>
<path fill="#08f" fill-opacity="0.6" d="m3.647450843757891,25.10142698577841 l5.901699437494742,4.287835628845244 l-7.294901687515772,0.0 l-5.901699437494742,-4.287835628845244z"/>
<path fill="#08f" fill-opacity="0.6" d="m3.647450843757891,33.6770982434689 l-7.2949016875157735,7.105427357601002e-15 l5.901699437494743,-4.287835628845251 l7.2949016875157735,-7.105427357601002e-15z"/>
<path fill="#0035f3" fill-opacity="0.6" d="m11.803398874989494,-0.0 l-7.294901687515775,0.0 l-2.254248593736857,-6.9378637856443905 l7.294901687515775,-0.0z"/>
<path fill="#0035f3" fill-opacity="0.6" d="m11.803398874989494,0.0 l-7.294901687515775,0.0 l-2.254248593736857,6.9378637856443905 l7.294901687515775,-0.0z"/>
<path fill="#08f" fill-opacity="0.6" d="m9.549150281252633,-43.264990185912424 l2.254248593736854,6.937863785644382 l-5.90169943749474,-4.287835628845244 l-2.254248593736854,-6.937863785644382z"/>
<path fill="#0035f3" fill-opacity="0.6" d="m9.549150281252633,-29.389262614623654 l-5.901699437494742,-4.287835628845244 l2.2542485937368557,-6.937863785644389 l5.901699437494742,4.287835628845244z"/>
<path fill="#0035f3" fill-opacity="0.6" d="m9.549150281252633,-29.389262614623654 l-5.901699437494742,4.287835628845244 l2.2542485937368557,6.937863785644385 l5.901699437494742,-4.287835628845244z"/>
<path fill="#0035f3" fill-opacity="0.6" d="m9.549150281252633,29.389262614623654 l-5.901699437494742,-4.287835628845244 l2.2542485937368557,-6.937863785644385 l5.901699437494742,4.287835628845244z"/>
<path fill="#0035f3" fill-opacity="0.6" d="m9.549150281252633,29.389262614623654 l-5.901699437494742,4.287835628845244 l2.2542485937368557,6.937863785644389 l5.901699437494742,-4.287835628845244z"/>
<path fill="#08f" fill-opacity="0.6" d="m9.549150281252633,43.264990185912424 l2.254248593736854,-6.937863785644382 l-5.90169943749474,4.287835628845244 l-2.254248593736854,6.937863785644382z"/>
<path fill="#0035f3" fill-opacity="0.6" d="m9.549150281252636,-6.937863785644388 l-5.901699437494745,-4.287835628845248 l2.2542485937368557,-6.937863785644389 l5.901699437494745,4.287835628845248z"/>
<path fill="#0035f3" fill-opacity="0.6" d="m9.549150281252636,6.937863785644388 l-5.901699437494745,4.287835628845248 l2.2542485937368557,6.937863785644389 l5.901699437494745,-4.287835628845248z"/>
<path fill="#0035f3" fill-opacity="0.6" d="m17.705098312484232,-18.16356320013402 l-5.901699437494742,-4.287835628845247 l-5.901699437494743,4.287835628845244 l5.901699437494742,4.287835628845247z"/>
<path fill="#0035f3" fill-opacity="0.6" d="m17.705098312484232,18.16356320013402 l-5.901699437494742,4.287835628845247 l-5.901699437494743,-4.287835628845244 l5.901699437494742,-4.287835628845247z"/>
<path fill="#0035f3" fill-opacity="0.6" d="m11.803398874989487,-36.32712640026804 l-2.254248593736854,-6.937863785644382 l5.90169943749474,-4.287835628845251 l2.254248593736854,6.937863785644382z"/>
<path fill="#0035f3" fill-opacity="0.6" d="m11.803398874989487,36.32712640026804 l-2.254248593736854,6.937863785644382 l5.90169943749474,4.287835628845251 l2.254248593736854,-6.937863785644382z"/>
<path fill="#08f" fill-opacity="0.6" d="m11.80339887498949,-22.45139882897927 l-2.2542485937368575,-6.937863785644385 l5.901699437494743,4.287835628845247 l2.2542485937368575,6.937863785644385z"/>
<path fill="#08f" fill-opacity="0.6" d="m11.80339887498949,-13.875727571288778 l-2.254248593736854,6.93786378564439 l5.90169943749474,-4.28783562884525 l2.254248593736854,-6.93786378564439z"/>
<path fill="#0035f3" fill-opacity="0.6" d="m11.803398874989494,-0.0 l5.901699437494738,-4.287835628845247 l-2.2542485937368557,-6.9378637856443905 l-5.901699437494738,4.287835628845247z"/>
<path fill="#0035f3" fill-opacity="0.6" d="m11.803398874989494,0.0 l5.901699437494738,4.287835628845247 l-2.2542485937368557,6.9378637856443905 l-5.901699437494738,-4.287835628845247z"/>
<path fill="#08f" fill-opacity="0.6" d="m11.80339887498949,13.875727571288778 l-2.254248593736854,-6.93786378564439 l5.90169943749474,4.28783562884525 l2.254248593736854,6.93786378564439z"/>
<path fill="#08f" fill-opacity="0.6" d="m11.80339887498949,22.45139882897927 l-2.2542485937368575,6.937863785644385 l5.901699437494743,-4.287835628845247 l2.2542485937368575,-6.937863785644385z"/>
<path fill="#0035f3" fill-opacity="0.6" d="m9.549150281252633,-29.389262614623654 l7.294901687515772,0.0 l2.2542485937368575,-6.937863785644389 l-7.294901687515772,-0.0z"/>
<path fill="#0035f3" fill-opacity="0.6" d="m9.549150281252633,29.389262614623654 l7.294901687515772,0.0 l2.2542485937368575,6.937863785644389 l-7.294901687515772,-0.0z"/>
<path fill="#08f" fill-opacity="0.6" d="m16.844051968768404,-29.389262614623654 l5.901699437494745,4.287835628845251 l-7.2949016875157735,-3.552713678800501e-15 l-5.901699437494745,-4.287835628845251z"/>
<path fill="#08f" fill-opacity="0.6" d="m16.844051968768404,29.389262614623654 l5.901699437494745,-4.287835628845251 l-7.2949016875157735,3.552713678800501e-15 l-5.901699437494745,4.287835628845251z"/>
<path fill="#08f" fill-opacity="0.6" d="m17.705098312484232,-40.614962029113286 l-5.901699437494745,4.287835628845244 l7.294901687515775,0.0 l5.901699437494745,-4.287835628845244z"/>
<path fill="#08f" fill-opacity="0.6" d="m17.705098312484232,-4.287835628845247 l7.294901687515775,0.0 l-5.901699437494742,4.287835628845247 l-7.294901687515775,-0.0z"/>
<path fill="#08f" fill-opacity="0.6" d="m17.705098312484232,4.287835628845247 l7.294901687515775,0.0 l-5.901699437494742,-4.287835628845247 l-7.294901687515775,-0.0z"/>
<path fill="#08f" fill-opacity="0.6" d="m17.705098312484232,40.614962029113286 l-5.901699437494745,-4.287835628845244 l7.294901687515775,0.0 l5.901699437494745,4.287835628845244z"/>
<path fill="#0035f3" fill-opacity="0.6" d="m25.000000000000004,-40.614962029113286 l-7.294901687515772,0.0 l-2.2542485937368593,-6.937863785644389 l7.294901687515772,-0.0z"/>
<path fill="#0035f3" fill-opacity="0.6" d="m25.000000000000004,40.614962029113286 l-7.294901687515772,0.0 l-2.2542485937368593,6.937863785644389 l7.294901687515772,-0.0z"/>
<path fill="#0035f3" fill-opacity="0.6" d="m25.000000000000007,-18.163563200134018 l-2.2542485937368575,-6.937863785644385 l-7.2949016875157735,-3.552713678800501e-15 l2.2542485937368575,6.937863785644385z"/>
<path fill="#0035f3" fill-opacity="0.6" d="m25.000000000000007,-18.163563200134018 l-2.254248593736861,6.937863785644383 l-7.29490168751577,-3.552713678800501e-15 l2.254248593736861,-6.937863785644383z"/>
<path fill="#0035f3" fill-opacity="0.6" d="m25.000000000000007,-4.287835628845247 l-7.294901687515775,0.0 l-2.2542485937368557,-6.9378637856443905 l7.294901687515775,-0.0z"/>
<path fill="#0035f3" fill-opacity="0.6" d="m25.000000000000007,4.287835628845247 l-7.294901687515775,0.0 l-2.2542485937368557,6.9378637856443905 l7.294901687515775,-0.0z"/>
<path fill="#0035f3" fill-opacity="0.6" d="m25.000000000000007,18.163563200134018 l-2.254248593736861,-6.937863785644383 l-7.29490168751577,3.552713678800501e-15 l2.254248593736861,6.937863785644383z"/>
<path fill="#0035f3" fill-opacity="0.6" d="m25.000000000000007,18.163563200134018 l-2.2542485937368575,6.937863785644385 l-7.2949016875157735,3.552713678800501e-15 l2.2542485937368575,-6.937863785644385z"/>
<path fill="#0035f3" fill-opacity="0.6" d="m22.74575140626315,-25.101426985778403 l-5.901699437494745,-4.287835628845251 l2.2542485937368575,-6.937863785644389 l5.901699437494745,4.287835628845251z"/>
<path fill="#0035f3" fill-opacity="0.6" d="m22.74575140626315,25.101426985778403 l-5.901699437494745,4.287835628845251 l2.2542485937368575,6.937863785644389 l5.901699437494745,-4.287835628845251z"/>
<path fill="#0035f3" fill-opacity="0.6" d="m30.901699437494745,-36.32712640026804 l-5.901699437494738,4.287835628845251 l-5.901699437494745,-4.287835628845251 l5.901699437494738,-4.287835628845251z"/>
<path fill="#08f" fill-opacity="0.6" d="m22.745751406263146,-11.225699414489634 l2.254248593736861,6.937863785644387 l2.254248593736854,-6.937863785644385 l-2.254248593736861,-6.937863785644387z"/>
<path fill="#08f" fill-opacity="0.6" d="m22.745751406263146,11.225699414489634 l2.254248593736861,-6.937863785644387 l2.254248593736854,6.937863785644385 l-2.254248593736861,6.937863785644387z"/>
<path fill="#0035f3" fill-opacity="0.6" d="m30.901699437494745,36.32712640026804 l-5.901699437494738,-4.287835628845251 l-5.901699437494745,4.287835628845251 l5.901699437494738,4.287835628845251z"/>
<path fill="#0035f3" fill-opacity="0.6" d="m30.901699437494752,0.0 l-5.901699437494745,4.287835628845247 l-5.901699437494742,-4.287835628845247 l5.901699437494745,-4.287835628845247z"/>
<path fill="#08f" fill-opacity="0.6" d="m25.000000000000007,-32.03929077142279 l-2.2542485937368575,6.937863785644389 l5.901699437494745,-4.287835628845251 l2.2542485937368575,-6.937863785644389z"/>
<path fill="#0035f3" fill-opacity="0.6" d="m25.000000000000007,-18.163563200134018 l-2.2542485937368575,-6.937863785644385 l5.901699437494745,-4.287835628845251 l2.2542485937368575,6.937863785644385z"/>
<path fill="#0035f3" fill-opacity="0.6" d="m25.000000000000007,18.163563200134018 l-2.2542485937368575,6.937863785644385 l5.901699437494745,4.287835628845251 l2.2542485937368575,-6.937863785644385z"/>
<path fill="#08f" fill-opacity="0.6" d="m25.000000000000007,32.03929077142279 l-2.2542485937368575,-6.937863785644389 l5.901699437494745,4.287835628845251 l2.2542485937368575,6.937863785644389z"/>
<path fill="#08f" fill-opacity="0.6" d="m30.901699437494745,-13.875727571288774 l2.2542485937368575,6.937863785644386 l-5.901699437494742,-4.287835628845245 l-2.2542485937368575,-6.937863785644386z"/>
<path fill="#08f" fill-opacity="0.6" d="m30.901699437494745,13.875727571288774 l2.2542485937368575,-6.937863785644386 l-5.901699437494742,4.287835628845245 l-2.2542485937368575,6.937863785644386z"/>
<path fill="#0035f3" fill-opacity="0.6" d="m30.901699437494752,-0.0 l-5.901699437494745,-4.287835628845247 l2.254248593736854,-6.937863785644385 l5.901699437494745,4.287835628845247z"/>
<path fill="#0035f3" fill-opacity="0.6" d="m30.901699437494752,0.0 l-5.901699437494745,4.287835628845247 l2.254248593736854,6.937863785644385 l5.901699437494745,-4.287835628845247z"/>
<path fill="#08f" fill-opacity="0.6" d="m33.1559480312316,-29.389262614623654 l-2.2542485937368575,-6.937863785644389 l-2.2542485937368504,6.937863785644389 l2.2542485937368575,6.937863785644389z"/>
<path fill="#0035f3" fill-opacity="0.6" d="m25.000000000000007,-18.163563200134018 l5.901699437494738,4.287835628845244 l5.901699437494745,-4.287835628845251 l-5.901699437494738,-4.287835628845244z"/>
<path fill="#0035f3" fill-opacity="0.6" d="m25.000000000000007,18.163563200134018 l5.901699437494738,-4.287835628845244 l5.901699437494745,4.287835628845251 l-5.901699437494738,4.287835628845244z"/>
<path fill="#08f" fill-opacity="0.6" d="m33.1559480312316,29.389262614623654 l-2.2542485937368575,6.937863785644389 l-2.2542485937368504,-6.937863785644389 l2.2542485937368575,-6.937863785644389z"/>
<path fill="#0035f3" fill-opacity="0.6" d="m33.1559480312316,-6.937863785644388 l5.901699437494742,-4.287835628845246 l-2.254248593736854,-6.9378637856443905 l-5.901699437494742,4.287835628845246z"/>
<path fill="#0035f3" fill-opacity="0.6" d="m33.1559480312316,6.937863785644388 l5.901699437494742,4.287835628845246 l-2.254248593736854,6.9378637856443905 l-5.901699437494742,-4.287835628845246z"/>
<path fill="#0035f3" fill-opacity="0.6" d="m30.901699437494745,-36.32712640026804 l2.2542485937368575,6.937863785644389 l7.294901687515768,-3.552713678800501e-15 l-2.2542485937368575,-6.937863785644389z"/>
<path fill="#0035f3" fill-opacity="0.6" d="m30.901699437494745,-22.451398828979265 l2.2542485937368575,-6.937863785644389 l7.294901687515768,-3.552713678800501e-15 l-2.2542485937368575,6.937863785644389z"/>
<path fill="#0035f3" fill-opacity="0.6" d="m30.901699437494745,22.451398828979265 l2.2542485937368575,6.937863785644389 l7.294901687515768,3.552713678800501e-15 l-2.2542485937368575,-6.937863785644389z"/>
<path fill="#0035f3" fill-opacity="0.6" d="m30.901699437494745,36.32712640026804 l2.2542485937368575,-6.937863785644389 l7.294901687515768,3.552713678800501e-15 l-2.2542485937368575,6.937863785644389z"/>
<path fill="#0035f3" fill-opacity="0.6" d="m30.901699437494752,-0.0 l7.294901687515765,0.0 l2.254248593736861,-6.937863785644387 l-7.294901687515765,-0.0z"/>
<path fill="#0035f3" fill-opacity="0.6" d="m30.901699437494752,0.0 l7.294901687515765,0.0 l2.254248593736861,6.937863785644387 l-7.294901687515765,-0.0z"/>
<path fill="#08f" fill-opacity="0.6" d="m38.19660112501052,-22.451398828979272 l5.901699437494742,4.287835628845251 l-7.294901687515768,-3.552713678800501e-15 l-5.901699437494742,-4.287835628845251z"/>
<path fill="#08f" fill-opacity="0.6" d="m38.19660112501052,22.451398828979272 l5.901699437494742,-4.287835628845251 l-7.294901687515768,3.552713678800501e-15 l-5.901699437494742,4.287835628845251z"/>
<path fill="#08f" fill-opacity="0.6" d="m39.057647468726344,-11.225699414489634 l-5.901699437494742,4.287835628845246 l7.294901687515775,8.881784197001252e-16 l5.901699437494742,-4.287835628845246z"/>
<path fill="#08f" fill-opacity="0.6" d="m39.057647468726344,11.225699414489634 l-5.901699437494742,-4.287835628845246 l7.294901687515775,-8.881784197001252e-16 l5.901699437494742,4.287835628845246z"/>
<path fill="#0035f3" fill-opacity="0.6" d="m46.35254915624211,-11.225699414489632 l-7.294901687515768,-1.7763568394002505e-15 l-2.254248593736854,-6.9378637856443905 l7.294901687515768,1.7763568394002505e-15z"/>
<path fill="#0035f3" fill-opacity="0.6" d="m46.35254915624211,11.225699414489632 l-7.294901687515768,1.7763568394002505e-15 l-2.254248593736854,6.9378637856443905 l7.294901687515768,-1.7763568394002505e-15z"/>
<path fill="#0035f3" fill-opacity="0.6" d="m44.09830056250526,-18.16356320013402 l2.254248593736854,-6.937863785644389 l-5.901699437494742,-4.287835628845247 l-2.254248593736854,6.937863785644389z"/>
<path fill="#0035f3" fill-opacity="0.6" d="m44.09830056250526,18.16356320013402 l2.254248593736854,6.937863785644389 l-5.901699437494742,4.287835628845247 l-2.254248593736854,-6.937863785644389z"/>
<path fill="#08f" fill-opacity="0.6" d="m44.09830056250526,-4.287835628845246 l2.254248593736854,-6.937863785644386 l-5.9016994374947345,4.2878356288452455 l-2.254248593736854,6.937863785644386z"/>
<path fill="#08f" fill-opacity="0.6" d="m44.09830056250526,4.287835628845246 l2.254248593736854,6.937863785644386 l-5.9016994374947345,-4.2878356288452455 l-2.254248593736854,-6.937863785644386z"/>
<path fill="#0035f3" fill-opacity="0.6" d="m38.19660112501052,0.0 l5.901699437494742,4.287835628845246 l5.901699437494742,-4.287835628845246 l-5.901699437494742,-4.287835628845246z"/>
<path fill="#08f" fill-opacity="0.6" d="m46.35254915624211,-25.10142698577841 l-2.254248593736854,6.937863785644389 l5.901699437494742,-4.287835628845251 l2.254248593736854,-6.937863785644389z"/>
<path fill="#0035f3" fill-opacity="0.6" d="m46.35254915624211,-11.225699414489632 l5.901699437494749,-4.287835628845247 l-2.254248593736861,-6.937863785644392 l-5.901699437494749,4.287835628845247z"/>
<path fill="#0035f3" fill-opacity="0.6" d="m46.35254915624211,-11.225699414489632 l5.901699437494749,4.2878356288452455 l-2.254248593736861,6.937863785644387 l-5.901699437494749,-4.2878356288452455z"/>
<path fill="#0035f3" fill-opacity="0.6" d="m46.35254915624211,11.225699414489632 l5.901699437494749,-4.2878356288452455 l-2.254248593736861,-6.937863785644387 l-5.901699437494749,4.2878356288452455z"/>
<path fill="#0035f3" fill-opacity="0.6" d="m46.35254915624211,11.225699414489632 l5.901699437494749,4.287835628845247 l-2.254248593736861,6.937863785644392 l-5.901699437494749,-4.287835628845247z"/>
<path fill="#08f" fill-opacity="0.6" d="m46.35254915624211,25.10142698577841 l-2.254248593736854,-6.937863785644389 l5.901699437494742,4.287835628845251 l2.254248593736854,6.937863785644389z"/>
<path fill="#08f" fill-opacity="0.6" d="m52.25424859373686,-15.51353504333488 l7.294901687515775,0.0 l-5.901699437494749,4.287835628845247 l-7.294901687515775,-0.0z"/>
<path fill="#08f" fill-opacity="0.6" d="m52.25424859373686,-6.937863785644387 l-5.901699437494749,-4.2878356288452455 l7.294901687515775,0.0 l5.901699437494749,4.2878356288452455z"/>
<path fill="#08f" fill-opacity="0.6" d="m52.25424859373686,6.937863785644387 l-5.901699437494749,4.2878356288452455 l7.294901687515775,0.0 l5.901699437494749,-4.2878356288452455z"/>
<path fill="#08f" fill-opacity="0.6" d="m52.25424859373686,15.51353504333488 l7.294901687515775,0.0 l-5.901699437494749,-4.287835628845247 l-7.294901687515775,-0.0z"/>
<path fill="#0035f3" fill-opacity="0.6" d="m59.549150281252636,-15.51353504333488 l-7.294901687515775,0.0 l-2.254248593736861,-6.937863785644392 l7.294901687515775,-0.0z"/>
<path fill="#0035f3" fill-opacity="0.6" d="m59.549150281252636,-6.937863785644387 l-7.294901687515775,0.0 l-2.254248593736861,6.937863785644387 l7.294901687515775,-0.0z"/>
<path fill="#0035f3" fill-opacity="0.6" d="m59.549150281252636,6.937863785644387 l-7.294901687515775,0.0 l-2.254248593736861,-6.937863785644387 l7.294901687515775,-0.0z"/>
<path fill="#0035f3" fill-opacity="0.6" d="m59.549150281252636,15.51353504333488 l-7.294901687515775,0.0 l-2.254248593736861,6.937863785644392 l7.294901687515775,-0.0z"/>
<path fill="#08f" fill-opacity="0.6" d="m57.294901687515775,0.0 l2.254248593736861,6.937863785644387 l2.254248593736847,-6.937863785644387 l-2.254248593736861,-6.937863785644387z"/>
<path fill="#0035f3" fill-opacity="0.6" d="m65.45084971874738,-11.225699414489632 l-5.901699437494742,-4.287835628845247 l-5.901699437494749,4.287835628845247 l5.901699437494742,4.287835628845247z"/>
<path fill="#0035f3" fill-opacity="0.6" d="m65.45084971874738,11.225699414489632 l-5.901699437494742,4.287835628845247 l-5.901699437494749,-4.287835628845247 l5.901699437494742,-4.287835628845247z"/>
<path fill="#0035f3" fill-opacity="0.6" d="m65.45084971874738,-11.225699414489632 l2.254248593736861,6.937863785644386 l-5.901699437494756,4.287835628845246 l-2.254248593736861,-6.937863785644386z"/>
<path fill="#0035f3" fill-opacity="0.6" d="m65.45084971874738,11.225699414489632 l2.254248593736861,-6.937863785644386 l-5.901699437494756,-4.287835628845246 l-2.254248593736861,6.937863785644386z"/>
<path fill="#0035f3" fill-opacity="0.6" d="m73.60679774997897,0.0 l-5.901699437494727,4.287835628845246 l-5.901699437494756,-4.287835628845246 l5.901699437494727,-4.287835628845246z"/>
<path fill="#08f" fill-opacity="0.6" d="m67.70509831248424,-4.287835628845246 l5.901699437494727,4.287835628845246 l-2.254248593736847,-6.937863785644387 l-5.901699437494727,-4.287835628845246z"/>
<path fill="#08f" fill-opacity="0.6" d="m67.70509831248424,4.287835628845246 l5.901699437494727,-4.287835628845246 l-2.254248593736847,6.937863785644387 l-5.901699437494727,4.287835628845246z"/>
<path fill="#0035f3" fill-opacity="0.6" d="m80.90169943749474,-0.0 l-7.294901687515775,0.0 l-2.254248593736847,-6.937863785644387 l7.294901687515775,-0.0z"/>
<path fill="#0035f3" fill-opacity="0.6" d="m80.90169943749474,0.0 l-7.294901687515775,0.0 l-2.254248593736847,6.937863785644387 l7.294901687515775,-0.0z"/>
<path fill="none" stroke="#000" d="M -42.94705770148643 -3.4514087302524996 A 16.909830056250524 16.909830056250524 0 0 0 -48.229490168751575 1.2863506886535743"/>
<path fill="none" stroke="#000" d="M -48.229490168751575 -1.2863506886535743 A 16.909830056250524 16.909830056250524 0 0 0 -42.94705770148643 3.4514087302524996"/>
<path fill="none" stroke="#000" d="M -39.77457514062631 -4.856504649951071 A 16.909830056250524 16.909830056250524 0 0 0 -42.94705770148643 -3.4514087302524996"/>
<path fill="none" stroke="#000" d="M -44.53803620610878 -5.641202779872974 A 16.909830056250527 16.909830056250527 0 0 0 -42.221359549995796 -8.224214474297963"/>
<path fill="none" stroke="#000" d="M -42.94705770148643 3.4514087302524996 A 16.909830056250524 16.909830056250524 0 0 0 -39.77457514062631 4.856504649951071"/>
<path fill="none" stroke="#000" d="M -42.221359549995796 8.224214474297963 A 16.909830056250527 16.909830056250527 0 0 0 -44.53803620610878 5.641202779872974"/>
<path fill="none" stroke="#000" d="M -36.77358669017989 -13.87572757128878 A 16.909830056250534 16.909830056250534 0 0 0 -38.26237921249264 -6.937863785644388"/>
<path fill="none" stroke="#000" d="M -39.77457514062631 -9.019222921337704 A 16.90983005625053 16.90983005625053 0 0 0 -32.71621238762807 -8.291230936672116"/>
<path fill="none" stroke="#000" d="M -38.26237921249264 -6.937863785644388 A 16.909830056250534 16.909830056250534 0 0 0 -36.7735866901799 7.149217034237012e-16"/>
<path fill="none" stroke="#000" d="M -32.716212387628076 -5.584496634616662 A 16.909830056250524 16.909830056250524 0 0 0 -39.77457514062631 -4.856504649951071"/>
<path fill="none" stroke="#000" d="M -36.7735866901799 -7.149217034237012e-16 A 16.909830056250534 16.909830056250534 0 0 0 -38.26237921249264 6.937863785644388"/>
<path fill="none" stroke="#000" d="M -39.77457514062631 4.856504649951071 A 16.909830056250524 16.909830056250524 0 0 0 -32.716212387628076 5.584496634616662"/>
<path fill="none" stroke="#000" d="M -38.26237921249264 6.937863785644388 A 16.909830056250534 16.909830056250534 0 0 0 -36.77358669017989 13.87572757128878"/>
<path fill="none" stroke="#000" d="M -32.71621238762807 8.291230936672116 A 16.90983005625053 16.90983005625053 0 0 0 -39.77457514062631 9.019222921337704"/>
<path fill="none" stroke="#000" d="M -32.716212387628076 -8.291230936672116 A 16.909830056250538 16.909830056250538 0 0 0 -29.323725421878937 -9.019222921337706"/>
<path fill="none" stroke="#000" d="M -29.323725421878937 -4.85650464995107 A 16.909830056250534 16.909830056250534 0 0 0 -32.716212387628076 -5.584496634616661"/>
<path fill="none" stroke="#000" d="M -29.323725421878937 9.019222921337706 A 16.909830056250538 16.909830056250538 0 0 0 -32.716212387628076 8.291230936672116"/>
<path fill="none" stroke="#000" d="M -32.716212387628076 5.584496634616661 A 16.909830056250534 16.909830056250534 0 0 0 -29.323725421878937 4.85650464995107"/>
<path fill="none" stroke="#000" d="M -26.15124286101883 -3.4514087302524996 A 16.90983005625053 16.90983005625053 0 0 0 -29.32372542187894 -4.856504649951071"/>
<path fill="none" stroke="#000" d="M -26.876941012509455 -8.224214474297963 A 16.90983005625053 16.90983005625053 0 0 0 -24.560264356396473 -5.641202779872974"/>
<path fill="none" stroke="#000" d="M -29.32372542187894 4.856504649951071 A 16.90983005625053 16.90983005625053 0 0 0 -26.15124286101883 3.4514087302524996"/>
<path fill="none" stroke="#000" d="M -24.560264356396473 5.641202779872974 A 16.90983005625053 16.90983005625053 0 0 0 -26.876941012509455 8.224214474297963"/>
<path fill="none" stroke="#000" d="M -29.323725421878937 -9.019222921337706 A 16.909830056250538 16.909830056250538 0 0 0 -23.18548704986666 -12.579066565517362"/>
<path fill="none" stroke="#000" d="M -29.750456576475905 -14.712154469881527 A 16.909830056250527 16.909830056250527 0 0 0 -26.876941012509455 -8.22421447429796"/>
<path fill="none" stroke="#000" d="M -23.18548704986666 12.579066565517362 A 16.909830056250538 16.909830056250538 0 0 0 -29.323725421878937 9.019222921337706"/>
<path fill="none" stroke="#000" d="M -26.876941012509455 8.22421447429796 A 16.909830056250527 16.909830056250527 0 0 0 -29.750456576475905 14.712154469881527"/>
<path fill="none" stroke="#000" d="M -20.86881039375368 1.2863506886535743 A 16.90983005625052 16.90983005625052 0 0 0 -26.151242861018837 -3.4514087302524996"/>
<path fill="none" stroke="#000" d="M -26.15124286101883 3.4514087302524996 A 16.90983005625053 16.90983005625053 0 0 0 -20.868810393753684 -1.2863506886535743"/>
<path fill="none" stroke="#000" d="M -20.86881039375368 -1.2863506886535743 A 16.90983005625052 16.90983005625052 0 0 0 -17.995294829787234 -7.774290684237139"/>
<path fill="none" stroke="#000" d="M -24.560264356396473 -5.641202779872975 A 16.90983005625053 16.90983005625053 0 0 0 -18.422025984384202 -2.081359135693318"/>
<path fill="none" stroke="#000" d="M -17.995294829787234 7.774290684237139 A 16.90983005625052 16.90983005625052 0 0 0 -20.86881039375368 1.2863506886535743"/>
<path fill="none" stroke="#000" d="M -18.422025984384202 2.081359135693318 A 16.90983005625053 16.90983005625053 0 0 0 -24.560264356396473 5.641202779872975"/>
<path fill="none" stroke="#000" d="M -23.185487049866662 -12.57906656551736 A 16.909830056250534 16.909830056250534 0 0 0 -16.127124296868427 -13.307058550182951"/>
<path fill="none" stroke="#000" d="M -17.639320225002102 -11.225699414489632 A 16.909830056250513 16.909830056250513 0 0 0 -19.128112747314844 -18.163563200134025"/>
<path fill="none" stroke="#000" d="M -16.127124296868427 13.307058550182951 A 16.909830056250534 16.909830056250534 0 0 0 -23.185487049866662 12.57906656551736"/>
<path fill="none" stroke="#000" d="M -19.128112747314844 18.163563200134025 A 16.909830056250513 16.909830056250513 0 0 0 -17.639320225002102 11.225699414489632"/>
<path fill="none" stroke="#000" d="M -16.90983005625052 -22.451398828979272 A 16.90983005625052 16.90983005625052 0 0 0 -16.55385545146539 -18.999990098726773"/>
<path fill="none" stroke="#000" d="M -19.128112747314844 -18.163563200134025 A 16.909830056250527 16.909830056250527 0 0 0 -20.868810393753673 -21.1650481403257"/>
<path fill="none" stroke="#000" d="M -16.55385545146539 18.999990098726773 A 16.90983005625052 16.90983005625052 0 0 0 -16.90983005625052 22.451398828979272"/>
<path fill="none" stroke="#000" d="M -20.868810393753673 21.1650481403257 A 16.909830056250527 16.909830056250527 0 0 0 -19.128112747314844 18.163563200134025"/>
<path fill="none" stroke="#000" d="M -13.680339887498947 -9.939348725836059 A 16.909830056250524 16.909830056250524 0 0 0 -15.421037533937781 -6.937863785644388"/>
<path fill="none" stroke="#000" d="M -17.995294829787234 -7.774290684237133 A 16.909830056250534 16.909830056250534 0 0 0 -17.639320225002102 -11.22569941448963"/>
<path fill="none" stroke="#000" d="M -15.421037533937781 6.937863785644388 A 16.909830056250524 16.909830056250524 0 0 0 -13.680339887498947 9.939348725836059"/>
<path fill="none" stroke="#000" d="M -17.639320225002102 11.22569941448963 A 16.909830056250534 16.909830056250534 0 0 0 -17.995294829787234 7.774290684237133"/>
<path fill="none" stroke="#000" d="M -15.421037533937781 -6.9378637856443905 A 16.909830056250534 16.909830056250534 0 0 0 -16.909830056250527 0.0"/>
<path fill="none" stroke="#000" d="M -18.422025984384202 -2.081359135693318 A 16.90983005625053 16.90983005625053 0 0 0 -11.36366323138596 -1.3533671510277276"/>
<path fill="none" stroke="#000" d="M -16.909830056250527 0.0 A 16.909830056250534 16.909830056250534 0 0 0 -15.421037533937781 6.9378637856443905"/>
<path fill="none" stroke="#000" d="M -11.36366323138596 1.3533671510277276 A 16.90983005625053 16.90983005625053 0 0 0 -18.422025984384202 2.081359135693318"/>
<path fill="none" stroke="#000" d="M -15.421037533937774 -29.389262614623657 A 16.90983005625052 16.90983005625052 0 0 0 -16.90983005625052 -22.451398828979272"/>
<path fill="none" stroke="#000" d="M -18.422025984384195 -24.532757964672587 A 16.90983005625052 16.90983005625052 0 0 0 -11.363663231385958 -23.804765980006998"/>
<path fill="none" stroke="#000" d="M -16.90983005625052 22.451398828979272 A 16.90983005625052 16.90983005625052 0 0 0 -15.421037533937774 29.389262614623657"/>
<path fill="none" stroke="#000" d="M -11.363663231385958 23.804765980006998 A 16.90983005625052 16.90983005625052 0 0 0 -18.422025984384195 24.532757964672587"/>
<path fill="none" stroke="#000" d="M -16.55385545146539 -18.999990098726773 A 16.90983005625053 16.90983005625053 0 0 0 -13.680339887498947 -12.512050103143206"/>
<path fill="none" stroke="#000" d="M -16.127124296868427 -13.307058550182951 A 16.909830056250534 16.909830056250534 0 0 0 -9.98888592485615 -16.86690219436261"/>
<path fill="none" stroke="#000" d="M -13.680339887498947 12.512050103143206 A 16.90983005625053 16.90983005625053 0 0 0 -16.55385545146539 18.999990098726773"/>
<path fill="none" stroke="#000" d="M -9.98888592485615 16.86690219436261 A 16.909830056250534 16.909830056250534 0 0 0 -16.127124296868427 13.307058550182951"/>
<path fill="none" stroke="#000" d="M -7.971176265636828 2.081359135693318 A 16.909830056250527 16.909830056250527 0 0 0 -11.36366323138596 1.3533671510277276"/>
<path fill="none" stroke="#000" d="M -11.36366323138596 -1.3533671510277276 A 16.90983005625053 16.90983005625053 0 0 0 -7.971176265636829 -2.081359135693318"/>
<path fill="none" stroke="#000" d="M -13.680339887498947 -12.512050103143206 A 16.90983005625053 16.90983005625053 0 0 0 -8.397907420233793 -7.774290684237139"/>
<path fill="none" stroke="#000" d="M -8.397907420233793 -14.677108144742133 A 16.90983005625052 16.90983005625052 0 0 0 -13.680339887498947 -9.939348725836059"/>
<path fill="none" stroke="#000" d="M -8.397907420233793 7.774290684237139 A 16.90983005625053 16.90983005625053 0 0 0 -13.680339887498947 12.512050103143206"/>
<path fill="none" stroke="#000" d="M -13.680339887498947 9.939348725836059 A 16.90983005625052 16.90983005625052 0 0 0 -8.397907420233793 14.677108144742133"/>
<path fill="none" stroke="#000" d="M -9.988885924856149 -16.86690219436261 A 16.909830056250534 16.909830056250534 0 0 0 -7.672209268743162 -19.4499138887876"/>
<path fill="none" stroke="#000" d="M -5.225424859373681 -16.082204064440702 A 16.909830056250534 16.909830056250534 0 0 0 -8.397907420233793 -14.677108144742132"/>
<path fill="none" stroke="#000" d="M -7.672209268743162 19.4499138887876 A 16.909830056250534 16.909830056250534 0 0 0 -9.988885924856149 16.86690219436261"/>
<path fill="none" stroke="#000" d="M -8.397907420233793 14.677108144742132 A 16.909830056250534 16.909830056250534 0 0 0 -5.225424859373681 16.082204064440702"/>
<path fill="none" stroke="#000" d="M -11.363663231385956 -23.80476598000699 A 16.909830056250534 16.909830056250534 0 0 0 -5.225424859373681 -20.24492233582734"/>
<path fill="none" stroke="#000" d="M -7.672209268743161 -19.449913888787595 A 16.909830056250517 16.909830056250517 0 0 0 -4.798693704776715 -25.93785388437116"/>
<path fill="none" stroke="#000" d="M -5.225424859373681 20.24492233582734 A 16.909830056250534 16.909830056250534 0 0 0 -11.363663231385956 23.80476598000699"/>
<path fill="none" stroke="#000" d="M -4.798693704776715 25.93785388437116 A 16.909830056250517 16.909830056250517 0 0 0 -7.672209268743161 19.449913888787595"/>
<path fill="none" stroke="#000" d="M -8.397907420233794 -7.774290684237137 A 16.909830056250534 16.909830056250534 0 0 0 -5.524391856267347 -1.2863506886535747"/>
<path fill="none" stroke="#000" d="M -7.971176265636829 -2.081359135693317 A 16.90983005625053 16.90983005625053 0 0 0 -1.832937893624548 -5.641202779872975"/>
<path fill="none" stroke="#000" d="M -5.524391856267347 1.2863506886535747 A 16.909830056250534 16.909830056250534 0 0 0 -8.397907420233794 7.774290684237137"/>
<path fill="none" stroke="#000" d="M -1.832937893624548 5.641202779872975 A 16.90983005625053 16.90983005625053 0 0 0 -7.971176265636829 2.081359135693317"/>
<path fill="none" stroke="#000" d="M -1.8329378936245493 -16.810196049106295 A 16.909830056250513 16.909830056250513 0 0 0 -5.225424859373681 -16.082204064440706"/>
<path fill="none" stroke="#000" d="M -5.225424859373681 -20.244922335827336 A 16.909830056250513 16.909830056250513 0 0 0 -1.8329378936245493 -19.516930351161747"/>
<path fill="none" stroke="#000" d="M -5.225424859373681 16.082204064440706 A 16.909830056250513 16.909830056250513 0 0 0 -1.8329378936245493 16.810196049106295"/>
<path fill="none" stroke="#000" d="M -1.8329378936245493 19.516930351161747 A 16.909830056250513 16.909830056250513 0 0 0 -5.225424859373681 20.244922335827336"/>
<path fill="none" stroke="#000" d="M 0.4837387624884375 -28.102911925970083 A 16.90983005625052 16.90983005625052 0 0 0 -4.7986937047767135 -32.84067134487615"/>
<path fill="none" stroke="#000" d="M -4.798693704776715 -25.93785388437116 A 16.909830056250517 16.909830056250517 0 0 0 0.4837387624884384 -30.675613303277228"/>
<path fill="none" stroke="#000" d="M -4.7986937047767135 32.84067134487615 A 16.90983005625052 16.90983005625052 0 0 0 0.4837387624884375 28.102911925970083"/>
<path fill="none" stroke="#000" d="M 0.4837387624884384 30.675613303277228 A 16.909830056250517 16.909830056250517 0 0 0 -4.798693704776715 25.93785388437116"/>
<path fill="none" stroke="#000" d="M -0.2419593890021936 -3.4514087302525005 A 16.909830056250534 16.909830056250534 0 0 0 -5.524391856267347 1.2863506886535747"/>
<path fill="none" stroke="#000" d="M -5.524391856267348 -1.2863506886535747 A 16.909830056250534 16.909830056250534 0 0 0 -0.24195938900219272 3.4514087302525005"/>
<path fill="none" stroke="#000" d="M 2.930523171857919 -4.856504649951073 A 16.909830056250534 16.909830056250534 0 0 0 -0.24195938900219272 -3.4514087302525005"/>
<path fill="none" stroke="#000" d="M -1.832937893624549 -5.641202779872976 A 16.90983005625053 16.90983005625053 0 0 0 0.48373876248843795 -8.224214474297966"/>
<path fill="none" stroke="#000" d="M -0.24195938900219272 3.4514087302525005 A 16.909830056250534 16.909830056250534 0 0 0 2.930523171857919 4.856504649951073"/>
<path fill="none" stroke="#000" d="M 0.48373876248843795 8.224214474297966 A 16.90983005625053 16.90983005625053 0 0 0 -1.832937893624549 5.641202779872976"/>
<path fill="none" stroke="#000" d="M 5.22542485937369 -38.53360289341997 A 16.909830056250524 16.909830056250524 0 0 0 -1.8329378936245493 -39.26159487808557"/>
<path fill="none" stroke="#000" d="M 2.2244364089272706 -33.6770982434689 A 16.909830056250527 16.909830056250527 0 0 0 3.713228931240015 -40.614962029113286"/>
<path fill="none" stroke="#000" d="M 3.713228931240015 -18.163563200134025 A 16.909830056250527 16.909830056250527 0 0 0 2.2244364089272706 -25.101426985778417"/>
<path fill="none" stroke="#000" d="M -1.8329378936245493 -19.516930351161747 A 16.90983005625053 16.90983005625053 0 0 0 5.22542485937369 -20.244922335827344"/>
<path fill="none" stroke="#000" d="M 5.22542485937369 -16.08220406444071 A 16.909830056250527 16.909830056250527 0 0 0 -1.8329378936245493 -16.8101960491063"/>
<path fill="none" stroke="#000" d="M 2.2244364089272706 -11.225699414489634 A 16.909830056250527 16.909830056250527 0 0 0 3.713228931240015 -18.163563200134025"/>
<path fill="none" stroke="#000" d="M -1.8329378936245493 16.8101960491063 A 16.909830056250527 16.909830056250527 0 0 0 5.22542485937369 16.08220406444071"/>
<path fill="none" stroke="#000" d="M 3.713228931240015 18.163563200134025 A 16.909830056250527 16.909830056250527 0 0 0 2.2244364089272706 11.225699414489634"/>
<path fill="none" stroke="#000" d="M 2.2244364089272706 25.101426985778417 A 16.909830056250527 16.909830056250527 0 0 0 3.713228931240015 18.163563200134025"/>
<path fill="none" stroke="#000" d="M 5.22542485937369 20.244922335827344 A 16.90983005625053 16.90983005625053 0 0 0 -1.8329378936245493 19.516930351161747"/>
<path fill="none" stroke="#000" d="M -1.8329378936245493 39.26159487808557 A 16.909830056250524 16.909830056250524 0 0 0 5.22542485937369 38.53360289341997"/>
<path fill="none" stroke="#000" d="M 3.713228931240015 40.614962029113286 A 16.909830056250527 16.909830056250527 0 0 0 2.2244364089272706 33.6770982434689"/>
<path fill="none" stroke="#000" d="M 0.4837387624884375 -30.67561330327723 A 16.909830056250534 16.909830056250534 0 0 0 2.2244364089272706 -33.6770982434689"/>
<path fill="none" stroke="#000" d="M 4.798693704776724 -32.84067134487615 A 16.909830056250527 16.909830056250527 0 0 0 4.442719099991593 -29.38926261462365"/>
<path fill="none" stroke="#000" d="M 4.442719099991593 -29.389262614623654 A 16.909830056250524 16.909830056250524 0 0 0 4.798693704776724 -25.937853884371158"/>
<path fill="none" stroke="#000" d="M 2.2244364089272706 -25.10142698577841 A 16.909830056250517 16.909830056250517 0 0 0 0.4837387624884384 -28.10291192597008"/>
<path fill="none" stroke="#000" d="M 0.4837387624884375 -8.224214474297964 A 16.90983005625053 16.90983005625053 0 0 0 2.2244364089272706 -11.225699414489636"/>
<path fill="none" stroke="#000" d="M 4.798693704776724 -10.389272515896888 A 16.909830056250527 16.909830056250527 0 0 0 4.442719099991593 -6.93786378564439"/>
<path fill="none" stroke="#000" d="M 2.2244364089272706 11.225699414489636 A 16.90983005625053 16.90983005625053 0 0 0 0.4837387624884375 8.224214474297964"/>
<path fill="none" stroke="#000" d="M 4.442719099991593 6.93786378564439 A 16.909830056250527 16.909830056250527 0 0 0 4.798693704776724 10.389272515896888"/>
<path fill="none" stroke="#000" d="M 4.798693704776724 25.937853884371158 A 16.909830056250524 16.909830056250524 0 0 0 4.442719099991593 29.389262614623654"/>
<path fill="none" stroke="#000" d="M 0.4837387624884384 28.10291192597008 A 16.909830056250517 16.909830056250517 0 0 0 2.2244364089272706 25.10142698577841"/>
<path fill="none" stroke="#000" d="M 2.2244364089272706 33.6770982434689 A 16.909830056250534 16.909830056250534 0 0 0 0.4837387624884375 30.67561330327723"/>
<path fill="none" stroke="#000" d="M 4.442719099991593 29.38926261462365 A 16.909830056250527 16.909830056250527 0 0 0 4.798693704776724 32.84067134487615"/>
<path fill="none" stroke="#000" d="M 9.98888592485616 -5.584496634616663 A 16.909830056250534 16.909830056250534 0 0 0 2.930523171857919 -4.856504649951073"/>
<path fill="none" stroke="#000" d="M 4.442719099991594 -6.9378637856443905 A 16.909830056250534 16.909830056250534 0 0 0 5.931511622304339 0.0"/>
<path fill="none" stroke="#000" d="M 2.930523171857919 4.856504649951073 A 16.909830056250534 16.909830056250534 0 0 0 9.98888592485616 5.584496634616663"/>
<path fill="none" stroke="#000" d="M 5.931511622304339 0.0 A 16.909830056250534 16.909830056250534 0 0 0 4.442719099991594 6.9378637856443905"/>
<path fill="none" stroke="#000" d="M 9.988885924856156 -41.9116230348847 A 16.909830056250517 16.909830056250517 0 0 0 7.672209268743169 -39.328611340459716"/>
<path fill="none" stroke="#000" d="M 5.225424859373691 -42.696321164806605 A 16.90983005625051 16.90983005625051 0 0 0 8.3979074202338 -44.10141708450517"/>
<path fill="none" stroke="#000" d="M 11.363663231385965 -34.97375924924032 A 16.909830056250524 16.909830056250524 0 0 0 5.22542485937369 -38.53360289341997"/>
<path fill="none" stroke="#000" d="M 7.6722092687431696 -39.328611340459716 A 16.90983005625052 16.90983005625052 0 0 0 4.798693704776724 -32.84067134487615"/>
<path fill="none" stroke="#000" d="M 5.22542485937369 -20.24492233582734 A 16.90983005625052 16.90983005625052 0 0 0 11.363663231385965 -23.804765980006994"/>
<path fill="none" stroke="#000" d="M 4.798693704776724 -25.937853884371158 A 16.90983005625052 16.90983005625052 0 0 0 7.6722092687431696 -19.4499138887876"/>
<path fill="none" stroke="#000" d="M 11.363663231385965 23.804765980006994 A 16.90983005625052 16.90983005625052 0 0 0 5.22542485937369 20.24492233582734"/>
<path fill="none" stroke="#000" d="M 7.6722092687431696 19.4499138887876 A 16.90983005625052 16.90983005625052 0 0 0 4.798693704776724 25.937853884371158"/>
<path fill="none" stroke="#000" d="M 5.22542485937369 38.53360289341997 A 16.909830056250524 16.909830056250524 0 0 0 11.363663231385965 34.97375924924032"/>
<path fill="none" stroke="#000" d="M 4.798693704776724 32.84067134487615 A 16.90983005625052 16.90983005625052 0 0 0 7.6722092687431696 39.328611340459716"/>
<path fill="none" stroke="#000" d="M 7.672209268743169 39.328611340459716 A 16.909830056250517 16.909830056250517 0 0 0 9.988885924856156 41.9116230348847"/>
<path fill="none" stroke="#000" d="M 8.3979074202338 44.10141708450517 A 16.90983005625051 16.90983005625051 0 0 0 5.225424859373691 42.696321164806605"/>
<path fill="none" stroke="#000" d="M 11.363663231385969 -12.52236042026105 A 16.909830056250527 16.909830056250527 0 0 0 5.22542485937369 -16.08220406444071"/>
<path fill="none" stroke="#000" d="M 7.67220926874317 -16.87721251148045 A 16.909830056250534 16.909830056250534 0 0 0 4.798693704776725 -10.389272515896888"/>
<path fill="none" stroke="#000" d="M 5.22542485937369 16.08220406444071 A 16.909830056250527 16.909830056250527 0 0 0 11.363663231385969 12.52236042026105"/>
<path fill="none" stroke="#000" d="M 4.798693704776725 10.389272515896888 A 16.909830056250534 16.909830056250534 0 0 0 7.67220926874317 16.87721251148045"/>
<path fill="none" stroke="#000" d="M 7.67220926874317 -19.4499138887876 A 16.909830056250524 16.909830056250524 0 0 0 12.954641736008321 -14.712154469881524"/>
<path fill="none" stroke="#000" d="M 12.954641736008323 -21.61497193038652 A 16.909830056250524 16.909830056250524 0 0 0 7.6722092687431696 -16.87721251148045"/>
<path fill="none" stroke="#000" d="M 12.954641736008321 14.712154469881524 A 16.909830056250524 16.909830056250524 0 0 0 7.67220926874317 19.4499138887876"/>
<path fill="none" stroke="#000" d="M 7.6722092687431696 16.87721251148045 A 16.909830056250524 16.909830056250524 0 0 0 12.954641736008323 21.61497193038652"/>
<path fill="none" stroke="#000" d="M 16.553855451465395 -39.778535130520545 A 16.909830056250527 16.909830056250527 0 0 0 13.68033988749895 -46.2664751261041"/>
<path fill="none" stroke="#000" d="M 16.127124296868427 -45.47146667906436 A 16.909830056250513 16.909830056250513 0 0 0 9.988885924856156 -41.9116230348847"/>
<path fill="none" stroke="#000" d="M 13.68033988749895 46.2664751261041 A 16.909830056250527 16.909830056250527 0 0 0 16.553855451465395 39.778535130520545"/>
<path fill="none" stroke="#000" d="M 9.988885924856156 41.9116230348847 A 16.909830056250513 16.909830056250513 0 0 0 16.127124296868427 45.47146667906436"/>
<path fill="none" stroke="#000" d="M 11.363663231385967 -23.804765980006994 A 16.909830056250527 16.909830056250527 0 0 0 13.680339887498953 -26.38777767443198"/>
<path fill="none" stroke="#000" d="M 16.127124296868434 -23.02006785008509 A 16.909830056250524 16.909830056250524 0 0 0 12.954641736008323 -21.61497193038652"/>
<path fill="none" stroke="#000" d="M 13.680339887498954 -9.939348725836062 A 16.909830056250527 16.909830056250527 0 0 0 11.363663231385967 -12.522360420261052"/>
<path fill="none" stroke="#000" d="M 12.954641736008323 -14.712154469881526 A 16.909830056250534 16.909830056250534 0 0 0 16.127124296868434 -13.307058550182955"/>
<path fill="none" stroke="#000" d="M 16.127124296868434 -9.14434027879632 A 16.909830056250534 16.909830056250534 0 0 0 9.988885924856161 -5.584496634616663"/>
<path fill="none" stroke="#000" d="M 16.5538554514654 -3.4514087302524996 A 16.909830056250517 16.909830056250517 0 0 0 13.680339887498954 -9.939348725836064"/>
<path fill="none" stroke="#000" d="M 9.988885924856161 5.584496634616663 A 16.909830056250534 16.909830056250534 0 0 0 16.127124296868434 9.14434027879632"/>
<path fill="none" stroke="#000" d="M 13.680339887498954 9.939348725836064 A 16.909830056250517 16.909830056250517 0 0 0 16.5538554514654 3.4514087302524996"/>
<path fill="none" stroke="#000" d="M 11.363663231385967 12.522360420261052 A 16.909830056250527 16.909830056250527 0 0 0 13.680339887498954 9.939348725836062"/>
<path fill="none" stroke="#000" d="M 16.127124296868434 13.307058550182955 A 16.909830056250534 16.909830056250534 0 0 0 12.954641736008323 14.712154469881526"/>
<path fill="none" stroke="#000" d="M 13.680339887498953 26.38777767443198 A 16.909830056250527 16.909830056250527 0 0 0 11.363663231385967 23.804765980006994"/>
<path fill="none" stroke="#000" d="M 12.954641736008323 21.61497193038652 A 16.909830056250524 16.909830056250524 0 0 0 16.127124296868434 23.02006785008509"/>
<path fill="none" stroke="#000" d="M 18.422025984384206 -34.245767264574724 A 16.909830056250527 16.909830056250527 0 0 0 11.363663231385967 -34.97375924924032"/>
<path fill="none" stroke="#000" d="M 15.421037533937785 -29.389262614623654 A 16.909830056250524 16.909830056250524 0 0 0 16.90983005625053 -36.32712640026804"/>
<path fill="none" stroke="#000" d="M 11.363663231385967 34.97375924924032 A 16.909830056250527 16.909830056250527 0 0 0 18.422025984384206 34.245767264574724"/>
<path fill="none" stroke="#000" d="M 16.90983005625053 36.32712640026804 A 16.909830056250524 16.909830056250524 0 0 0 15.421037533937785 29.389262614623654"/>
<path fill="none" stroke="#000" d="M 17.995294829787237 -28.552835716030906 A 16.909830056250527 16.909830056250527 0 0 0 17.63932022500211 -25.101426985778406"/>
<path fill="none" stroke="#000" d="M 13.680339887498953 -26.38777767443198 A 16.909830056250534 16.909830056250534 0 0 0 15.421037533937785 -29.389262614623654"/>
<path fill="none" stroke="#000" d="M 17.63932022500211 25.101426985778406 A 16.909830056250527 16.909830056250527 0 0 0 17.995294829787237 28.552835716030906"/>
<path fill="none" stroke="#000" d="M 15.421037533937785 29.389262614623654 A 16.909830056250534 16.909830056250534 0 0 0 13.680339887498953 26.38777767443198"/>
<path fill="none" stroke="#000" d="M 16.909830056250527 -36.32712640026804 A 16.909830056250527 16.909830056250527 0 0 0 16.5538554514654 -39.77853513052054"/>
<path fill="none" stroke="#000" d="M 19.12811274731485 -40.614962029113286 A 16.909830056250524 16.909830056250524 0 0 0 20.868810393753684 -37.61347708892161"/>
<path fill="none" stroke="#000" d="M 19.12811274731485 -4.287835628845247 A 16.909830056250527 16.909830056250527 0 0 0 20.868810393753687 -1.2863506886535743"/>
<path fill="none" stroke="#000" d="M 16.909830056250534 0.0 A 16.909830056250534 16.909830056250534 0 0 0 16.5538554514654 -3.4514087302524996"/>
<path fill="none" stroke="#000" d="M 20.868810393753687 1.2863506886535743 A 16.909830056250527 16.909830056250527 0 0 0 19.12811274731485 4.287835628845247"/>
<path fill="none" stroke="#000" d="M 16.5538554514654 3.4514087302524996 A 16.909830056250534 16.909830056250534 0 0 0 16.909830056250534 0.0"/>
<path fill="none" stroke="#000" d="M 16.5538554514654 39.77853513052054 A 16.909830056250527 16.909830056250527 0 0 0 16.909830056250527 36.32712640026804"/>
<path fill="none" stroke="#000" d="M 20.868810393753684 37.61347708892161 A 16.909830056250524 16.909830056250524 0 0 0 19.12811274731485 40.614962029113286"/>
<path fill="none" stroke="#000" d="M 23.18548704986667 -46.19945866372995 A 16.909830056250527 16.909830056250527 0 0 0 16.12712429686843 -45.471466679064356"/>
<path fill="none" stroke="#000" d="M 17.639320225002106 -47.552825814757675 A 16.90983005625053 16.90983005625053 0 0 0 19.12811274731485 -40.614962029113286"/>
<path fill="none" stroke="#000" d="M 16.12712429686843 45.471466679064356 A 16.909830056250527 16.909830056250527 0 0 0 23.18548704986667 46.19945866372995"/>
<path fill="none" stroke="#000" d="M 19.12811274731485 40.614962029113286 A 16.90983005625053 16.90983005625053 0 0 0 17.639320225002106 47.552825814757675"/>
<path fill="none" stroke="#000" d="M 17.63932022500211 -25.101426985778406 A 16.909830056250527 16.909830056250527 0 0 0 19.128112747314855 -18.16356320013402"/>
<path fill="none" stroke="#000" d="M 23.185487049866673 -23.748059834750677 A 16.909830056250524 16.909830056250524 0 0 0 16.127124296868434 -23.02006785008509"/>
<path fill="none" stroke="#000" d="M 19.12811274731486 -18.16356320013402 A 16.90983005625052 16.90983005625052 0 0 0 17.63932022500211 -11.225699414489636"/>
<path fill="none" stroke="#000" d="M 16.127124296868434 -13.307058550182953 A 16.90983005625052 16.90983005625052 0 0 0 23.18548704986667 -12.57906656551736"/>
<path fill="none" stroke="#000" d="M 23.185487049866673 -9.87233226346191 A 16.909830056250534 16.909830056250534 0 0 0 16.127124296868434 -9.14434027879632"/>
<path fill="none" stroke="#000" d="M 17.63932022500211 -11.225699414489638 A 16.909830056250534 16.909830056250534 0 0 0 19.12811274731485 -4.287835628845247"/>
<path fill="none" stroke="#000" d="M 16.127124296868434 9.14434027879632 A 16.909830056250534 16.909830056250534 0 0 0 23.185487049866673 9.87233226346191"/>
<path fill="none" stroke="#000" d="M 19.12811274731485 4.287835628845247 A 16.909830056250534 16.909830056250534 0 0 0 17.63932022500211 11.225699414489638"/>
<path fill="none" stroke="#000" d="M 17.63932022500211 11.225699414489636 A 16.90983005625052 16.90983005625052 0 0 0 19.12811274731486 18.16356320013402"/>
<path fill="none" stroke="#000" d="M 23.18548704986667 12.57906656551736 A 16.90983005625052 16.90983005625052 0 0 0 16.127124296868434 13.307058550182953"/>
<path fill="none" stroke="#000" d="M 19.128112747314855 18.16356320013402 A 16.909830056250527 16.909830056250527 0 0 0 17.63932022500211 25.101426985778406"/>
<path fill="none" stroke="#000" d="M 16.127124296868434 23.02006785008509 A 16.909830056250524 16.909830056250524 0 0 0 23.185487049866673 23.748059834750677"/>
<path fill="none" stroke="#000" d="M 24.560264356396484 -30.685923620395066 A 16.909830056250527 16.909830056250527 0 0 0 18.422025984384206 -34.245767264574724"/>
<path fill="none" stroke="#000" d="M 20.868810393753684 -35.040775711614465 A 16.909830056250534 16.909830056250534 0 0 0 17.995294829787237 -28.552835716030906"/>
<path fill="none" stroke="#000" d="M 18.422025984384206 34.245767264574724 A 16.909830056250527 16.909830056250527 0 0 0 24.560264356396484 30.685923620395066"/>
<path fill="none" stroke="#000" d="M 17.995294829787237 28.552835716030906 A 16.909830056250534 16.909830056250534 0 0 0 20.868810393753684 35.040775711614465"/>
<path fill="none" stroke="#000" d="M 26.151242861018833 -39.778535130520545 A 16.909830056250534 16.909830056250534 0 0 0 20.868810393753684 -35.040775711614465"/>
<path fill="none" stroke="#000" d="M 20.868810393753684 -37.61347708892162 A 16.909830056250524 16.909830056250524 0 0 0 26.15124286101884 -32.87571767001554"/>
<path fill="none" stroke="#000" d="M 26.577974015615805 -9.144340278796317 A 16.90983005625052 16.90983005625052 0 0 0 23.18548704986667 -9.872332263461907"/>
<path fill="none" stroke="#000" d="M 23.18548704986667 -12.579066565517362 A 16.909830056250534 16.909830056250534 0 0 0 26.5779740156158 -13.30705855018295"/>
<path fill="none" stroke="#000" d="M 23.18548704986667 9.872332263461907 A 16.90983005625052 16.90983005625052 0 0 0 26.577974015615805 9.144340278796317"/>
<path fill="none" stroke="#000" d="M 26.5779740156158 13.30705855018295 A 16.909830056250534 16.909830056250534 0 0 0 23.18548704986667 12.579066565517362"/>
<path fill="none" stroke="#000" d="M 20.868810393753684 35.040775711614465 A 16.909830056250534 16.909830056250534 0 0 0 26.151242861018833 39.778535130520545"/>
<path fill="none" stroke="#000" d="M 26.15124286101884 32.87571767001554 A 16.909830056250524 16.909830056250524 0 0 0 20.868810393753684 37.61347708892162"/>
<path fill="none" stroke="#000" d="M 26.151242861018844 -3.4514087302524996 A 16.909830056250527 16.909830056250527 0 0 0 20.868810393753687 1.2863506886535743"/>
<path fill="none" stroke="#000" d="M 20.86881039375369 -1.2863506886535743 A 16.90983005625053 16.90983005625053 0 0 0 26.15124286101884 3.4514087302524996"/>
<path fill="none" stroke="#000" d="M 26.87694101250947 -28.102911925970076 A 16.909830056250534 16.909830056250534 0 0 0 24.560264356396484 -30.685923620395066"/>
<path fill="none" stroke="#000" d="M 26.15124286101884 -32.87571767001554 A 16.90983005625053 16.90983005625053 0 0 0 29.32372542187895 -31.470621750316973"/>
<path fill="none" stroke="#000" d="M 29.75045657647592 -21.61497193038652 A 16.909830056250534 16.909830056250534 0 0 0 26.87694101250947 -28.102911925970076"/>
<path fill="none" stroke="#000" d="M 29.32372542187895 -27.30790347893034 A 16.909830056250524 16.909830056250524 0 0 0 23.185487049866673 -23.748059834750677"/>
<path fill="none" stroke="#000" d="M 26.87694101250947 28.102911925970076 A 16.909830056250534 16.909830056250534 0 0 0 29.75045657647592 21.61497193038652"/>
<path fill="none" stroke="#000" d="M 23.185487049866673 23.748059834750677 A 16.909830056250524 16.909830056250524 0 0 0 29.32372542187895 27.30790347893034"/>
<path fill="none" stroke="#000" d="M 24.560264356396484 30.685923620395066 A 16.909830056250534 16.909830056250534 0 0 0 26.87694101250947 28.102911925970076"/>
<path fill="none" stroke="#000" d="M 29.32372542187895 31.470621750316973 A 16.90983005625053 16.90983005625053 0 0 0 26.15124286101884 32.87571767001554"/>
<path fill="none" stroke="#000" d="M 31.34143508109827 -12.522360420261048 A 16.909830056250524 16.909830056250524 0 0 0 29.024758424985283 -9.939348725836059"/>
<path fill="none" stroke="#000" d="M 26.577974015615805 -13.307058550182948 A 16.90983005625052 16.90983005625052 0 0 0 29.750456576475912 -14.71215446988152"/>
<path fill="none" stroke="#000" d="M 29.024758424985283 9.939348725836059 A 16.909830056250524 16.909830056250524 0 0 0 31.34143508109827 12.522360420261048"/>
<path fill="none" stroke="#000" d="M 29.750456576475912 14.71215446988152 A 16.90983005625052 16.90983005625052 0 0 0 26.577974015615805 13.307058550182948"/>
<path fill="none" stroke="#000" d="M 32.71621238762808 -5.584496634616659 A 16.90983005625052 16.90983005625052 0 0 0 26.577974015615805 -9.144340278796317"/>
<path fill="none" stroke="#000" d="M 29.024758424985283 -9.939348725836059 A 16.909830056250527 16.909830056250527 0 0 0 26.151242861018844 -3.4514087302524996"/>
<path fill="none" stroke="#000" d="M 26.577974015615805 9.144340278796317 A 16.90983005625052 16.90983005625052 0 0 0 32.71621238762808 5.584496634616659"/>
<path fill="none" stroke="#000" d="M 26.151242861018844 3.4514087302524996 A 16.909830056250527 16.909830056250527 0 0 0 29.024758424985283 9.939348725836059"/>
<path fill="none" stroke="#000" d="M 29.32372542187895 -31.470621750316973 A 16.909830056250524 16.909830056250524 0 0 0 32.716212387628076 -30.74262976565138"/>
<path fill="none" stroke="#000" d="M 32.71621238762808 -28.035895463595928 A 16.909830056250527 16.909830056250527 0 0 0 29.32372542187895 -27.307903478930335"/>
<path fill="none" stroke="#000" d="M 35.032889043741065 -16.87721251148045 A 16.909830056250538 16.909830056250538 0 0 0 29.75045657647592 -21.61497193038652"/>
<path fill="none" stroke="#000" d="M 29.750456576475912 -14.71215446988152 A 16.909830056250513 16.909830056250513 0 0 0 35.032889043741065 -19.4499138887876"/>
<path fill="none" stroke="#000" d="M 29.75045657647592 21.61497193038652 A 16.909830056250538 16.909830056250538 0 0 0 35.032889043741065 16.87721251148045"/>
<path fill="none" stroke="#000" d="M 35.032889043741065 19.4499138887876 A 16.909830056250513 16.909830056250513 0 0 0 29.750456576475912 14.71215446988152"/>
<path fill="none" stroke="#000" d="M 32.716212387628076 30.74262976565138 A 16.909830056250524 16.909830056250524 0 0 0 29.32372542187895 31.470621750316973"/>
<path fill="none" stroke="#000" d="M 29.32372542187895 27.307903478930335 A 16.909830056250527 16.909830056250527 0 0 0 32.71621238762808 28.035895463595928"/>
<path fill="none" stroke="#000" d="M 37.47967345311055 -16.082204064440706 A 16.909830056250527 16.909830056250527 0 0 0 31.341435081098272 -12.522360420261052"/>
<path fill="none" stroke="#000" d="M 37.906404607707515 -10.389272515896888 A 16.909830056250524 16.909830056250524 0 0 0 35.032889043741065 -16.87721251148045"/>
<path fill="none" stroke="#000" d="M 31.341435081098272 12.522360420261052 A 16.909830056250527 16.909830056250527 0 0 0 37.47967345311055 16.082204064440706"/>
<path fill="none" stroke="#000" d="M 35.032889043741065 16.87721251148045 A 16.909830056250524 16.909830056250524 0 0 0 37.906404607707515 10.389272515896888"/>
<path fill="none" stroke="#000" d="M 38.26237921249264 -29.389262614623657 A 16.909830056250513 16.909830056250513 0 0 0 36.7735866901799 -36.32712640026804"/>
<path fill="none" stroke="#000" d="M 32.716212387628076 -30.742629765651383 A 16.90983005625052 16.90983005625052 0 0 0 39.77457514062631 -31.470621750316973"/>
<path fill="none" stroke="#000" d="M 36.7735866901799 -22.45139882897927 A 16.909830056250513 16.909830056250513 0 0 0 38.26237921249264 -29.389262614623657"/>
<path fill="none" stroke="#000" d="M 39.77457514062631 -27.307903478930342 A 16.909830056250527 16.909830056250527 0 0 0 32.716212387628076 -28.035895463595928"/>
<path fill="none" stroke="#000" d="M 38.26237921249264 29.389262614623657 A 16.909830056250513 16.909830056250513 0 0 0 36.7735866901799 22.45139882897927"/>
<path fill="none" stroke="#000" d="M 32.716212387628076 28.035895463595928 A 16.909830056250527 16.909830056250527 0 0 0 39.77457514062631 27.307903478930342"/>
<path fill="none" stroke="#000" d="M 36.7735866901799 36.32712640026804 A 16.909830056250513 16.909830056250513 0 0 0 38.26237921249264 29.389262614623657"/>
<path fill="none" stroke="#000" d="M 39.77457514062631 31.470621750316973 A 16.90983005625052 16.90983005625052 0 0 0 32.716212387628076 30.742629765651383"/>
<path fill="none" stroke="#000" d="M 39.77457514062632 -4.856504649951071 A 16.909830056250527 16.909830056250527 0 0 0 32.71621238762809 -5.58449663461666"/>
<path fill="none" stroke="#000" d="M 36.7735866901799 0.0 A 16.9098300562505 16.9098300562505 0 0 0 38.26237921249265 -6.937863785644387"/>
<path fill="none" stroke="#000" d="M 32.71621238762809 5.58449663461666 A 16.909830056250527 16.909830056250527 0 0 0 39.77457514062632 4.856504649951071"/>
<path fill="none" stroke="#000" d="M 38.26237921249265 6.937863785644387 A 16.9098300562505 16.9098300562505 0 0 0 36.7735866901799 0.0"/>
<path fill="none" stroke="#000" d="M 39.347843986029346 -21.614971930386524 A 16.909830056250513 16.909830056250513 0 0 0 38.99186938124422 -18.163563200134025"/>
<path fill="none" stroke="#000" d="M 35.032889043741065 -19.4499138887876 A 16.90983005625053 16.90983005625053 0 0 0 36.7735866901799 -22.451398828979272"/>
<path fill="none" stroke="#000" d="M 38.99186938124422 18.163563200134025 A 16.909830056250513 16.909830056250513 0 0 0 39.347843986029346 21.614971930386524"/>
<path fill="none" stroke="#000" d="M 36.7735866901799 22.451398828979272 A 16.90983005625053 16.90983005625053 0 0 0 35.032889043741065 19.4499138887876"/>
<path fill="none" stroke="#000" d="M 38.26237921249265 -6.937863785644387 A 16.909830056250534 16.909830056250534 0 0 0 37.906404607707515 -10.389272515896888"/>
<path fill="none" stroke="#000" d="M 40.480661903556964 -11.225699414489634 A 16.90983005625052 16.90983005625052 0 0 0 42.2213595499958 -8.22421447429796"/>
<path fill="none" stroke="#000" d="M 37.906404607707515 10.389272515896888 A 16.909830056250534 16.909830056250534 0 0 0 38.26237921249265 6.937863785644387"/>
<path fill="none" stroke="#000" d="M 42.2213595499958 8.22421447429796 A 16.90983005625052 16.90983005625052 0 0 0 40.480661903556964 11.225699414489634"/>
<path fill="none" stroke="#000" d="M 44.53803620610878 -16.810196049106295 A 16.909830056250527 16.909830056250527 0 0 0 37.47967345311055 -16.082204064440706"/>
<path fill="none" stroke="#000" d="M 38.99186938124422 -18.163563200134025 A 16.909830056250513 16.909830056250513 0 0 0 40.480661903556964 -11.225699414489636"/>
<path fill="none" stroke="#000" d="M 37.47967345311055 16.082204064440706 A 16.909830056250527 16.909830056250527 0 0 0 44.53803620610878 16.810196049106295"/>
<path fill="none" stroke="#000" d="M 40.480661903556964 11.225699414489636 A 16.909830056250513 16.909830056250513 0 0 0 38.99186938124422 18.163563200134025"/>
<path fill="none" stroke="#000" d="M 42.221359549995796 -28.102911925970083 A 16.909830056250524 16.909830056250524 0 0 0 39.347843986029346 -21.61497193038652"/>
<path fill="none" stroke="#000" d="M 45.91281351263859 -23.748059834750684 A 16.909830056250527 16.909830056250527 0 0 0 39.77457514062631 -27.307903478930342"/>
<path fill="none" stroke="#000" d="M 39.347843986029346 21.61497193038652 A 16.909830056250524 16.909830056250524 0 0 0 42.221359549995796 28.102911925970083"/>
<path fill="none" stroke="#000" d="M 39.77457514062631 27.307903478930342 A 16.909830056250527 16.909830056250527 0 0 0 45.91281351263859 23.748059834750684"/>
<path fill="none" stroke="#000" d="M 42.221359549995796 -8.22421447429796 A 16.90983005625051 16.90983005625051 0 0 0 44.53803620610878 -5.641202779872973"/>
<path fill="none" stroke="#000" d="M 42.94705770148643 -3.451408730252499 A 16.90983005625052 16.90983005625052 0 0 0 39.774575140626325 -4.856504649951071"/>
<path fill="none" stroke="#000" d="M 44.53803620610878 5.641202779872973 A 16.90983005625051 16.90983005625051 0 0 0 42.221359549995796 8.22421447429796"/>
<path fill="none" stroke="#000" d="M 39.774575140626325 4.856504649951071 A 16.90983005625052 16.90983005625052 0 0 0 42.94705770148643 3.451408730252499"/>
<path fill="none" stroke="#000" d="M 48.229490168751575 1.2863506886535743 A 16.909830056250524 16.909830056250524 0 0 0 42.94705770148643 -3.451408730252499"/>
<path fill="none" stroke="#000" d="M 42.94705770148643 3.451408730252499 A 16.909830056250524 16.909830056250524 0 0 0 48.229490168751575 -1.2863506886535743"/>
<path fill="none" stroke="#000" d="M 48.229490168751575 -21.165048140325695 A 16.909830056250527 16.909830056250527 0 0 0 45.91281351263859 -23.748059834750684"/>
<path fill="none" stroke="#000" d="M 47.50379201726095 -25.937853884371158 A 16.909830056250527 16.909830056250527 0 0 0 50.67627457812105 -24.53275796467259"/>
<path fill="none" stroke="#000" d="M 50.67627457812106 -20.370039693285953 A 16.90983005625054 16.90983005625054 0 0 0 44.53803620610878 -16.810196049106295"/>
<path fill="none" stroke="#000" d="M 51.103005732718024 -14.677108144742132 A 16.90983005625054 16.90983005625054 0 0 0 48.229490168751575 -21.1650481403257"/>
<path fill="none" stroke="#000" d="M 44.53803620610878 -5.641202779872972 A 16.90983005625053 16.90983005625053 0 0 0 50.67627457812106 -2.081359135693316"/>
<path fill="none" stroke="#000" d="M 48.229490168751575 -1.2863506886535738 A 16.90983005625054 16.90983005625054 0 0 0 51.103005732718024 -7.774290684237134"/>
<path fill="none" stroke="#000" d="M 50.67627457812106 2.081359135693316 A 16.90983005625053 16.90983005625053 0 0 0 44.53803620610878 5.641202779872972"/>
<path fill="none" stroke="#000" d="M 51.103005732718024 7.774290684237134 A 16.90983005625054 16.90983005625054 0 0 0 48.229490168751575 1.2863506886535738"/>
<path fill="none" stroke="#000" d="M 44.53803620610878 16.810196049106295 A 16.90983005625054 16.90983005625054 0 0 0 50.67627457812106 20.370039693285953"/>
<path fill="none" stroke="#000" d="M 48.229490168751575 21.1650481403257 A 16.90983005625054 16.90983005625054 0 0 0 51.103005732718024 14.677108144742132"/>
<path fill="none" stroke="#000" d="M 45.91281351263859 23.748059834750684 A 16.909830056250527 16.909830056250527 0 0 0 48.229490168751575 21.165048140325695"/>
<path fill="none" stroke="#000" d="M 50.67627457812105 24.53275796467259 A 16.909830056250527 16.909830056250527 0 0 0 47.50379201726095 25.937853884371158"/>
<path fill="none" stroke="#000" d="M 53.67726302856748 -15.51353504333488 A 16.909830056250534 16.909830056250534 0 0 0 55.41796067500631 -12.512050103143206"/>
<path fill="none" stroke="#000" d="M 51.45898033750316 -11.225699414489632 A 16.909830056250534 16.909830056250534 0 0 0 51.103005732718024 -14.677108144742132"/>
<path fill="none" stroke="#000" d="M 51.103005732718024 -7.774290684237134 A 16.909830056250534 16.909830056250534 0 0 0 51.45898033750316 -11.225699414489632"/>
<path fill="none" stroke="#000" d="M 55.41796067500631 -9.939348725836059 A 16.909830056250534 16.909830056250534 0 0 0 53.67726302856748 -6.937863785644387"/>
<path fill="none" stroke="#000" d="M 51.45898033750316 11.225699414489632 A 16.909830056250534 16.909830056250534 0 0 0 51.103005732718024 7.774290684237134"/>
<path fill="none" stroke="#000" d="M 53.67726302856748 6.937863785644387 A 16.909830056250534 16.909830056250534 0 0 0 55.41796067500631 9.939348725836059"/>
<path fill="none" stroke="#000" d="M 55.41796067500631 12.512050103143206 A 16.909830056250534 16.909830056250534 0 0 0 53.67726302856748 15.51353504333488"/>
<path fill="none" stroke="#000" d="M 51.103005732718024 14.677108144742132 A 16.909830056250534 16.909830056250534 0 0 0 51.45898033750316 11.225699414489632"/>
<path fill="none" stroke="#000" d="M 57.7346373311193 -21.098031677951546 A 16.90983005625054 16.90983005625054 0 0 0 50.67627457812106 -20.370039693285953"/>
<path fill="none" stroke="#000" d="M 52.18847050625473 -22.451398828979272 A 16.909830056250527 16.909830056250527 0 0 0 53.67726302856748 -15.51353504333488"/>
<path fill="none" stroke="#000" d="M 50.67627457812106 -2.081359135693316 A 16.90983005625053 16.90983005625053 0 0 0 57.7346373311193 -1.3533671510277268"/>
<path fill="none" stroke="#000" d="M 53.67726302856748 -6.937863785644387 A 16.909830056250527 16.909830056250527 0 0 0 52.18847050625473 0.0"/>
<path fill="none" stroke="#000" d="M 57.7346373311193 1.3533671510277268 A 16.90983005625053 16.90983005625053 0 0 0 50.67627457812106 2.081359135693316"/>
<path fill="none" stroke="#000" d="M 52.18847050625473 0.0 A 16.909830056250527 16.909830056250527 0 0 0 53.67726302856748 6.937863785644387"/>
<path fill="none" stroke="#000" d="M 50.67627457812106 20.370039693285953 A 16.90983005625054 16.90983005625054 0 0 0 57.7346373311193 21.098031677951546"/>
<path fill="none" stroke="#000" d="M 53.67726302856748 15.51353504333488 A 16.909830056250527 16.909830056250527 0 0 0 52.18847050625473 22.451398828979272"/>
<path fill="none" stroke="#000" d="M 61.12712429686843 2.081359135693316 A 16.90983005625052 16.90983005625052 0 0 0 57.7346373311193 1.3533671510277268"/>
<path fill="none" stroke="#000" d="M 57.734637331119295 -1.3533671510277268 A 16.90983005625053 16.90983005625053 0 0 0 61.12712429686842 -2.081359135693316"/>
<path fill="none" stroke="#000" d="M 55.41796067500631 -12.512050103143206 A 16.909830056250534 16.909830056250534 0 0 0 60.700393142271466 -7.774290684237133"/>
<path fill="none" stroke="#000" d="M 60.700393142271466 -14.677108144742132 A 16.909830056250524 16.909830056250524 0 0 0 55.41796067500631 -9.939348725836059"/>
<path fill="none" stroke="#000" d="M 60.700393142271466 7.774290684237133 A 16.909830056250534 16.909830056250534 0 0 0 55.41796067500631 12.512050103143206"/>
<path fill="none" stroke="#000" d="M 55.41796067500631 9.939348725836059 A 16.909830056250524 16.909830056250524 0 0 0 60.700393142271466 14.677108144742132"/>
<path fill="none" stroke="#000" d="M 60.70039314227146 -7.774290684237133 A 16.909830056250552 16.909830056250552 0 0 0 63.57390870623791 -1.2863506886535743"/>
<path fill="none" stroke="#000" d="M 61.12712429686842 -2.081359135693316 A 16.909830056250527 16.909830056250527 0 0 0 67.26536266888071 -5.641202779872973"/>
<path fill="none" stroke="#000" d="M 63.57390870623791 1.2863506886535743 A 16.909830056250552 16.909830056250552 0 0 0 60.70039314227146 7.774290684237133"/>
<path fill="none" stroke="#000" d="M 67.26536266888071 5.641202779872973 A 16.909830056250527 16.909830056250527 0 0 0 61.12712429686842 2.081359135693316"/>
<path fill="none" stroke="#000" d="M 68.85634117350304 -3.451408730252499 A 16.909830056250552 16.909830056250552 0 0 0 63.57390870623791 1.2863506886535743"/>
<path fill="none" stroke="#000" d="M 63.5739087062379 -1.2863506886535743 A 16.9098300562505 16.9098300562505 0 0 0 68.85634117350307 3.451408730252499"/>
<path fill="none" stroke="#000" d="M 72.02882373436317 -4.856504649951071 A 16.909830056250513 16.909830056250513 0 0 0 68.85634117350307 -3.451408730252499"/>
<path fill="none" stroke="#000" d="M 67.26536266888071 -5.641202779872973 A 16.9098300562505 16.9098300562505 0 0 0 69.5820393249937 -8.22421447429796"/>
<path fill="none" stroke="#000" d="M 68.85634117350307 3.451408730252499 A 16.909830056250513 16.909830056250513 0 0 0 72.02882373436317 4.856504649951071"/>
<path fill="none" stroke="#000" d="M 69.5820393249937 8.22421447429796 A 16.9098300562505 16.9098300562505 0 0 0 67.26536266888071 5.641202779872973"/>
<path fill="none" stroke="#000" d="M 79.08718648736142 -5.58449663461666 A 16.909830056250513 16.909830056250513 0 0 0 72.02882373436317 -4.856504649951071"/>
<path fill="none" stroke="#000" d="M 73.54101966249685 -6.937863785644387 A 16.909830056250527 16.909830056250527 0 0 0 75.02981218480959 0.0"/>
<path fill="none" stroke="#000" d="M 72.02882373436317 4.856504649951071 A 16.909830056250513 16.909830056250513 0 0 0 79.08718648736142 5.58449663461666"/>
<path fill="none" stroke="#000" d="M 75.02981218480959 0.0 A 16.909830056250527 16.909830056250527 0 0 0 73.54101966249685 6.937863785644387"/>
</g>
</svg>