<?xml version="1.0" encoding="utf-8"?>
<svg width="100%" height="100%" viewBox="-105.0 -105.0 210.0 210.0" preserveAspectRatio="xMidYMid meet" version="1.1" baseProfile="full" xmlns="http://www.w3.org/2000/svg">
<g style="stroke:#fff; stroke-width: 1.1803398874989488; stroke-linejoin: round;">
<path fill="#0035f3" fill-opacity="0.6" d="m-58.77852522924731,-19.098300562505255 l-13.875727571288778,-19.098300562505255 l-22.451398828979265,7.294901687515772 l13.875727571288778,19.098300562505255z"/>
<path fill="#08f" fill-opacity="0.6" d="m-72.65425280053609,-38.19660112501051 l13.875727571288778,19.098300562505255 l-7.105427357601002e-15,-23.60679774997897 l-13.875727571288778,-19.098300562505255z"/>
<path fill="#0035f3" fill-opacity="0.6" d="m-22.451398828979265,-54.508497187473715 l-13.87572757128877,19.098300562505266 l-22.45139882897928,-7.294901687515775 l13.87572757128877,-19.098300562505266z"/>
<path fill="#0035f3" fill-opacity="0.6" d="m-36.327126400268035,-11.803398874989481 l0.0,-23.606797749978966 l-22.45139882897928,-7.294901687515775 l-0.0,23.606797749978966z"/>
<path fill="#08f" fill-opacity="0.6" d="m-36.327126400268035,-35.41019662496845 l13.87572757128877,-19.098300562505266 l-3.552713678800501e-15,23.60679774997898 l-13.87572757128877,19.098300562505266z"/>
<path fill="#0035f3" fill-opacity="0.6" d="m0.0,-61.80339887498948 l-1.7763568394002505e-15,23.606797749978966 l-22.451398828979265,7.294901687515782 l1.7763568394002505e-15,-23.606797749978966z"/>
<path fill="#08f" fill-opacity="0.6" d="m-13.875727571288776,-19.098300562505255 l-22.451398828979258,7.2949016875157735 l13.875727571288767,-19.09830056250525 l22.451398828979258,-7.2949016875157735z"/>
<path fill="#0035f3" fill-opacity="0.6" d="m-36.327126400268035,-11.803398874989481 l22.451398828979258,-7.2949016875157735 l13.875727571288776,19.098300562505255 l-22.451398828979258,7.2949016875157735z"/>
<path fill="#0035f3" fill-opacity="0.6" d="m-1.7763568394002505e-15,-38.19660112501052 l-13.875727571288774,19.098300562505262 l13.875727571288776,19.098300562505255 l13.875727571288774,-19.098300562505262z"/>
<path fill="none" stroke="#000" d="M -88.37023198082157 -33.09016994374947 A 54.72135954999579 54.72135954999579 0 0 0 -76.85033595898562 -13.226413309820103"/>
<path fill="none" stroke="#000" d="M -69.94751849848063 -34.471100968142224 A 54.72135954999579 54.72135954999579 0 0 0 -90.94293335812871 -25.17220926874316"/>
<path fill="none" stroke="#000" d="M -58.778525229247315 -35.62305898749054 A 54.721359549995796 54.721359549995796 0 0 0 -69.94751849848063 -34.471100968142224"/>
<path fill="none" stroke="#000" d="M -72.65425280053609 -42.80157256908584 A 54.72135954999579 54.72135954999579 0 0 0 -62.941243500633945 -48.43458848123581"/>
<path fill="none" stroke="#000" d="M -40.523209558717596 -60.38038444015887 A 54.72135954999582 54.72135954999582 0 0 0 -52.04310558055353 -40.516627806229494"/>
<path fill="none" stroke="#000" d="M -54.615806957860684 -48.43458848123581 A 54.721359549995796 54.721359549995796 0 0 0 -33.620392098212584 -39.135696781836735"/>
<path fill="none" stroke="#000" d="M -52.04310558055353 -40.516627806229494 A 54.72135954999582 54.72135954999582 0 0 0 -54.39893713000636 -17.675286127674635"/>
<path fill="none" stroke="#000" d="M -36.327126400268035 -30.805225180893117 A 54.72135954999579 54.72135954999579 0 0 0 -58.778525229247315 -35.62305898749054"/>
<path fill="none" stroke="#000" d="M -33.620392098212584 -39.135696781836735 A 54.72135954999581 54.72135954999581 0 0 0 -22.45139882897927 -37.98373876248843"/>
<path fill="none" stroke="#000" d="M -26.614117100365903 -25.172209268743153 A 54.7213595499958 54.7213595499958 0 0 0 -36.327126400268035 -30.805225180893114"/>
<path fill="none" stroke="#000" d="M -18.071810729738317 -55.93151162230432 A 54.721359549995796 54.721359549995796 0 0 0 -15.715979180285487 -33.09016994374947"/>
<path fill="none" stroke="#000" d="M -22.45139882897927 -37.98373876248843 A 54.72135954999578 54.72135954999578 0 0 0 -2.8596868136948047e-15 -42.80157256908585"/>
<path fill="none" stroke="#000" d="M -18.255315670529722 -17.675286127674635 A 54.72135954999577 54.72135954999577 0 0 0 -26.6141171003659 -25.172209268743156"/>
<path fill="none" stroke="#000" d="M -15.71597918028549 -33.090169943749466 A 54.72135954999577 54.72135954999577 0 0 0 -11.168993269233324 -22.82380071937354"/>
<path fill="none" stroke="#000" d="M -25.158133131034713 3.5694015306474878 A 54.72135954999579 54.72135954999579 0 0 0 -4.162718271386634 -5.7294901687515765"/>
<path fill="none" stroke="#000" d="M -6.735419648693778 2.188470506254732 A 54.72135954999577 54.72135954999577 0 0 0 -18.255315670529722 -17.675286127674635"/>
<path fill="none" stroke="#000" d="M -4.162718271386634 -5.7294901687515765 A 54.72135954999579 54.72135954999579 0 0 0 11.16899326923332 -22.823800719373548"/>
<path fill="none" stroke="#000" d="M -11.168993269233322 -22.823800719373544 A 54.7213595499958 54.7213595499958 0 0 0 4.162718271386632 -5.72949016875158"/>
</g>
</svg>