<?xml version="1.0" encoding="utf-8"?>
<svg width="100%" height="100%" viewBox="-105.0 -105.0 210.0 210.0" preserveAspectRatio="xMidYMid meet" version="1.1" baseProfile="full" xmlns="http://www.w3.org/2000/svg">
<g style="stroke:#fff; stroke-width: 0.7294901687515776; stroke-linejoin: round;">
<path fill="#0035f3" fill-opacity="0.6" d="m-95.10565162951535,-30.901699437494738 l13.875727571288778,4.508497187473711 l8.575671257690487,-11.803398874989483 l-13.875727571288778,-4.508497187473711z"/>
<path fill="#08f" fill-opacity="0.6" d="m-67.35419648693781,-30.90169943749474 l-13.875727571288763,4.508497187473715 l8.575671257690487,-11.803398874989483 l13.875727571288763,-4.508497187473715z"/>
<path fill="#0035f3" fill-opacity="0.6" d="m-81.22992405822657,-26.393202250021027 l13.875727571288763,-4.508497187473715 l8.575671257690502,11.803398874989487 l-13.875727571288763,4.508497187473715z"/>
<path fill="#0035f3" fill-opacity="0.6" d="m-58.778525229247315,-42.705098312484225 l-8.575671257690495,11.803398874989483 l8.575671257690502,11.803398874989487 l8.575671257690495,-11.803398874989483z"/>
<path fill="#0035f3" fill-opacity="0.6" d="m-58.778525229247315,-42.705098312484225 l13.875727571288778,-4.508497187473708 l8.575671257690502,11.803398874989483 l-13.875727571288778,4.508497187473708z"/>
<path fill="#08f" fill-opacity="0.6" d="m-50.20285397155682,-16.311896062463195 l0.0,-14.589803375031543 l-8.575671257690487,11.803398874989483 l-0.0,14.589803375031543z"/>
<path fill="#0035f3" fill-opacity="0.6" d="m-44.90279765795854,-47.21359549995793 l13.875727571288778,4.508497187473708 l8.575671257690495,-11.80339887498949 l-13.875727571288778,-4.508497187473708z"/>
<path fill="#0035f3" fill-opacity="0.6" d="m-50.20285397155682,-30.901699437494738 l13.875727571288778,4.508497187473711 l7.105427357601002e-15,14.589803375031545 l-13.875727571288778,-4.508497187473711z"/>
<path fill="#08f" fill-opacity="0.6" d="m-31.02707008666976,-42.705098312484225 l-13.875727571288778,-4.508497187473708 l8.575671257690502,11.803398874989483 l13.875727571288778,4.508497187473708z"/>
<path fill="#08f" fill-opacity="0.6" d="m-36.32712640026804,-26.393202250021027 l13.875727571288774,-4.508497187473708 l-13.875727571288767,-4.508497187473715 l-13.875727571288774,4.508497187473708z"/>
<path fill="#08f" fill-opacity="0.6" d="m-13.875727571288778,-57.29490168751577 l0.0,14.58980337503155 l-8.575671257690487,-11.803398874989497 l-0.0,-14.58980337503155z"/>
<path fill="#0035f3" fill-opacity="0.6" d="m-22.45139882897927,-30.901699437494734 l-8.575671257690491,-11.80339887498949 l8.575671257690495,-11.80339887498949 l8.575671257690491,11.80339887498949z"/>
<path fill="#0035f3" fill-opacity="0.6" d="m-22.45139882897927,-30.901699437494734 l3.552713678800501e-15,14.58980337503154 l-13.87572757128877,4.508497187473713 l-3.552713678800501e-15,-14.58980337503154z"/>
<path fill="#0035f3" fill-opacity="0.6" d="m-13.875727571288772,-4.5084971874737105 l-8.575671257690493,-11.803398874989483 l-13.87572757128877,4.508497187473713 l8.575671257690493,11.803398874989483z"/>
<path fill="#0035f3" fill-opacity="0.6" d="m-13.875727571288778,-42.70509831248422 l13.875727571288778,-4.508497187473729 l0.0,-14.589803375031536 l-13.875727571288778,4.508497187473729z"/>
<path fill="#08f" fill-opacity="0.6" d="m-22.451398828979265,-16.311896062463195 l-3.552713678800501e-15,-14.58980337503154 l8.575671257690493,11.80339887498948 l3.552713678800501e-15,14.58980337503154z"/>
<path fill="#0035f3" fill-opacity="0.6" d="m-22.45139882897927,-30.901699437494734 l13.875727571288774,4.508497187473704 l8.575671257690493,-11.803398874989487 l-13.875727571288774,-4.508497187473704z"/>
<path fill="#08f" fill-opacity="0.6" d="m-8.575671257690495,-26.39320225002103 l8.575671257690495,11.803398874989485 l-13.875727571288776,-4.50849718747371 l-8.575671257690495,-11.803398874989485z"/>
<path fill="#08f" fill-opacity="0.6" d="m0.0,-47.21359549995795 l-13.875727571288778,4.508497187473729 l13.875727571288776,4.508497187473701 l13.875727571288778,-4.508497187473729z"/>
<path fill="#0035f3" fill-opacity="0.6" d="m0.0,0.0 l-13.875727571288772,-4.5084971874737105 l-3.552713678800501e-15,-14.589803375031543 l13.875727571288772,4.5084971874737105z"/>
<path fill="#0035f3" fill-opacity="0.6" d="m0.0,-14.589803375031545 l-8.575671257690495,-11.803398874989485 l8.575671257690493,-11.803398874989487 l8.575671257690495,11.803398874989485z"/>
<path fill="none" stroke="#000" d="M -75.22695417784323 -34.655581462513666 A 33.81966011250104 33.81966011250104 0 0 0 -88.20283416901036 -40.40261259044655"/>
<path fill="none" stroke="#000" d="M -83.93665836028202 -27.27267353722807 A 33.81966011250105 33.81966011250105 0 0 0 -76.81697107192272 -39.54915028125262"/>
<path fill="none" stroke="#000" d="M -70.06093078899326 -30.022228150287695 A 33.81966011250104 33.81966011250104 0 0 0 -75.22695417784323 -34.655581462513666"/>
<path fill="none" stroke="#000" d="M -68.49153452914945 -39.54915028125262 A 33.81966011250102 33.81966011250102 0 0 0 -65.68134268975231 -33.20418515953241"/>
<path fill="none" stroke="#000" d="M -74.32710659772157 -16.892289097069206 A 33.81966011250106 33.81966011250106 0 0 0 -61.35122660655446 -22.639320225002102"/>
<path fill="none" stroke="#000" d="M -62.94124350063394 -17.74575140626314 A 33.819660112501026 33.819660112501026 0 0 0 -70.06093078899326 -30.022228150287695"/>
<path fill="none" stroke="#000" d="M -61.35122660655446 -22.639320225002102 A 33.81966011250106 33.81966011250106 0 0 0 -51.87570776874231 -33.2041851595324"/>
<path fill="none" stroke="#000" d="M -65.68134268975231 -33.20418515953241 A 33.81966011250105 33.81966011250105 0 0 0 -56.20582385194016 -22.639320225002102"/>
<path fill="none" stroke="#000" d="M -51.87570776874231 -33.20418515953241 A 33.81966011250107 33.81966011250107 0 0 0 -38.89982777757518 -38.95121628746529"/>
<path fill="none" stroke="#000" d="M -40.489844671654666 -34.05764746872634 A 33.819660112501055 33.819660112501055 0 0 0 -47.60953196001399 -46.334124212750886"/>
<path fill="none" stroke="#000" d="M -56.20582385194016 -22.639320225002102 A 33.81966011250103 33.81966011250103 0 0 0 -50.20285397155682 -19.157924932124438"/>
<path fill="none" stroke="#000" d="M -51.875707768742316 -14.009410340425529 A 33.81966011250105 33.81966011250105 0 0 0 -58.77852522924731 -14.72135954999579"/>
<path fill="none" stroke="#000" d="M -25.024100206286413 -50.96747752497687 A 33.81966011250107 33.81966011250107 0 0 0 -37.99998019745354 -56.71450865290976"/>
<path fill="none" stroke="#000" d="M -33.73380438872521 -43.58456959969127 A 33.819660112501055 33.819660112501055 0 0 0 -26.6141171003659 -55.86104634371583"/>
<path fill="none" stroke="#000" d="M -50.20285397155681 -19.157924932124434 A 33.819660112501055 33.819660112501055 0 0 0 -36.327126400268035 -16.180339887498945"/>
<path fill="none" stroke="#000" d="M -40.489844671654666 -13.155948031231596 A 33.819660112501055 33.819660112501055 0 0 0 -39.033860702323494 -27.272673537228073"/>
<path fill="none" stroke="#000" d="M -38.89982777757518 -38.95121628746529 A 33.81966011250107 33.81966011250107 0 0 0 -33.73380438872521 -43.58456959969127"/>
<path fill="none" stroke="#000" d="M -29.354216289484263 -40.40261259044656 A 33.819660112501055 33.819660112501055 0 0 0 -32.164408128881405 -34.05764746872634"/>
<path fill="none" stroke="#000" d="M -32.164408128881405 -34.05764746872634 A 33.81966011250103 33.81966011250103 0 0 0 -33.62039209821259 -27.272673537228073"/>
<path fill="none" stroke="#000" d="M -39.033860702323494 -27.272673537228073 A 33.81966011250104 33.81966011250104 0 0 0 -40.489844671654666 -34.05764746872634"/>
<path fill="none" stroke="#000" d="M -13.875727571288778 -54.44887281785453 A 33.81966011250107 33.81966011250107 0 0 0 -19.878697451672117 -50.967477524976864"/>
<path fill="none" stroke="#000" d="M -22.451398828979265 -58.885438199983184 A 33.81966011250108 33.81966011250108 0 0 0 -15.54858136847427 -59.597387409553434"/>
<path fill="none" stroke="#000" d="M -15.54858136847427 -40.40261259044656 A 33.81966011250107 33.81966011250107 0 0 0 -25.024100206286413 -50.96747752497687"/>
<path fill="none" stroke="#000" d="M -19.878697451672117 -50.96747752497687 A 33.81966011250106 33.81966011250106 0 0 0 -29.354216289484263 -40.40261259044656"/>
<path fill="none" stroke="#000" d="M -33.62039209821259 -27.272673537228066 A 33.81966011250105 33.81966011250105 0 0 0 -32.164408128881405 -13.155948031231596"/>
<path fill="none" stroke="#000" d="M -36.327126400268035 -16.180339887498945 A 33.81966011250103 33.81966011250103 0 0 0 -22.45139882897926 -19.157924932124438"/>
<path fill="none" stroke="#000" d="M -32.164408128881405 -13.155948031231596 A 33.81966011250105 33.81966011250105 0 0 0 -25.04472084052209 -0.8794712872070432"/>
<path fill="none" stroke="#000" d="M -20.778545031793772 -14.009410340425529 A 33.81966011250105 33.81966011250105 0 0 0 -33.75442502296089 -8.262379212492636"/>
<path fill="none" stroke="#000" d="M 0.0 -57.42645786248002 A 33.819660112501026 33.819660112501026 0 0 0 -13.875727571288778 -54.448872817854514"/>
<path fill="none" stroke="#000" d="M -2.7067343020554535 -46.3341242127509 A 33.819660112501076 33.819660112501076 0 0 0 -4.162718271386634 -60.450849718747364"/>
<path fill="none" stroke="#000" d="M -22.451398828979265 -19.157924932124434 A 33.81966011250104 33.81966011250104 0 0 0 -16.448428948595925 -22.6393202250021"/>
<path fill="none" stroke="#000" d="M -13.875727571288774 -14.721359549995793 A 33.81966011250104 33.81966011250104 0 0 0 -20.77854503179377 -14.00941034042553"/>
<path fill="none" stroke="#000" d="M -2.5727013773071503 -34.655581462513666 A 33.819660112501055 33.819660112501055 0 0 0 -15.54858136847427 -40.40261259044655"/>
<path fill="none" stroke="#000" d="M -11.282405559745948 -27.272673537228073 A 33.81966011250104 33.81966011250104 0 0 0 -4.162718271386634 -39.54915028125263"/>
<path fill="none" stroke="#000" d="M -6.902817460504999 -24.090716527983364 A 33.81966011250105 33.81966011250105 0 0 0 -9.713009299902142 -17.745751406263143"/>
<path fill="none" stroke="#000" d="M -16.448428948595925 -22.639320225002102 A 33.81966011250106 33.81966011250106 0 0 0 -11.282405559745948 -27.272673537228076"/>
<path fill="none" stroke="#000" d="M -4.162718271386636 -39.54915028125263 A 33.81966011250103 33.81966011250103 0 0 0 -2.7067343020554535 -46.3341242127509"/>
<path fill="none" stroke="#000" d="M 2.7067343020554535 -46.3341242127509 A 33.819660112501076 33.819660112501076 0 0 0 4.162718271386632 -39.549150281252636"/>
<path fill="none" stroke="#000" d="M -2.8596868136948047e-15 -11.743774505370302 A 33.81966011250104 33.81966011250104 0 0 0 -13.875727571288774 -14.721359549995789"/>
<path fill="none" stroke="#000" d="M -9.713009299902144 -17.745751406263143 A 33.81966011250105 33.81966011250105 0 0 0 -11.168993269233319 -3.629025900266666"/>
<path fill="none" stroke="#000" d="M 6.902817460504998 -24.090716527983368 A 33.819660112501055 33.819660112501055 0 0 0 -2.5727013773071503 -34.655581462513666"/>
<path fill="none" stroke="#000" d="M 2.5727013773071468 -34.65558146251367 A 33.81966011250105 33.81966011250105 0 0 0 -6.902817460504999 -24.09071652798336"/>
</g>
</svg>