<?xml version="1.0" encoding="utf-8"?>
<svg width="100%" height="100%" viewBox="-105.0 -105.0 210.0 210.0" preserveAspectRatio="xMidYMid meet" version="1.1" baseProfile="full" xmlns="http://www.w3.org/2000/svg">
<g style="stroke:#fff; stroke-width: 1.9098300562505264; stroke-linejoin: round;">
<path fill="#0035f3" fill-opacity="0.6" d="m-50.0,-0.0 l30.90169943749474,0.0 l9.549150281252635,-29.389262614623657 l-30.90169943749474,-0.0z"/>
<path fill="#0035f3" fill-opacity="0.6" d="m-50.0,0.0 l30.90169943749474,0.0 l9.549150281252635,29.389262614623657 l-30.90169943749474,-0.0z"/>
<path fill="#08f" fill-opacity="0.6" d="m5.901699437494747,-18.163563200134025 l-25.000000000000007,18.163563200134025 l9.549150281252635,-29.389262614623657 l25.000000000000007,-18.163563200134025z"/>
<path fill="#08f" fill-opacity="0.6" d="m5.901699437494747,18.163563200134025 l-25.000000000000007,-18.163563200134025 l9.549150281252635,29.389262614623657 l25.000000000000007,18.163563200134025z"/>
<path fill="#0035f3" fill-opacity="0.6" d="m-19.09830056250526,0.0 l25.000000000000007,18.163563200134025 l25.000000000000007,-18.163563200134025 l-25.000000000000007,-18.163563200134025z"/>
<path fill="#0035f3" fill-opacity="0.6" d="m15.450849718747373,-47.552825814757675 l-9.549150281252626,29.38926261462365 l25.000000000000007,18.163563200134025 l9.549150281252626,-29.38926261462365z"/>
<path fill="#0035f3" fill-opacity="0.6" d="m15.450849718747373,47.552825814757675 l-9.549150281252626,-29.38926261462365 l25.000000000000007,-18.163563200134025 l9.549150281252626,29.38926261462365z"/>
<path fill="#08f" fill-opacity="0.6" d="m50.0,0.0 l-9.54915028125263,29.389262614623657 l-9.549150281252619,-29.389262614623657 l9.54915028125263,-29.389262614623657z"/>
<path fill="#0035f3" fill-opacity="0.6" d="m40.45084971874737,-29.389262614623657 l9.54915028125263,29.389262614623657 l30.90169943749474,0.0 l-9.54915028125263,-29.389262614623657z"/>
<path fill="#0035f3" fill-opacity="0.6" d="m40.45084971874737,29.389262614623657 l9.54915028125263,-29.389262614623657 l30.90169943749474,0.0 l-9.54915028125263,29.389262614623657z"/>
<path fill="none" stroke="#000" d="M -12.413895365628415 -20.57248383023656 A 71.63118960624632 71.63118960624632 0 0 0 -42.31359979718151 -23.656307364354983"/>
<path fill="none" stroke="#000" d="M -25.12628644141121 0.0 A 71.63118960624632 71.63118960624632 0 0 0 -18.819660112501047 -29.389262614623657"/>
<path fill="none" stroke="#000" d="M -42.31359979718151 23.656307364354983 A 71.63118960624632 71.63118960624632 0 0 0 -12.413895365628415 20.57248383023656"/>
<path fill="none" stroke="#000" d="M -18.819660112501047 29.389262614623657 A 71.63118960624632 71.63118960624632 0 0 0 -25.12628644141121 0.0"/>
<path fill="none" stroke="#000" d="M 1.0249564196076264 -14.620401999485823 A 71.63118960624632 71.63118960624632 0 0 0 -12.413895365628415 -20.57248383023656"/>
<path fill="none" stroke="#000" d="M -2.0491502812526203 -34.83833157466387 A 71.63118960624634 71.63118960624634 0 0 0 7.7644495159288915 -23.8965184504027"/>
<path fill="none" stroke="#000" d="M -12.413895365628415 20.57248383023656 A 71.63118960624632 71.63118960624632 0 0 0 1.0249564196076264 14.620401999485823"/>
<path fill="none" stroke="#000" d="M 7.7644495159288915 23.8965184504027 A 71.63118960624634 71.63118960624634 0 0 0 -2.0491502812526203 34.83833157466387"/>
<path fill="none" stroke="#000" d="M 23.40169943749475 5.449068960040208 A 71.63118960624634 71.63118960624634 0 0 0 1.0249564196076264 -14.620401999485823"/>
<path fill="none" stroke="#000" d="M 1.0249564196076264 14.620401999485823 A 71.63118960624634 71.63118960624634 0 0 0 23.40169943749475 -5.449068960040208"/>
<path fill="none" stroke="#000" d="M 23.40169943749475 -5.449068960040208 A 71.63118960624634 71.63118960624634 0 0 0 35.574106700860256 -32.932423815271854"/>
<path fill="none" stroke="#000" d="M 7.76444951592889 -23.8965184504027 A 71.6311896062463 71.6311896062463 0 0 0 33.76644452187054 -8.816778784387097"/>
<path fill="none" stroke="#000" d="M 35.574106700860256 32.932423815271854 A 71.63118960624634 71.63118960624634 0 0 0 23.40169943749475 5.449068960040208"/>
<path fill="none" stroke="#000" d="M 33.76644452187054 8.816778784387097 A 71.6311896062463 71.6311896062463 0 0 0 7.76444951592889 23.8965184504027"/>
<path fill="none" stroke="#000" d="M 48.137249921565854 5.732955250268674 A 71.63118960624632 71.63118960624632 0 0 0 33.76644452187054 8.816778784387097"/>
<path fill="none" stroke="#000" d="M 33.76644452187054 -8.816778784387097 A 71.63118960624632 71.63118960624632 0 0 0 48.13724992156586 -5.732955250268674"/>
<path fill="none" stroke="#000" d="M 71.63118960624632 0.0 A 71.63118960624632 71.63118960624632 0 0 0 65.32456327733615 -29.389262614623657"/>
<path fill="none" stroke="#000" d="M 48.13724992156586 -5.732955250268674 A 71.63118960624632 71.63118960624632 0 0 0 78.03695435311894 -8.816778784387097"/>
<path fill="none" stroke="#000" d="M 65.32456327733615 29.389262614623657 A 71.63118960624632 71.63118960624632 0 0 0 71.63118960624632 0.0"/>
<path fill="none" stroke="#000" d="M 78.03695435311894 8.816778784387097 A 71.63118960624632 71.63118960624632 0 0 0 48.13724992156586 5.732955250268674"/>
</g>
</svg>