<?xml version="1.0" encoding="utf-8"?>
<svg width="100%" height="100%" viewBox="-105.0 -105.0 210.0 210.0" preserveAspectRatio="xMidYMid meet" version="1.1" baseProfile="full" xmlns="http://www.w3.org/2000/svg">
<g style="stroke:#fff; stroke-width: 1.1803398874989488; stroke-linejoin: round;">
<path fill="#0035f3" fill-opacity="0.6" d="m-24.999999999999993,-18.163563200134025 l-5.901699437494749,18.163563200134025 l-19.09830056250526,0.0 l5.901699437494749,-18.163563200134025z"/>
<path fill="#0035f3" fill-opacity="0.6" d="m-24.999999999999993,18.163563200134025 l-5.901699437494749,-18.163563200134025 l-19.09830056250526,0.0 l5.901699437494749,18.163563200134025z"/>
<path fill="#08f" fill-opacity="0.6" d="m-30.90169943749474,0.0 l5.901699437494749,18.163563200134025 l5.9016994374947345,-18.163563200134025 l-5.901699437494749,-18.163563200134025z"/>
<path fill="#0035f3" fill-opacity="0.6" d="m-9.549150281252624,-29.389262614623657 l5.901699437494742,18.16356320013402 l-15.450849718747376,11.225699414489638 l-5.901699437494742,-18.16356320013402z"/>
<path fill="#0035f3" fill-opacity="0.6" d="m-9.549150281252624,29.389262614623657 l5.901699437494742,-18.16356320013402 l-15.450849718747376,-11.225699414489638 l-5.901699437494742,18.16356320013402z"/>
<path fill="#0035f3" fill-opacity="0.6" d="m11.803398874989494,0.0 l-15.450849718747376,11.225699414489638 l-15.450849718747376,-11.225699414489638 l15.450849718747376,-11.225699414489638z"/>
<path fill="#08f" fill-opacity="0.6" d="m-3.6474508437578823,-11.225699414489638 l15.450849718747376,11.225699414489638 l-5.901699437494747,-18.163563200134025 l-15.450849718747376,-11.225699414489638z"/>
<path fill="#08f" fill-opacity="0.6" d="m-3.6474508437578823,11.225699414489638 l15.450849718747376,-11.225699414489638 l-5.901699437494747,18.163563200134025 l-15.450849718747376,11.225699414489638z"/>
<path fill="#0035f3" fill-opacity="0.6" d="m-9.549150281252624,-29.389262614623657 l19.09830056250526,3.552713678800501e-15 l5.90169943749474,-18.16356320013402 l-19.09830056250526,-3.552713678800501e-15z"/>
<path fill="#0035f3" fill-opacity="0.6" d="m-9.549150281252624,29.389262614623657 l19.09830056250526,-3.552713678800501e-15 l5.90169943749474,18.16356320013402 l-19.09830056250526,3.552713678800501e-15z"/>
<path fill="#08f" fill-opacity="0.6" d="m9.549150281252633,-29.389262614623654 l-19.09830056250526,-3.552713678800501e-15 l15.45084971874737,11.225699414489632 l19.09830056250526,3.552713678800501e-15z"/>
<path fill="#08f" fill-opacity="0.6" d="m9.549150281252633,29.389262614623654 l-19.09830056250526,3.552713678800501e-15 l15.45084971874737,-11.225699414489632 l19.09830056250526,-3.552713678800501e-15z"/>
<path fill="#0035f3" fill-opacity="0.6" d="m30.901699437494752,-0.0 l-19.09830056250526,0.0 l-5.901699437494747,-18.163563200134025 l19.09830056250526,-0.0z"/>
<path fill="#0035f3" fill-opacity="0.6" d="m30.901699437494752,0.0 l-19.09830056250526,0.0 l-5.901699437494747,18.163563200134025 l19.09830056250526,-0.0z"/>
<path fill="#0035f3" fill-opacity="0.6" d="m25.000000000000007,-18.163563200134018 l-15.450849718747374,-11.225699414489636 l5.90169943749474,-18.16356320013402 l15.450849718747374,11.225699414489636z"/>
<path fill="#0035f3" fill-opacity="0.6" d="m25.000000000000007,18.163563200134018 l-15.450849718747374,11.225699414489636 l5.90169943749474,18.16356320013402 l15.450849718747374,-11.225699414489636z"/>
<path fill="#08f" fill-opacity="0.6" d="m30.901699437494745,-36.32712640026804 l-5.901699437494738,18.163563200134025 l15.450849718747364,-11.22569941448964 l5.901699437494738,-18.163563200134025z"/>
<path fill="#0035f3" fill-opacity="0.6" d="m30.901699437494752,-0.0 l15.45084971874736,-11.225699414489632 l-5.901699437494742,-18.163563200134025 l-15.45084971874736,11.225699414489632z"/>
<path fill="#0035f3" fill-opacity="0.6" d="m30.901699437494752,0.0 l15.45084971874736,11.225699414489632 l-5.901699437494742,18.163563200134025 l-15.45084971874736,-11.225699414489632z"/>
<path fill="#08f" fill-opacity="0.6" d="m30.901699437494745,36.32712640026804 l-5.901699437494738,-18.163563200134025 l15.450849718747364,11.22569941448964 l5.901699437494738,18.163563200134025z"/>
<path fill="#08f" fill-opacity="0.6" d="m46.35254915624211,-11.225699414489632 l19.098300562505266,0.0 l-15.450849718747378,11.225699414489632 l-19.098300562505266,-0.0z"/>
<path fill="#08f" fill-opacity="0.6" d="m46.35254915624211,11.225699414489632 l19.098300562505266,0.0 l-15.450849718747378,-11.225699414489632 l-19.098300562505266,-0.0z"/>
<path fill="#0035f3" fill-opacity="0.6" d="m65.45084971874738,-11.225699414489632 l-19.098300562505266,0.0 l-5.901699437494742,-18.163563200134025 l19.098300562505266,-0.0z"/>
<path fill="#0035f3" fill-opacity="0.6" d="m65.45084971874738,11.225699414489632 l-19.098300562505266,0.0 l-5.901699437494742,18.163563200134025 l19.098300562505266,-0.0z"/>
<path fill="#0035f3" fill-opacity="0.6" d="m80.90169943749474,0.0 l-15.450849718747364,11.225699414489632 l-15.450849718747378,-11.225699414489632 l15.450849718747364,-11.225699414489632z"/>
<path fill="none" stroke="#000" d="M -40.372800405636966 -18.163563200134025 A 44.27050983124842 44.27050983124842 0 0 0 -44.27050983124842 0.0"/>
<path fill="none" stroke="#000" d="M -48.229490168751575 -5.449068960040208 A 44.27050983124843 44.27050983124843 0 0 0 -29.75045657647591 -3.5431612006482016"/>
<path fill="none" stroke="#000" d="M -44.27050983124842 0.0 A 44.27050983124842 44.27050983124842 0 0 0 -40.372800405636966 18.163563200134025"/>
<path fill="none" stroke="#000" d="M -29.75045657647591 3.5431612006482016 A 44.27050983124843 44.27050983124843 0 0 0 -48.229490168751575 5.449068960040208"/>
<path fill="none" stroke="#000" d="M -20.86881039375368 5.449068960040208 A 44.27050983124842 44.27050983124842 0 0 0 -29.75045657647591 3.5431612006482016"/>
<path fill="none" stroke="#000" d="M -29.750456576475912 -3.5431612006482016 A 44.27050983124843 44.27050983124843 0 0 0 -20.868810393753684 -5.449068960040208"/>
<path fill="none" stroke="#000" d="M -21.986007060547024 -20.353357249754495 A 44.27050983124844 44.27050983124844 0 0 0 -14.463045646881046 -3.3677098243468917"/>
<path fill="none" stroke="#000" d="M -20.86881039375368 -5.449068960040208 A 44.270509831248425 44.270509831248425 0 0 0 -4.798693704776715 -14.768860615137836"/>
<path fill="none" stroke="#000" d="M -14.463045646881046 3.3677098243468917 A 44.27050983124844 44.27050983124844 0 0 0 -21.986007060547024 20.353357249754495"/>
<path fill="none" stroke="#000" d="M -4.798693704776715 14.768860615137836 A 44.270509831248425 44.270509831248425 0 0 0 -20.86881039375368 5.449068960040208"/>
<path fill="none" stroke="#000" d="M -0.6334579043049047 -9.035905364869164 A 44.27050983124844 44.27050983124844 0 0 0 -14.463045646881046 3.3677098243468917"/>
<path fill="none" stroke="#000" d="M -14.463045646881046 -3.3677098243468917 A 44.27050983124844 44.27050983124844 0 0 0 -0.6334579043049047 9.035905364869164"/>
<path fill="none" stroke="#000" d="M 7.672209268743171 -12.714494240093817 A 44.270509831248425 44.270509831248425 0 0 0 -0.6334579043049047 -9.035905364869164"/>
<path fill="none" stroke="#000" d="M -4.798693704776716 -14.76886061513784 A 44.27050983124843 44.27050983124843 0 0 0 1.2664445218705342 -21.531273024480917"/>
<path fill="none" stroke="#000" d="M -0.6334579043049047 9.035905364869164 A 44.270509831248425 44.270509831248425 0 0 0 7.672209268743171 12.714494240093817"/>
<path fill="none" stroke="#000" d="M 1.2664445218705342 21.531273024480917 A 44.27050983124843 44.27050983124843 0 0 0 -4.798693704776716 14.76886061513784"/>
<path fill="none" stroke="#000" d="M 13.68033988749895 -42.10375685471747 A 44.270509831248425 44.270509831248425 0 0 0 -4.798693704776716 -44.00966461410948"/>
<path fill="none" stroke="#000" d="M 5.823650124384347 -29.38926261462365 A 44.270509831248425 44.270509831248425 0 0 0 9.721359549995794 -47.552825814757675"/>
<path fill="none" stroke="#000" d="M -4.798693704776716 44.00966461410948 A 44.270509831248425 44.270509831248425 0 0 0 13.68033988749895 42.10375685471747"/>
<path fill="none" stroke="#000" d="M 9.721359549995794 47.552825814757675 A 44.270509831248425 44.270509831248425 0 0 0 5.823650124384347 29.38926261462365"/>
<path fill="none" stroke="#000" d="M 1.2664445218705342 -21.531273024480914 A 44.27050983124842 44.27050983124842 0 0 0 5.823650124384347 -29.389262614623654"/>
<path fill="none" stroke="#000" d="M 12.56314322070561 -27.19946856500318 A 44.27050983124843 44.27050983124843 0 0 0 11.631189606246327 -18.163563200134025"/>
<path fill="none" stroke="#000" d="M 5.823650124384347 29.389262614623654 A 44.27050983124842 44.27050983124842 0 0 0 1.2664445218705342 21.531273024480914"/>
<path fill="none" stroke="#000" d="M 11.631189606246327 18.163563200134025 A 44.27050983124843 44.27050983124843 0 0 0 12.56314322070561 27.19946856500318"/>
<path fill="none" stroke="#000" d="M 26.15124286101884 -14.620401999485823 A 44.270509831248425 44.270509831248425 0 0 0 7.672209268743171 -12.714494240093817"/>
<path fill="none" stroke="#000" d="M 11.631189606246327 -18.163563200134025 A 44.27050983124843 44.27050983124843 0 0 0 15.528899031857781 0.0"/>
<path fill="none" stroke="#000" d="M 7.672209268743171 12.714494240093817 A 44.270509831248425 44.270509831248425 0 0 0 26.15124286101884 14.620401999485823"/>
<path fill="none" stroke="#000" d="M 15.528899031857781 0.0 A 44.27050983124843 44.27050983124843 0 0 0 11.631189606246327 18.163563200134025"/>
<path fill="none" stroke="#000" d="M 29.750456576475916 -32.78396519961984 A 44.270509831248425 44.270509831248425 0 0 0 13.68033988749895 -42.10375685471747"/>
<path fill="none" stroke="#000" d="M 20.086104634371587 -44.185115990410786 A 44.27050983124843 44.27050983124843 0 0 0 12.563143220705609 -27.199468565003176"/>
<path fill="none" stroke="#000" d="M 13.68033988749895 42.10375685471747 A 44.270509831248425 44.270509831248425 0 0 0 29.750456576475916 32.78396519961984"/>
<path fill="none" stroke="#000" d="M 12.563143220705609 27.199468565003176 A 44.27050983124843 44.27050983124843 0 0 0 20.086104634371587 44.185115990410786"/>
<path fill="none" stroke="#000" d="M 35.81559480312316 -26.021552790276765 A 44.27050983124842 44.27050983124842 0 0 0 29.750456576475912 -32.78396519961984"/>
<path fill="none" stroke="#000" d="M 33.91569237694772 -38.51692044988852 A 44.27050983124842 44.27050983124842 0 0 0 42.22135954999579 -34.83833157466387"/>
<path fill="none" stroke="#000" d="M 42.221359549995796 -23.94019365458345 A 44.270509831248425 44.270509831248425 0 0 0 26.151242861018844 -14.620401999485823"/>
<path fill="none" stroke="#000" d="M 43.33855621678914 -9.035905364869159 A 44.270509831248404 44.270509831248404 0 0 0 35.81559480312316 -26.02155279027677"/>
<path fill="none" stroke="#000" d="M 26.151242861018844 14.620401999485823 A 44.270509831248425 44.270509831248425 0 0 0 42.221359549995796 23.94019365458345"/>
<path fill="none" stroke="#000" d="M 35.81559480312316 26.02155279027677 A 44.270509831248404 44.270509831248404 0 0 0 43.33855621678914 9.035905364869159"/>
<path fill="none" stroke="#000" d="M 29.750456576475912 32.78396519961984 A 44.27050983124842 44.27050983124842 0 0 0 35.81559480312316 26.021552790276765"/>
<path fill="none" stroke="#000" d="M 42.22135954999579 34.83833157466387 A 44.27050983124842 44.27050983124842 0 0 0 33.91569237694772 38.51692044988852"/>
<path fill="none" stroke="#000" d="M 50.0780493131104 -11.225699414489632 A 44.27050983124843 44.27050983124843 0 0 0 54.635254915624216 -3.36770982434689"/>
<path fill="none" stroke="#000" d="M 44.27050983124842 0.0 A 44.27050983124844 44.27050983124844 0 0 0 43.33855621678914 -9.035905364869159"/>
<path fill="none" stroke="#000" d="M 54.635254915624216 3.36770982434689 A 44.27050983124843 44.27050983124843 0 0 0 50.0780493131104 11.225699414489632"/>
<path fill="none" stroke="#000" d="M 43.33855621678914 9.035905364869159 A 44.27050983124844 44.27050983124844 0 0 0 44.27050983124842 0.0"/>
<path fill="none" stroke="#000" d="M 60.700393142271466 -25.846101413975454 A 44.270509831248425 44.270509831248425 0 0 0 42.221359549995796 -23.94019365458345"/>
<path fill="none" stroke="#000" d="M 46.18033988749895 -29.389262614623657 A 44.27050983124844 44.27050983124844 0 0 0 50.0780493131104 -11.225699414489632"/>
<path fill="none" stroke="#000" d="M 42.221359549995796 23.94019365458345 A 44.270509831248425 44.270509831248425 0 0 0 60.700393142271466 25.846101413975454"/>
<path fill="none" stroke="#000" d="M 50.0780493131104 11.225699414489632 A 44.27050983124844 44.27050983124844 0 0 0 46.18033988749895 29.389262614623657"/>
<path fill="none" stroke="#000" d="M 68.46484265820034 -9.035905364869159 A 44.27050983124843 44.27050983124843 0 0 0 54.635254915624216 3.36770982434689"/>
<path fill="none" stroke="#000" d="M 54.63525491562421 -3.36770982434689 A 44.270509831248404 44.270509831248404 0 0 0 68.46484265820035 9.035905364869159"/>
</g>
</svg>