<?xml version="1.0" encoding="utf-8"?>
<svg width="100%" height="100%" viewBox="-105.0 -105.0 210.0 210.0" preserveAspectRatio="xMidYMid meet" version="1.1" baseProfile="full" xmlns="http://www.w3.org/2000/svg">
<g style="stroke:#fff; stroke-width: 0.45084971874737145; stroke-linejoin: round;">
<path fill="#0035f3" fill-opacity="0.6" d="m-81.22992405822659,-35.41019662496845 l-5.300056313598262,7.294901687515772 l-8.575671257690502,-2.7864045000420603 l5.300056313598262,-7.294901687515772z"/>
<path fill="#08f" fill-opacity="0.6" d="m-86.52998037182485,-28.115294937452678 l5.300056313598262,-7.294901687515772 l1.4210854715202004e-14,9.016994374947423 l-5.300056313598262,7.294901687515772z"/>
<path fill="#0035f3" fill-opacity="0.6" d="m-72.65425280053609,-38.19660112501051 l0.0,9.01699437494742 l-8.575671257690487,2.786404500042064 l-0.0,-9.01699437494742z"/>
<path fill="#0035f3" fill-opacity="0.6" d="m-67.3541964869378,-21.88470506254731 l-5.30005631359829,-7.294901687515779 l-8.575671257690487,2.786404500042064 l5.30005631359829,7.294901687515779z"/>
<path fill="#08f" fill-opacity="0.6" d="m-72.65425280053609,-29.17960675006309 l5.30005631359829,7.294901687515779 l-1.4210854715202004e-14,-9.01699437494743 l-5.30005631359829,-7.294901687515779z"/>
<path fill="#0035f3" fill-opacity="0.6" d="m-72.65425280053609,-38.19660112501051 l8.575671257690502,2.7864045000420603 l5.300056313598269,-7.294901687515775 l-8.575671257690502,-2.7864045000420603z"/>
<path fill="#08f" fill-opacity="0.6" d="m-64.07858154284558,-35.41019662496845 l-8.575671257690502,-2.7864045000420603 l5.300056313598276,7.294901687515768 l8.575671257690502,2.7864045000420603z"/>
<path fill="#0035f3" fill-opacity="0.6" d="m-58.77852522924731,-19.098300562505255 l-8.575671257690487,-2.7864045000420568 l-1.4210854715202004e-14,-9.01699437494743 l8.575671257690487,2.7864045000420568z"/>
<path fill="#0035f3" fill-opacity="0.6" d="m-58.77852522924732,-28.115294937452678 l-5.300056313598262,-7.294901687515772 l5.300056313598269,-7.294901687515775 l5.300056313598262,7.294901687515772z"/>
<path fill="#0035f3" fill-opacity="0.6" d="m-44.90279765795853,-38.1966011250105 l-5.300056313598283,-7.294901687515782 l-8.575671257690502,2.7864045000420603 l5.300056313598283,7.294901687515782z"/>
<path fill="#08f" fill-opacity="0.6" d="m-50.20285397155681,-45.491502812526285 l5.300056313598283,7.294901687515782 l-7.105427357601002e-15,-9.01699437494743 l-5.300056313598283,-7.294901687515782z"/>
<path fill="#08f" fill-opacity="0.6" d="m-53.478468915649024,-35.41019662496845 l8.575671257690495,-2.786404500042053 l-5.30005631359829,7.294901687515765 l-8.575671257690495,2.786404500042053z"/>
<path fill="#0035f3" fill-opacity="0.6" d="m-58.77852522924731,-19.098300562505255 l8.575671257690495,-2.7864045000420568 l-7.105427357601002e-15,-9.016994374947426 l-8.575671257690495,2.7864045000420568z"/>
<path fill="#08f" fill-opacity="0.6" d="m-50.20285397155681,-21.88470506254731 l8.575671257690495,2.7864045000420568 l-8.575671257690502,2.7864045000420603 l-8.575671257690495,-2.7864045000420568z"/>
<path fill="#0035f3" fill-opacity="0.6" d="m-31.02707008666976,-51.722092687431655 l-5.300056313598283,7.294901687515782 l-8.575671257690495,-2.7864045000420603 l5.300056313598283,-7.294901687515782z"/>
<path fill="#0035f3" fill-opacity="0.6" d="m-36.327126400268035,-35.41019662496845 l-7.105427357601002e-15,-9.016994374947423 l-8.575671257690495,-2.7864045000420603 l7.105427357601002e-15,9.016994374947423z"/>
<path fill="#0035f3" fill-opacity="0.6" d="m-36.327126400268035,-35.41019662496845 l-5.30005631359829,7.294901687515772 l-8.575671257690495,-2.7864045000420603 l5.30005631359829,-7.294901687515772z"/>
<path fill="#0035f3" fill-opacity="0.6" d="m-41.62718271386632,-19.098300562505255 l-7.105427357601002e-15,-9.016994374947423 l-8.575671257690495,-2.7864045000420603 l7.105427357601002e-15,9.016994374947423z"/>
<path fill="#08f" fill-opacity="0.6" d="m-36.32712640026804,-44.42719099991587 l5.300056313598283,-7.294901687515782 l0.0,9.01699437494743 l-5.300056313598283,7.294901687515782z"/>
<path fill="#08f" fill-opacity="0.6" d="m-41.627182713866326,-28.115294937452678 l7.105427357601002e-15,9.016994374947423 l5.300056313598276,-7.294901687515772 l-7.105427357601002e-15,-9.016994374947423z"/>
<path fill="#0035f3" fill-opacity="0.6" d="m-36.327126400268035,-11.803398874989481 l-5.300056313598283,-7.2949016875157735 l-8.575671257690502,2.7864045000420603 l5.300056313598283,7.2949016875157735z"/>
<path fill="#0035f3" fill-opacity="0.6" d="m-22.451398828979265,-54.508497187473715 l-8.575671257690495,2.7864045000420603 l0.0,9.01699437494743 l8.575671257690495,-2.7864045000420603z"/>
<path fill="#08f" fill-opacity="0.6" d="m-27.751455142577548,-38.19660112501052 l-8.575671257690487,2.7864045000420674 l5.300056313598276,-7.294901687515775 l8.575671257690487,-2.7864045000420674z"/>
<path fill="#08f" fill-opacity="0.6" d="m-31.02707008666976,-28.115294937452674 l-5.300056313598276,-7.294901687515775 l-7.105427357601002e-15,9.016994374947423 l5.300056313598276,7.294901687515775z"/>
<path fill="#0035f3" fill-opacity="0.6" d="m-36.327126400268035,-11.803398874989481 l5.3000563135982794,-7.29490168751577 l-5.3000563135982866,-7.294901687515775 l-5.3000563135982794,7.29490168751577z"/>
<path fill="#0035f3" fill-opacity="0.6" d="m-36.327126400268035,-35.41019662496845 l8.575671257690487,-2.7864045000420674 l5.3000563135982794,7.294901687515782 l-8.575671257690487,2.7864045000420674z"/>
<path fill="#0035f3" fill-opacity="0.6" d="m-22.451398828979272,-45.49150281252629 l-5.300056313598276,7.294901687515775 l5.3000563135982794,7.294901687515782 l5.300056313598276,-7.294901687515775z"/>
<path fill="#0035f3" fill-opacity="0.6" d="m-31.027070086669756,-19.09830056250525 l8.575671257690491,-2.786404500042064 l-3.552713678800501e-15,-9.01699437494742 l-8.575671257690491,2.786404500042064z"/>
<path fill="#0035f3" fill-opacity="0.6" d="m-22.451398828979265,-54.508497187473715 l8.575671257690487,2.7864045000420674 l0.0,9.01699437494743 l-8.575671257690487,-2.7864045000420674z"/>
<path fill="#0035f3" fill-opacity="0.6" d="m-36.327126400268035,-11.803398874989481 l5.3000563135982794,-7.29490168751577 l8.575671257690491,2.7864045000420568 l-5.3000563135982794,7.29490168751577z"/>
<path fill="#08f" fill-opacity="0.6" d="m-13.875727571288778,-51.72209268743165 l8.575671257690495,-2.7864045000420603 l-8.575671257690495,-2.7864045000420603 l-8.575671257690495,2.7864045000420603z"/>
<path fill="#08f" fill-opacity="0.6" d="m-17.151342515380982,-38.19660112501051 l8.575671257690491,2.786404500042053 l-5.3000563135982866,-7.294901687515761 l-8.575671257690491,-2.786404500042053z"/>
<path fill="#08f" fill-opacity="0.6" d="m-22.451398828979265,-21.884705062547315 l8.57567125769049,2.7864045000420603 l-8.57567125769049,2.7864045000420603 l-8.57567125769049,-2.7864045000420603z"/>
<path fill="#0035f3" fill-opacity="0.6" d="m0.0,-61.80339887498948 l-5.300056313598283,7.294901687515775 l-8.575671257690495,-2.7864045000420603 l5.300056313598283,-7.294901687515775z"/>
<path fill="#0035f3" fill-opacity="0.6" d="m-8.575671257690491,-35.41019662496846 l-5.300056313598285,7.294901687515775 l-8.575671257690493,-2.786404500042053 l5.300056313598285,-7.294901687515775z"/>
<path fill="#0035f3" fill-opacity="0.6" d="m-13.875727571288776,-19.098300562505255 l-8.57567125769049,-2.7864045000420603 l-3.552713678800501e-15,-9.01699437494742 l8.57567125769049,2.7864045000420603z"/>
<path fill="#0035f3" fill-opacity="0.6" d="m-5.300056313598283,-54.50849718747371 l1.7763568394002505e-15,9.016994374947416 l-8.575671257690496,2.7864045000420745 l-1.7763568394002505e-15,-9.016994374947416z"/>
<path fill="#08f" fill-opacity="0.6" d="m-19.17578388488705,-11.803398874989483 l-8.575671257690495,2.7864045000420603 l5.3000563135982794,-7.294901687515772 l8.575671257690495,-2.7864045000420603z"/>
<path fill="#0035f3" fill-opacity="0.6" d="m-27.751455142577544,-9.016994374947423 l8.575671257690495,-2.7864045000420603 l5.300056313598278,7.294901687515773 l-8.575671257690495,2.7864045000420603z"/>
<path fill="#0035f3" fill-opacity="0.6" d="m-1.7763568394002505e-15,-38.19660112501052 l-5.3000563135982794,-7.294901687515775 l-8.575671257690496,2.7864045000420745 l5.3000563135982794,7.294901687515775z"/>
<path fill="#08f" fill-opacity="0.6" d="m-13.875727571288776,-28.11529493745268 l0.0,9.016994374947426 l5.300056313598281,-7.294901687515775 l-0.0,-9.016994374947426z"/>
<path fill="#0035f3" fill-opacity="0.6" d="m0.0,-61.80339887498948 l-5.300056313598283,7.294901687515775 l5.300056313598283,7.294901687515761 l5.300056313598283,-7.294901687515775z"/>
<path fill="#08f" fill-opacity="0.6" d="m-5.300056313598281,-45.49150281252629 l-1.7763568394002505e-15,-9.016994374947416 l5.300056313598283,7.294901687515761 l1.7763568394002505e-15,9.016994374947416z"/>
<path fill="#0035f3" fill-opacity="0.6" d="m-13.875727571288776,-19.098300562505255 l-5.300056313598274,7.294901687515772 l5.300056313598278,7.294901687515773 l5.300056313598274,-7.294901687515772z"/>
<path fill="#0035f3" fill-opacity="0.6" d="m-1.7763568394002505e-15,-38.19660112501052 l1.7763568394002505e-15,9.01699437494742 l-8.575671257690495,2.7864045000420674 l-1.7763568394002505e-15,-9.01699437494742z"/>
<path fill="#08f" fill-opacity="0.6" d="m-5.300056313598285,-21.884705062547322 l5.300056313598285,-7.294901687515775 l-8.575671257690495,2.7864045000420674 l-5.300056313598285,7.294901687515775z"/>
<path fill="#0035f3" fill-opacity="0.6" d="m-13.875727571288776,-19.098300562505255 l8.575671257690491,-2.7864045000420674 l5.300056313598285,7.294901687515777 l-8.575671257690491,2.7864045000420674z"/>
<path fill="#08f" fill-opacity="0.6" d="m-8.575671257690491,-2.78640450004206 l-3.552713678800501e-15,-9.016994374947423 l-5.300056313598278,7.294901687515773 l3.552713678800501e-15,9.016994374947423z"/>
<path fill="#0035f3" fill-opacity="0.6" d="m0.0,-29.179606750063098 l-5.300056313598285,7.294901687515775 l5.300056313598285,7.294901687515777 l5.300056313598285,-7.294901687515775z"/>
<path fill="#0035f3" fill-opacity="0.6" d="m-8.575671257690495,-11.803398874989483 l3.552713678800501e-15,9.016994374947423 l8.575671257690491,2.78640450004206 l-3.552713678800501e-15,-9.016994374947423z"/>
<path fill="#08f" fill-opacity="0.6" d="m0.0,-9.016994374947425 l-8.575671257690495,-2.7864045000420585 l8.575671257690495,-2.786404500042062 l8.575671257690495,2.7864045000420585z"/>
<path fill="none" stroke="#000" d="M -88.13274151873159 -37.653057977386936 A 20.90169943749476 20.90169943749476 0 0 0 -92.5329502522082 -30.06577808748212"/>
<path fill="none" stroke="#000" d="M -93.51563473543587 -33.09016994374947 A 20.901699437494706 20.901699437494706 0 0 0 -85.49609986695489 -29.538309372283297"/>
<path fill="none" stroke="#000" d="M -85.49609986695489 -29.538309372283297 A 20.901699437494738 20.901699437494738 0 0 0 -81.22992405822657 -29.098300562505255"/>
<path fill="none" stroke="#000" d="M -82.81994095230606 -24.204731743766295 A 20.90169943749471 20.90169943749471 0 0 0 -86.52998037182485 -26.35635236303859"/>
<path fill="none" stroke="#000" d="M -79.55707026104108 -35.95373977259202 A 20.901699437494734 20.901699437494734 0 0 0 -78.65722268091943 -27.229123600033645"/>
<path fill="none" stroke="#000" d="M -81.22992405822657 -29.098300562505255 A 20.901699437494738 20.901699437494738 0 0 0 -72.65425280053609 -30.93854932447718"/>
<path fill="none" stroke="#000" d="M -78.65722268091943 -27.229123600033645 A 20.901699437494734 20.901699437494734 0 0 0 -74.25701394744279 -19.641843710128825"/>
<path fill="none" stroke="#000" d="M -71.62037229566613 -27.756592315232467 A 20.901699437494766 20.901699437494766 0 0 0 -79.63990716414709 -24.204731743766292"/>
<path fill="none" stroke="#000" d="M -67.35419648693781 -28.196601125010513 A 20.901699437494756 20.901699437494756 0 0 0 -71.62037229566613 -27.756592315232467"/>
<path fill="none" stroke="#000" d="M -72.65425280053609 -30.938549324477183 A 20.90169943749476 20.90169943749476 0 0 0 -68.94421338101729 -33.09016994374947"/>
<path fill="none" stroke="#000" d="M -60.3685421233268 -40.516627806229494 A 20.90169943749473 20.90169943749473 0 0 0 -68.38807699180778 -44.068488377695665"/>
<path fill="none" stroke="#000" d="M -65.75143534003108 -35.95373977259202 A 20.90169943749475 20.90169943749475 0 0 0 -61.35122660655446 -43.54101966249684"/>
<path fill="none" stroke="#000" d="M -68.94421338101729 -33.09016994374947 A 20.901699437494724 20.901699437494724 0 0 0 -65.75143534003108 -35.95373977259202"/>
<path fill="none" stroke="#000" d="M -63.04470103797563 -33.98718219013783 A 20.90169943749476 20.90169943749476 0 0 0 -64.78149510963065 -30.065778087482123"/>
<path fill="none" stroke="#000" d="M -58.77852522924732 -26.356352363038592 A 20.901699437494756 20.901699437494756 0 0 0 -67.35419648693781 -28.196601125010513"/>
<path fill="none" stroke="#000" d="M -64.78149510963067 -30.065778087482123 A 20.901699437494727 20.901699437494727 0 0 0 -65.6813426897523 -21.341161914923738"/>
<path fill="none" stroke="#000" d="M -54.51234942051901 -33.98718219013783 A 20.90169943749473 20.90169943749473 0 0 0 -60.3685421233268 -40.516627806229494"/>
<path fill="none" stroke="#000" d="M -57.18850833516784 -40.516627806229494 A 20.901699437494724 20.901699437494724 0 0 0 -63.04470103797563 -33.98718219013783"/>
<path fill="none" stroke="#000" d="M -56.20582385194017 -43.54101966249684 A 20.901699437494766 20.901699437494766 0 0 0 -51.805615118463535 -35.953739772592016"/>
<path fill="none" stroke="#000" d="M -49.16897346668685 -44.068488377695665 A 20.901699437494766 20.901699437494766 0 0 0 -57.18850833516783 -40.516627806229494"/>
<path fill="none" stroke="#000" d="M -44.90279765795854 -44.5084971874737 A 20.901699437494756 20.901699437494756 0 0 0 -49.16897346668685 -44.068488377695665"/>
<path fill="none" stroke="#000" d="M -50.20285397155681 -47.25044538694038 A 20.90169943749477 20.90169943749477 0 0 0 -46.49281455203802 -49.402066006212664"/>
<path fill="none" stroke="#000" d="M -51.80561511846353 -35.95373977259202 A 20.901699437494734 20.901699437494734 0 0 0 -48.61283707747733 -33.090169943749466"/>
<path fill="none" stroke="#000" d="M -52.77555534886397 -30.065778087482123 A 20.90169943749475 20.90169943749475 0 0 0 -54.51234942051899 -33.98718219013783"/>
<path fill="none" stroke="#000" d="M -50.20285397155682 -28.19660112501051 A 20.90169943749475 20.90169943749475 0 0 0 -58.778525229247315 -26.35635236303859"/>
<path fill="none" stroke="#000" d="M -51.87570776874231 -21.341161914923738 A 20.90169943749475 20.90169943749475 0 0 0 -52.77555534886397 -30.06577808748212"/>
<path fill="none" stroke="#000" d="M -48.53000017437132 -21.341161914923738 A 20.90169943749476 20.90169943749476 0 0 0 -47.630152594249665 -17.147817412475813"/>
<path fill="none" stroke="#000" d="M -52.77555534886397 -17.147817412475813 A 20.90169943749475 20.90169943749475 0 0 0 -51.87570776874231 -21.341161914923738"/>
<path fill="none" stroke="#000" d="M -37.92988754717476 -53.96495403985014 A 20.90169943749475 20.90169943749475 0 0 0 -42.33009628065139 -46.377674149945314"/>
<path fill="none" stroke="#000" d="M -43.312780763879054 -49.402066006212664 A 20.90169943749477 20.90169943749477 0 0 0 -35.29324589539809 -45.85020543474649"/>
<path fill="none" stroke="#000" d="M -42.33009628065139 -46.377674149945314 A 20.90169943749475 20.90169943749475 0 0 0 -43.229943860773034 -37.653057977386936"/>
<path fill="none" stroke="#000" d="M -36.32712640026804 -42.66824842550178 A 20.90169943749474 20.90169943749474 0 0 0 -44.90279765795854 -44.50849718747371"/>
<path fill="none" stroke="#000" d="M -43.229943860773034 -37.653057977386936 A 20.901699437494745 20.901699437494745 0 0 0 -47.63015259424967 -30.06577808748212"/>
<path fill="none" stroke="#000" d="M -48.61283707747733 -33.09016994374947 A 20.901699437494745 20.901699437494745 0 0 0 -40.59330220899636 -29.538309372283297"/>
<path fill="none" stroke="#000" d="M -47.63015259424967 -30.06577808748212 A 20.901699437494745 20.901699437494745 0 0 0 -48.53000017437132 -21.34116191492374"/>
<path fill="none" stroke="#000" d="M -41.627182713866326 -26.35635236303859 A 20.901699437494738 20.901699437494738 0 0 0 -50.20285397155682 -28.19660112501051"/>
<path fill="none" stroke="#000" d="M -35.29324589539809 -45.85020543474649 A 20.90169943749475 20.90169943749475 0 0 0 -31.02707008666976 -45.41019662496846"/>
<path fill="none" stroke="#000" d="M -32.61708698074924 -40.516627806229494 A 20.901699437494766 20.901699437494766 0 0 0 -36.32712640026804 -42.66824842550178"/>
<path fill="none" stroke="#000" d="M -37.917143294347525 -24.204731743766295 A 20.90169943749473 20.90169943749473 0 0 0 -41.627182713866326 -26.35635236303859"/>
<path fill="none" stroke="#000" d="M -40.59330220899637 -29.538309372283297 A 20.901699437494738 20.901699437494738 0 0 0 -36.32712640026804 -29.098300562505255"/>
<path fill="none" stroke="#000" d="M -47.630152594249665 -17.147817412475813 A 20.90169943749476 20.90169943749476 0 0 0 -43.22994386077304 -9.560537522570996"/>
<path fill="none" stroke="#000" d="M -40.59330220899636 -17.675286127674635 A 20.901699437494745 20.901699437494745 0 0 0 -48.61283707747734 -14.123425556208463"/>
<path fill="none" stroke="#000" d="M -31.02707008666976 -45.41019662496846 A 20.90169943749475 20.90169943749475 0 0 0 -22.451398828979265 -47.25044538694038"/>
<path fill="none" stroke="#000" d="M -29.354216289484263 -52.26563583505523 A 20.90169943749475 20.90169943749475 0 0 0 -28.454368709362612 -43.54101966249684"/>
<path fill="none" stroke="#000" d="M -29.42430893976304 -37.65305797738694 A 20.901699437494738 20.901699437494738 0 0 0 -32.61708698074924 -40.516627806229494"/>
<path fill="none" stroke="#000" d="M -28.454368709362612 -43.54101966249684 A 20.901699437494734 20.901699437494734 0 0 0 -26.717574637707592 -39.61961555984114"/>
<path fill="none" stroke="#000" d="M -36.32712640026804 -29.098300562505255 A 20.901699437494738 20.901699437494738 0 0 0 -32.060950591539715 -29.538309372283294"/>
<path fill="none" stroke="#000" d="M -31.02707008666976 -26.35635236303858 A 20.901699437494738 20.901699437494738 0 0 0 -34.73710950618856 -24.204731743766295"/>
<path fill="none" stroke="#000" d="M -34.73710950618856 -24.204731743766295 A 20.901699437494756 20.901699437494756 0 0 0 -40.59330220899636 -17.675286127674635"/>
<path fill="none" stroke="#000" d="M -32.060950591539715 -17.67528612767463 A 20.901699437494724 20.901699437494724 0 0 0 -37.917143294347525 -24.204731743766295"/>
<path fill="none" stroke="#000" d="M -32.060950591539715 -29.53830937228329 A 20.901699437494752 20.901699437494752 0 0 0 -24.04141572305875 -33.09016994374947"/>
<path fill="none" stroke="#000" d="M -25.024100206286416 -30.065778087482116 A 20.901699437494734 20.901699437494734 0 0 0 -29.42430893976304 -37.65305797738694"/>
<path fill="none" stroke="#000" d="M -24.04141572305875 -33.09016994374947 A 20.901699437494752 20.901699437494752 0 0 0 -18.18522302025095 -39.61961555984113"/>
<path fill="none" stroke="#000" d="M -26.717574637707592 -39.61961555984114 A 20.90169943749474 20.90169943749474 0 0 0 -20.861381934899786 -33.090169943749466"/>
<path fill="none" stroke="#000" d="M -22.45139882897927 -28.19660112501051 A 20.901699437494734 20.901699437494734 0 0 0 -31.02707008666976 -26.35635236303858"/>
<path fill="none" stroke="#000" d="M -24.12425262616476 -21.341161914923738 A 20.901699437494738 20.901699437494738 0 0 0 -25.024100206286416 -30.065778087482116"/>
<path fill="none" stroke="#000" d="M -22.451398828979265 -47.25044538694038 A 20.901699437494756 20.901699437494756 0 0 0 -13.875727571288778 -45.41019662496845"/>
<path fill="none" stroke="#000" d="M -16.448428948595925 -43.541019662496836 A 20.90169943749473 20.90169943749473 0 0 0 -15.54858136847427 -52.26563583505522"/>
<path fill="none" stroke="#000" d="M -29.424308939763037 -9.560537522570998 A 20.901699437494738 20.901699437494738 0 0 0 -25.024100206286413 -17.147817412475813"/>
<path fill="none" stroke="#000" d="M -24.041415723058748 -14.123425556208463 A 20.90169943749473 20.90169943749473 0 0 0 -32.060950591539715 -17.67528612767463"/>
<path fill="none" stroke="#000" d="M -11.30302619398163 -56.45898033750315 A 20.901699437494745 20.901699437494745 0 0 0 -12.202873774103281 -52.26563583505522"/>
<path fill="none" stroke="#000" d="M -15.548581368474274 -52.26563583505522 A 20.901699437494745 20.901699437494745 0 0 0 -16.448428948595925 -56.45898033750315"/>
<path fill="none" stroke="#000" d="M -12.285710677209291 -40.51662780622949 A 20.901699437494727 20.901699437494727 0 0 0 -15.478488718195488 -37.653057977386936"/>
<path fill="none" stroke="#000" d="M -18.18522302025094 -39.61961555984113 A 20.901699437494734 20.901699437494734 0 0 0 -16.448428948595925 -43.541019662496836"/>
<path fill="none" stroke="#000" d="M -20.778545031793772 -21.34116191492374 A 20.90169943749473 20.90169943749473 0 0 0 -19.878697451672117 -17.147817412475813"/>
<path fill="none" stroke="#000" d="M -25.024100206286413 -17.147817412475813 A 20.901699437494724 20.901699437494724 0 0 0 -24.124252626164758 -21.34116191492374"/>
<path fill="none" stroke="#000" d="M -6.902817460504999 -64.04626022740797 A 20.901699437494745 20.901699437494745 0 0 0 -11.30302619398163 -56.45898033750315"/>
<path fill="none" stroke="#000" d="M -12.285710677209293 -59.483372193770506 A 20.901699437494756 20.901699437494756 0 0 0 -4.266175808728324 -55.93151162230432"/>
<path fill="none" stroke="#000" d="M -15.47848871819549 -37.653057977386936 A 20.901699437494738 20.901699437494738 0 0 0 -19.87869745167212 -30.06577808748212"/>
<path fill="none" stroke="#000" d="M -20.861381934899782 -33.090169943749466 A 20.901699437494756 20.901699437494756 0 0 0 -12.841847066418818 -29.5383093722833"/>
<path fill="none" stroke="#000" d="M -13.87572757128878 -26.35635236303858 A 20.901699437494734 20.901699437494734 0 0 0 -22.45139882897927 -28.19660112501051"/>
<path fill="none" stroke="#000" d="M -19.87869745167212 -30.065778087482116 A 20.90169943749473 20.90169943749473 0 0 0 -20.778545031793772 -21.34116191492374"/>
<path fill="none" stroke="#000" d="M -12.202873774103285 -52.265635835055214 A 20.90169943749476 20.90169943749476 0 0 0 -11.303026193981628 -43.54101966249684"/>
<path fill="none" stroke="#000" d="M -13.875727571288778 -45.41019662496844 A 20.90169943749472 20.90169943749472 0 0 0 -5.300056313598281 -47.250445386940385"/>
<path fill="none" stroke="#000" d="M -20.848637682072546 -11.259855727365908 A 20.901699437494734 20.901699437494734 0 0 0 -24.041415723058748 -14.123425556208463"/>
<path fill="none" stroke="#000" d="M -19.878697451672117 -17.147817412475813 A 20.901699437494745 20.901699437494745 0 0 0 -18.14190338001709 -13.226413309820103"/>
<path fill="none" stroke="#000" d="M -23.485279333849224 -3.145107122262271 A 20.90169943749473 20.90169943749473 0 0 0 -15.465744465368257 -6.696967693728443"/>
<path fill="none" stroke="#000" d="M -16.44842894859592 -3.6725758374610926 A 20.90169943749474 20.90169943749474 0 0 0 -20.848637682072546 -11.259855727365908"/>
<path fill="none" stroke="#000" d="M -11.303026193981628 -43.54101966249684 A 20.90169943749476 20.90169943749476 0 0 0 -6.902817460505003 -35.95373977259202"/>
<path fill="none" stroke="#000" d="M -4.266175808728323 -44.06848837769567 A 20.901699437494745 20.901699437494745 0 0 0 -12.285710677209293 -40.51662780622949"/>
<path fill="none" stroke="#000" d="M -10.165688151769979 -24.204731743766295 A 20.90169943749474 20.90169943749474 0 0 0 -13.875727571288776 -26.35635236303859"/>
<path fill="none" stroke="#000" d="M -12.841847066418818 -29.5383093722833 A 20.90169943749475 20.90169943749475 0 0 0 -8.575671257690495 -29.09830056250526"/>
<path fill="none" stroke="#000" d="M -1.590016894079485 -49.40206600621268 A 20.901699437494724 20.901699437494724 0 0 0 4.266175808728324 -55.93151162230434"/>
<path fill="none" stroke="#000" d="M -4.266175808728324 -55.93151162230433 A 20.901699437494745 20.901699437494745 0 0 0 1.590016894079485 -49.40206600621268"/>
<path fill="none" stroke="#000" d="M -5.300056313598281 -47.250445386940385 A 20.901699437494724 20.901699437494724 0 0 0 -1.590016894079485 -49.40206600621268"/>
<path fill="none" stroke="#000" d="M 5.329070518200752e-16 -44.50849718747372 A 20.901699437494724 20.901699437494724 0 0 0 -4.266175808728322 -44.06848837769567"/>
<path fill="none" stroke="#000" d="M -15.465744465368257 -6.696967693728443 A 20.90169943749473 20.90169943749473 0 0 0 -9.609551762560457 -13.226413309820103"/>
<path fill="none" stroke="#000" d="M -18.14190338001709 -13.226413309820103 A 20.901699437494727 20.901699437494727 0 0 0 -12.28571067720929 -6.696967693728443"/>
<path fill="none" stroke="#000" d="M -6.902817460505001 -35.95373977259202 A 20.901699437494752 20.901699437494752 0 0 0 -6.002969880383346 -27.22912360003365"/>
<path fill="none" stroke="#000" d="M -8.575671257690495 -29.09830056250526 A 20.901699437494727 20.901699437494727 0 0 0 -3.465134325528481e-16 -30.938549324477187"/>
<path fill="none" stroke="#000" d="M -6.002969880383346 -27.22912360003365 A 20.901699437494752 20.901699437494752 0 0 0 -4.266175808728326 -23.307719497377942"/>
<path fill="none" stroke="#000" d="M -6.97291011078378 -21.341161914923745 A 20.901699437494745 20.901699437494745 0 0 0 -10.16568815176998 -24.204731743766295"/>
<path fill="none" stroke="#000" d="M -9.60955176256045 -13.2264133098201 A 20.901699437494756 20.901699437494756 0 0 0 -1.5900168940794859 -16.778273881286278"/>
<path fill="none" stroke="#000" d="M -2.5727013773071477 -13.753882025018925 A 20.901699437494745 20.901699437494745 0 0 0 -6.972910110783779 -21.341161914923745"/>
<path fill="none" stroke="#000" d="M -12.285710677209288 -6.696967693728443 A 20.901699437494734 20.901699437494734 0 0 0 -8.575671257690491 -4.545347074456151"/>
<path fill="none" stroke="#000" d="M -9.60955176256045 -1.3633900652114388 A 20.901699437494738 20.901699437494738 0 0 0 -13.87572757128877 -1.8033988749894831"/>
<path fill="none" stroke="#000" d="M -1.5900168940794859 -16.778273881286278 A 20.901699437494756 20.901699437494756 0 0 0 4.266175808728326 -23.307719497377942"/>
<path fill="none" stroke="#000" d="M -4.266175808728326 -23.307719497377946 A 20.90169943749475 20.90169943749475 0 0 0 1.5900168940794859 -16.778273881286278"/>
<path fill="none" stroke="#000" d="M -2.5727013773071477 -0.8359213500126181 A 20.901699437494738 20.901699437494738 0 0 0 -1.672853797185498 -9.560537522570998"/>
<path fill="none" stroke="#000" d="M -8.575671257690491 -4.545347074456151 A 20.901699437494738 20.901699437494738 0 0 0 -1.0658141036401504e-15 -2.7050983124842274"/>
<path fill="none" stroke="#000" d="M -1.6728537971854953 -9.560537522571 A 20.90169943749475 20.90169943749475 0 0 0 -2.5727013773071485 -13.753882025018926"/>
<path fill="none" stroke="#000" d="M 2.5727013773071485 -13.753882025018928 A 20.901699437494745 20.901699437494745 0 0 0 1.6728537971854953 -9.560537522571"/>
</g>
</svg>