<?xml version="1.0" encoding="utf-8"?>
<svg width="100%" height="100%" viewBox="-105.0 -105.0 210.0 210.0" preserveAspectRatio="xMidYMid meet" version="1.1" baseProfile="full" xmlns="http://www.w3.org/2000/svg">
<g style="stroke:#fff; stroke-width: 3.0901699437494745; stroke-linejoin: round;">
<path fill="#0035f3" fill-opacity="0.6" d="m30.901699437494752,0.0 l-40.45084971874738,29.389262614623657 l-40.45084971874738,-29.389262614623657 l40.45084971874738,-29.389262614623657z"/>
<path fill="#08f" fill-opacity="0.6" d="m-9.549150281252624,-29.389262614623657 l40.45084971874738,29.389262614623657 l-15.45084971874738,-47.552825814757675 l-40.45084971874738,-29.389262614623657z"/>
<path fill="#08f" fill-opacity="0.6" d="m-9.549150281252624,29.389262614623657 l40.45084971874738,-29.389262614623657 l-15.45084971874738,47.552825814757675 l-40.45084971874738,29.389262614623657z"/>
<path fill="#0035f3" fill-opacity="0.6" d="m80.90169943749474,-0.0 l-49.999999999999986,0.0 l-15.45084971874738,-47.552825814757675 l49.999999999999986,-0.0z"/>
<path fill="#0035f3" fill-opacity="0.6" d="m80.90169943749474,0.0 l-49.999999999999986,0.0 l-15.45084971874738,47.552825814757675 l49.999999999999986,-0.0z"/>
<path fill="none" stroke="#000" d="M -1.6584143239125275 -23.656307364354983 A 115.90169943749476 115.90169943749476 0 0 0 -37.864745084375784 8.816778784387097"/>
<path fill="none" stroke="#000" d="M -37.864745084375784 -8.816778784387097 A 115.90169943749476 115.90169943749476 0 0 0 -1.6584143239125275 23.656307364354983"/>
<path fill="none" stroke="#000" d="M 20.086104634371587 -33.28697807033037 A 115.90169943749474 115.90169943749474 0 0 0 -1.6584143239125275 -23.656307364354983"/>
<path fill="none" stroke="#000" d="M -12.563143220705603 -38.665379065540534 A 115.90169943749476 115.90169943749476 0 0 0 3.3155948031231546 -56.36960459914477"/>
<path fill="none" stroke="#000" d="M -1.6584143239125275 23.656307364354983 A 115.90169943749474 115.90169943749474 0 0 0 20.086104634371587 33.28697807033037"/>
<path fill="none" stroke="#000" d="M 3.3155948031231546 56.36960459914477 A 115.90169943749476 115.90169943749476 0 0 0 -12.563143220705603 38.665379065540534"/>
<path fill="none" stroke="#000" d="M 68.46484265820034 -38.2767093638408 A 115.90169943749474 115.90169943749474 0 0 0 20.086104634371587 -33.28697807033037"/>
<path fill="none" stroke="#000" d="M 30.45084971874737 -47.552825814757675 A 115.90169943749473 115.90169943749473 0 0 0 40.655185473268986 0.0"/>
<path fill="none" stroke="#000" d="M 20.086104634371587 33.28697807033037 A 115.90169943749474 115.90169943749474 0 0 0 68.46484265820034 38.2767093638408"/>
<path fill="none" stroke="#000" d="M 40.655185473268986 0.0 A 115.90169943749473 115.90169943749473 0 0 0 30.45084971874737 47.552825814757675"/>
</g>
</svg>