<?xml version="1.0" encoding="utf-8"?>
<svg width="100%" height="100%" viewBox="-105.0 -105.0 210.0 210.0" preserveAspectRatio="xMidYMid meet" version="1.1" baseProfile="full" xmlns="http://www.w3.org/2000/svg">
<g style="stroke:#fff; stroke-width: 1.9098300562505264; stroke-linejoin: round;">
<path fill="#0035f3" fill-opacity="0.6" d="m-95.10565162951535,-30.901699437494738 l36.327126400268035,-11.803398874989487 l22.45139882897928,30.90169943749474 l-36.327126400268035,11.803398874989487z"/>
<path fill="#0035f3" fill-opacity="0.6" d="m-58.778525229247315,-42.705098312484225 l36.32712640026804,11.80339887498949 l22.45139882897927,-30.90169943749475 l-36.32712640026804,-11.80339887498949z"/>
<path fill="#08f" fill-opacity="0.6" d="m-22.45139882897927,-30.901699437494734 l22.45139882897927,30.901699437494734 l-36.327126400268035,-11.803398874989481 l-22.45139882897927,-30.901699437494734z"/>
<path fill="#0035f3" fill-opacity="0.6" d="m0.0,0.0 l-22.45139882897927,-30.901699437494734 l22.45139882897927,-30.90169943749475 l22.45139882897927,30.901699437494734z"/>
<path fill="none" stroke="#000" d="M -77.03384089977702 -6.027985878905948 A 88.54101966249686 88.54101966249686 0 0 0 -43.06254604896182 -21.07390870623791"/>
<path fill="none" stroke="#000" d="M -47.225264320348444 -8.262379212492634 A 88.54101966249684 88.54101966249684 0 0 0 -65.86484763054372 -40.40261259044656"/>
<path fill="none" stroke="#000" d="M -6.735419648693782 -52.53288904374106 A 88.54101966249686 88.54101966249686 0 0 0 -40.70671449950899 -67.57881187107301"/>
<path fill="none" stroke="#000" d="M -29.53772123027567 -33.20418515953241 A 88.54101966249685 88.54101966249685 0 0 0 -10.898137920080416 -65.34441853748633"/>
<path fill="none" stroke="#000" d="M -18.07181072973832 -24.873713558588783 A 88.54101966249682 88.54101966249682 0 0 0 -25.428988480187623 -8.262379212492636"/>
<path fill="none" stroke="#000" d="M -43.06254604896182 -21.073908706237905 A 88.54101966249685 88.54101966249685 0 0 0 -29.537721230275665 -33.2041851595324"/>
<path fill="none" stroke="#000" d="M 18.07181072973832 -24.873713558588793 A 88.54101966249686 88.54101966249686 0 0 0 -6.735419648693782 -52.53288904374106"/>
<path fill="none" stroke="#000" d="M 6.735419648693782 -52.532889043741065 A 88.54101966249682 88.54101966249682 0 0 0 -18.07181072973832 -24.873713558588783"/>
</g>
</svg>